<svg width="124" height="50" viewBox="0 0 124 20" fill="none" xmlns="http://www.w3.org/2000/svg">
  <path d="M17.4546 0.363458V19.3635H14.7273V6.99982L11.0001 10.7271L10.091 11.6362L9.09096 12.6362L3.27278 6.818L0.545505 4.09073V0.181641L9.09096 8.72709L17.4546 0.363458ZM0.45459 2.99982L3.18186 6.54528V19.3635H0.45459V2.99982Z" fill="white"/>
  <path d="M32.3637 5.1818L34.1819 8.45452L28.1819 19.3636H24.5455L32.3637 5.1818ZM45.6364 19.3636H42.0001L35.091 6.81816L33.2728 3.54543L35.091 0.272705L36.9092 3.54543L45.6364 19.3636Z" fill="white"/>
  <path d="M45.6364 19.3636H42.0001L36.0001 8.45452L37.8183 5.1818L45.6364 19.3636ZM33.2728 3.54543L35.091 0.272705L36.9092 3.54543L35.091 6.81816L28.1819 19.3636H24.5455L33.2728 3.54543Z" fill="white"/>
  <path d="M46.4546 3.0908V0.363525H63.4546V3.0908H46.4546ZM53.4546 19.3635V4.45443H56.1819V19.3635H53.4546Z" fill="white"/>
  <path d="M88.2728 19.3635H85.091L79.6365 10.3635L79.4547 10.0908C79.3638 10.0908 79.3637 10.0908 79.2728 10.0908C79.2728 10.0908 79.2728 10.0908 79.1819 10.0908C79.091 10.0908 79.0001 10.0908 79.0001 10.1817C78.8183 10.1817 78.6365 10.2726 78.5456 10.2726C78.4547 10.2726 78.4547 10.2726 78.3637 10.2726H78.2728C78.1819 10.2726 78.1819 10.2726 78.091 10.2726H78.0001C77.9092 10.2726 77.9092 10.2726 77.8183 10.2726C77.7274 10.2726 77.6365 10.2726 77.5456 10.2726C77.4547 10.2726 77.3638 10.2726 77.3638 10.2726C77.2728 10.2726 77.2728 10.2726 77.1819 10.2726H77.091C77.0001 10.2726 77.0001 10.2726 76.9092 10.2726H73.3637V19.1817H70.6365V0.0908203H86.4547C86.4547 0.272639 86.4547 0.545365 86.4547 0.727183C86.4547 1.45446 86.3638 2.09082 86.2728 2.81809C85.9092 4.63628 84.9092 6.27264 83.6365 7.54537C83.5456 7.63627 83.3638 7.81809 83.2728 7.909L83.1819 7.99991C83.091 8.09082 83.091 8.09082 83.0001 8.18173L82.9092 8.27264C82.9092 8.27264 82.8183 8.27264 82.8183 8.36355C82.7274 8.45446 82.6365 8.54537 82.4547 8.63628C82.3637 8.63628 82.3637 8.72718 82.2728 8.72718C82.1819 8.72718 82.1819 8.81809 82.091 8.81809C82.091 8.81809 82.091 8.81809 82.0001 8.81809L82.3638 9.36355L88.2728 19.3635ZM81.5456 5.81809C82.3637 4.99991 82.9092 4.09082 83.2728 3.09082H73.2728V7.72718H76.8183C77.7274 7.72718 78.6365 7.54537 79.5456 7.18173C80.2728 6.81809 81.0001 6.36355 81.5456 5.81809Z" fill="white"/>
  <path d="M95.6365 19.3636V0.272705H98.3638V19.3636H95.6365ZM95.6365 0.272705V19.3636H98.3638V0.272705H95.6365V0.272705ZM98.2729 0.363615H95.7274V19.2727H98.2729V0.363615Z" fill="white"/>
  <path d="M112.182 10.7272L113.909 12.9999L109.182 19.3635H105.818L112.182 10.7272ZM123.727 19.3635H120.364L114.818 11.8181L113.091 9.54534L112.818 9.18171L106.273 0.363525H109.636L114.455 6.90898L114.727 7.27262L115 6.90898L119.818 0.363525H123.182L116.636 9.18171L116.364 9.54534L123.727 19.3635Z" fill="white"/>
  <path d="M39.3636 11.1819H30.2727V13.9092H39.3636V11.1819Z" fill="white"/>
</svg>
