<svg width="91" height="50" viewBox="0 0 91 20" fill="none" xmlns="http://www.w3.org/2000/svg">
  <path d="M2.90916 0.181641H0.181885V19.3635H14.9091V16.6362H2.90916V0.181641Z" fill="url(#paint0_linear_1550_2)"/>
  <path d="M32.5456 1.81792L31.7274 0.272461L30.9093 1.81792L29.9093 3.54519L21.0911 19.3634H24.7274L27.7274 13.9997H35.6365L38.6365 19.3634H42.2729L33.5456 3.54519L32.5456 1.81792ZM29.182 11.2725L31.6365 6.81792L34.0911 11.2725H29.182Z" fill="url(#paint1_linear_1550_2)"/>
  <path d="M64.8183 9.81807C64.5456 9.54534 64.2729 9.36353 64.0001 9.18171C64.1819 8.90898 64.3637 8.72716 64.5456 8.45444C65.0001 7.63625 65.2729 6.72716 65.2729 5.81807C65.2729 4.81807 65.0001 3.99989 64.5456 3.18171V3.0908C63.6365 1.45443 61.8183 0.363525 59.8183 0.363525H49.7274V3.18171H60.3638C61.5456 3.45444 62.4547 4.54534 62.4547 5.81807C62.4547 7.18171 61.4547 8.27262 60.1819 8.45444H52.3637V4.54534H49.6365V19.4544H59.7274C60.0001 19.4544 60.1819 19.4544 60.4547 19.3635C60.7274 19.3635 60.9092 19.4544 61.1819 19.4544C63.2729 19.4544 65.0001 18.3635 66.0001 16.6363C66.4547 15.8181 66.7274 14.909 66.7274 13.9999C66.7274 12.9999 66.4547 12.0908 66.0001 11.3635C65.6365 10.7272 65.2729 10.2726 64.8183 9.81807ZM61.7274 16.5453H52.3637V11.2726H61.6365C62.9092 11.5453 63.8183 12.6363 63.8183 13.909C63.9092 15.1817 62.9092 16.2726 61.7274 16.5453Z" fill="url(#paint2_linear_1550_2)"/>
  <path d="M84.8182 8.45428H79.3636C79.1818 8.45428 79.0909 8.45428 78.9091 8.45428C78.8182 8.45428 78.7272 8.45428 78.6363 8.45428C77.2727 8.36337 76.1818 7.18155 76.1818 5.72701C76.1818 4.27246 77.3636 2.99973 78.9091 2.99973H84.9091C86.2727 3.09064 87.4545 4.18155 87.5454 5.54519H90.2727C90.2727 4.6361 90 3.72701 89.5454 2.99973C88.6363 1.36337 86.9091 0.272461 84.9091 0.272461C84.8182 0.272461 84.8182 0.272461 84.7272 0.272461C84.6363 0.272461 84.6363 0.272461 84.5454 0.272461H78.7272C76.7272 0.272461 74.9091 1.36337 74 2.99973C73.5454 3.81792 73.2727 4.72701 73.2727 5.72701C73.2727 6.72701 73.5454 7.6361 74 8.45428C74.2727 8.81791 74.5454 9.18155 74.8182 9.54519C75.8182 10.5452 77.1818 11.1816 78.7272 11.1816H84.6363C86.0909 11.1816 87.3636 12.3634 87.3636 13.9088C87.3636 15.4543 86.1818 16.6361 84.6363 16.6361H78.7272C77.2727 16.6361 76.0909 15.5452 76 14.0906H73.2727C73.2727 14.9997 73.5454 15.9088 74 16.6361C74.9091 18.2725 76.7272 19.3634 78.7272 19.3634H84.6363C86.6363 19.3634 88.4545 18.2725 89.3636 16.6361C89.8182 15.8179 90.0909 14.9088 90.0909 13.9088C90.0909 12.9088 89.8182 11.9997 89.3636 11.1816C88.6363 9.54519 86.8182 8.45428 84.8182 8.45428Z" fill="url(#paint3_linear_1550_2)"/>
  <defs>
  <linearGradient id="paint0_linear_1550_2" x1="0.416794" y1="11.1471" x2="94.209" y2="-6.76834" gradientUnits="userSpaceOnUse">
  <stop stop-color="#1AB8DF"/>
  <stop offset="1" stop-color="#14EC24"/>
  </linearGradient>
  <linearGradient id="paint1_linear_1550_2" x1="3.21333" y1="16.2686" x2="97.0056" y2="-1.64682" gradientUnits="userSpaceOnUse">
  <stop stop-color="#1AB8DF"/>
  <stop offset="1" stop-color="#14EC24"/>
  </linearGradient>
  <linearGradient id="paint2_linear_1550_2" x1="5.62652" y1="19.3841" x2="99.4189" y2="1.46868" gradientUnits="userSpaceOnUse">
  <stop stop-color="#1AB8DF"/>
  <stop offset="1" stop-color="#14EC24"/>
  </linearGradient>
  <linearGradient id="paint3_linear_1550_2" x1="8.30762" y1="23.902" x2="102.1" y2="5.98655" gradientUnits="userSpaceOnUse">
  <stop stop-color="#1AB8DF"/>
  <stop offset="1" stop-color="#14EC24"/>
  </linearGradient>
  </defs>
</svg>
