<svg viewBox="0 0 289 50" fill="none" xmlns="http://www.w3.org/2000/svg"><g clip-path="url(#a)"><path d="M84.455 15.364v19h-2.728V22L78 25.727l-.909.91-1 1-5.818-5.819-2.727-2.727v-3.91l8.545 8.546 8.364-8.364Zm-17 2.636 2.727 3.545v12.819h-2.727V18ZM99.364 20.182l1.818 3.273-6 10.909h-3.637l7.819-14.182Zm13.272 14.182H109l-6.909-12.546-1.818-3.273 1.818-3.272 1.818 3.272 8.727 15.819Z" fill="#fff"/><path d="M112.636 34.364H109l-6-10.91 1.818-3.272 7.818 14.182Zm-12.363-15.819 1.818-3.272 1.818 3.272-1.818 3.273-6.91 12.546h-3.636l8.728-15.819ZM113.455 18.09v-2.726h17v2.727h-17Zm7 16.274v-14.91h2.727v14.91h-2.727ZM155.273 34.364h-3.182l-5.455-9-.181-.273h-.273c-.091 0-.182 0-.182.09-.182 0-.364.092-.454.092H140.364v8.909h-2.728V15.09h15.819v.636c0 .727-.091 1.364-.182 2.091-.364 1.818-1.364 3.455-2.637 4.727l-.363.364-.091.09-.182.183-.091.09s-.091 0-.091.091a1.262 1.262 0 0 1-.363.273c-.091 0-.091.091-.182.091s-.091.091-.182.091H149l.364.545 5.909 10Zm-6.727-13.546a7.311 7.311 0 0 0 1.727-2.727h-10v4.636h3.545c.909 0 1.818-.182 2.728-.545.727-.364 1.454-.819 2-1.364ZM162.636 34.364V15.273h2.728v19.09h-2.728Zm0-19.091v19.09h2.728v-19.09h-2.728Zm2.637.09h-2.546v18.91h2.546v-18.91ZM179.182 25.727 180.909 28l-4.727 6.364h-3.364l6.364-8.637Zm11.545 8.637h-3.363l-5.546-7.546-1.727-2.273-.273-.363-6.545-8.818h3.364l4.818 6.545.272.364.273-.364 4.818-6.545h3.364l-6.545 8.818-.273.363 7.363 9.819Z" fill="#fff"/><path d="M200.909 15.182h-2.727v19.181h14.727v-2.727h-12V15.182Z" fill="url(#b)"/><path d="m230.546 16.818-.819-1.546-.818 1.546-1 1.727-8.818 15.818h3.636l3-5.363h7.91l3 5.363h3.636l-8.727-15.818-1-1.727Zm-3.364 9.454 2.455-4.454 2.454 4.454h-4.909Z" fill="url(#c)"/><path d="M262.818 24.818c-.272-.273-.545-.455-.818-.636.182-.273.364-.455.546-.728.454-.818.727-1.727.727-2.636 0-1-.273-1.818-.727-2.636v-.091c-.91-1.637-2.728-2.728-4.728-2.728h-10.091v2.819h10.637a2.729 2.729 0 0 1 2.091 2.636c0 1.364-1 2.455-2.273 2.636h-7.818v-3.909h-2.728v14.91h10.091c.273 0 .455 0 .728-.091.272 0 .454.09.727.09 2.091 0 3.818-1.09 4.818-2.818.455-.818.727-1.727.727-2.636 0-1-.272-1.91-.727-2.637a6.931 6.931 0 0 0-1.182-1.545Zm-3.091 6.727h-9.363v-5.272h9.272c1.273.272 2.182 1.363 2.182 2.636.091 1.273-.909 2.364-2.091 2.636Z" fill="url(#d)"/><path d="M282.818 23.454H276.636c-1.363-.09-2.454-1.272-2.454-2.727 0-1.454 1.182-2.727 2.727-2.727h6c1.364.09 2.546 1.182 2.636 2.545h2.728c0-.909-.273-1.818-.728-2.545a5.278 5.278 0 0 0-4.636-2.727H276.727c-2 0-3.818 1.09-4.727 2.727a5.549 5.549 0 0 0-.727 2.727c0 1 .272 1.91.727 2.727l.818 1.091c1 1 2.364 1.637 3.909 1.637h5.909c1.455 0 2.728 1.181 2.728 2.727 0 1.545-1.182 2.727-2.728 2.727h-5.909c-1.454 0-2.636-1.09-2.727-2.545h-2.727c0 .909.272 1.818.727 2.545.909 1.637 2.727 2.727 4.727 2.727h5.909c2 0 3.819-1.09 4.728-2.727a5.56 5.56 0 0 0 .727-2.727c0-1-.273-1.91-.727-2.727-.728-1.637-2.546-2.728-4.546-2.728Z" fill="url(#e)"/><path d="M106.364 26.182h-9.091v2.727h9.091v-2.727Z" fill="#fff"/><path d="M40.727 5.545C36.455 2.091 31.091.091 25.637 0a25.394 25.394 0 0 0-10.728 2.09c-3.09 1.365-5.818 3.365-8.09 5.82h3c1.817-1.546 3.817-2.91 6-3.82 2.817-1.363 6-2 9.18-2 6.092 0 11.91 2.365 16.183 6.728C45.545 13.182 47.909 18.91 47.909 25c0 2-.273 4-.727 5.91C46.727 32.726 46 34.363 45.09 36H31.909V25.182l.09-4.364-2.908 4.546-4.182 6.363-3.454-5.363L18 20.909V36.09h-6.182V16.183l-2.09 2.636v19.273H20.09v-10L23.909 34c.182.364 1 1.455 1 1.455s1-1.364 1-1.455l3.91-6V38.091h15.908a1 1 0 0 0 .91-.546l.09-.09c1.091-1.91 1.91-3.91 2.455-6C49.727 29.364 50 27.182 50 25c0-7.545-3.364-14.636-9.273-19.455Z" fill="url(#f)"/><path d="M34.818 45.727c-3.09 1.455-6.363 2.182-9.818 2.182-6.09 0-11.91-2.363-16.182-6.727C4.455 36.818 2.091 31.09 2.091 25c0-2.273.364-4.454 1-6.636.545-1.91 1.364-3.818 2.454-5.546H19l4.273 7L25 22.728l1.727-2.91 4.273-7h7.182v19.637l2.09-2.546V10.727H29.82l-.546 1L25 18.637l-4.273-7-.545-1H4.364C2.818 12.817 1.727 15.181 1 17.727.364 20.091 0 22.546 0 25c0 6.637 2.636 13 7.364 17.636C12.09 47.364 18.364 50 25 50c3.727 0 7.364-.818 10.636-2.364 3.273-1.545 6.182-3.818 8.546-6.636h-2.818c-1.91 1.91-4.091 3.546-6.546 4.727Z" fill="url(#g)"/></g><defs><linearGradient id="b" x1="198.417" y1="26.147" x2="292.209" y2="8.232" gradientUnits="userSpaceOnUse"><stop stop-color="#1AB8DF"/><stop offset="1" stop-color="#14EC24"/></linearGradient><linearGradient id="c" x1="201.213" y1="31.269" x2="295.006" y2="13.353" gradientUnits="userSpaceOnUse"><stop stop-color="#1AB8DF"/><stop offset="1" stop-color="#14EC24"/></linearGradient><linearGradient id="d" x1="203.627" y1="34.384" x2="297.419" y2="16.469" gradientUnits="userSpaceOnUse"><stop stop-color="#1AB8DF"/><stop offset="1" stop-color="#14EC24"/></linearGradient><linearGradient id="e" x1="206.308" y1="38.902" x2="300.1" y2="20.987" gradientUnits="userSpaceOnUse"><stop stop-color="#1AB8DF"/><stop offset="1" stop-color="#14EC24"/></linearGradient><linearGradient id="f" x1="3.938" y1="43.34" x2="42.612" y2="8.285" gradientUnits="userSpaceOnUse"><stop stop-color="#1AB8DF"/><stop offset="1" stop-color="#14EC24"/></linearGradient><linearGradient id="g" x1="4.527" y1="43.99" x2="43.2" y2="8.935" gradientUnits="userSpaceOnUse"><stop stop-color="#1AB8DF"/><stop offset="1" stop-color="#14EC24"/></linearGradient><clipPath id="a"><path fill="#fff" d="M0 0h288.273v50H0z"/></clipPath></defs></svg>