<svg viewBox="0 0 22 20" fill="none" xmlns="http://www.w3.org/2000/svg"><g clip-path="url(#a)" fill-rule="evenodd" clip-rule="evenodd"><path d="M1.48 0h19.04c.404 0 .774.17 1.043.442.302.272.437.612.437 1.055v12.789a1.5 1.5 0 0 1-.437 1.054c-.27.306-.606.442-1.043.442h-.067v3.266c0 .952-.606 1.258-1.38.68l-5.214-3.946H1.48c-.404 0-.774-.17-1.076-.442A1.631 1.631 0 0 1 0 14.286V1.496C0 1.089.168.715.404.443.706.17 1.076 0 1.48 0Z" fill="#fff"/><path d="M7.266 6.735c-.336-.34-.74-.476-1.177-.476-.438 0-.841.17-1.144.476-.303.272-.471.714-.471 1.156 0 .442.202.885.47 1.123.337.34.707.51 1.145.51.437 0 .874-.204 1.177-.51.303-.272.47-.68.47-1.123 0-.442-.167-.884-.47-1.156ZM17.055 6.735c-.303-.34-.706-.476-1.144-.476-.437 0-.874.17-1.143.476-.303.272-.471.714-.471 1.156 0 .442.201.885.47 1.123.303.34.707.51 1.144.51.438 0 .875-.204 1.144-.51.336-.272.471-.68.471-1.123 0-.442-.168-.884-.471-1.156ZM12.144 6.735c-.303-.34-.707-.476-1.144-.476-.437 0-.874.17-1.144.476-.336.272-.47.714-.47 1.156 0 .442.168.885.47 1.123a1.5 1.5 0 0 0 1.144.51c.438 0 .875-.204 1.144-.51.303-.272.47-.68.47-1.123a1.453 1.453 0 0 0-.47-1.156Z" fill="#3B7FE5"/></g><defs><clipPath id="a"><path fill="#fff" d="M0 0h22v20H0z"/></clipPath></defs></svg>