<svg viewBox="0 0 25 23" fill="none" xmlns="http://www.w3.org/2000/svg"><path d="M21.19 0H2.862C1.254 0 0 1.275 0 2.876v13.923c0 1.601 1.254 2.876 2.83 2.876h5.627c.868 0 1.64.49 2.058 1.274l.836 1.634c.29.556 1.06.556 1.318 0l.836-1.634a2.294 2.294 0 0 1 2.058-1.274h5.627c1.576 0 2.83-1.275 2.83-2.876V2.876C24.02 1.275 22.734 0 21.19 0Z" fill="#fff"/><path d="M14.245 5.72c-.965 0-1.801.555-2.22 1.405-.417-.817-1.253-1.406-2.218-1.406-1.35 0-2.444 1.079-2.508 2.452 0 2.582 4.727 6.373 4.727 6.373s4.695-3.792 4.695-6.373c-.033-1.34-1.126-2.452-2.476-2.452Z" fill="#E5476D"/></svg>