<svg viewBox="0 0 17 26" fill="none" xmlns="http://www.w3.org/2000/svg"><path d="M15.321 20.883c-1.091 1.073-2.77 1.733-4.87 1.98V26H7.599v-3.054a15.173 15.173 0 0 1-3.946-.743c-1.26-.412-2.267-.908-3.022-1.485l1.51-3.385c.672.496 1.512.99 2.52 1.321.923.33 1.93.578 2.938.66v-4.622c-1.344-.33-2.435-.66-3.358-1.073-.924-.413-1.68-.99-2.267-1.733-.588-.743-.924-1.734-.924-2.972 0-1.568.588-2.806 1.68-3.962 1.175-.99 2.77-1.65 4.869-1.898V0h2.854v3.054c2.35.165 4.197.743 5.708 1.65L14.733 8.09a10.889 10.889 0 0 0-4.281-1.403v4.704c1.343.33 2.434.66 3.358.991.923.413 1.679.908 2.267 1.65.587.744.923 1.734.923 2.972 0 1.568-.588 2.806-1.679 3.88ZM6.086 9.905c.336.33.84.578 1.512.743v-3.88c-.672.165-1.26.413-1.596.826-.335.412-.503.743-.503 1.238.084.412.252.825.587 1.073Zm5.877 8.666c.336-.33.504-.742.504-1.155 0-.495-.168-.826-.504-1.156-.336-.33-.84-.578-1.511-.743v3.797c.671-.165 1.175-.412 1.511-.743Z" fill="#fff"/></svg>