<svg viewBox="0 0 38 30" fill="none" xmlns="http://www.w3.org/2000/svg"><g clip-path="url(#a)"><path d="M32.17 2.496A30.27 30.27 0 0 0 24.31 0c-.313.637-.73 1.434-.99 2.124a29.81 29.81 0 0 0-8.693 0c-.26-.69-.676-1.487-1.04-2.124-2.76.478-5.362 1.327-7.861 2.496C.833 10.142-.521 17.628.156 24.956 3.436 27.45 6.611 28.99 9.786 30c.781-1.062 1.458-2.23 2.082-3.451a16.687 16.687 0 0 1-3.227-1.593l.78-.637c6.248 2.973 13.015 2.973 19.21 0l.78.637a20.272 20.272 0 0 1-3.227 1.593c.572 1.22 1.3 2.39 2.082 3.451 3.123-1.009 6.35-2.496 9.63-5.044.729-8.496-1.406-15.876-5.726-22.46ZM12.7 20.442c-1.874 0-3.435-1.805-3.435-3.982 0-2.177 1.51-3.982 3.435-3.982 1.926 0 3.436 1.805 3.436 3.982-.052 2.177-1.562 3.982-3.436 3.982Zm12.598 0c-1.874 0-3.436-1.805-3.436-3.982 0-2.177 1.51-3.982 3.436-3.982s3.435 1.805 3.435 3.982c0 2.177-1.51 3.982-3.435 3.982Z" fill="#fff"/></g><defs><clipPath id="a"><path fill="#fff" d="M0 0h38v30H0z"/></clipPath></defs></svg>