<svg viewBox="0 0 38 37" fill="none" xmlns="http://www.w3.org/2000/svg"><path d="M18.692 0C8.368 0 0 8.266 0 18.456c0 8.15 5.352 15.074 12.785 17.515.935.173 1.278-.402 1.278-.89 0-.438-.015-1.602-.03-3.138-5.198 1.113-6.293-2.478-6.293-2.478-.847-2.133-2.074-2.7-2.074-2.7-1.701-1.142.124-1.12.124-1.12 1.877.129 2.862 1.903 2.862 1.903 1.665 2.822 4.374 2.003 5.44 1.53.168-1.193.65-2.004 1.19-2.471-4.147-.467-8.513-2.047-8.513-9.12 0-2.018.73-3.663 1.927-4.956-.197-.466-.832-2.34.183-4.883 0 0 1.57-.495 5.14 1.889 1.49-.41 3.089-.61 4.68-.618 1.585.007 3.184.208 4.681.625 3.57-2.384 5.133-1.889 5.133-1.889 1.022 2.542.38 4.417.19 4.884 1.197 1.292 1.92 2.937 1.92 4.955 0 7.088-4.366 8.646-8.535 9.106.671.567 1.27 1.694 1.27 3.418 0 2.47-.022 4.46-.022 5.063 0 .495.336 1.07 1.285.89 7.412-2.449 12.764-9.364 12.764-17.515C37.385 8.266 29.017 0 18.692 0Z" fill="#fff"/></svg>