<svg width="20" height="20" viewBox="0 0 20 20" fill="none" xmlns="http://www.w3.org/2000/svg">
  <g clip-path="url(#clip0_2148_2304)">
  <path d="M14.585 0H5.41504C2.42676 0 0 2.42676 0 5.41504V14.5898C0 17.5732 2.42676 20.0049 5.41504 20.0049H14.5898C17.5732 20.0049 20.0049 17.5781 20.0049 14.5898V5.41504C20 2.42676 17.5732 0 14.585 0ZM10 15.4687C6.98242 15.4687 4.53125 13.0176 4.53125 10C4.53125 6.98242 6.98242 4.53125 10 4.53125C13.0176 4.53125 15.4687 6.98242 15.4687 10C15.4687 13.0176 13.0176 15.4687 10 15.4687ZM15.6006 5.82031C14.7119 5.82031 13.9844 5.09766 13.9844 4.2041C13.9844 3.31055 14.707 2.58789 15.6006 2.58789C16.4941 2.58789 17.2168 3.31055 17.2168 4.2041C17.2168 5.09766 16.4893 5.82031 15.6006 5.82031Z" fill="#374144"/>
  <path d="M9.99999 5.70312C7.63183 5.70312 5.70312 7.63184 5.70312 10C5.70312 12.3682 7.63183 14.2969 9.99999 14.2969C12.3682 14.2969 14.2969 12.3682 14.2969 10C14.2969 7.63184 12.3682 5.70312 9.99999 5.70312Z" fill="#374144"/>
  <path d="M15.6006 3.75977C15.3564 3.75977 15.1562 3.95996 15.1562 4.2041C15.1562 4.44824 15.3564 4.64844 15.6006 4.64844C15.8447 4.64844 16.0449 4.44824 16.0449 4.2041C16.0449 3.95996 15.8447 3.75977 15.6006 3.75977Z" fill="#374144"/>
  </g>
  <defs>
  <clipPath id="clip0_2148_2304">
  <rect width="20" height="20" fill="white"/>
  </clipPath>
  </defs>
</svg>
