<svg width="20" height="21" viewBox="0 0 20 21" fill="none" xmlns="http://www.w3.org/2000/svg">
  <g clip-path="url(#clip0_2077_1553)">
  <path d="M4.65316 6.93585H0.637034C0.459614 6.93585 0.314453 7.08049 0.314453 7.25727V20.1058C0.314453 20.2826 0.459614 20.4272 0.637034 20.4272H4.65316C4.83058 20.4272 4.97574 20.2826 4.97574 20.1058V7.25727C4.97574 7.08049 4.83058 6.93585 4.65316 6.93585Z" fill="white"/>
  <path d="M2.65323 0.547745C1.18548 0.547745 0 1.72894 0 3.18334C0 4.63774 1.18548 5.81894 2.65323 5.81894C4.1129 5.81894 5.29839 4.63774 5.29839 3.18334C5.29839 1.72894 4.1129 0.547745 2.65323 0.547745Z" fill="white"/>
  <path d="M14.8709 6.61444C13.258 6.61444 12.0644 7.30548 11.3467 8.09295V7.25727C11.3467 7.08049 11.2015 6.93586 11.0241 6.93586H7.16926C6.99184 6.93586 6.84668 7.08049 6.84668 7.25727V20.1058C6.84668 20.2826 6.99184 20.4272 7.16926 20.4272H11.1773C11.3547 20.4272 11.4999 20.2826 11.4999 20.1058V13.7498C11.4999 11.6044 12.0806 10.7687 13.5806 10.7687C15.2096 10.7687 15.3467 12.1106 15.3467 13.8543V20.1058C15.3467 20.2826 15.4918 20.4272 15.6693 20.4272H19.6773C19.8548 20.4272 19.9999 20.2826 19.9999 20.1058V13.0588C19.9999 9.86876 19.387 6.61444 14.8709 6.61444Z" fill="white"/>
  </g>
  <defs>
  <clipPath id="clip0_2077_1553">
  <rect width="20" height="20" fill="white" transform="translate(0 0.507568)"/>
  </clipPath>
  </defs>
</svg>
