<svg viewBox="0 0 32 25" fill="none" xmlns="http://www.w3.org/2000/svg"><g clip-path="url(#a)"><path d="m29.063 2.936 2.516-2.41V0h-8.725l-6.217 15.485L9.547 0H.396v.526l2.944 3.545c.288.263.436.641.395 1.028V19.02c.09.502-.074 1.02-.428 1.382L0 24.424v.518h9.4v-.526l-3.314-4.005a1.647 1.647 0 0 1-.461-1.381V6.982l8.257 17.969h.962L21.94 6.98V21.3c0 .379 0 .453-.247.7l-2.55 2.466v.527H31.53v-.527l-2.46-2.41a.725.725 0 0 1-.279-.698V3.643a.695.695 0 0 1 .271-.707Z" fill="#fff"/></g><defs><clipPath id="a"><path fill="#fff" d="M0 0h31.579v25H0z"/></clipPath></defs></svg>