<svg viewBox="0 0 37 30" fill="none" xmlns="http://www.w3.org/2000/svg"><g clip-path="url(#a)"><path d="M36.28 3.548a15.163 15.163 0 0 1-4.288 1.197A7.495 7.495 0 0 0 35.266.562a14.758 14.758 0 0 1-4.72 1.832A7.383 7.383 0 0 0 25.12 0c-4.117 0-7.433 3.404-7.433 7.572 0 .599.05 1.176.17 1.724C11.67 8.993 6.2 5.97 2.523 1.377a7.695 7.695 0 0 0-1.02 3.83 7.601 7.601 0 0 0 3.301 6.288 7.22 7.22 0 0 1-3.359-.93v.086c0 3.678 2.58 6.736 5.96 7.436a7.403 7.403 0 0 1-1.949.252c-.475 0-.957-.029-1.41-.13.964 3 3.699 5.2 6.951 5.272a14.8 14.8 0 0 1-9.218 3.23c-.61 0-1.198-.028-1.779-.1a20.664 20.664 0 0 0 11.408 3.396c13.69 0 21.172-11.538 21.172-21.54 0-.332-.014-.657-.028-.981 1.474-1.068 2.714-2.402 3.727-3.938Z" fill="#fff"/></g><defs><clipPath id="a"><path fill="#fff" d="M0 0h36.279v30H0z"/></clipPath></defs></svg>