<?xml version="1.0" standalone="no"?>
<!DOCTYPE svg PUBLIC "-//W3C//DTD SVG 20010904//EN"
 "http://www.w3.org/TR/2001/REC-SVG-20010904/DTD/svg10.dtd">
<svg version="1.0" xmlns="http://www.w3.org/2000/svg"
 width="800.000000pt" height="800.000000pt" viewBox="0 0 800.000000 800.000000"
 preserveAspectRatio="xMidYMid meet">
<metadata>
Created by potrace 1.14, written by Peter Selinger 2001-2017
</metadata>
<g transform="translate(0.000000,800.000000) scale(0.100000,-0.100000)"
fill="#000000" stroke="none">
<path d="M3907 7944 c-1 -1 -60 -4 -132 -8 -71 -3 -141 -8 -155 -10 -14 -3
-54 -7 -90 -11 -132 -12 -391 -62 -535 -102 -49 -14 -97 -26 -105 -28 -46 -9
-284 -95 -406 -146 -275 -116 -521 -253 -778 -432 -56 -40 -230 -179 -306
-246 -97 -86 -260 -245 -260 -254 0 -4 105 -7 233 -7 l233 0 79 67 c360 301
834 561 1235 678 205 60 380 102 505 120 22 4 67 10 100 15 214 32 745 35 927
5 13 -2 41 -6 63 -10 227 -33 401 -74 605 -140 645 -211 1211 -594 1649 -1116
90 -106 238 -307 288 -389 169 -279 276 -504 367 -773 38 -111 109 -380 120
-452 4 -22 8 -47 11 -55 13 -45 40 -267 50 -415 6 -76 6 -440 0 -480 -2 -16
-6 -61 -9 -100 -3 -38 -8 -81 -11 -95 -2 -14 -7 -47 -10 -74 -29 -239 -114
-558 -218 -817 -57 -140 -135 -309 -172 -369 l-22 -35 -1024 1 c-563 1 -1031
2 -1039 3 -13 1 -15 108 -13 909 1 499 4 1036 6 1194 4 325 13 308 -83 158
-29 -47 -68 -107 -85 -135 -18 -27 -117 -183 -220 -345 -104 -162 -229 -358
-280 -435 -50 -77 -121 -187 -159 -245 -37 -58 -114 -176 -171 -263 l-102
-159 -300 464 c-165 254 -409 637 -543 851 -133 213 -245 385 -248 382 -3 -2
-4 -538 -3 -1190 l2 -1185 -486 -2 -485 -3 -1 30 c0 17 0 721 0 1565 0 1198
-3 1531 -13 1519 -6 -9 -26 -34 -43 -55 -94 -116 -152 -188 -211 -263 l-67
-84 0 -1518 c0 -836 2 -1520 5 -1520 3 -1 371 -2 818 -3 l812 -1 1 25 c0 14 1
367 1 785 1 663 3 757 15 740 15 -20 122 -184 238 -365 33 -52 116 -181 185
-287 69 -106 167 -259 218 -338 52 -80 97 -145 100 -145 9 0 127 173 267 390
59 91 122 188 140 215 75 116 299 463 324 503 14 23 28 42 31 42 3 0 5 -352 5
-783 l-1 -782 1276 1 c872 0 1283 4 1300 11 54 23 91 78 203 303 79 159 103
214 165 380 108 287 189 621 217 892 3 29 8 62 10 73 22 113 23 738 0 825 -2
8 -6 42 -10 75 -8 76 -40 268 -61 360 -9 39 -17 77 -19 85 -2 8 -10 42 -19 75
-9 33 -18 67 -20 75 -48 197 -236 643 -364 865 -218 376 -505 727 -827 1009
-162 142 -253 212 -420 323 -469 312 -974 510 -1550 607 -79 13 -120 19 -240
31 -112 12 -479 26 -488 19z"/>
<path d="M1845 6252 l-1080 -3 -42 -62 c-306 -458 -529 -1030 -609 -1557 -3
-25 -8 -53 -10 -64 -8 -42 -19 -150 -30 -281 -13 -160 -8 -526 10 -675 2 -19
7 -64 10 -100 4 -36 9 -72 11 -80 2 -8 7 -35 10 -60 12 -84 55 -285 85 -395
17 -60 32 -114 33 -120 20 -71 97 -284 139 -385 132 -315 358 -692 563 -939
130 -158 322 -358 450 -471 33 -29 74 -65 90 -79 58 -51 241 -188 345 -257
528 -354 1092 -559 1755 -638 220 -27 633 -27 860 -1 22 3 56 7 75 9 19 2 64
9 100 15 36 6 83 13 105 17 379 59 901 253 1278 475 136 80 392 253 427 289 3
3 41 34 85 70 120 98 139 114 280 255 158 157 252 265 234 266 -8 0 -108 1
-222 1 l-208 1 -52 -49 c-28 -27 -58 -56 -67 -64 -19 -19 -105 -95 -148 -133
-192 -165 -529 -381 -771 -494 -347 -163 -767 -285 -1086 -318 -38 -4 -79 -9
-90 -11 -41 -8 -245 -18 -370 -17 -276 0 -541 29 -800 89 -60 14 -119 27 -130
29 -11 3 -78 23 -150 45 -547 171 -1042 470 -1453 879 -144 142 -191 195 -300
330 -56 69 -203 278 -237 335 -166 282 -263 490 -350 750 -48 146 -105 357
-120 446 -3 19 -8 42 -10 50 -3 13 -9 51 -20 125 -1 11 -6 47 -10 80 -4 33 -9
67 -10 75 -7 35 -18 282 -18 385 0 114 9 287 19 365 18 147 43 301 61 380 8
36 16 72 18 80 56 270 209 657 382 961 l66 115 1057 2 1057 3 114 -188 c63
-103 119 -195 124 -205 6 -9 33 -54 61 -100 139 -225 323 -530 472 -778 90
-151 168 -279 172 -283 4 -5 41 47 81 115 40 67 111 186 157 263 47 77 111
183 142 235 31 52 94 156 140 230 45 74 161 264 258 423 l175 287 564 0 c529
0 563 -1 564 -17 0 -10 1 -706 1 -1547 l1 -1529 31 34 c17 19 50 57 72 84 23
28 83 99 133 159 50 60 92 112 92 115 1 3 2 687 3 1519 l1 1512 -35 1 c-19 0
-392 0 -829 0 l-794 1 -33 -59 c-18 -32 -42 -74 -53 -94 -16 -30 -187 -311
-604 -993 l-60 -98 -18 23 c-10 13 -27 40 -37 59 -11 19 -81 136 -157 260 -76
124 -183 299 -238 390 -55 91 -107 176 -116 190 -15 23 -88 146 -163 275 l-29
50 -162 0 c-89 0 -648 -1 -1242 -3z"/>
</g>
</svg>
