<svg viewBox="0 0 646 779" fill="none" xmlns="http://www.w3.org/2000/svg"><g opacity=".7" clip-path="url(#a)"><g opacity=".5"><path d="M307.127 435.102c-.249 0-.373-.125-.497-.249l-23.254-27.632c-.124-.249-.249-.498-.124-.622l12.435-33.979a.967.967 0 0 1 .497-.498l35.565-6.348c.248 0 .497 0 .621.249l23.254 27.631c.124.249.249.498.124.623l-12.435 33.979a.97.97 0 0 1-.497.498l-35.689 6.348s.124 0 0 0Zm-22.383-28.379 22.756 27.134 34.818-6.099 12.062-33.357-22.756-27.133-34.818 6.098-12.062 33.357Z" fill="url(#b)"/><path d="M303.272 436.098c-.249 0-.373-.125-.497-.249l-22.01-31.49c-.125-.249-.125-.498 0-.623l16.29-34.85c.124-.249.373-.374.497-.374l38.3-3.36c.249 0 .498.124.622.249l22.01 31.49c.124.249.124.497 0 .622l-16.29 34.851c-.124.248-.373.373-.497.373l-38.425 3.361Zm-21.264-32.237 21.637 30.867 37.554-3.236 15.917-34.104-21.637-30.867-37.554 3.236-15.917 34.104Z" fill="url(#c)"/><path d="M339.956 436.595h-40.912a.684.684 0 0 1-.622-.373l-20.517-35.473c-.125-.249-.125-.498 0-.622l20.517-35.473a.685.685 0 0 1 .622-.374h40.912c.248 0 .497.125.621.374l20.518 35.473c.125.249.125.498 0 .622l-20.518 35.473a.683.683 0 0 1-.621.373Zm-40.539-1.369h40.166l20.02-34.726-20.02-34.726h-40.166l-20.02 34.726 20.02 34.726Z" fill="url(#d)"/><path d="M337.966 440.578s-.124 0 0 0l-43.398-3.858c-.249 0-.498-.125-.498-.374l-18.404-39.455c-.124-.249-.124-.498 0-.623l24.995-35.597c.124-.249.373-.249.622-.249l43.398 3.858c.249 0 .497.125.497.374l18.404 39.456c.125.249.125.497 0 .622l-24.994 35.597c-.249.249-.373.249-.622.249Zm-42.901-5.103 42.652 3.734 24.498-34.975-18.031-38.709-42.653-3.734-24.497 34.975 18.031 38.709Z" fill="url(#e)"/><path d="m335.355 444.686-45.761-8.091c-.249 0-.498-.249-.498-.497l-15.917-43.439c-.124-.249 0-.498.125-.623l29.719-35.473a.953.953 0 0 1 .622-.249l45.637 8.091c.249 0 .497.249.497.498l15.917 43.438c.125.249 0 .498-.124.623l-29.72 35.473c-.124.124-.249.249-.497.249Zm-45.14-9.335 44.891 7.966 29.222-34.851-15.543-42.817-44.891-7.965-29.223 34.85 15.544 42.817Z" fill="url(#f)"/><path d="M332.246 448.793h-.124l-47.627-12.82a.97.97 0 0 1-.497-.498l-12.808-47.546c-.125-.249 0-.498.124-.622l34.818-34.851c.125-.124.373-.249.622-.124l47.626 12.82a.974.974 0 0 1 .498.497l12.808 47.547c.124.249 0 .498-.124.622l-34.819 34.851c-.124 0-.248.124-.497.124Zm-47.005-14.065 46.881 12.572 34.32-34.229-12.559-46.799-46.88-12.571-34.321 34.228 12.559 46.799Z" fill="url(#g)"/><path d="M328.64 452.776h-.249l-49.243-17.923a.974.974 0 0 1-.497-.498l-9.078-51.654c0-.249 0-.497.249-.622l40.165-33.606c.249-.124.498-.249.622-.124l49.243 17.923a.967.967 0 0 1 .497.498l9.078 51.653c0 .249 0 .498-.249.623l-40.165 33.606c0 .124-.249.124-.373.124Zm-48.621-19.168 48.497 17.674 39.543-33.108-8.953-50.782-48.497-17.674-39.544 33.108 8.954 50.782Z" fill="url(#h)"/><path d="M324.412 456.759c-.125 0-.249 0-.249-.124l-50.486-23.649c-.249-.125-.373-.374-.373-.498l-4.85-55.512c0-.249.124-.498.249-.622l45.636-31.988c.249-.125.498-.125.622 0l50.487 23.648c.248.125.373.374.373.498l4.849 55.512a.955.955 0 0 1-.248.623l-45.637 31.988c-.125 0-.249.124-.373.124Zm-49.865-24.769 49.865 23.275 45.015-31.49-4.85-54.765-49.865-23.275-45.015 31.49 4.85 54.765Z" fill="url(#i)"/><path d="M319.562 460.493c-.124 0-.248 0-.373-.124l-51.357-29.748a.685.685 0 0 1-.373-.622v-59.246c0-.249.125-.498.373-.623l51.357-29.623c.249-.124.498-.124.622 0l51.357 29.748a.683.683 0 0 1 .373.622v59.246a.683.683 0 0 1-.373.622l-51.233 29.624c-.124.124-.248.124-.373.124Zm-50.735-30.743 50.735 29.249 50.611-29.249v-58.5l-50.735-29.249-50.611 29.249v58.5Z" fill="url(#j)"/><path d="M314.091 464.103c-.125 0-.249 0-.373-.125l-51.73-36.22c-.249-.124-.249-.373-.249-.622l5.471-62.856c0-.249.125-.498.374-.498l57.201-26.635c.249-.125.497-.125.622 0l51.73 36.219c.248.125.248.374.248.623l-5.471 62.855c0 .249-.124.498-.373.498l-57.202 26.636s-.124.125-.248.125Zm-50.984-37.34 51.108 35.846 56.455-26.263 5.347-62.108-51.108-35.847-56.455 26.263-5.347 62.109Z" fill="url(#k)"/><path d="M307.873 467.339c-.124 0-.373 0-.497-.125l-51.482-43.19a.95.95 0 0 1-.248-.622l11.564-66.092c0-.249.249-.498.498-.498l63.046-22.902c.248-.124.497 0 .621.125l51.482 43.19a.95.95 0 0 1 .248.622l-11.564 66.092c0 .249-.249.498-.498.498l-63.046 22.902h-.124Zm-50.611-44.186 50.86 42.692 62.3-22.653 11.44-65.345-50.86-42.692-62.299 22.653-11.441 65.345Z" fill="url(#l)"/><path d="M301.158 470.201c-.124 0-.373-.124-.497-.249l-50.487-50.533c-.124-.124-.248-.373-.124-.622l18.404-68.955a.974.974 0 0 1 .497-.498l68.891-18.421c.249-.124.497 0 .622.125l50.486 50.533c.124.125.249.374.124.622l-18.404 68.955a.97.97 0 0 1-.497.498l-68.89 18.421c0 .124-.125.124-.125.124Zm-49.74-51.404 49.989 50.035 68.144-18.172 18.156-68.208-49.99-50.035-68.144 18.172-18.155 68.208Z" fill="url(#m)"/><path d="M293.573 472.566c-.249 0-.373-.124-.498-.249l-48.87-58.25c-.124-.125-.248-.498-.124-.622l25.865-71.444a.97.97 0 0 1 .497-.498l74.735-13.194c.249 0 .498 0 .622.249l48.87 58.251c.124.124.249.498.124.622l-25.865 71.444a.97.97 0 0 1-.497.498l-74.859 13.193c.124 0 .124 0 0 0Zm-48-58.997 48.373 57.628 73.989-12.944 25.616-70.697-48.373-57.628-73.988 12.944-25.617 70.697Z" fill="url(#n)"/><path d="M285.49 474.433c-.249 0-.373-.124-.497-.249l-46.383-66.34c-.125-.249-.125-.498 0-.623l34.072-73.311c.124-.248.373-.373.497-.373l80.455-6.97c.249 0 .498.124.622.249l46.383 66.341c.124.248.124.497 0 .622l-34.072 73.311c-.125.249-.373.373-.498.373l-80.579 6.97Zm-45.637-66.963 45.886 65.594 79.584-6.97 33.699-72.564-45.885-65.594-79.585 6.97-33.699 72.564Z" fill="url(#o)"/><path d="m362.588 475.802-85.927-.124a.686.686 0 0 1-.622-.373l-43.025-74.556c-.124-.249-.124-.498 0-.622l42.901-74.431a.684.684 0 0 1 .622-.374l85.926.125c.249 0 .498.124.622.373l43.025 74.556c.125.249.125.498 0 .622l-43.025 74.431c-.124.124-.373.373-.497.373Zm-85.554-1.493 85.056.124 42.528-73.808-42.652-73.809-85.056-.125-42.528 73.809 42.652 73.809Z" fill="url(#p)"/><path d="M358.235 484.142c-.124 0-.124 0 0 0l-91.025-8.091c-.248 0-.497-.124-.497-.373l-38.673-83.019c-.125-.249-.125-.498 0-.623l52.352-74.928c.124-.249.373-.249.621-.249l91.025 8.09c.249 0 .498.124.498.373l38.673 83.02c.124.248.124.497 0 .622l-52.352 74.929c-.249.249-.497.249-.622.249Zm-90.652-9.335 90.279 7.966 51.855-74.307-38.301-82.272-90.278-7.966-51.855 74.306 38.3 82.273Z" fill="url(#q)"/><path d="m352.764 492.73-95.875-16.928c-.248 0-.497-.249-.497-.497l-33.326-91.483c-.124-.249 0-.498.124-.623l62.424-74.555c.125-.249.373-.249.622-.249l95.75 16.927c.249 0 .498.249.498.498l33.326 91.483c.124.249 0 .498-.125.622l-62.424 74.556c0 .124-.248.249-.497.249Zm-95.129-18.297 94.88 16.803 61.927-73.933-33.077-90.861-94.88-16.678-61.927 73.933 33.077 90.736Z" fill="url(#r)"/><path d="M346.298 501.318h-.125l-99.853-26.885a.972.972 0 0 1-.498-.498l-26.86-100.071c-.124-.249 0-.498.125-.622l73.118-73.186c.124-.125.373-.249.622-.125l99.854 26.885a.97.97 0 0 1 .497.498l26.86 100.071c.124.249 0 .498-.125.622l-73.118 73.187c-.124 0-.249.124-.497.124Zm-99.232-28.129 99.107 26.635 72.497-72.688-26.611-99.324-99.108-26.636-72.496 72.688 26.611 99.325Z" fill="url(#s)"/><path d="M338.712 509.782h-.248l-103.336-37.714a.968.968 0 0 1-.497-.497L215.48 363.036c0-.249 0-.498.249-.623l84.186-70.821c.248-.125.497-.249.622-.125l103.335 37.714a.972.972 0 0 1 .498.498l19.15 108.534c0 .249 0 .498-.249.623l-84.186 70.821c-.124.125-.248.125-.373.125Zm-102.838-38.958 102.59 37.464 83.563-70.323-19.025-107.789-102.59-37.464-83.564 70.324 19.026 107.788Z" fill="url(#t)"/><path d="M329.759 517.997c-.124 0-.249 0-.249-.125l-106.071-49.538c-.249-.124-.373-.373-.373-.497l-10.197-116.875c0-.249.124-.497.249-.622l95.75-67.212c.249-.124.497-.124.622 0l106.071 49.538c.249.124.373.373.373.498l10.197 116.874a.946.946 0 0 1-.249.622l-95.75 67.212c-.124.125-.249.125-.373.125Zm-105.45-50.658 105.326 49.288 95.128-66.838-10.197-116.003-105.325-49.289-95.128 66.839 10.196 116.003Z" fill="url(#u)"/><path d="M319.562 525.962c-.124 0-.248 0-.373-.124L211.377 463.48a.683.683 0 0 1-.373-.622V338.142c0-.249.124-.498.373-.622l107.812-62.358c.249-.124.498-.124.622 0l107.812 62.358a.683.683 0 0 1 .373.622v124.716a.683.683 0 0 1-.373.622l-107.812 62.358c0 .124-.124.124-.249.124Zm-107.066-63.478 107.066 61.985 107.066-61.985V338.516l-107.066-61.985-107.066 61.985v123.968Z" fill="url(#v)"/><path d="M307.998 533.43c-.125 0-.249 0-.373-.124l-108.434-76.174c-.249-.124-.249-.373-.249-.622l11.565-132.183c0-.249.124-.498.373-.498l119.998-56.135c.249-.124.498-.124.622 0l108.434 76.174c.249.124.249.373.249.622l-11.565 132.184c0 .249-.124.498-.373.498l-119.999 56.134c-.124.124-.124.124-.248.124ZM200.31 456.261l107.812 75.676 119.253-55.761 11.44-131.437-107.812-75.676-119.253 55.761-11.44 131.437Z" fill="url(#w)"/><path d="M295.065 540.276c-.124 0-.373 0-.497-.124l-107.813-90.737a.95.95 0 0 1-.248-.622l24.497-139.029c0-.249.248-.498.497-.498l132.309-48.293c.249-.124.498 0 .622.125l107.812 90.736a.946.946 0 0 1 .249.622l-24.497 139.029c0 .249-.249.498-.497.498l-132.31 48.293h-.124Zm-107.191-91.732 107.315 90.238 131.564-48.044 24.372-138.282-107.315-90.238-131.563 48.044-24.373 138.282Z" fill="url(#x)"/><path d="M280.64 546.25c-.124 0-.373-.124-.497-.248l-105.947-106.17c-.124-.125-.249-.374-.124-.623l38.797-145.128a.974.974 0 0 1 .497-.498l144.745-38.958c.249-.124.497 0 .622.125L464.68 360.92c.124.124.248.373.124.622L426.007 506.67a.972.972 0 0 1-.498.498l-144.62 39.082h-.249ZM175.564 439.209l105.325 105.672 143.998-38.709 38.673-144.381-105.449-105.672-143.874 38.833-38.673 144.257Z" fill="url(#y)"/><path d="M264.972 551.354c-.249 0-.373-.125-.497-.249L162.134 428.754c-.124-.124-.249-.498-.124-.622l54.59-150.231a.967.967 0 0 1 .497-.498l157.055-27.881c.249 0 .498 0 .622.249l102.341 122.351c.124.124.248.498.124.622l-54.59 150.231a.97.97 0 0 1-.497.498l-157.18 27.881ZM163.253 428.256l101.843 121.728 156.185-27.756 54.342-149.484-101.844-121.728-156.185 27.756-54.341 149.484Z" fill="url(#z)"/><path d="M247.687 555.337c-.248 0-.373-.125-.497-.249L149.948 415.81c-.125-.249-.125-.498 0-.623l71.75-154.089c.124-.249.373-.374.497-.374l168.993-14.936c.249 0 .498.125.622.249l97.242 139.154c.125.249.125.498 0 .622l-71.75 154.09c-.124.249-.373.373-.497.373l-169.118 15.061c.125 0 .125 0 0 0Zm-96.372-139.901 96.745 138.531 168.247-14.811 71.378-153.467-96.745-138.532-168.123 14.812-71.502 153.467Z" fill="url(#A)"/><path d="M229.159 557.826a.685.685 0 0 1-.622-.374l-90.03-156.454c-.124-.249-.124-.498 0-.622l90.279-156.704a.683.683 0 0 1 .622-.373l180.433-.125c.249 0 .497.125.622.374l90.154 156.454c.125.249.125.498 0 .623l-90.403 156.578a.684.684 0 0 1-.622.374l-180.433.249Zm-89.284-157.201 89.657 155.832 179.687-.125 89.906-155.956-89.657-155.833-179.687.125-89.906 155.957Z" fill="url(#B)"/><path d="m400.515 575.376-191.252-16.554c-.249 0-.498-.125-.498-.374l-80.952-174.253c-.124-.249-.124-.498 0-.622l110.299-157.575c.125-.249.373-.249.622-.249l191.252 16.554c.248 0 .497.125.497.373l80.953 174.254c.124.249.124.498 0 .622l-110.3 157.575a.95.95 0 0 1-.621.249ZM209.76 557.452l190.506 16.554 109.802-156.952-80.704-173.506-190.506-16.554-109.802 156.952 80.704 173.506Z" fill="url(#C)"/><path d="m389.199 593.299-201.2-35.349c-.249 0-.497-.249-.497-.498l-69.761-192.051c-.125-.249 0-.498.124-.623L249.304 207.95c.124-.249.373-.249.622-.249l201.2 35.349c.248 0 .497.249.497.498l69.761 192.176c.124.249 0 .498-.125.622L389.821 593.174c-.249.125-.374.125-.622.125Zm-200.578-36.593L388.95 591.93l130.942-156.206-69.388-191.429-200.454-35.224-130.941 156.205 69.512 191.43Z" fill="url(#D)"/><path d="M375.644 611.346h-.124l-210.029-56.134a.97.97 0 0 1-.497-.498l-56.082-210.099c-.125-.249 0-.498.124-.623l153.946-154.089c.125-.125.373-.249.622-.125l209.904 56.135a.97.97 0 0 1 .498.497l56.082 210.1c.124.249 0 .498-.124.622L376.142 611.098c-.249.124-.373.248-.498.248Zm-209.407-57.379 209.159 55.886L528.72 456.386l-55.958-209.353-209.158-55.886-153.2 153.468 55.833 209.352Z" fill="url(#E)"/><path d="M359.479 629.021h-.249l-217.241-78.912a.97.97 0 0 1-.497-.498l-39.917-227.898c0-.249 0-.498.249-.623l177.324-148.986c.249-.125.497-.249.622-.125l217.241 78.912a.97.97 0 0 1 .497.498l39.917 227.898c0 .249 0 .498-.249.623l-177.2 148.986c-.124.125-.373.125-.497.125Zm-216.62-80.157 216.495 78.788 176.703-148.365-39.792-227.151-216.62-78.663-176.702 148.364 39.916 227.027Z" fill="url(#F)"/><path d="M340.826 646.446c-.124 0-.248 0-.248-.124L117.492 542.516c-.249-.124-.373-.373-.373-.497l-21.264-245.2c0-.248.124-.497.249-.622l201.821-141.394c.249-.124.498-.124.622 0l222.961 103.805c.249.125.373.374.373.498l21.264 245.199a.955.955 0 0 1-.248.623L341.199 646.322c-.124 0-.248.124-.373.124Zm-222.339-105.05 222.215 103.556 201.075-140.896-21.139-244.452-222.34-103.556-200.95 140.896 21.139 244.452Z" fill="url(#G)"/><path d="M319.313 663c-.124 0-.248 0-.373-.124L92.373 532.186a.686.686 0 0 1-.373-.623l.249-261.877c0-.249.124-.498.373-.623l226.816-130.938c.249-.125.497-.125.622 0l226.691 130.689a.685.685 0 0 1 .373.623l-.248 261.877a.687.687 0 0 1-.373.623L319.687 662.876c-.125.124-.249.124-.374.124ZM93.368 531.19l225.945 130.317 226.195-130.69.248-261.007-226.069-130.316-226.07 130.69-.25 261.006Z" fill="url(#H)"/></g></g><g opacity=".5" filter="url(#I)"><path d="M319.313 663c-.124 0-.248 0-.373-.124L92.373 532.186a.686.686 0 0 1-.373-.622l.249-261.878c0-.249.124-.498.373-.622l226.816-130.939c.249-.125.497-.125.622 0l226.691 130.69a.683.683 0 0 1 .373.622l-.248 261.878a.686.686 0 0 1-.373.622L319.687 662.876c-.125.124-.249.124-.374.124ZM93.368 531.19l225.945 130.317 226.195-130.69.248-261.007-226.069-130.316-226.07 130.69-.25 261.006Z" fill="url(#J)"/><path d="M96.115 271.627 319.688 142.38l223.567 128.874-.246 258.119L319.312 658.62 95.869 529.747l.246-258.12ZM89.5 531.561v.003c0 1.03.515 2.192 1.667 2.812l226.36 130.57a2.938 2.938 0 0 0 1.764.554h.045c.191.002.99.009 1.765-.554L547.71 534.127c1.15-.62 1.665-1.781 1.666-2.81v-.002l.248-261.876v-.002c0-1.03-.515-2.193-1.667-2.813L321.451 136.041a2.912 2.912 0 0 0-1.656-.51c-.565 0-1.071.155-1.476.358l-.067.033-.064.038L91.415 266.874c-1.15.619-1.666 1.78-1.666 2.809v.003L89.5 531.561Z" stroke="url(#K)" stroke-width="5"/></g><defs><linearGradient id="b" x1="344.002" y1="435.102" x2="283.137" y2="425.843" gradientUnits="userSpaceOnUse"><stop offset=".026" stop-color="#1AECDF"/><stop offset=".469" stop-color="#14FD55"/><stop offset="1" stop-color="#0BB913"/></linearGradient><linearGradient id="c" x1="345.918" y1="436.098" x2="280.751" y2="425.702" gradientUnits="userSpaceOnUse"><stop offset=".026" stop-color="#1AECDF"/><stop offset=".469" stop-color="#14FD55"/><stop offset="1" stop-color="#0BB913"/></linearGradient><linearGradient id="d" x1="347.64" y1="436.595" x2="278.073" y2="424.944" gradientUnits="userSpaceOnUse"><stop offset=".026" stop-color="#1AECDF"/><stop offset=".469" stop-color="#14FD55"/><stop offset="1" stop-color="#0BB913"/></linearGradient><linearGradient id="e" x1="349.359" y1="440.578" x2="275.666" y2="428.812" gradientUnits="userSpaceOnUse"><stop offset=".026" stop-color="#1AECDF"/><stop offset=".469" stop-color="#14FD55"/><stop offset="1" stop-color="#0BB913"/></linearGradient><linearGradient id="f" x1="350.697" y1="444.686" x2="273.051" y2="432.864" gradientUnits="userSpaceOnUse"><stop offset=".026" stop-color="#1AECDF"/><stop offset=".469" stop-color="#14FD55"/><stop offset="1" stop-color="#0BB913"/></linearGradient><linearGradient id="g" x1="352.04" y1="448.793" x2="270.896" y2="436.995" gradientUnits="userSpaceOnUse"><stop offset=".026" stop-color="#1AECDF"/><stop offset=".469" stop-color="#14FD55"/><stop offset="1" stop-color="#0BB913"/></linearGradient><linearGradient id="h" x1="353.201" y1="452.776" x2="269.169" y2="441.11" gradientUnits="userSpaceOnUse"><stop offset=".026" stop-color="#1AECDF"/><stop offset=".469" stop-color="#14FD55"/><stop offset="1" stop-color="#0BB913"/></linearGradient><linearGradient id="i" x1="354.06" y1="456.759" x2="267.884" y2="445.383" gradientUnits="userSpaceOnUse"><stop offset=".026" stop-color="#1AECDF"/><stop offset=".469" stop-color="#14FD55"/><stop offset="1" stop-color="#0BB913"/></linearGradient><linearGradient id="j" x1="354.628" y1="460.493" x2="266.743" y2="449.427" gradientUnits="userSpaceOnUse"><stop offset=".026" stop-color="#1AECDF"/><stop offset=".469" stop-color="#14FD55"/><stop offset="1" stop-color="#0BB913"/></linearGradient><linearGradient id="k" x1="358.593" y1="464.103" x2="261.1" y2="451.211" gradientUnits="userSpaceOnUse"><stop offset=".026" stop-color="#1AECDF"/><stop offset=".469" stop-color="#14FD55"/><stop offset="1" stop-color="#0BB913"/></linearGradient><linearGradient id="l" x1="362.393" y1="467.339" x2="255.127" y2="452.459" gradientUnits="userSpaceOnUse"><stop offset=".026" stop-color="#1AECDF"/><stop offset=".469" stop-color="#14FD55"/><stop offset="1" stop-color="#0BB913"/></linearGradient><linearGradient id="m" x1="366.518" y1="470.201" x2="249.638" y2="453.247" gradientUnits="userSpaceOnUse"><stop offset=".026" stop-color="#1AECDF"/><stop offset=".469" stop-color="#14FD55"/><stop offset="1" stop-color="#0BB913"/></linearGradient><linearGradient id="n" x1="370.338" y1="472.566" x2="243.89" y2="453.362" gradientUnits="userSpaceOnUse"><stop offset=".026" stop-color="#1AECDF"/><stop offset=".469" stop-color="#14FD55"/><stop offset="1" stop-color="#0BB913"/></linearGradient><linearGradient id="o" x1="374.372" y1="474.433" x2="238.675" y2="452.808" gradientUnits="userSpaceOnUse"><stop offset=".026" stop-color="#1AECDF"/><stop offset=".469" stop-color="#14FD55"/><stop offset="1" stop-color="#0BB913"/></linearGradient><linearGradient id="p" x1="378.045" y1="475.802" x2="233.455" y2="451.615" gradientUnits="userSpaceOnUse"><stop offset=".026" stop-color="#1AECDF"/><stop offset=".469" stop-color="#14FD55"/><stop offset="1" stop-color="#0BB913"/></linearGradient><linearGradient id="q" x1="381.507" y1="484.142" x2="228.119" y2="459.719" gradientUnits="userSpaceOnUse"><stop offset=".026" stop-color="#1AECDF"/><stop offset=".469" stop-color="#14FD55"/><stop offset="1" stop-color="#0BB913"/></linearGradient><linearGradient id="r" x1="384.524" y1="492.73" x2="222.84" y2="468.158" gradientUnits="userSpaceOnUse"><stop offset=".026" stop-color="#1AECDF"/><stop offset=".469" stop-color="#14FD55"/><stop offset="1" stop-color="#0BB913"/></linearGradient><linearGradient id="s" x1="387.398" y1="501.318" x2="218.391" y2="476.799" gradientUnits="userSpaceOnUse"><stop offset=".026" stop-color="#1AECDF"/><stop offset=".469" stop-color="#14FD55"/><stop offset="1" stop-color="#0BB913"/></linearGradient><linearGradient id="t" x1="389.713" y1="509.782" x2="214.618" y2="485.549" gradientUnits="userSpaceOnUse"><stop offset=".026" stop-color="#1AECDF"/><stop offset=".469" stop-color="#14FD55"/><stop offset="1" stop-color="#0BB913"/></linearGradient><linearGradient id="u" x1="391.476" y1="517.997" x2="211.673" y2="494.29" gradientUnits="userSpaceOnUse"><stop offset=".026" stop-color="#1AECDF"/><stop offset=".469" stop-color="#14FD55"/><stop offset="1" stop-color="#0BB913"/></linearGradient><linearGradient id="v" x1="392.735" y1="525.962" x2="209.499" y2="502.941" gradientUnits="userSpaceOnUse"><stop offset=".026" stop-color="#1AECDF"/><stop offset=".469" stop-color="#14FD55"/><stop offset="1" stop-color="#0BB913"/></linearGradient><linearGradient id="w" x1="400.981" y1="533.43" x2="197.588" y2="506.617" gradientUnits="userSpaceOnUse"><stop offset=".026" stop-color="#1AECDF"/><stop offset=".469" stop-color="#14FD55"/><stop offset="1" stop-color="#0BB913"/></linearGradient><linearGradient id="x" x1="409.27" y1="540.276" x2="185.399" y2="509.311" gradientUnits="userSpaceOnUse"><stop offset=".026" stop-color="#1AECDF"/><stop offset=".469" stop-color="#14FD55"/><stop offset="1" stop-color="#0BB913"/></linearGradient><linearGradient id="y" x1="417.595" y1="546.25" x2="173.252" y2="510.858" gradientUnits="userSpaceOnUse"><stop offset=".026" stop-color="#1AECDF"/><stop offset=".469" stop-color="#14FD55"/><stop offset="1" stop-color="#0BB913"/></linearGradient><linearGradient id="z" x1="426.049" y1="551.354" x2="161.657" y2="511.228" gradientUnits="userSpaceOnUse"><stop offset=".026" stop-color="#1AECDF"/><stop offset=".469" stop-color="#14FD55"/><stop offset="1" stop-color="#0BB913"/></linearGradient><linearGradient id="A" x1="434.011" y1="555.337" x2="150.174" y2="510.143" gradientUnits="userSpaceOnUse"><stop offset=".026" stop-color="#1AECDF"/><stop offset=".469" stop-color="#14FD55"/><stop offset="1" stop-color="#0BB913"/></linearGradient><linearGradient id="B" x1="441.837" y1="557.826" x2="139.529" y2="507.261" gradientUnits="userSpaceOnUse"><stop offset=".026" stop-color="#1AECDF"/><stop offset=".469" stop-color="#14FD55"/><stop offset="1" stop-color="#0BB913"/></linearGradient><linearGradient id="C" x1="449.16" y1="575.376" x2="128.106" y2="524.178" gradientUnits="userSpaceOnUse"><stop offset=".026" stop-color="#1AECDF"/><stop offset=".469" stop-color="#14FD55"/><stop offset="1" stop-color="#0BB913"/></linearGradient><linearGradient id="D" x1="455.827" y1="593.299" x2="117.338" y2="541.814" gradientUnits="userSpaceOnUse"><stop offset=".026" stop-color="#1AECDF"/><stop offset=".469" stop-color="#14FD55"/><stop offset="1" stop-color="#0BB913"/></linearGradient><linearGradient id="E" x1="461.682" y1="611.346" x2="107.779" y2="559.978" gradientUnits="userSpaceOnUse"><stop offset=".026" stop-color="#1AECDF"/><stop offset=".469" stop-color="#14FD55"/><stop offset="1" stop-color="#0BB913"/></linearGradient><linearGradient id="F" x1="466.599" y1="629.021" x2="99.78" y2="578.211" gradientUnits="userSpaceOnUse"><stop offset=".026" stop-color="#1AECDF"/><stop offset=".469" stop-color="#14FD55"/><stop offset="1" stop-color="#0BB913"/></linearGradient><linearGradient id="G" x1="470.461" y1="646.446" x2="93.374" y2="596.619" gradientUnits="userSpaceOnUse"><stop offset=".026" stop-color="#1AECDF"/><stop offset=".469" stop-color="#14FD55"/><stop offset="1" stop-color="#0BB913"/></linearGradient><linearGradient id="H" x1="473.167" y1="663" x2="88.872" y2="614.602" gradientUnits="userSpaceOnUse"><stop offset=".026" stop-color="#1AECDF"/><stop offset=".469" stop-color="#14FD55"/><stop offset="1" stop-color="#0BB913"/></linearGradient><linearGradient id="J" x1="473.167" y1="663" x2="88.872" y2="614.602" gradientUnits="userSpaceOnUse"><stop offset=".026" stop-color="#1AECDF"/><stop offset=".469" stop-color="#14FD55"/><stop offset="1" stop-color="#0BB913"/></linearGradient><linearGradient id="K" x1="473.167" y1="663" x2="88.872" y2="614.602" gradientUnits="userSpaceOnUse"><stop offset=".026" stop-color="#1AECDF"/><stop offset=".469" stop-color="#14FD55"/><stop offset="1" stop-color="#0BB913"/></linearGradient><clipPath id="a"><path fill="#fff" transform="translate(92 138)" d="M0 0h455v525H0z"/></clipPath><filter id="I" x="67" y="113.031" width="505.124" height="574.97" filterUnits="userSpaceOnUse" color-interpolation-filters="sRGB"><feFlood flood-opacity="0" result="BackgroundImageFix"/><feBlend in="SourceGraphic" in2="BackgroundImageFix" result="shape"/><feGaussianBlur stdDeviation="10" result="effect1_foregroundBlur_1895_537"/></filter></defs></svg>