<svg viewBox="0 0 139 122" fill="none" xmlns="http://www.w3.org/2000/svg"><mask id="m" maskUnits="userSpaceOnUse" x="0" y="0" viewBox="0 0 139 122" fill="#000"><path fill="#fff" d="M0 0h139v122H0z"/><path d="M33.351 111.863c-.725 0-1.45-.218-2.03-.653-.87-.653-1.378-1.813-1.306-3.118l1.886-69.256c.073-2.756 2.32-5.73 5.004-6.672l67.153-21.9c1.378-.436 2.61-.291 3.481.362.87.652 1.377 1.813 1.305 3.118L106.958 83c-.072 2.756-2.32 5.729-5.003 6.672l-67.153 21.901a3.698 3.698 0 0 1-1.45.29Zm72.157-101.527c-.435 0-.943.072-1.378.217L36.977 32.454c-2.61.87-4.786 3.699-4.858 6.454l-1.886 69.256c0 1.233.435 2.321 1.233 2.901.87.653 2.03.798 3.263.363l67.153-21.901c2.611-.87 4.786-3.699 4.859-6.454l1.885-69.256c0-1.233-.435-2.321-1.232-2.901a3.235 3.235 0 0 0-1.886-.58Z"/><path d="M25.664 107.729c-1.015 0-1.885-.363-2.538-1.015-.798-.87-1.16-2.176-.87-3.626l14.069-72.157c.58-2.9 3.336-5.584 6.091-6.019l69.981-10.66c1.378-.218 2.539.145 3.336.942.798.87 1.161 2.176.871 3.626l-14.069 72.157c-.58 2.9-3.336 5.584-6.092 6.02l-69.98 10.66c-.291.072-.509.072-.799.072Zm87.531-93.26c-.217 0-.435 0-.725.073l-69.981 10.66c-2.683.435-5.367 3.046-5.947 5.802L22.473 103.16c-.29 1.378 0 2.611.798 3.409.725.725 1.813 1.088 3.119.87l69.98-10.66c2.684-.435 5.367-3.046 5.947-5.802l13.996-72.157c.291-1.378 0-2.61-.797-3.408-.58-.653-1.378-.943-2.321-.943Z"/><path d="M89.771 103.595h-.145l-70.779-1.523c-1.305 0-2.393-.58-3.045-1.523-.726-1.015-.798-2.538-.29-3.988l26.614-72.955c1.088-2.9 4.134-5.221 6.962-5.221h.145l70.779 1.523c1.305 0 2.393.58 3.046 1.523.725 1.015.797 2.538.29 3.988L96.733 98.374c-1.088 2.901-4.133 5.221-6.962 5.221ZM49.088 18.603c-2.756 0-5.729 2.248-6.744 5.003L15.802 96.633c-.508 1.45-.435 2.829.217 3.771.58.871 1.596 1.378 2.829 1.378l70.778 1.523c2.756.073 5.802-2.175 6.89-5.004l26.542-72.954c.507-1.45.435-2.828-.218-3.771-.58-.87-1.595-1.378-2.828-1.378l-70.779-1.523c-.072-.072-.072-.072-.145-.072Z"/><path d="M82.882 109.324c-.363 0-.725 0-1.088-.072l-69.4-14.504c-1.234-.29-2.176-.943-2.684-2.03-.58-1.233-.435-2.829.435-4.352L49.16 16.79c1.596-2.901 5.15-4.714 7.905-4.134l69.401 14.504c1.233.29 2.176.943 2.683 2.03.58 1.233.435 2.829-.435 4.352l-39.015 71.576c-1.378 2.466-4.279 4.206-6.817 4.206Zm-26.905-96.45c-2.465 0-5.294 1.668-6.599 4.133L10.363 88.584c-.798 1.45-.943 2.973-.363 4.133.435.943 1.306 1.596 2.466 1.886l69.4 14.504c2.684.58 6.092-1.233 7.615-4.061l39.016-71.577c.797-1.45.942-2.973.362-4.133-.435-.943-1.305-1.596-2.465-1.886L56.993 12.946c-.29-.072-.653-.072-1.016-.072Z"/><path d="M75.195 114.183c-.725 0-1.45-.145-2.103-.435L7.317 85.973c-1.16-.507-1.958-1.378-2.248-2.538-.363-1.45 0-3.046 1.16-4.569L57.21 11.133c2.03-2.755 5.874-4.06 8.557-2.9l65.775 27.702c1.161.508 1.959 1.378 2.249 2.538.362 1.45 0 3.046-1.161 4.569l-51.053 67.805c-1.523 2.031-4.061 3.336-6.382 3.336ZM63.665 8.087c-2.249 0-4.714 1.233-6.237 3.191L6.447 79.084c-1.088 1.378-1.45 2.973-1.088 4.278.29 1.088 1.015 1.886 2.103 2.321l65.775 27.775c2.538 1.088 6.237-.218 8.195-2.828l51.053-67.806c1.088-1.378 1.451-2.973 1.088-4.278-.29-1.088-1.015-1.886-2.103-2.321L65.622 8.45c-.58-.29-1.232-.362-1.958-.362Z"/><path d="M66.928 117.809c-1.16 0-2.32-.29-3.19-.943L3.835 75.893c-1.015-.725-1.668-1.74-1.74-2.973-.145-1.596.58-3.264 1.885-4.569L66.203 6.565c2.538-2.466 6.527-3.191 8.92-1.523l59.901 41.046c1.015.725 1.668 1.74 1.74 2.973.145 1.595-.58 3.263-1.885 4.569l-62.222 61.714c-1.595 1.595-3.77 2.465-5.729 2.465ZM71.932 4.462c-1.886 0-3.989.797-5.511 2.32L4.199 68.496c-1.305 1.305-1.958 2.9-1.813 4.351.072 1.16.725 2.103 1.668 2.756l59.9 41.046c2.321 1.595 6.165.943 8.558-1.451l62.222-61.713c1.305-1.306 1.958-2.901 1.813-4.352-.073-1.16-.726-2.103-1.668-2.755L74.978 5.259c-.87-.58-1.958-.797-3.046-.797Z"/><path d="M58.225 120.13c-1.667 0-3.19-.58-4.278-1.668L2.24 64.652a4.691 4.691 0 0 1-1.233-3.48c.145-1.668 1.088-3.264 2.683-4.424L75.848 3.446c2.9-2.175 6.962-2.103 9.065.073l51.706 53.81a4.694 4.694 0 0 1 1.233 3.48c-.145 1.668-1.088 3.263-2.683 4.424l-72.085 53.301c-1.523 1.088-3.263 1.596-4.859 1.596ZM80.635 2.14a7.895 7.895 0 0 0-4.641 1.524L3.909 56.965c-1.523 1.088-2.466 2.684-2.611 4.207-.073 1.232.29 2.393 1.16 3.263l51.706 53.809c2.031 2.103 5.874 2.103 8.703 0l72.156-53.301c1.523-1.088 2.466-2.684 2.611-4.206.073-1.233-.29-2.394-1.16-3.264L84.695 3.663C83.68 2.65 82.23 2.142 80.634 2.142Z"/><path d="M49.306 121c-2.176 0-4.206-.943-5.222-2.611L2.604 52.614c-.726-1.16-.944-2.538-.581-3.916.435-1.668 1.668-3.19 3.408-4.06L85.855 1.922c3.264-1.74 7.252-.942 8.92 1.74l41.409 65.776c.725 1.16.942 2.538.58 3.916-.435 1.668-1.668 3.19-3.409 4.06l-80.35 42.642c-1.234.653-2.467.943-3.7.943ZM89.554 1.27c-1.16 0-2.393.29-3.554.87L5.65 44.856c-1.668.87-2.828 2.32-3.263 3.916a4.68 4.68 0 0 0 .507 3.698l41.409 65.775c1.595 2.538 5.439 3.264 8.557 1.596l80.424-42.714c1.668-.87 2.828-2.32 3.263-3.916a4.68 4.68 0 0 0-.507-3.699L94.558 3.736c-1.016-1.595-2.901-2.465-5.004-2.465Z"/><path d="M40.386 120.275c-2.684 0-5.15-1.451-6.02-3.844L5.142 40.069a5.675 5.675 0 0 1 .145-4.352c.726-1.595 2.248-2.9 4.061-3.553L96.008 2.14c3.48-1.233 7.324.29 8.485 3.408l29.225 76.363c.508 1.378.435 2.9-.218 4.279-.725 1.595-2.248 2.9-4.061 3.553L42.851 119.84c-.87.29-1.668.435-2.465.435Zm58.16-118.28c-.798 0-1.595.146-2.393.436L9.42 32.527c-1.74.58-3.118 1.812-3.844 3.335-.58 1.306-.652 2.756-.145 4.061l29.153 76.363c1.16 2.974 4.786 4.424 8.122 3.264l86.733-30.096c1.741-.58 3.119-1.813 3.844-3.336.58-1.305.653-2.755.145-4.06L104.275 5.621c-.87-2.248-3.191-3.626-5.729-3.626Z"/><path d="M31.61 117.882c-3.19 0-6.018-2.176-6.526-5.222L9.783 27.378a6.25 6.25 0 0 1 1.015-4.642c1.015-1.523 2.61-2.465 4.496-2.828l90.649-15.737c3.699-.652 7.18 1.668 7.76 5.077l15.301 85.282a6.248 6.248 0 0 1-1.015 4.642c-1.015 1.523-2.611 2.465-4.496 2.828l-90.65 15.737c-.434.072-.797.145-1.232.145ZM107.25 4.389c-.363 0-.798 0-1.161.072L15.439 20.198a6.47 6.47 0 0 0-4.279 2.683c-.942 1.306-1.232 2.829-1.015 4.352l15.302 85.282c.58 3.264 3.916 5.439 7.397 4.859l90.649-15.737a6.467 6.467 0 0 0 4.278-2.683c.943-1.305 1.233-2.828 1.016-4.351l-15.302-85.21c-.507-2.901-3.191-5.004-6.236-5.004Z"/><path d="M115.443 113.748H23.416c-3.698 0-6.744-3.046-6.744-6.744V14.977c0-3.699 3.046-6.745 6.744-6.745h92.027c3.699 0 6.745 3.046 6.745 6.745v92.027a6.732 6.732 0 0 1-6.745 6.744ZM23.416 8.522c-3.553 0-6.454 2.901-6.454 6.455v92.027c0 3.553 2.9 6.454 6.454 6.454h92.027c3.554 0 6.455-2.901 6.455-6.454V14.977c0-3.554-2.901-6.455-6.455-6.455H23.416Z"/></mask><path d="M33.351 111.863c-.725 0-1.45-.218-2.03-.653-.87-.653-1.378-1.813-1.306-3.118l1.886-69.256c.073-2.756 2.32-5.73 5.004-6.672l67.153-21.9c1.378-.436 2.61-.291 3.481.362.87.652 1.377 1.813 1.305 3.118L106.958 83c-.072 2.756-2.32 5.729-5.003 6.672l-67.153 21.901a3.698 3.698 0 0 1-1.45.29Zm72.157-101.527c-.435 0-.943.072-1.378.217L36.977 32.454c-2.61.87-4.786 3.699-4.858 6.454l-1.886 69.256c0 1.233.435 2.321 1.233 2.901.87.653 2.03.798 3.263.363l67.153-21.901c2.611-.87 4.786-3.699 4.859-6.454l1.885-69.256c0-1.233-.435-2.321-1.232-2.901a3.235 3.235 0 0 0-1.886-.58Z" fill="url(#a)"/><path d="M25.664 107.729c-1.015 0-1.885-.363-2.538-1.015-.798-.87-1.16-2.176-.87-3.626l14.069-72.157c.58-2.9 3.336-5.584 6.091-6.019l69.981-10.66c1.378-.218 2.539.145 3.336.942.798.87 1.161 2.176.871 3.626l-14.069 72.157c-.58 2.9-3.336 5.584-6.092 6.02l-69.98 10.66c-.291.072-.509.072-.799.072Zm87.531-93.26c-.217 0-.435 0-.725.073l-69.981 10.66c-2.683.435-5.367 3.046-5.947 5.802L22.473 103.16c-.29 1.378 0 2.611.798 3.409.725.725 1.813 1.088 3.119.87l69.98-10.66c2.684-.435 5.367-3.046 5.947-5.802l13.996-72.157c.291-1.378 0-2.61-.797-3.408-.58-.653-1.378-.943-2.321-.943Z" fill="url(#b)"/><path d="M89.771 103.595h-.145l-70.779-1.523c-1.305 0-2.393-.58-3.045-1.523-.726-1.015-.798-2.538-.29-3.988l26.614-72.955c1.088-2.9 4.134-5.221 6.962-5.221h.145l70.779 1.523c1.305 0 2.393.58 3.046 1.523.725 1.015.797 2.538.29 3.988L96.733 98.374c-1.088 2.901-4.133 5.221-6.962 5.221ZM49.088 18.603c-2.756 0-5.729 2.248-6.744 5.003L15.802 96.633c-.508 1.45-.435 2.829.217 3.771.58.871 1.596 1.378 2.829 1.378l70.778 1.523c2.756.073 5.802-2.175 6.89-5.004l26.542-72.954c.507-1.45.435-2.828-.218-3.771-.58-.87-1.595-1.378-2.828-1.378l-70.779-1.523c-.072-.072-.072-.072-.145-.072Z" fill="url(#c)"/><path d="M82.882 109.324c-.363 0-.725 0-1.088-.072l-69.4-14.504c-1.234-.29-2.176-.943-2.684-2.03-.58-1.233-.435-2.829.435-4.352L49.16 16.79c1.596-2.901 5.15-4.714 7.905-4.134l69.401 14.504c1.233.29 2.176.943 2.683 2.03.58 1.233.435 2.829-.435 4.352l-39.015 71.576c-1.378 2.466-4.279 4.206-6.817 4.206Zm-26.905-96.45c-2.465 0-5.294 1.668-6.599 4.133L10.363 88.584c-.798 1.45-.943 2.973-.363 4.133.435.943 1.306 1.596 2.466 1.886l69.4 14.504c2.684.58 6.092-1.233 7.615-4.061l39.016-71.577c.797-1.45.942-2.973.362-4.133-.435-.943-1.305-1.596-2.465-1.886L56.993 12.946c-.29-.072-.653-.072-1.016-.072Z" fill="url(#d)"/><path d="M75.195 114.183c-.725 0-1.45-.145-2.103-.435L7.317 85.973c-1.16-.507-1.958-1.378-2.248-2.538-.363-1.45 0-3.046 1.16-4.569L57.21 11.133c2.03-2.755 5.874-4.06 8.557-2.9l65.775 27.702c1.161.508 1.959 1.378 2.249 2.538.362 1.45 0 3.046-1.161 4.569l-51.053 67.805c-1.523 2.031-4.061 3.336-6.382 3.336ZM63.665 8.087c-2.249 0-4.714 1.233-6.237 3.191L6.447 79.084c-1.088 1.378-1.45 2.973-1.088 4.278.29 1.088 1.015 1.886 2.103 2.321l65.775 27.775c2.538 1.088 6.237-.218 8.195-2.828l51.053-67.806c1.088-1.378 1.451-2.973 1.088-4.278-.29-1.088-1.015-1.886-2.103-2.321L65.622 8.45c-.58-.29-1.232-.362-1.958-.362Z" fill="url(#e)"/><path d="M66.928 117.809c-1.16 0-2.32-.29-3.19-.943L3.835 75.893c-1.015-.725-1.668-1.74-1.74-2.973-.145-1.596.58-3.264 1.885-4.569L66.203 6.565c2.538-2.466 6.527-3.191 8.92-1.523l59.901 41.046c1.015.725 1.668 1.74 1.74 2.973.145 1.595-.58 3.263-1.885 4.569l-62.222 61.714c-1.595 1.595-3.77 2.465-5.729 2.465ZM71.932 4.462c-1.886 0-3.989.797-5.511 2.32L4.199 68.496c-1.305 1.305-1.958 2.9-1.813 4.351.072 1.16.725 2.103 1.668 2.756l59.9 41.046c2.321 1.595 6.165.943 8.558-1.451l62.222-61.713c1.305-1.306 1.958-2.901 1.813-4.352-.073-1.16-.726-2.103-1.668-2.755L74.978 5.259c-.87-.58-1.958-.797-3.046-.797Z" fill="url(#f)"/><path d="M58.225 120.13c-1.667 0-3.19-.58-4.278-1.668L2.24 64.652a4.691 4.691 0 0 1-1.233-3.48c.145-1.668 1.088-3.264 2.683-4.424L75.848 3.446c2.9-2.175 6.962-2.103 9.065.073l51.706 53.81a4.694 4.694 0 0 1 1.233 3.48c-.145 1.668-1.088 3.263-2.683 4.424l-72.085 53.301c-1.523 1.088-3.263 1.596-4.859 1.596ZM80.635 2.14a7.895 7.895 0 0 0-4.641 1.524L3.909 56.965c-1.523 1.088-2.466 2.684-2.611 4.207-.073 1.232.29 2.393 1.16 3.263l51.706 53.809c2.031 2.103 5.874 2.103 8.703 0l72.156-53.301c1.523-1.088 2.466-2.684 2.611-4.206.073-1.233-.29-2.394-1.16-3.264L84.695 3.663C83.68 2.65 82.23 2.142 80.634 2.142Z" fill="url(#g)"/><path d="M49.306 121c-2.176 0-4.206-.943-5.222-2.611L2.604 52.614c-.726-1.16-.944-2.538-.581-3.916.435-1.668 1.668-3.19 3.408-4.06L85.855 1.922c3.264-1.74 7.252-.942 8.92 1.74l41.409 65.776c.725 1.16.942 2.538.58 3.916-.435 1.668-1.668 3.19-3.409 4.06l-80.35 42.642c-1.234.653-2.467.943-3.7.943ZM89.554 1.27c-1.16 0-2.393.29-3.554.87L5.65 44.856c-1.668.87-2.828 2.32-3.263 3.916a4.68 4.68 0 0 0 .507 3.698l41.409 65.775c1.595 2.538 5.439 3.264 8.557 1.596l80.424-42.714c1.668-.87 2.828-2.32 3.263-3.916a4.68 4.68 0 0 0-.507-3.699L94.558 3.736c-1.016-1.595-2.901-2.465-5.004-2.465Z" fill="url(#h)"/><path d="M40.386 120.275c-2.684 0-5.15-1.451-6.02-3.844L5.142 40.069a5.675 5.675 0 0 1 .145-4.352c.726-1.595 2.248-2.9 4.061-3.553L96.008 2.14c3.48-1.233 7.324.29 8.485 3.408l29.225 76.363c.508 1.378.435 2.9-.218 4.279-.725 1.595-2.248 2.9-4.061 3.553L42.851 119.84c-.87.29-1.668.435-2.465.435Zm58.16-118.28c-.798 0-1.595.146-2.393.436L9.42 32.527c-1.74.58-3.118 1.812-3.844 3.335-.58 1.306-.652 2.756-.145 4.061l29.153 76.363c1.16 2.974 4.786 4.424 8.122 3.264l86.733-30.096c1.741-.58 3.119-1.813 3.844-3.336.58-1.305.653-2.755.145-4.06L104.275 5.621c-.87-2.248-3.191-3.626-5.729-3.626Z" fill="url(#i)"/><path d="M31.61 117.882c-3.19 0-6.018-2.176-6.526-5.222L9.783 27.378a6.25 6.25 0 0 1 1.015-4.642c1.015-1.523 2.61-2.465 4.496-2.828l90.649-15.737c3.699-.652 7.18 1.668 7.76 5.077l15.301 85.282a6.248 6.248 0 0 1-1.015 4.642c-1.015 1.523-2.611 2.465-4.496 2.828l-90.65 15.737c-.434.072-.797.145-1.232.145ZM107.25 4.389c-.363 0-.798 0-1.161.072L15.439 20.198a6.47 6.47 0 0 0-4.279 2.683c-.942 1.306-1.232 2.829-1.015 4.352l15.302 85.282c.58 3.264 3.916 5.439 7.397 4.859l90.649-15.737a6.467 6.467 0 0 0 4.278-2.683c.943-1.305 1.233-2.828 1.016-4.351l-15.302-85.21c-.507-2.901-3.191-5.004-6.236-5.004Z" fill="url(#j)"/><path d="M115.443 113.748H23.416c-3.698 0-6.744-3.046-6.744-6.744V14.977c0-3.699 3.046-6.745 6.744-6.745h92.027c3.699 0 6.745 3.046 6.745 6.745v92.027a6.732 6.732 0 0 1-6.745 6.744ZM23.416 8.522c-3.553 0-6.454 2.901-6.454 6.455v92.027c0 3.553 2.9 6.454 6.454 6.454h92.027c3.554 0 6.455-2.901 6.455-6.454V14.977c0-3.554-2.901-6.455-6.455-6.455H23.416Z" fill="url(#k)"/><path d="M108.626 13.917h.145v-.2h-.145v.2Zm7.687 5.003h.146v-.2h-.146v.2Zm7.08 6.41-.145-.072-.09.178.145.073.09-.179Zm5.059 8.229.145.072.089-.179-.145-.072-.089.179Zm3.963 9.336.072.072.141-.14-.072-.073-.141.141Zm2.248 10.66.072.073.142-.142-.073-.072-.141.141Zm.595 11.633-.073-.145-.178.09.072.144.179-.09Zm-1.813 12.183-.073-.145-.178.09.072.145.179-.09ZM129.529 89.7l-.073-.146-.179.09.073.145.179-.09Zm-6.136 11.937v.145h.2v-.145h-.2Zm-92.072 9.573.12-.16-.12.16Zm-1.306-3.118.2.011v-.006l-.2-.005Zm1.886-69.256.2.005-.2-.005Zm5.004-6.672-.062-.19-.005.001.067.189Zm67.153-21.9-.061-.192-.001.001.062.19Zm4.786 3.48-.2-.011v.006l.2.005ZM106.958 83l-.2-.005.2.005Zm-5.003 6.672.062.19.004-.002-.066-.188Zm-67.153 21.901-.062-.191-.009.003-.008.004.079.184Zm69.328-101.02.062.19h.001l-.063-.19ZM36.977 32.454l-.062-.19h-.001l.063.19Zm-4.858 6.454.2.006-.2-.006Zm-1.886 69.256-.2-.005v.005h.2Zm1.233 2.901.12-.16-.002-.002-.118.162Zm3.263.363-.062-.191-.004.002.066.189Zm67.153-21.901.062.19h.001l-.063-.19Zm4.859-6.454-.2-.006.2.006Zm1.885-69.256.2.005v-.005h-.2Zm-1.232-2.901.117-.162-.001-.001-.116.163Zm-84.268 95.798-.147.135.006.006.141-.141Zm-.87-3.626.196.039v-.001l-.196-.038Zm14.069-72.157-.196-.04v.002l.196.038Zm6.091-6.019-.03-.198.03.198Zm69.981-10.66.031.197h.001l-.032-.197Zm3.336.942.148-.135-.006-.006-.142.141Zm.871 3.626-.197-.039v.001l.197.038Zm-14.069 72.157.196.04v-.002l-.196-.038Zm-6.092 6.02.03.197h.001l-.03-.198Zm-69.98 10.66-.031-.198-.01.001-.008.002.048.195Zm86.007-93.115.03.197h.009l.009-.003-.048-.194Zm-69.981 10.66-.03-.198h-.002l.032.198Zm-5.947 5.802-.196-.042v.003l.196.039ZM22.473 103.16l.196.042v-.003l-.195-.039Zm3.917 4.279-.03-.198-.003.001.033.197Zm69.98-10.66.03.197h.003l-.032-.197Zm5.947-5.802.196.041.001-.003-.197-.038Zm13.996-72.157-.195-.04-.001.002.196.038Zm-.797-3.408-.15.133.008.008.142-.141Zm-25.89 88.183-.004.2h.004v-.2Zm-70.779-1.523.005-.2h-.005v.2Zm-3.045-1.523.164-.113-.002-.003-.162.116Zm-.29-3.988-.188-.069-.001.003.189.066Zm26.614-72.955-.187-.07v.002l.187.068Zm7.107-5.221.004-.2h-.004v.2Zm70.779 1.523-.004.2h.004v-.2Zm3.046 1.523-.165.114.002.002.163-.116Zm.29 3.988.188.069.001-.003-.189-.066ZM96.733 98.374l.188.07v-.002l-.188-.068Zm-54.39-74.768-.187-.069v.001l.188.068ZM15.803 96.633l-.188-.068-.001.002.189.066Zm.217 3.771.167-.111-.002-.002-.165.113Zm2.829 1.378.004-.2h-.005v.2Zm70.778 1.523.006-.2h-.001l-.005.2Zm6.89-5.004.186.072.002-.003-.188-.069Zm26.542-72.954.188.068.001-.002-.189-.066Zm-.218-3.771-.166.11.002.004.164-.114Zm-2.828-1.378-.004.2h.004v-.2Zm-70.779-1.523-.141.142.056.056.08.002.005-.2Zm32.561 90.577-.04.196h.001l.04-.196Zm-69.4-14.504-.047.195h.005l.041-.195Zm-2.684-2.03.181-.085-.181.085Zm.435-4.352.174.1.002-.004-.176-.096ZM49.16 16.79l-.175-.097v.001l.175.096Zm7.905-4.134-.041.196.041-.196Zm69.401 14.504.046-.195h-.005l-.041.195Zm2.683 2.03-.181.085.181-.084Zm-.435 4.352-.173-.1-.002.004.175.096Zm-39.015 71.576.174.098.001-.002-.175-.096Zm-40.32-88.11.175.095v-.002l-.176-.094ZM10.362 88.583l.175.096-.175-.096ZM10 92.717l.182-.083-.003-.006-.179.09Zm2.466 1.886-.049.194.008.002.04-.196Zm69.4 14.504.043-.196h-.001l-.041.196Zm7.615-4.061-.175-.096v.001l.175.095Zm39.016-71.577-.176-.096.176.096Zm.362-4.133-.181.083.002.006.179-.09Zm-2.465-1.886.048-.194-.008-.002-.04.196ZM56.993 12.946l-.049.194.008.002.04-.196Zm16.099 100.802.081-.183-.003-.001-.078.184ZM7.317 85.973l-.08.183.002.001.078-.184Zm-2.248-2.538-.194.049.194-.049Zm1.16-4.569.16.121-.16-.12ZM57.21 11.133l.16.12.001-.001-.16-.119Zm8.557-2.9-.079.183h.002l.078-.183Zm65.775 27.702.081-.183-.003-.001-.078.184Zm2.249 2.538.194-.048-.194.048Zm-1.161 4.569-.159-.121.159.12Zm-51.053 67.805-.16-.12.16.12Zm-24.15-99.569-.157-.123-.002.003.16.12ZM6.448 79.084l.157.124.003-.004-.16-.12Zm-1.088 4.278.193-.051v-.002l-.193.053Zm2.103 2.321.078-.184-.004-.001-.074.185Zm65.775 27.775.079-.184h-.001l-.078.184Zm8.195-2.828-.16-.121v.001l.16.12Zm51.053-67.806-.157-.124-.003.004.16.12Zm1.088-4.278-.193.051v.002l.193-.053Zm-2.103-2.321-.078.184.004.002.074-.186ZM65.622 8.45l-.09.18.013.004.077-.184Zm-1.885 108.416.12-.16-.007-.005-.113.165Zm-59.9-40.973-.117.163.003.002.113-.165ZM2.095 72.92l.2-.012-.001-.006-.2.018ZM3.98 68.35l-.14-.142H3.84l.141.142ZM66.203 6.565l-.14-.144-.001.002.14.142Zm8.92-1.523-.115.164h.002l.113-.164Zm59.901 41.046.116-.163-.003-.002-.113.165Zm1.74 2.973-.2.012.001.006.199-.018Zm-1.885 4.569.141.142v-.001l-.141-.141Zm-62.222 61.714-.14-.142h-.001l.141.142ZM66.421 6.782l.14.142-.14-.142ZM4.199 68.496l-.14-.142h-.001l.14.142Zm-1.813 4.351.2-.012-.001-.008-.2.02Zm1.668 2.756-.114.164.114-.164Zm59.9 41.046.114-.165-.113.165Zm8.558-1.451-.14-.142-.001.001.141.141Zm62.222-61.713.141.142v-.001l-.141-.141Zm1.813-4.352-.2.013.001.007.199-.02Zm-1.668-2.755.114-.165h-.001l-.113.165ZM74.978 5.259l.113-.165-.002-.001-.111.166ZM53.947 118.462l-.144.138.003.003.14-.141ZM2.24 64.652l-.147.136.002.003.145-.138Zm-1.233-3.48-.2-.018v.006l.2.012Zm2.683-4.424.118.162v-.001l-.118-.161ZM75.848 3.446l.118.161h.002l-.12-.16Zm9.065.073.144-.139-.144.139Zm51.706 53.81.147-.137-.003-.002-.144.138Zm1.233 3.48.199.017v-.006l-.199-.011Zm-2.683 4.424-.118-.162h-.001l.119.162Zm-72.085 53.301.117.163.002-.002-.119-.161ZM75.993 3.664l-.119-.161.119.16ZM3.909 56.965l.116.163.002-.002-.118-.16Zm-2.611 4.207-.2-.02v.008l.2.012Zm1.16 3.263.144-.139-.002-.003-.142.142Zm51.706 53.809-.144.139.144-.139Zm8.703 0-.12-.161v.001l.12.16Zm72.156-53.301-.116-.163-.002.002.118.16Zm2.611-4.206.199.018.001-.007-.2-.011Zm-1.16-3.264-.144.139.002.002.142-.14ZM84.695 3.663l.144-.138-.002-.003-.142.142ZM44.085 118.39l.17-.104-.002-.002-.169.106ZM2.602 52.614l-.17.106.001.001.17-.107Zm-.58-3.916.193.051-.193-.05Zm3.408-4.06.09.178.004-.002-.094-.177ZM85.855 1.922l.094.177-.094-.177Zm8.92 1.74-.17.106.001.001.17-.106Zm41.409 65.776.169-.106-.169.106Zm.58 3.916-.194-.051.194.05Zm-3.409 4.06-.089-.178-.004.002.093.177Zm-80.35 42.642.093.177-.094-.177ZM86 2.141l-.09-.18-.004.003.094.177ZM5.65 44.855l.093.177-.093-.177ZM2.386 48.77l.192.053-.192-.053Zm.507 3.698-.171.103.002.004.17-.107Zm41.409 65.775.17-.106h-.001l-.17.106Zm8.557 1.596-.094-.177.094.177Zm80.424-42.714-.093-.178-.001.001.094.177Zm3.263-3.916-.192-.054-.001.001.193.053Zm-.507-3.699.171-.103-.002-.003-.169.106ZM94.558 3.736l.169-.106v-.001l-.17.107ZM34.367 116.431l.188-.068-.002-.003-.186.071ZM5.14 40.069l-.187.069v.002l.187-.072Zm.145-4.352-.182-.082.182.082Zm4.061-3.553-.065-.19-.002.002.067.188ZM96.008 2.14l.065.189h.002l-.067-.19Zm8.485 3.408-.188.07.001.002.187-.072Zm29.225 76.363.188-.069-.001-.002-.187.071Zm-.218 4.279-.18-.086-.002.003.182.083Zm-4.061 3.553.066.19.002-.002-.068-.188ZM42.851 119.84l.064.189h.002l-.066-.189ZM96.153 2.43l.066.19.002-.001-.068-.188ZM9.42 32.527l.063.19h.002l-.065-.19Zm-3.844 3.336-.18-.086-.002.005.182.081Zm-.145 4.061.187-.07v-.002l-.187.072Zm29.153 76.363-.187.072v.001l.187-.073Zm8.122 3.264-.065-.189.065.189Zm86.733-30.096-.063-.19-.002.001.065.19Zm3.844-3.336.181.086.002-.005-.183-.08Zm.145-4.06-.187.07.001.002.186-.073ZM104.275 5.621l.187-.071V5.55l-.187.072ZM25.085 112.66l.196-.033v-.002l-.197.035ZM9.782 27.378l.196-.036-.196.036Zm1.015-4.642.165.113.001-.002-.166-.11Zm4.496-2.828-.034-.197h-.004l.038.197Zm90.649-15.737.034.197h.001l-.035-.197Zm7.76 5.077-.197.033v.002l.197-.035Zm15.301 85.282-.197.036h.001l.196-.035Zm-1.015 4.642-.165-.113-.001.002.166.11ZM123.493 102l.034.197.004-.001-.038-.196Zm-90.65 15.737.034.197-.033-.197ZM106.089 4.461l.034.198.005-.001-.039-.197ZM15.439 20.198l.033.197h.001l-.034-.197Zm-4.279 2.683.163.117.001-.002-.164-.115Zm-1.015 4.352-.198.028.001.007.197-.035Zm15.302 85.282.197-.035-.197.035Zm7.397 4.859.033.197-.033-.197Zm90.649-15.737-.033-.197h-.001l.034.197Zm4.278-2.683-.162-.117-.001.002.163.115Zm1.016-4.351.198-.028-.001-.007-.197.035Zm-15.302-85.21-.197.034v.001l.197-.035Zm8.703 97.611h.2-.2Zm-88.837 4.659a3.19 3.19 0 0 1-1.91-.613l-.24.32c.618.464 1.386.693 2.15.693v-.4Zm-1.91-.613c-.809-.606-1.295-1.698-1.226-2.947l-.4-.022c-.075 1.361.454 2.59 1.386 3.289l.24-.32Zm-1.226-2.953 1.886-69.256-.4-.01-1.886 69.255.4.011Zm1.886-69.256c.035-1.328.595-2.72 1.483-3.9.887-1.18 2.089-2.132 3.387-2.588l-.132-.378c-1.386.487-2.65 1.493-3.575 2.725-.926 1.23-1.525 2.702-1.563 4.13l.4.011Zm4.866-6.487 67.153-21.9-.124-.381-67.153 21.9.124.381Zm67.151-21.9c1.335-.422 2.496-.272 3.301.332l.24-.32c-.936-.702-2.241-.842-3.662-.394l.121.382Zm3.301.332c.808.606 1.295 1.697 1.225 2.947l.4.022c.075-1.361-.454-2.59-1.385-3.29l-.24.32Zm1.225 2.953-1.886 69.255.4.011 1.886-69.255-.4-.011Zm-1.886 69.256c-.034 1.327-.595 2.72-1.482 3.9-.887 1.18-2.09 2.132-3.388 2.588l.133.377c1.385-.486 2.648-1.493 3.574-2.724.926-1.231 1.526-2.703 1.563-4.13l-.4-.011Zm-4.865 6.487-67.153 21.9.124.381 67.153-21.901-.124-.38Zm-67.17 21.907a3.486 3.486 0 0 1-1.372.274v.4c.457 0 .992-.076 1.53-.307l-.158-.367Zm70.785-101.253c-.454 0-.984.075-1.441.228l.126.379a4.36 4.36 0 0 1 1.315-.207v-.4Zm-1.44.227-67.153 21.9.124.381 67.153-21.9-.124-.38ZM36.914 32.264c-1.35.45-2.578 1.402-3.477 2.59-.9 1.186-1.48 2.622-1.518 4.049l.4.01c.034-1.328.578-2.685 1.436-3.818.86-1.134 2.024-2.03 3.285-2.451l-.126-.38Zm-4.995 6.639-1.886 69.256.4.011 1.885-69.256-.4-.011Zm-1.886 69.261c0 1.273.449 2.433 1.315 3.063l.236-.324c-.73-.53-1.151-1.546-1.151-2.739h-.4Zm1.313 3.061c.932.699 2.165.845 3.45.391l-.133-.377c-1.181.417-2.27.272-3.077-.334l-.24.32Zm3.445.393 67.153-21.901-.124-.38-67.153 21.9.124.381Zm67.154-21.902c1.35-.45 2.578-1.401 3.478-2.588.899-1.188 1.48-2.623 1.518-4.05l-.4-.01c-.035 1.328-.578 2.684-1.437 3.818-.859 1.133-2.024 2.03-3.285 2.451l.126.38Zm4.996-6.638 1.885-69.256-.4-.01-1.885 69.255.4.01Zm1.885-69.261c0-1.273-.449-2.433-1.315-3.063l-.235.324c.729.53 1.15 1.546 1.15 2.739h.4Zm-1.316-3.064a3.434 3.434 0 0 0-2.002-.617v.4c.685 0 1.297.205 1.769.543l.233-.326Zm-81.846 96.776c-.964 0-1.783-.343-2.396-.957l-.283.283c.692.692 1.614 1.074 2.68 1.074v-.4Zm-2.39-.95c-.75-.818-1.101-2.056-.822-3.452l-.392-.078c-.301 1.504.073 2.877.919 3.8l.295-.27Zm-.822-3.453 14.069-72.157-.393-.076L22.06 103.05l.392.076ZM36.521 30.97c.28-1.404 1.091-2.765 2.174-3.83 1.083-1.066 2.425-1.82 3.752-2.03l-.062-.395c-1.428.225-2.842 1.03-3.97 2.14-1.13 1.11-1.987 2.54-2.286 4.037l.392.078Zm5.925-5.86 69.982-10.66-.061-.396-69.98 10.66.06.396Zm69.983-10.66c1.324-.21 2.417.14 3.163.886l.283-.283c-.85-.85-2.077-1.225-3.509-.999l.063.395Zm3.157.88c.749.817 1.101 2.055.821 3.451l.393.079c.301-1.505-.073-2.878-.919-3.8l-.295.27Zm.821 3.452L102.339 90.94l.392.076L116.8 18.86l-.393-.077Zm-14.068 72.156c-.281 1.404-1.092 2.766-2.174 3.83-1.084 1.066-2.425 1.821-3.753 2.03l.062.396c1.428-.226 2.843-1.03 3.971-2.14 1.129-1.11 1.987-2.541 2.286-4.038l-.392-.078Zm-5.926 5.86L26.432 107.46l.06.395 69.981-10.66-.06-.395Zm-70 10.664c-.263.066-.458.067-.749.067v.4c.29 0 .53.001.847-.078l-.097-.389Zm86.782-93.193c-.219 0-.458 0-.774.079l.097.388c.265-.066.461-.067.677-.067v-.4Zm-.755.075-69.981 10.66.06.396L112.5 14.74l-.06-.396Zm-69.983 10.66c-1.391.226-2.769 1.012-3.87 2.085-1.101 1.074-1.94 2.45-2.24 3.873l.391.083c.28-1.332 1.072-2.64 2.129-3.67 1.056-1.029 2.362-1.766 3.654-1.976l-.064-.394Zm-6.111 5.961-14.069 72.157.393.077 14.069-72.157-.393-.077ZM22.278 103.12c-.3 1.426-.006 2.734.852 3.591l.283-.283c-.738-.738-1.024-1.895-.744-3.225l-.391-.083Zm.852 3.591c.776.776 1.931 1.153 3.292.926l-.065-.394c-1.25.208-2.27-.14-2.944-.815l-.283.283Zm3.29.927 69.98-10.66-.06-.396-69.98 10.66.06.396Zm69.983-10.66c1.39-.227 2.768-1.012 3.869-2.086 1.102-1.073 1.941-2.449 2.241-3.873l-.391-.082c-.281 1.332-1.073 2.64-2.129 3.669-1.056 1.03-2.362 1.767-3.654 1.976l.064.395Zm6.111-5.962 13.996-72.157-.393-.076-13.996 72.157.393.076Zm13.995-72.153c.3-1.426.006-2.734-.852-3.591l-.283.282c.738.738 1.024 1.896.744 3.226l.391.083Zm-.844-3.583c-.626-.705-1.484-1.01-2.47-1.01v.4c.9 0 1.637.275 2.171.876l.299-.266Zm-25.894 88.116H89.626v.4H89.772v-.4Zm-.14 0-70.78-1.523-.008.4 70.78 1.523.008-.4Zm-70.784-1.523c-1.243 0-2.268-.551-2.88-1.436l-.33.227c.692 1 1.843 1.609 3.21 1.609v-.4Zm-2.883-1.439c-.675-.945-.758-2.394-.264-3.806l-.377-.132c-.521 1.488-.46 3.085.316 4.171l.325-.233Zm-.264-3.804 26.614-72.954-.376-.137-26.614 72.954.376.137Zm26.613-72.952c.53-1.411 1.538-2.687 2.762-3.61 1.225-.922 2.652-1.482 4.013-1.482v-.4c-1.467 0-2.977.6-4.254 1.563-1.278.963-2.336 2.298-2.895 3.788l.374.14Zm6.775-5.092H49.234v-.4H49.088v.4Zm.14 0 70.78 1.523.008-.4-70.779-1.523-.008.4Zm70.784 1.523c1.243 0 2.268.55 2.881 1.437l.329-.228c-.692-1-1.843-1.61-3.21-1.61v.4Zm2.883 1.44c.675.944.758 2.393.264 3.805l.378.132c.521-1.488.459-3.085-.316-4.17l-.326.232Zm.265 3.803L96.545 98.305l.376.137 26.615-72.954-.376-.137ZM96.546 98.304c-.53 1.41-1.537 2.686-2.761 3.609-1.225.923-2.653 1.482-4.014 1.482v.4c1.468 0 2.977-.601 4.254-1.563 1.278-.963 2.337-2.298 2.895-3.788l-.374-.14ZM49.088 18.403c-1.43 0-2.904.582-4.144 1.508-1.242.926-2.265 2.207-2.788 3.626l.376.139c.492-1.337 1.463-2.558 2.65-3.445 1.19-.887 2.58-1.428 3.906-1.428v-.4Zm-6.932 5.135L15.614 96.565l.376.137 26.542-73.027-.376-.137Zm-26.543 73.03c-.52 1.486-.46 2.937.242 3.95l.329-.227c-.604-.873-.688-2.178-.194-3.592l-.377-.132Zm.24 3.947c.623.935 1.706 1.467 2.995 1.467v-.4c-1.177 0-2.125-.483-2.662-1.289l-.333.222Zm2.99 1.467 70.78 1.523.008-.4-70.78-1.523-.008.4Zm70.778 1.523c1.433.038 2.925-.527 4.193-1.452 1.27-.927 2.33-2.226 2.888-3.68l-.373-.144c-.528 1.374-1.536 2.614-2.75 3.5-1.216.888-2.624 1.411-3.947 1.376l-.01.4Zm7.083-5.135 26.542-72.955-.376-.136-26.542 72.954.376.137Zm26.543-72.957c.52-1.487.459-2.938-.242-3.95l-.329.227c.604.872.688 2.177.193 3.59l.378.133Zm-.24-3.948c-.623-.934-1.706-1.467-2.995-1.467v.4c1.177 0 2.124.483 2.662 1.289l.333-.222Zm-2.991-1.467-70.779-1.523-.008.4 70.779 1.523.008-.4Zm-70.641-1.464-.051-.05a.334.334 0 0 0-.074-.051c-.07-.035-.14-.03-.162-.03v.4h.023l-.015-.003a.134.134 0 0 1-.04-.019c-.002-.001-.002-.002 0 0a.34.34 0 0 1 .013.013l.023.023.283-.283Zm33.507 90.59c-.366 0-.709 0-1.049-.068l-.078.392c.385.077.767.076 1.127.076v-.4Zm-1.047-.068-69.4-14.504-.083.392 69.401 14.504.082-.392ZM12.44 94.553c-1.187-.279-2.071-.9-2.548-1.92l-.362.169c.539 1.155 1.54 1.84 2.818 2.14l.092-.389Zm-2.548-1.92c-.545-1.16-.42-2.685.428-4.167l-.348-.199c-.893 1.564-1.057 3.229-.442 4.536l.362-.17Zm.43-4.171 39.015-71.577-.351-.191L9.97 88.271l.35.191Zm39.015-71.576c.776-1.412 2.033-2.564 3.434-3.29 1.402-.729 2.932-1.022 4.254-.744l.082-.392c-1.434-.302-3.058.021-4.52.78-1.464.76-2.782 1.965-3.6 3.453l.35.193Zm7.688-4.034 69.401 14.504.082-.392-69.4-14.504-.083.392Zm69.396 14.503c1.187.279 2.072.9 2.548 1.92l.363-.169c-.539-1.155-1.54-1.84-2.819-2.14l-.092.389Zm2.548 1.92c.546 1.16.42 2.685-.427 4.168l.347.198c.893-1.564 1.057-3.229.442-4.536l-.362.17Zm-.429 4.171-39.016 71.577.351.191 39.016-71.577-.351-.191Zm-39.015 71.575c-1.345 2.407-4.182 4.103-6.642 4.103v.4c2.616 0 5.581-1.784 6.991-4.308l-.349-.195ZM55.977 12.674c-2.542 0-5.437 1.711-6.776 4.24l.354.187c1.272-2.403 4.034-4.027 6.422-4.027v-.4Zm-6.774 4.238L10.187 88.488l.351.192 39.016-71.577-.352-.191ZM10.187 88.487c-.818 1.489-.984 3.083-.366 4.32l.358-.179c-.542-1.084-.418-2.535.359-3.948l-.35-.193Zm-.368 4.314c.465 1.009 1.391 1.694 2.598 1.996l.097-.388c-1.114-.279-1.928-.898-2.332-1.775l-.363.167Zm2.606 1.998 69.4 14.504.083-.392-69.401-14.504-.082.392Zm69.4 14.503c1.399.303 2.97-.021 4.378-.771 1.41-.751 2.673-1.939 3.454-3.39l-.352-.19c-.74 1.376-1.944 2.51-3.29 3.227-1.348.718-2.822 1.011-4.106.733l-.085.391Zm7.832-4.161 39.015-71.576-.351-.191-39.015 71.576.35.191Zm39.015-71.575c.818-1.489.984-3.083.366-4.32l-.358.179c.542 1.084.418 2.535-.359 3.948l.351.193Zm.369-4.314c-.466-1.009-1.392-1.694-2.599-1.996l-.097.388c1.114.279 1.928.898 2.333 1.775l.363-.167Zm-2.607-1.998-69.4-14.504-.082.392 69.401 14.504.081-.392ZM57.041 12.752c-.319-.08-.709-.078-1.064-.078v.4c.37 0 .706.001.967.066l.097-.388Zm18.154 101.231c-.7 0-1.396-.14-2.022-.418l-.162.366c.68.302 1.433.452 2.184.452v-.4Zm-2.025-.419L7.395 85.789l-.156.368 65.775 27.775.156-.368ZM7.397 85.79c-1.111-.486-1.861-1.311-2.134-2.404l-.388.098c.307 1.228 1.152 2.143 2.362 2.672l.16-.366Zm-2.134-2.404c-.345-1.38-.006-2.914 1.125-4.398l-.318-.243c-1.19 1.562-1.575 3.218-1.195 4.739l.388-.097Zm1.126-4.4L57.37 11.255l-.32-.241L6.07 78.746l.319.24ZM57.37 11.253c.99-1.343 2.423-2.335 3.937-2.848 1.516-.514 3.095-.544 4.38.012l.159-.367c-1.398-.605-3.082-.561-4.667-.024-1.586.538-3.09 1.577-4.13 2.99l.321.237Zm8.319-2.835 65.775 27.702.155-.368L65.845 8.048l-.155.369Zm65.772 27.701c1.112.486 1.861 1.311 2.135 2.404l.388-.097c-.307-1.229-1.153-2.144-2.362-2.673l-.161.366Zm2.135 2.404c.345 1.38.005 2.914-1.126 4.399l.318.242c1.19-1.562 1.576-3.218 1.196-4.738l-.388.097Zm-1.126 4.4-51.054 67.805.32.241 51.053-67.806-.319-.24Zm-51.054 67.805c-1.488 1.984-3.97 3.256-6.222 3.256v.4c2.388 0 4.984-1.339 6.542-3.416l-.32-.24ZM63.664 7.887c-2.314 0-4.836 1.265-6.394 3.269l.316.245c1.488-1.913 3.897-3.114 6.078-3.114v-.4Zm-6.396 3.271L6.287 78.964l.32.24L57.587 11.4l-.32-.24ZM6.29 78.96c-1.12 1.417-1.507 3.077-1.124 4.456l.386-.107c-.343-1.232-.005-2.763 1.052-4.101l-.314-.248Zm-1.124 4.454c.307 1.152 1.078 1.998 2.222 2.455l.148-.371c-1.032-.413-1.71-1.163-1.984-2.187l-.386.103Zm2.218 2.453 65.775 27.775.156-.368L7.54 85.499l-.156.368Zm65.774 27.775c1.327.569 2.94.506 4.46-.022 1.52-.529 2.969-1.531 3.974-2.87l-.32-.24c-.954 1.271-2.334 2.227-3.786 2.732-1.453.505-2.96.551-4.17.032l-.158.368Zm8.433-2.892 51.054-67.805-.32-.241-51.053 67.805.32.241Zm51.051-67.802c1.119-1.417 1.507-3.077 1.124-4.456l-.386.107c.343 1.232.005 2.763-1.052 4.101l.314.248Zm1.124-4.454c-.307-1.152-1.078-1.997-2.222-2.455l-.148.372c1.032.413 1.711 1.163 1.984 2.186l.386-.103Zm-2.218-2.453L65.7 8.266l-.155.368 65.847 27.775.156-.368ZM65.712 8.27c-.622-.31-1.312-.384-2.048-.384v.4c.715 0 1.33.073 1.869.342l.179-.358Zm1.216 109.338c-1.13 0-2.245-.283-3.07-.903l-.24.32c.914.686 2.12.983 3.31.983v-.4Zm-3.078-.908L3.95 75.728l-.227.33 59.901 40.974.226-.331ZM3.953 75.731c-.975-.697-1.59-1.66-1.657-2.823l-.4.023c.077 1.304.769 2.37 1.824 3.125l.233-.326ZM2.295 72.9c-.138-1.522.554-3.134 1.828-4.409l-.283-.282c-1.337 1.336-2.095 3.06-1.943 4.728l.398-.036Zm1.827-4.408L66.344 6.706l-.282-.283L3.84 68.209l.282.284Zm62.22-61.785a8.524 8.524 0 0 1 4.41-2.258c1.576-.274 3.114-.04 4.257.756l.228-.328c-1.25-.872-2.903-1.11-4.554-.822a8.924 8.924 0 0 0-4.62 2.365l.28.287Zm8.668-1.501 59.901 41.046.226-.33L75.236 4.877l-.226.33Zm59.898 41.043c.975.697 1.588 1.66 1.657 2.823l.399-.024c-.077-1.303-.768-2.37-1.824-3.124l-.232.325Zm1.657 2.829c.138 1.523-.554 3.135-1.828 4.41l.283.282c1.337-1.337 2.095-3.06 1.943-4.728l-.398.036Zm-1.827 4.409-62.222 61.714.282.284 62.222-61.714-.282-.284Zm-62.222 61.714c-1.56 1.559-3.685 2.407-5.588 2.407v.4c2.013 0 4.239-.892 5.87-2.524l-.282-.283Zm-.584-110.94c-1.937 0-4.092.817-5.653 2.379l.283.283c1.484-1.485 3.536-2.262 5.37-2.262v-.4ZM66.28 6.64 4.058 68.354l.282.284L66.56 6.924l-.281-.284ZM4.058 68.355c-1.337 1.336-2.023 2.988-1.871 4.512l.398-.04c-.138-1.376.481-2.916 1.755-4.19l-.282-.282ZM2.186 72.86c.077 1.234.773 2.228 1.754 2.907l.228-.328c-.905-.626-1.515-1.518-1.582-2.604l-.4.025Zm1.755 2.908 59.9 41.046.227-.33L4.167 75.438l-.226.33Zm59.9 41.046c1.214.834 2.81 1.072 4.399.803a8.276 8.276 0 0 0 4.413-2.277l-.282-.283a7.87 7.87 0 0 1-4.198 2.165c-1.513.257-2.998.023-4.105-.738l-.226.33Zm8.812-1.474 62.222-61.713-.282-.284-62.222 61.713.282.284Zm62.222-61.714c1.337-1.337 2.023-2.988 1.871-4.512l-.398.04c.137 1.376-.482 2.915-1.756 4.19l.283.282Zm1.871-4.505c-.077-1.235-.772-2.229-1.753-2.908l-.228.33c.904.625 1.514 1.517 1.582 2.603l.399-.025Zm-1.754-2.908L75.091 5.094l-.226.33 59.901 41.119.226-.33ZM75.089 5.093c-.915-.61-2.046-.831-3.157-.831v.4c1.064 0 2.109.213 2.935.764l.222-.333ZM58.225 119.93c-1.621 0-3.091-.564-4.137-1.61l-.282.283c1.13 1.13 2.705 1.727 4.42 1.727v-.4Zm-4.134-1.607L2.385 64.513l-.289.278L53.803 118.6l.288-.277ZM2.388 64.517a4.491 4.491 0 0 1-1.18-3.334l-.4-.023a4.891 4.891 0 0 0 1.286 3.628l.294-.271Zm-1.181-3.328c.14-1.602 1.046-3.148 2.602-4.28l-.236-.323C1.938 57.776.96 59.421.81 61.154l.398.035Zm2.603-4.28L75.967 3.607l-.238-.322L3.572 56.587l.238.322ZM75.968 3.606c2.84-2.13 6.784-2.035 8.8.052l.288-.278c-2.189-2.265-6.367-2.315-9.328-.094l.24.32Zm8.8.051 51.707 53.81.288-.277L85.057 3.38l-.289.277Zm51.704 53.807a4.492 4.492 0 0 1 1.18 3.334l.399.022a4.888 4.888 0 0 0-1.285-3.628l-.294.272Zm1.18 3.328c-.139 1.602-1.046 3.148-2.601 4.279l.235.323c1.636-1.189 2.614-2.834 2.765-4.568l-.399-.034Zm-2.602 4.28-72.085 53.302.238.321 72.084-53.301-.237-.322Zm-72.082 53.3c-1.489 1.063-3.188 1.558-4.743 1.558v.4c1.637 0 3.418-.521 4.976-1.633l-.233-.325ZM80.634 1.941c-1.636 0-3.346.52-4.76 1.562l.237.322a7.695 7.695 0 0 1 4.523-1.484v-.4Zm-4.76 1.562L3.79 56.805l.237.321L76.112 3.825l-.238-.322Zm-72.082 53.3C2.23 57.92 1.25 59.565 1.1 61.153l.398.038c.139-1.458 1.045-3.004 2.528-4.063l-.233-.325ZM1.098 61.16c-.075 1.28.302 2.5 1.219 3.416l.283-.282c-.824-.824-1.172-1.925-1.102-3.11l-.4-.024Zm1.216 3.413 51.706 53.81.289-.277-51.707-53.81-.288.277Zm51.707 53.81c2.12 2.195 6.08 2.167 8.965.022l-.239-.321c-2.772 2.061-6.497 2.032-8.439.021l-.287.278Zm8.965.022 72.156-53.302-.237-.321-72.157 53.301.238.322Zm72.154-53.3c1.563-1.116 2.542-2.761 2.693-4.35l-.398-.038c-.139 1.458-1.045 3.004-2.528 4.063l.233.325Zm2.694-4.357c.075-1.28-.302-2.5-1.219-3.416l-.283.282c.824.824 1.172 1.925 1.103 3.11l.399.024Zm-1.216-3.414L84.839 3.525l-.288.277 51.779 53.81.288-.278ZM84.837 3.522c-1.061-1.06-2.567-1.581-4.203-1.581v.4c1.554 0 2.95.494 3.92 1.464l.282-.283ZM49.306 120.8c-2.124 0-4.08-.92-5.05-2.515l-.343.208c1.06 1.742 3.165 2.707 5.393 2.707v-.4Zm-5.053-2.517L2.773 52.508l-.339.213 41.481 65.775.338-.213ZM2.773 52.508c-.696-1.113-.905-2.434-.557-3.759l-.386-.102c-.377 1.431-.151 2.866.604 4.073l.339-.212Zm-.556-3.76c.42-1.608 1.612-3.086 3.304-3.932l-.179-.358c-1.789.895-3.062 2.463-3.512 4.19l.387.1Zm3.308-3.934L85.95 2.1l-.188-.353L5.338 44.46l.187.353ZM85.95 2.1c3.194-1.703 7.057-.904 8.656 1.67l.34-.212C93.21.765 89.095-.03 85.761 1.747l.188.353Zm8.657 1.67 41.408 65.775.339-.213L94.944 3.557l-.338.213Zm41.408 65.775c.696 1.113.905 2.434.556 3.759l.387.102c.377-1.431.151-2.866-.604-4.073l-.339.212Zm.556 3.76c-.419 1.608-1.612 3.086-3.304 3.932l.179.358c1.789-.895 3.062-2.463 3.512-4.19l-.387-.1Zm-3.308 3.934L52.91 119.881l.188.353 80.351-42.641-.187-.354ZM52.91 119.88c-1.204.638-2.405.92-3.604.92v.4c1.266 0 2.53-.298 3.792-.966l-.188-.354ZM89.554 1.07c-1.193 0-2.457.299-3.643.892l.179.358c1.134-.567 2.336-.85 3.464-.85v-.4Zm-3.648.894L5.556 44.678l.187.353L86.094 2.317l-.188-.353ZM5.556 44.677c-1.714.895-2.913 2.389-3.363 4.041l.386.105c.42-1.538 1.541-2.945 3.163-3.79l-.186-.356Zm-3.363 4.04a4.88 4.88 0 0 0 .529 3.855l.343-.206a4.48 4.48 0 0 1-.487-3.542l-.385-.107Zm.531 3.859 41.409 65.775.338-.213L3.063 52.363l-.339.213Zm41.408 65.775c1.666 2.649 5.635 3.369 8.821 1.665l-.188-.353c-3.05 1.632-6.768.902-8.294-1.525l-.339.213Zm8.82 1.665 80.425-42.714-.188-.353-80.424 42.714.188.353Zm80.423-42.713c1.715-.894 2.914-2.388 3.364-4.04l-.386-.106c-.419 1.539-1.541 2.946-3.163 3.791l.185.355Zm3.364-4.04a4.878 4.878 0 0 0-.529-3.855l-.343.206a4.48 4.48 0 0 1 .487 3.542l.385.107Zm-.531-3.858L94.727 3.63l-.339.213 41.482 65.775.338-.213ZM94.726 3.629c-1.06-1.666-3.017-2.558-5.172-2.558v.4c2.05 0 3.864.847 4.835 2.373l.337-.215Zm-54.34 116.446c-2.617 0-4.996-1.414-5.832-3.712l-.375.137c.904 2.487 3.457 3.975 6.207 3.975v-.4Zm-5.833-3.715L5.328 39.997l-.373.143 29.225 76.363.373-.143ZM5.33 40c-.49-1.332-.49-2.8.14-4.2l-.365-.165a5.875 5.875 0 0 0-.15 4.503l.375-.139Zm.14-4.2c.699-1.539 2.176-2.81 3.946-3.448l-.135-.376c-1.856.668-3.425 2.007-4.176 3.659l.364.165Zm3.944-3.447L96.073 2.33l-.13-.378L9.281 31.975l.13.378ZM96.075 2.329c3.398-1.203 7.115.293 8.23 3.29l.375-.14c-1.205-3.24-5.175-4.789-8.739-3.527l.134.377Zm8.231 3.292 29.225 76.363.374-.143L104.68 5.478l-.374.143Zm29.224 76.36c.489 1.326.42 2.793-.21 4.124l.361.171c.675-1.425.751-3.003.225-4.433l-.376.138Zm-.212 4.127c-.699 1.539-2.176 2.81-3.946 3.448l.135.376c1.856-.668 3.425-2.007 4.176-3.659l-.365-.165Zm-3.944 3.447-86.588 30.096.131.378 86.588-30.096-.131-.378ZM42.788 119.65c-.854.285-1.63.425-2.402.425v.4c.823 0 1.642-.15 2.529-.446l-.127-.379ZM98.546 1.796c-.822 0-1.643.15-2.461.447l.136.376a6.762 6.762 0 0 1 2.325-.423v-.4Zm-2.459.446L9.355 32.337l.131.378L96.22 2.62l-.131-.378ZM9.358 32.337c-1.79.597-3.212 1.866-3.961 3.44l.361.171c.701-1.472 2.036-2.668 3.726-3.232l-.126-.38ZM5.394 35.78c-.6 1.35-.678 2.856-.149 4.215l.373-.145c-.487-1.252-.42-2.646.141-3.907l-.365-.163Zm-.15 4.214 29.153 76.363.374-.143L5.618 39.852l-.373.143Zm29.154 76.364c1.206 3.09 4.955 4.569 8.374 3.38l-.131-.378c-3.253 1.131-6.756-.291-7.87-3.147l-.373.145Zm8.374 3.38 86.733-30.096-.131-.378-86.733 30.096.13.378Zm86.731-30.095c1.79-.597 3.211-1.866 3.96-3.44l-.361-.172c-.701 1.473-2.036 2.669-3.726 3.232l.127.38Zm3.963-3.445c.6-1.35.677-2.855.148-4.214l-.372.145c.486 1.251.419 2.646-.142 3.907l.366.162Zm.149-4.213L104.462 5.55l-.374.142 29.153 76.435.374-.142ZM104.462 5.55c-.905-2.339-3.31-3.754-5.916-3.754v.4c2.471 0 4.707 1.34 5.543 3.498l.373-.144ZM31.611 117.682c-3.105 0-5.84-2.117-6.33-5.055l-.394.066c.526 3.154 3.447 5.389 6.724 5.389v-.4Zm-6.33-5.057L9.979 27.342l-.393.07 15.301 85.284.394-.071ZM9.979 27.342a6.05 6.05 0 0 1 .984-4.493l-.33-.226a6.45 6.45 0 0 0-1.047 4.79l.393-.071Zm.985-4.495c.98-1.47 2.525-2.388 4.368-2.742l-.076-.393c-1.928.37-3.575 1.338-4.625 2.913l.333.222Zm4.364-2.742 90.649-15.737-.068-.394-90.65 15.737.07.394Zm90.65-15.737c3.601-.635 6.968 1.626 7.528 4.913l.394-.067c-.601-3.53-4.196-5.91-7.992-5.24l.07.394Zm7.528 4.915 15.301 85.283.394-.07L113.9 9.211l-.394.071Zm15.302 85.283a6.05 6.05 0 0 1-.984 4.493l.33.226a6.447 6.447 0 0 0 1.047-4.79l-.393.071Zm-.985 4.495c-.981 1.471-2.526 2.388-4.368 2.743l.076.392c1.928-.371 3.575-1.338 4.624-2.913l-.332-.222Zm-4.364 2.742-90.65 15.737.069.394 90.649-15.737-.068-.394Zm-90.648 15.736c-.443.074-.786.143-1.2.143v.4c.456 0 .838-.077 1.266-.148l-.066-.395Zm74.438-113.35c-.358 0-.814 0-1.2.076l.078.393c.34-.068.754-.069 1.122-.069v-.4Zm-1.195.075-90.65 15.737.07.394L106.121 4.66l-.068-.395ZM15.406 20.001a6.67 6.67 0 0 0-4.41 2.766l.328.23a6.27 6.27 0 0 1 4.148-2.602l-.066-.394Zm-4.408 2.763c-.977 1.353-1.275 2.93-1.05 4.497l.395-.057c-.211-1.478.07-2.947.98-4.206l-.325-.234Zm-1.05 4.504L25.25 112.55l.394-.071-15.302-85.283-.394.07ZM25.25 112.55c.601 3.384 4.05 5.617 7.627 5.021l-.066-.394c-3.386.564-6.609-1.554-7.167-4.697l-.394.07Zm7.628 5.021 90.649-15.737-.068-.394-90.65 15.737.069.394Zm90.648-15.736a6.67 6.67 0 0 0 4.409-2.766l-.327-.23a6.268 6.268 0 0 1-4.148 2.601l.066.395Zm4.408-2.764c.976-1.352 1.275-2.929 1.051-4.496l-.396.056c.211 1.479-.071 2.948-.98 4.206l.325.234Zm1.05-4.503-15.302-85.21-.394.07 15.302 85.21.394-.07Zm-15.302-85.21c-.526-3.005-3.3-5.169-6.433-5.169v.4c2.957 0 5.55 2.042 6.039 4.838l.394-.069Zm1.761 104.19H23.416v.4h92.027v-.4Zm-92.027 0c-3.588 0-6.544-2.956-6.544-6.544h-.4c0 3.809 3.135 6.944 6.944 6.944v-.4Zm-6.544-6.544V14.977h-.4v92.027h.4Zm0-92.027c0-3.588 2.956-6.545 6.544-6.545v-.4c-3.809 0-6.944 3.136-6.944 6.945h.4Zm6.544-6.545h92.027v-.4H23.416v.4Zm92.027 0c3.588 0 6.545 2.957 6.545 6.545h.4c0-3.81-3.136-6.945-6.945-6.945v.4Zm6.545 6.545v92.027h.4V14.977h-.4Zm0 92.027a6.532 6.532 0 0 1-6.545 6.544v.4a6.932 6.932 0 0 0 6.945-6.944h-.4ZM23.416 8.322c-3.663 0-6.654 2.99-6.654 6.655h.4c0-3.443 2.811-6.255 6.254-6.255v-.4Zm-6.654 6.655v92.027h.4V14.977h-.4Zm0 92.027c0 3.664 2.99 6.654 6.654 6.654v-.4c-3.443 0-6.254-2.811-6.254-6.254h-.4Zm6.654 6.654h92.027v-.4H23.416v.4Zm92.027 0c3.664 0 6.655-2.99 6.655-6.654h-.4c0 3.443-2.812 6.254-6.255 6.254v.4Zm6.655-6.654V14.977h-.4v92.027h.4Zm0-92.027c0-3.664-2.991-6.655-6.655-6.655v.4c3.443 0 6.255 2.812 6.255 6.255h.4Zm-6.655-6.655H23.416v.4h92.027v-.4Z" fill="url(#l)" mask="url(#m)"/><defs><linearGradient id="a" x1="115.62" y1="121" x2="1.363" y2="102.07" gradientUnits="userSpaceOnUse"><stop offset=".026" stop-color="#1AECDF"/><stop offset=".469" stop-color="#14FD55"/><stop offset="1" stop-color="#0BB913"/></linearGradient><linearGradient id="b" x1="115.62" y1="121" x2="1.363" y2="102.07" gradientUnits="userSpaceOnUse"><stop offset=".026" stop-color="#1AECDF"/><stop offset=".469" stop-color="#14FD55"/><stop offset="1" stop-color="#0BB913"/></linearGradient><linearGradient id="c" x1="115.62" y1="121" x2="1.363" y2="102.07" gradientUnits="userSpaceOnUse"><stop offset=".026" stop-color="#1AECDF"/><stop offset=".469" stop-color="#14FD55"/><stop offset="1" stop-color="#0BB913"/></linearGradient><linearGradient id="d" x1="115.62" y1="121" x2="1.363" y2="102.07" gradientUnits="userSpaceOnUse"><stop offset=".026" stop-color="#1AECDF"/><stop offset=".469" stop-color="#14FD55"/><stop offset="1" stop-color="#0BB913"/></linearGradient><linearGradient id="e" x1="115.62" y1="121" x2="1.363" y2="102.07" gradientUnits="userSpaceOnUse"><stop offset=".026" stop-color="#1AECDF"/><stop offset=".469" stop-color="#14FD55"/><stop offset="1" stop-color="#0BB913"/></linearGradient><linearGradient id="f" x1="115.62" y1="121" x2="1.363" y2="102.07" gradientUnits="userSpaceOnUse"><stop offset=".026" stop-color="#1AECDF"/><stop offset=".469" stop-color="#14FD55"/><stop offset="1" stop-color="#0BB913"/></linearGradient><linearGradient id="g" x1="115.62" y1="121" x2="1.363" y2="102.07" gradientUnits="userSpaceOnUse"><stop offset=".026" stop-color="#1AECDF"/><stop offset=".469" stop-color="#14FD55"/><stop offset="1" stop-color="#0BB913"/></linearGradient><linearGradient id="h" x1="115.62" y1="121" x2="1.363" y2="102.07" gradientUnits="userSpaceOnUse"><stop offset=".026" stop-color="#1AECDF"/><stop offset=".469" stop-color="#14FD55"/><stop offset="1" stop-color="#0BB913"/></linearGradient><linearGradient id="i" x1="115.62" y1="121" x2="1.363" y2="102.07" gradientUnits="userSpaceOnUse"><stop offset=".026" stop-color="#1AECDF"/><stop offset=".469" stop-color="#14FD55"/><stop offset="1" stop-color="#0BB913"/></linearGradient><linearGradient id="j" x1="115.62" y1="121" x2="1.363" y2="102.07" gradientUnits="userSpaceOnUse"><stop offset=".026" stop-color="#1AECDF"/><stop offset=".469" stop-color="#14FD55"/><stop offset="1" stop-color="#0BB913"/></linearGradient><linearGradient id="k" x1="115.62" y1="121" x2="1.363" y2="102.07" gradientUnits="userSpaceOnUse"><stop offset=".026" stop-color="#1AECDF"/><stop offset=".469" stop-color="#14FD55"/><stop offset="1" stop-color="#0BB913"/></linearGradient><linearGradient id="l" x1="115.62" y1="121" x2="1.363" y2="102.07" gradientUnits="userSpaceOnUse"><stop offset=".026" stop-color="#1AECDF"/><stop offset=".469" stop-color="#14FD55"/><stop offset="1" stop-color="#0BB913"/></linearGradient></defs></svg>