<svg viewBox="0 0 140 122" fill="none" xmlns="http://www.w3.org/2000/svg"><mask id="t" maskUnits="userSpaceOnUse" x="0" y="0" viewBox="0 0 140 122" fill="#000"><path fill="#fff" d="M0 0h140v122H0z"/><path d="M80.635 68.641 58.36 65.01l3.427-23.232L80.635 68.64Zm-21.862-3.906 21.108 3.427-17.819-25.426-3.29 21.999Z"/><path d="m81.32 70.012-24.74-5.62 5.688-24.808L81.32 70.012Zm-24.33-5.825 23.644 5.345-18.23-28.989-5.413 23.644Z"/><path d="m82.005 71.588-27.413-7.95 8.293-26.316 19.12 34.266Zm-27.001-8.155L81.32 71.04 62.953 38.144l-7.95 25.289Z"/><path d="M82.69 73.37 52.33 62.68l11.446-27.824L82.69 73.37ZM52.81 62.473l29.195 10.28-18.16-37.076L52.81 62.473Z"/><path d="M83.307 75.289 49.932 61.446 65.01 32.25l18.298 43.038Zm-32.895-14.05 32.21 13.365-17.681-41.53L50.41 61.24Z"/><path d="m83.787 77.413-36.46-17.475 19.258-30.36.137.343 17.065 47.492Zm-35.98-17.612L83.17 76.797 66.448 30.332 47.808 59.8Z"/><path d="m84.267 79.744-39.75-21.725.138-.137L68.573 26.7l15.694 53.044ZM44.997 57.95l38.721 21.108-15.35-51.605-23.37 30.497Z"/><path d="M84.54 82.348 41.367 55.826l29.606-32.073.068.342 13.5 58.253Zm-42.626-26.59 42.079 25.836-13.227-57.156-28.852 31.32Z"/><path d="M84.678 85.158 38.076 53.222l35.842-32.416 10.76 64.352ZM38.624 53.153l45.574 31.25-10.485-62.912-35.089 31.662Z"/><path d="M84.61 88.173 34.58 50.069 77.55 17.79l7.06 70.383ZM35.128 50.069l49.07 37.35-6.923-68.943L35.13 50.069Z"/><path d="M84.335 91.463 30.88 46.437l50.988-31.662v.274l2.467 76.414ZM31.428 46.506l52.496 44.203-2.467-75.317-50.029 31.113Z"/><path d="m83.718 95.026-56.813-52.77 59.966-30.29v.273l-3.153 82.787ZM27.522 42.325l55.854 51.947 3.152-81.758-59.006 29.811Z"/><path d="M82.759 98.796 22.862 37.39 92.833 9.224v.274L82.76 98.796ZM23.41 37.528l59.075 60.514 9.937-88.338L23.41 37.528Z"/><path d="m81.457 102.839-62.844-71L99.755 6.69l-.069.273-18.23 95.877ZM19.23 31.977l62.021 70.108L99.344 7.168 19.23 31.977Z"/><path d="m79.606 107.088-.205-.274-65.174-81.348 93.546-20.97-28.166 102.592ZM14.844 25.672l64.625 80.662L107.362 4.906 14.844 25.672Z"/><path d="M77.208 111.542 9.772 18.27 117.025 2.713 77.208 111.542Zm-66.82-92.998 66.683 92.313L116.477 3.124 10.389 18.544Z"/><path d="M74.124 116.203 5.386 10.115 127.58 1.48 74.124 116.203ZM6.003 10.457l68.12 105.06L127.032 1.891 6.003 10.457Z"/><path d="M70.286 121 1 1h138.572L70.286 121ZM1.616 1.343l68.67 118.972L138.955 1.343H1.617Z"/></mask><path d="M80.635 68.641 58.36 65.01l3.427-23.232L80.635 68.64Zm-21.862-3.906 21.108 3.427-17.819-25.426-3.29 21.999Z" fill="url(#a)"/><path d="m81.32 70.012-24.74-5.62 5.688-24.808L81.32 70.012Zm-24.33-5.825 23.644 5.345-18.23-28.989-5.413 23.644Z" fill="url(#b)"/><path d="m82.005 71.588-27.413-7.95 8.293-26.316 19.12 34.266Zm-27.001-8.155L81.32 71.04 62.953 38.144l-7.95 25.289Z" fill="url(#c)"/><path d="M82.69 73.37 52.33 62.68l11.446-27.824L82.69 73.37ZM52.81 62.473l29.195 10.28-18.16-37.076L52.81 62.473Z" fill="url(#d)"/><path d="M83.307 75.289 49.932 61.446 65.01 32.25l18.298 43.038Zm-32.895-14.05 32.21 13.365-17.681-41.53L50.41 61.24Z" fill="url(#e)"/><path d="m83.787 77.413-36.46-17.475 19.258-30.36.137.343 17.065 47.492Zm-35.98-17.612L83.17 76.797 66.448 30.332 47.808 59.8Z" fill="url(#f)"/><path d="m84.267 79.744-39.75-21.725.138-.137L68.573 26.7l15.694 53.044ZM44.997 57.95l38.721 21.108-15.35-51.605-23.37 30.497Z" fill="url(#g)"/><path d="M84.54 82.348 41.367 55.826l29.606-32.073.068.342 13.5 58.253Zm-42.626-26.59 42.079 25.836-13.227-57.156-28.852 31.32Z" fill="url(#h)"/><path d="M84.678 85.158 38.076 53.222l35.842-32.416 10.76 64.352ZM38.624 53.153l45.574 31.25-10.485-62.912-35.089 31.662Z" fill="url(#i)"/><path d="M84.61 88.173 34.58 50.069 77.55 17.79l7.06 70.383ZM35.128 50.069l49.07 37.35-6.923-68.943L35.13 50.069Z" fill="url(#j)"/><path d="M84.335 91.463 30.88 46.437l50.988-31.662v.274l2.467 76.414ZM31.428 46.506l52.496 44.203-2.467-75.317-50.029 31.113Z" fill="url(#k)"/><path d="m83.718 95.026-56.813-52.77 59.966-30.29v.273l-3.153 82.787ZM27.522 42.325l55.854 51.947 3.152-81.758-59.006 29.811Z" fill="url(#l)"/><path d="M82.759 98.796 22.862 37.39 92.833 9.224v.274L82.76 98.796ZM23.41 37.528l59.075 60.514 9.937-88.338L23.41 37.528Z" fill="url(#m)"/><path d="m81.457 102.839-62.844-71L99.755 6.69l-.069.273-18.23 95.877ZM19.23 31.977l62.021 70.108L99.344 7.168 19.23 31.977Z" fill="url(#n)"/><path d="m79.606 107.088-.205-.274-65.174-81.348 93.546-20.97-28.166 102.592ZM14.844 25.672l64.625 80.662L107.362 4.906 14.844 25.672Z" fill="url(#o)"/><path d="M77.208 111.542 9.772 18.27 117.025 2.713 77.208 111.542Zm-66.82-92.998 66.683 92.313L116.477 3.124 10.389 18.544Z" fill="url(#p)"/><path d="M74.124 116.203 5.386 10.115 127.58 1.48 74.124 116.203ZM6.003 10.457l68.12 105.06L127.032 1.891 6.003 10.457Z" fill="url(#q)"/><path d="M70.286 121 1 1h138.572L70.286 121ZM1.616 1.343l68.67 118.972L138.955 1.343H1.617Z" fill="url(#r)"/><path d="M80.635 68.641 58.36 65.01l3.427-23.232L80.635 68.64Zm-21.862-3.906 21.108 3.427-17.819-25.426-3.29 21.999Z" stroke="url(#s)" stroke-width=".4" mask="url(#t)"/><path d="m81.32 70.012-24.74-5.62 5.688-24.808L81.32 70.012Zm-24.33-5.825 23.644 5.345-18.23-28.989-5.413 23.644Z" stroke="url(#u)" stroke-width=".4" mask="url(#t)"/><path d="m82.005 71.588-27.413-7.95 8.293-26.316 19.12 34.266Zm-27.001-8.155L81.32 71.04 62.953 38.144l-7.95 25.289Z" stroke="url(#v)" stroke-width=".4" mask="url(#t)"/><path d="M82.69 73.37 52.33 62.68l11.446-27.824L82.69 73.37ZM52.81 62.473l29.195 10.28-18.16-37.076L52.81 62.473Z" stroke="url(#w)" stroke-width=".4" mask="url(#t)"/><path d="M83.307 75.289 49.932 61.446 65.01 32.25l18.298 43.038Zm-32.895-14.05 32.21 13.365-17.681-41.53L50.41 61.24Z" stroke="url(#x)" stroke-width=".4" mask="url(#t)"/><path d="m83.787 77.413-36.46-17.475 19.258-30.36.137.343 17.065 47.492Zm-35.98-17.612L83.17 76.797 66.448 30.332 47.808 59.8Z" stroke="url(#y)" stroke-width=".4" mask="url(#t)"/><path d="m84.267 79.744-39.75-21.725.138-.137L68.573 26.7l15.694 53.044ZM44.997 57.95l38.721 21.108-15.35-51.605-23.37 30.497Z" stroke="url(#z)" stroke-width=".4" mask="url(#t)"/><path d="M84.54 82.348 41.367 55.826l29.606-32.073.068.342 13.5 58.253Zm-42.626-26.59 42.079 25.836-13.227-57.156-28.852 31.32Z" stroke="url(#A)" stroke-width=".4" mask="url(#t)"/><path d="M84.678 85.158 38.076 53.222l35.842-32.416 10.76 64.352ZM38.624 53.153l45.574 31.25-10.485-62.912-35.089 31.662Z" stroke="url(#B)" stroke-width=".4" mask="url(#t)"/><path d="M84.61 88.173 34.58 50.069 77.55 17.79l7.06 70.383ZM35.128 50.069l49.07 37.35-6.923-68.943L35.13 50.069Z" stroke="url(#C)" stroke-width=".4" mask="url(#t)"/><path d="M84.335 91.463 30.88 46.437l50.988-31.662v.274l2.467 76.414ZM31.428 46.506l52.496 44.203-2.467-75.317-50.029 31.113Z" stroke="url(#D)" stroke-width=".4" mask="url(#t)"/><path d="m83.718 95.026-56.813-52.77 59.966-30.29v.273l-3.153 82.787ZM27.522 42.325l55.854 51.947 3.152-81.758-59.006 29.811Z" stroke="url(#E)" stroke-width=".4" mask="url(#t)"/><path d="M82.759 98.796 22.862 37.39 92.833 9.224v.274L82.76 98.796ZM23.41 37.528l59.075 60.514 9.937-88.338L23.41 37.528Z" stroke="url(#F)" stroke-width=".4" mask="url(#t)"/><path d="m81.457 102.839-62.844-71L99.755 6.69l-.069.273-18.23 95.877ZM19.23 31.977l62.021 70.108L99.344 7.168 19.23 31.977Z" stroke="url(#G)" stroke-width=".4" mask="url(#t)"/><path d="m79.606 107.088-.205-.274-65.174-81.348 93.546-20.97-28.166 102.592ZM14.844 25.672l64.625 80.662L107.362 4.906 14.844 25.672Z" stroke="url(#H)" stroke-width=".4" mask="url(#t)"/><path d="M77.208 111.542 9.772 18.27 117.025 2.713 77.208 111.542Zm-66.82-92.998 66.683 92.313L116.477 3.124 10.389 18.544Z" stroke="url(#I)" stroke-width=".4" mask="url(#t)"/><path d="M74.124 116.203 5.386 10.115 127.58 1.48 74.124 116.203ZM6.003 10.457l68.12 105.06L127.032 1.891 6.003 10.457Z" stroke="url(#J)" stroke-width=".4" mask="url(#t)"/><path d="M70.286 121 1 1h138.572L70.286 121ZM1.616 1.343l68.67 118.972L138.955 1.343H1.617Z" stroke="url(#K)" stroke-width=".4" mask="url(#t)"/><defs><linearGradient id="a" x1="102.62" y1="83.566" x2="13.762" y2="78.326" gradientUnits="userSpaceOnUse"><stop offset=".167" stop-color="#1AECDF"/><stop offset=".609" stop-color="#14FD55"/><stop offset="1" stop-color="#0BB913"/></linearGradient><linearGradient id="b" x1="102.62" y1="83.566" x2="13.762" y2="78.326" gradientUnits="userSpaceOnUse"><stop offset=".167" stop-color="#1AECDF"/><stop offset=".609" stop-color="#14FD55"/><stop offset="1" stop-color="#0BB913"/></linearGradient><linearGradient id="c" x1="102.62" y1="83.566" x2="13.762" y2="78.326" gradientUnits="userSpaceOnUse"><stop offset=".167" stop-color="#1AECDF"/><stop offset=".609" stop-color="#14FD55"/><stop offset="1" stop-color="#0BB913"/></linearGradient><linearGradient id="d" x1="102.62" y1="83.566" x2="13.762" y2="78.326" gradientUnits="userSpaceOnUse"><stop offset=".167" stop-color="#1AECDF"/><stop offset=".609" stop-color="#14FD55"/><stop offset="1" stop-color="#0BB913"/></linearGradient><linearGradient id="e" x1="102.62" y1="83.566" x2="13.762" y2="78.326" gradientUnits="userSpaceOnUse"><stop offset=".167" stop-color="#1AECDF"/><stop offset=".609" stop-color="#14FD55"/><stop offset="1" stop-color="#0BB913"/></linearGradient><linearGradient id="f" x1="102.62" y1="83.566" x2="13.762" y2="78.326" gradientUnits="userSpaceOnUse"><stop offset=".167" stop-color="#1AECDF"/><stop offset=".609" stop-color="#14FD55"/><stop offset="1" stop-color="#0BB913"/></linearGradient><linearGradient id="g" x1="102.62" y1="83.566" x2="13.762" y2="78.326" gradientUnits="userSpaceOnUse"><stop offset=".167" stop-color="#1AECDF"/><stop offset=".609" stop-color="#14FD55"/><stop offset="1" stop-color="#0BB913"/></linearGradient><linearGradient id="h" x1="102.62" y1="83.566" x2="13.762" y2="78.326" gradientUnits="userSpaceOnUse"><stop offset=".167" stop-color="#1AECDF"/><stop offset=".609" stop-color="#14FD55"/><stop offset="1" stop-color="#0BB913"/></linearGradient><linearGradient id="i" x1="102.62" y1="83.566" x2="13.762" y2="78.326" gradientUnits="userSpaceOnUse"><stop offset=".167" stop-color="#1AECDF"/><stop offset=".609" stop-color="#14FD55"/><stop offset="1" stop-color="#0BB913"/></linearGradient><linearGradient id="j" x1="102.62" y1="83.566" x2="13.762" y2="78.326" gradientUnits="userSpaceOnUse"><stop offset=".167" stop-color="#1AECDF"/><stop offset=".609" stop-color="#14FD55"/><stop offset="1" stop-color="#0BB913"/></linearGradient><linearGradient id="k" x1="102.62" y1="83.566" x2="13.762" y2="78.326" gradientUnits="userSpaceOnUse"><stop offset=".167" stop-color="#1AECDF"/><stop offset=".609" stop-color="#14FD55"/><stop offset="1" stop-color="#0BB913"/></linearGradient><linearGradient id="l" x1="102.62" y1="83.566" x2="13.762" y2="78.326" gradientUnits="userSpaceOnUse"><stop offset=".167" stop-color="#1AECDF"/><stop offset=".609" stop-color="#14FD55"/><stop offset="1" stop-color="#0BB913"/></linearGradient><linearGradient id="m" x1="102.62" y1="83.566" x2="13.762" y2="78.326" gradientUnits="userSpaceOnUse"><stop offset=".167" stop-color="#1AECDF"/><stop offset=".609" stop-color="#14FD55"/><stop offset="1" stop-color="#0BB913"/></linearGradient><linearGradient id="n" x1="102.62" y1="83.566" x2="13.762" y2="78.326" gradientUnits="userSpaceOnUse"><stop offset=".167" stop-color="#1AECDF"/><stop offset=".609" stop-color="#14FD55"/><stop offset="1" stop-color="#0BB913"/></linearGradient><linearGradient id="o" x1="102.62" y1="83.566" x2="13.762" y2="78.326" gradientUnits="userSpaceOnUse"><stop offset=".167" stop-color="#1AECDF"/><stop offset=".609" stop-color="#14FD55"/><stop offset="1" stop-color="#0BB913"/></linearGradient><linearGradient id="p" x1="102.62" y1="83.566" x2="13.762" y2="78.326" gradientUnits="userSpaceOnUse"><stop offset=".167" stop-color="#1AECDF"/><stop offset=".609" stop-color="#14FD55"/><stop offset="1" stop-color="#0BB913"/></linearGradient><linearGradient id="q" x1="102.62" y1="83.566" x2="13.762" y2="78.326" gradientUnits="userSpaceOnUse"><stop offset=".167" stop-color="#1AECDF"/><stop offset=".609" stop-color="#14FD55"/><stop offset="1" stop-color="#0BB913"/></linearGradient><linearGradient id="r" x1="102.62" y1="83.566" x2="13.762" y2="78.326" gradientUnits="userSpaceOnUse"><stop offset=".167" stop-color="#1AECDF"/><stop offset=".609" stop-color="#14FD55"/><stop offset="1" stop-color="#0BB913"/></linearGradient><linearGradient id="s" x1="117.054" y1="121" x2="1.445" y2="101.607" gradientUnits="userSpaceOnUse"><stop offset=".026" stop-color="#1AECDF"/><stop offset=".469" stop-color="#14FD55"/><stop offset="1" stop-color="#0BB913"/></linearGradient><linearGradient id="u" x1="117.054" y1="121" x2="1.445" y2="101.607" gradientUnits="userSpaceOnUse"><stop offset=".026" stop-color="#1AECDF"/><stop offset=".469" stop-color="#14FD55"/><stop offset="1" stop-color="#0BB913"/></linearGradient><linearGradient id="v" x1="117.054" y1="121" x2="1.445" y2="101.607" gradientUnits="userSpaceOnUse"><stop offset=".026" stop-color="#1AECDF"/><stop offset=".469" stop-color="#14FD55"/><stop offset="1" stop-color="#0BB913"/></linearGradient><linearGradient id="w" x1="117.054" y1="121" x2="1.445" y2="101.607" gradientUnits="userSpaceOnUse"><stop offset=".026" stop-color="#1AECDF"/><stop offset=".469" stop-color="#14FD55"/><stop offset="1" stop-color="#0BB913"/></linearGradient><linearGradient id="x" x1="117.054" y1="121" x2="1.445" y2="101.607" gradientUnits="userSpaceOnUse"><stop offset=".026" stop-color="#1AECDF"/><stop offset=".469" stop-color="#14FD55"/><stop offset="1" stop-color="#0BB913"/></linearGradient><linearGradient id="y" x1="117.054" y1="121" x2="1.445" y2="101.607" gradientUnits="userSpaceOnUse"><stop offset=".026" stop-color="#1AECDF"/><stop offset=".469" stop-color="#14FD55"/><stop offset="1" stop-color="#0BB913"/></linearGradient><linearGradient id="z" x1="117.054" y1="121" x2="1.445" y2="101.607" gradientUnits="userSpaceOnUse"><stop offset=".026" stop-color="#1AECDF"/><stop offset=".469" stop-color="#14FD55"/><stop offset="1" stop-color="#0BB913"/></linearGradient><linearGradient id="A" x1="117.054" y1="121" x2="1.445" y2="101.607" gradientUnits="userSpaceOnUse"><stop offset=".026" stop-color="#1AECDF"/><stop offset=".469" stop-color="#14FD55"/><stop offset="1" stop-color="#0BB913"/></linearGradient><linearGradient id="B" x1="117.054" y1="121" x2="1.445" y2="101.607" gradientUnits="userSpaceOnUse"><stop offset=".026" stop-color="#1AECDF"/><stop offset=".469" stop-color="#14FD55"/><stop offset="1" stop-color="#0BB913"/></linearGradient><linearGradient id="C" x1="117.054" y1="121" x2="1.445" y2="101.607" gradientUnits="userSpaceOnUse"><stop offset=".026" stop-color="#1AECDF"/><stop offset=".469" stop-color="#14FD55"/><stop offset="1" stop-color="#0BB913"/></linearGradient><linearGradient id="D" x1="117.054" y1="121" x2="1.445" y2="101.607" gradientUnits="userSpaceOnUse"><stop offset=".026" stop-color="#1AECDF"/><stop offset=".469" stop-color="#14FD55"/><stop offset="1" stop-color="#0BB913"/></linearGradient><linearGradient id="E" x1="117.054" y1="121" x2="1.445" y2="101.607" gradientUnits="userSpaceOnUse"><stop offset=".026" stop-color="#1AECDF"/><stop offset=".469" stop-color="#14FD55"/><stop offset="1" stop-color="#0BB913"/></linearGradient><linearGradient id="F" x1="117.054" y1="121" x2="1.445" y2="101.607" gradientUnits="userSpaceOnUse"><stop offset=".026" stop-color="#1AECDF"/><stop offset=".469" stop-color="#14FD55"/><stop offset="1" stop-color="#0BB913"/></linearGradient><linearGradient id="G" x1="117.054" y1="121" x2="1.445" y2="101.607" gradientUnits="userSpaceOnUse"><stop offset=".026" stop-color="#1AECDF"/><stop offset=".469" stop-color="#14FD55"/><stop offset="1" stop-color="#0BB913"/></linearGradient><linearGradient id="H" x1="117.054" y1="121" x2="1.445" y2="101.607" gradientUnits="userSpaceOnUse"><stop offset=".026" stop-color="#1AECDF"/><stop offset=".469" stop-color="#14FD55"/><stop offset="1" stop-color="#0BB913"/></linearGradient><linearGradient id="I" x1="117.054" y1="121" x2="1.445" y2="101.607" gradientUnits="userSpaceOnUse"><stop offset=".026" stop-color="#1AECDF"/><stop offset=".469" stop-color="#14FD55"/><stop offset="1" stop-color="#0BB913"/></linearGradient><linearGradient id="J" x1="117.054" y1="121" x2="1.445" y2="101.607" gradientUnits="userSpaceOnUse"><stop offset=".026" stop-color="#1AECDF"/><stop offset=".469" stop-color="#14FD55"/><stop offset="1" stop-color="#0BB913"/></linearGradient><linearGradient id="K" x1="117.054" y1="121" x2="1.445" y2="101.607" gradientUnits="userSpaceOnUse"><stop offset=".026" stop-color="#1AECDF"/><stop offset=".469" stop-color="#14FD55"/><stop offset="1" stop-color="#0BB913"/></linearGradient></defs></svg>