<svg viewBox="0 0 122 122" fill="none" xmlns="http://www.w3.org/2000/svg"><mask id="j" maskUnits="userSpaceOnUse" x="0" y="-.044" viewBox="0 0 122 122" fill="#000"><path fill="#fff" d="M0-.044h122v122H0z"/><path d="M77.786 96.486 24.53 75.857c-.057 0-.057-.057-.057-.057v-.114L44.1 25.57c.057-.057.115-.114.172-.057l53.2 20.629c.057.057.114.114.057.171L77.901 96.428c0 .058-.057.058-.057.058h-.058Zm-52.97-20.858L77.73 96.144 97.24 46.314 44.271 25.8 24.816 75.629Z"/><path d="M76.18 99.857h-.058L21.258 74.03c-.057-.058-.115-.115-.057-.172L45.706 22.2c0-.057.057-.057.057-.057h.115l54.864 25.828c.057.058.114.115.057.172L76.294 99.8s-.057.057-.115.057Zm-54.692-26 54.576 25.657 24.391-51.428-54.577-25.657-24.39 51.428Z"/><path d="M74.17 103.343h-.057l-56.24-31.429c-.058-.057-.116-.114-.058-.171L47.657 18.77c0-.057.058-.057.115-.057h.115l56.241 31.429c.057.057.114.114.057.171l-29.842 52.972c-.058 0-.058 0-.172.057.057 0 .057 0 0 0Zm-56.01-31.6L74.112 103l29.67-52.743L47.887 19 18.159 71.743Z"/><path d="M71.875 106.829h-.057L14.544 69.4c-.058 0-.058-.057-.058-.114v-.115l35.581-53.943c.058-.057.115-.057.173-.057L107.514 52.6c.057 0 .057.057.057.114v.114L71.99 106.772c-.057.058-.115.058-.115.058Zm-57.102-37.6 57.045 37.314 35.409-53.715-57.045-37.314L14.773 69.23Z"/><path d="M69.12 110.371c-.057 0-.057 0-.114-.057L11.043 66.371c-.057 0-.057-.057-.057-.114v-.114L52.707 11.57c.058-.057.115-.057.23 0L110.9 55.514c.057.057.057.114 0 .229l-41.722 54.571c0 .057 0 .057-.057.057ZM11.388 66.314l57.734 43.772 41.492-54.4-57.676-43.772-41.55 54.4Z"/><path d="M65.907 113.971c-.058 0-.058 0-.115-.057L7.657 63.057c-.057-.057-.057-.114 0-.229l48.322-54.8s.057-.057.114-.057c.058 0 .058 0 .115.058l58.135 50.857s.057.057.057.114 0 .057-.057.114l-48.322 54.8s-.057.057-.114.057ZM7.944 62.943l57.963 50.686 48.149-54.572L56.093 8.371 7.944 62.943Z"/><path d="M62.291 117.514c-.057 0-.057 0-.114-.057L4.328 59.229a.173.173 0 0 1 0-.229L59.65 4.486s.058-.057.115-.057c.058 0 .058 0 .115.057l57.79 58.228a.172.172 0 0 1 0 .229l-55.265 54.514c-.057 0-.057.057-.115.057ZM4.616 59.171l57.675 58 55.094-54.285L59.709 4.829 4.616 59.17Z"/><path d="M58.16 120.999c-.058 0-.058 0-.115-.058l-56.988-66C1 54.941 1 54.884 1 54.827s0-.057.057-.114L63.726.999a.175.175 0 0 1 .23 0l56.987 66.057c0 .057.057.057.057.114s0 .057-.057.114L58.274 121c-.057-.058-.057 0-.115 0ZM1.343 54.884l56.815 65.772 62.497-53.543L63.841 1.34 1.344 54.884Z"/></mask><path d="M77.786 96.486 24.53 75.857c-.057 0-.057-.057-.057-.057v-.114L44.1 25.57c.057-.057.115-.114.172-.057l53.2 20.629c.057.057.114.114.057.171L77.901 96.428c0 .058-.057.058-.057.058h-.058Zm-52.97-20.858L77.73 96.144 97.24 46.314 44.271 25.8 24.816 75.629Z" fill="url(#a)"/><path d="M76.18 99.857h-.058L21.258 74.03c-.057-.058-.115-.115-.057-.172L45.706 22.2c0-.057.057-.057.057-.057h.115l54.864 25.828c.057.058.114.115.057.172L76.294 99.8s-.057.057-.115.057Zm-54.692-26 54.576 25.657 24.391-51.428-54.577-25.657-24.39 51.428Z" fill="url(#b)"/><path d="M74.17 103.343h-.057l-56.24-31.429c-.058-.057-.116-.114-.058-.171L47.657 18.77c0-.057.058-.057.115-.057h.115l56.241 31.429c.057.057.114.114.057.171l-29.842 52.972c-.058 0-.058 0-.172.057.057 0 .057 0 0 0Zm-56.01-31.6L74.112 103l29.67-52.743L47.887 19 18.159 71.743Z" fill="url(#c)"/><path d="M71.875 106.829h-.057L14.544 69.4c-.058 0-.058-.057-.058-.114v-.115l35.581-53.943c.058-.057.115-.057.173-.057L107.514 52.6c.057 0 .057.057.057.114v.114L71.99 106.772c-.057.058-.115.058-.115.058Zm-57.102-37.6 57.045 37.314 35.409-53.715-57.045-37.314L14.773 69.23Z" fill="url(#d)"/><path d="M69.12 110.371c-.057 0-.057 0-.114-.057L11.043 66.371c-.057 0-.057-.057-.057-.114v-.114L52.707 11.57c.058-.057.115-.057.23 0L110.9 55.514c.057.057.057.114 0 .229l-41.722 54.571c0 .057 0 .057-.057.057ZM11.388 66.314l57.734 43.772 41.492-54.4-57.676-43.772-41.55 54.4Z" fill="url(#e)"/><path d="M65.907 113.971c-.058 0-.058 0-.115-.057L7.657 63.057c-.057-.057-.057-.114 0-.229l48.322-54.8s.057-.057.114-.057c.058 0 .058 0 .115.058l58.135 50.857s.057.057.057.114 0 .057-.057.114l-48.322 54.8s-.057.057-.114.057ZM7.944 62.943l57.963 50.686 48.149-54.572L56.093 8.371 7.944 62.943Z" fill="url(#f)"/><path d="M62.291 117.514c-.057 0-.057 0-.114-.057L4.328 59.229a.173.173 0 0 1 0-.229L59.65 4.486s.058-.057.115-.057c.058 0 .058 0 .115.057l57.79 58.228a.172.172 0 0 1 0 .229l-55.265 54.514c-.057 0-.057.057-.115.057ZM4.616 59.171l57.675 58 55.094-54.285L59.709 4.829 4.616 59.17Z" fill="url(#g)"/><path d="M58.16 120.999c-.058 0-.058 0-.115-.058l-56.988-66C1 54.941 1 54.884 1 54.827s0-.057.057-.114L63.726.999a.175.175 0 0 1 .23 0l56.987 66.057c0 .057.057.057.057.114s0 .057-.057.114L58.274 121c-.057-.058-.057 0-.115 0ZM1.343 54.884l56.815 65.772 62.497-53.543L63.841 1.34 1.344 54.884Z" fill="url(#h)"/><path d="m77.786 96.486-.072.186.035.014h.037v-.2ZM24.53 75.857l.073-.186-.035-.014h-.038v.2Zm-.057-.057h.2-.2Zm0-.114-.186-.073-.014.035v.038h.2ZM44.1 25.57l-.141-.141-.03.03-.015.038.186.073Zm.172-.057-.14.142.029.03.039.015.072-.187Zm53.2 20.629.14-.142-.029-.03-.04-.015-.071.187Zm.057.171-.141-.142-.03.03-.015.04.186.072ZM77.901 96.428l-.186-.072-.014.035v.037h.2Zm-53.085-20.8-.186-.072-.073.187.187.072.072-.186ZM77.73 96.144l-.072.186.185.072.073-.185-.186-.073ZM97.24 46.314l.186.073.073-.187-.187-.072-.072.186ZM44.271 25.8l.072-.187-.186-.072-.072.186.186.073Zm31.85 74.057-.084.181.04.019h.045v-.2ZM21.259 74.03l-.14.141.024.025.031.015.085-.181Zm-.057-.172.14.142.026-.025.014-.031-.18-.086ZM45.706 22.2l.18.086.02-.041V22.2h-.2Zm.057-.057v.2-.2Zm.115 0 .085-.181-.04-.02h-.045v.2Zm54.864 25.828.141-.141-.025-.025-.031-.014-.085.18Zm.057.172-.141-.142-.025.025-.015.031.181.086ZM76.294 99.8l.141.142.025-.025.015-.031-.18-.086ZM21.488 73.857l-.18-.086-.087.182.182.085.085-.18Zm54.576 25.657-.085.181.18.085.086-.18-.18-.086Zm24.391-51.428.18.085.086-.18-.181-.086-.085.18ZM45.878 22.429l.085-.181-.18-.085-.086.18.181.086Zm28.235 80.914-.097.174.045.026h.052v-.2Zm-56.24-31.429-.142.142.02.02.024.013.097-.175Zm-.058-.171.141.142.02-.02.013-.024-.174-.098ZM47.657 18.77l.174.099.026-.046v-.053h-.2Zm.23-.057.097-.174-.045-.026h-.052v.2Zm56.241 31.429.141-.142-.02-.02-.024-.013-.097.175Zm.057.171-.141-.142-.02.02-.013.024.174.098Zm-29.842 52.972v.2h.117l.057-.102-.174-.098ZM18.159 71.743l-.174-.098-.098.175.175.097.097-.174ZM74.113 103l-.097.175.174.097.098-.174-.175-.098Zm29.67-52.743.175.098.098-.175-.175-.097-.098.174ZM47.887 19l.097-.175-.174-.097-.098.174.175.098Zm23.988 87.829v-.2.2Zm-.057 0-.11.167.05.033h.06v-.2ZM14.544 69.4l.11-.167-.05-.033h-.06v.2Zm-.058-.229-.167-.11-.033.05v.06h.2Zm35.581-53.943-.14-.141-.015.014-.011.017.166.11Zm.173-.057.109-.167-.05-.033h-.06v.2ZM107.514 52.6l-.11.167.05.033h.06v-.2Zm.057.228.167.11.033-.05v-.06h-.2ZM71.99 106.772l.141.142.015-.014.01-.017-.166-.111ZM14.773 69.229l-.167-.11-.11.167.168.11.11-.167Zm57.045 37.314-.11.167.167.109.11-.166-.167-.11Zm35.409-53.715.167.11.11-.167-.168-.11-.109.167ZM50.182 15.514l.11-.167-.167-.11-.11.167.167.11Zm18.824 94.8.14-.141-.009-.01-.01-.008-.121.159ZM11.043 66.371l.12-.159-.053-.04h-.067v.2Zm-.057-.228-.16-.122-.04.054v.068h.2ZM52.707 11.57l-.14-.141-.01.01-.009.01.16.121Zm.23 0 .12-.159-.014-.011-.017-.009-.09.18ZM110.9 55.514l.141-.142-.01-.009-.011-.008-.12.16Zm0 .229.158.121.012-.015.008-.016-.178-.09Zm-41.722 54.571-.159-.121-.041.054v.067h.2Zm-57.79-44-.16-.121-.121.16.16.12.12-.159Zm57.733 43.772-.121.159.159.121.12-.159-.158-.121Zm41.492-54.4.159.121.121-.16-.159-.12-.121.159ZM52.937 11.914l.12-.16-.158-.12-.121.159.159.121Zm12.855 102 .141-.142-.01-.008-.131.15ZM7.657 63.057l-.141.142.01.009.131-.15Zm0-.229-.15-.132-.017.02-.012.023.18.09Zm48.322-54.8-.142-.141-.009.01.15.132Zm.229 0-.141.143.01.008.131-.15Zm58.135 50.858.141-.142-.009-.009-.132.15Zm0 .228-.142-.142-.008.01.15.132Zm-48.322 54.8.142.142.008-.009-.15-.133ZM7.945 62.943l-.15-.133-.133.151.151.132.132-.15Zm57.963 50.686-.132.15.15.131.132-.149-.15-.132Zm48.149-54.572.15.132.133-.15-.151-.133-.132.151ZM56.093 8.371l.132-.15-.15-.131-.132.15.15.131Zm6.083 109.086-.141.141v.001l.142-.142ZM4.33 59.229l.141-.141v-.001l-.141.142Zm0-.229-.14-.142h-.002L4.33 59ZM59.65 4.486l.14.142h.002l-.142-.142Zm.23 0 .142-.141-.001-.001-.141.142Zm57.79 58.228-.142.141.001.001.141-.142Zm0 .229.141.142h.001l-.142-.142Zm-55.265 54.514v.2h.082l.059-.057-.141-.143ZM4.616 59.171l-.14-.142-.144.141.142.142.142-.14Zm57.675 58-.142.141.14.142.143-.14-.14-.143Zm55.094-54.285.14.142.143-.14-.142-.143-.141.14ZM59.709 4.829l.142-.141-.14-.142-.143.14.14.143ZM58.044 120.94l-.15.131.004.006.005.005.142-.142Zm-56.987-66 .152-.13-.06-.07h-.092v.2Zm0-.228-.13-.152-.005.005-.006.005.141.142ZM63.726.999l.13.151.006-.004.005-.006L63.726 1Zm.23 0 .151-.131-.005-.006-.005-.005-.141.142Zm56.987 66.057h.2v-.075l-.049-.056-.151.13Zm0 .228.13.152.005-.005.006-.005-.141-.142ZM58.274 121l-.141.141.13.131.141-.121-.13-.151ZM1.344 54.884l-.13-.152-.152.131.131.152.151-.13Zm56.815 65.772-.151.13.13.151.151-.129-.13-.152Zm62.497-53.543.13.152.152-.13-.131-.153-.151.13ZM63.841 1.34l.151-.13-.13-.151-.151.13.13.151ZM77.859 96.3 24.602 75.671l-.145.373 53.257 20.628.145-.373Zm-53.33-20.642a.15.15 0 0 1 .129.082.131.131 0 0 1 .014.05V75.798l-.2.001h-.2v.017a.28.28 0 0 0 .029.101.25.25 0 0 0 .229.14v-.4Zm.143.143V75.685h-.4V75.8h.4Zm-.014-.041 19.627-50.115-.372-.145-19.627 50.114.372.146ZM44.24 25.713a.702.702 0 0 1 .033-.032c.01-.008.009-.006.001-.002a.127.127 0 0 1-.07.01.128.128 0 0 1-.074-.033l.282-.284a.273.273 0 0 0-.16-.08.275.275 0 0 0-.156.029c-.064.032-.117.088-.138.109l.282.283Zm-.041-.012 53.2 20.628.144-.373-53.2-20.628-.144.373Zm53.13 20.584a.672.672 0 0 1 .033.033c.007.009.006.008.002 0a.128.128 0 0 1-.011-.072.129.129 0 0 1 .034-.074l.282.284a.273.273 0 0 0 .08-.16.274.274 0 0 0-.028-.157c-.032-.064-.089-.117-.11-.138l-.282.284Zm.013-.044L77.715 96.356l.372.145 19.627-50.114-.372-.146ZM77.7 96.43a.15.15 0 0 1 .082-.129.13.13 0 0 1 .055-.014h.005v.4H77.862a.278.278 0 0 0 .1-.028.25.25 0 0 0 .14-.23h-.4Zm.143-.143h-.058v.4h.058v-.4Zm-53.1-20.471 52.913 20.514.144-.373L24.89 75.442l-.145.373Zm53.171 20.4 19.512-49.828-.372-.146L77.543 96.07l.372.146Zm19.398-50.087-52.97-20.515-.144.373 52.97 20.515.144-.373Zm-53.228-20.4L24.63 75.555l.373.145 19.455-49.828-.373-.146Zm32.094 73.93h-.057v.399h.057v-.4Zm.028.018L21.343 73.848l-.17.362 54.864 25.828.17-.362ZM21.4 73.886a.682.682 0 0 1-.032-.032c-.008-.01-.006-.009-.002 0a.127.127 0 0 1 .01.07.127.127 0 0 1-.033.075l-.282-.284a.272.272 0 0 0-.08.16c-.01.066.009.12.028.158.032.064.088.117.11.137l.281-.283Zm-.018.057 24.505-51.657-.36-.172L21.02 73.771l.361.172ZM45.906 22.2a.15.15 0 0 1-.082.129.125.125 0 0 1-.049.014H45.764v-.2l-.001-.2h-.017a.274.274 0 0 0-.1.028.25.25 0 0 0-.14.229h.4Zm-.143.143H45.879v-.4H45.763v.4Zm.03-.02 54.864 25.83.17-.362-54.864-25.83-.17.363Zm54.808 25.79.032.033c.007.009.006.009.002 0a.118.118 0 0 1-.011-.07.13.13 0 0 1 .034-.075l.282.284a.275.275 0 0 0 .081-.16.273.273 0 0 0-.029-.158c-.032-.064-.089-.117-.109-.137l-.282.283Zm.017-.056L76.113 99.714l.362.172 24.505-51.657-.362-.172ZM76.294 99.8l-.141-.142.002-.001v-.001a.07.07 0 0 1-.007.006c-.003.002-.003.002 0 0a.087.087 0 0 1 .031-.005v.4a.35.35 0 0 0 .19-.062.475.475 0 0 0 .045-.034l.014-.012a.55.55 0 0 1 .006-.006v-.001h.001l-.14-.142ZM21.403 74.038l54.576 25.657.17-.362-54.576-25.657-.17.362ZM76.245 99.6l24.39-51.429-.361-.171-24.39 51.429.361.171Zm24.295-51.695L45.963 22.248l-.17.362 54.577 25.657.17-.362ZM45.697 22.343 21.307 73.77l.362.172 24.39-51.429-.362-.171Zm28.474 80.8h-.058v.4h.058v-.4Zm.04.025L17.97 71.74l-.195.349 56.24 31.428.196-.349ZM18.013 71.772a.735.735 0 0 1-.032-.033c-.007-.008-.006-.008-.002 0a.127.127 0 0 1 .011.072.129.129 0 0 1-.034.074l-.282-.284a.273.273 0 0 0-.08.16c-.009.065.01.12.028.157.032.064.089.117.11.138l.281-.284Zm-.024.069L47.831 18.87l-.348-.197L17.64 71.645l.348.196Zm29.868-53.07a.15.15 0 0 1-.032.09.147.147 0 0 1-.069.05c-.013.004-.02.004-.013.004h.029v-.4c-.017 0-.083-.003-.142.017a.252.252 0 0 0-.12.083.251.251 0 0 0-.053.156h.4Zm-.085.143H47.887v-.4H47.771v.4Zm.017-.025 56.241 31.428.195-.349-56.24-31.428-.196.349Zm56.198 31.396.032.033c.007.009.006.008.002 0a.118.118 0 0 1-.011-.072.13.13 0 0 1 .034-.074l.282.284a.275.275 0 0 0 .081-.16.274.274 0 0 0-.029-.157c-.032-.064-.089-.117-.109-.138l-.282.284Zm.024-.069-29.842 52.972.348.196 29.842-52.972-.348-.196Zm-29.668 52.87c-.027 0-.072-.002-.128.017-.038.013-.084.036-.133.061l.178.358.063-.031.018-.008-.015.003h.017v-.4Zm-.172.457H74.214v-.4H74.17v.4H74.214v-.4H74.17v.4ZM18.06 71.917l55.955 31.258.195-.35-55.954-31.257-.195.35Zm56.227 31.181 29.67-52.743-.349-.196-29.67 52.743.349.196Zm29.593-53.015L47.984 18.825l-.195.35 55.897 31.257.195-.35ZM47.712 18.902 17.985 71.645l.349.196L48.06 19.098l-.349-.196Zm24.163 87.727h-.057v.4h.057v-.4Zm.052.032L14.653 69.233l-.219.334 57.274 37.429.22-.335ZM14.544 69.2c.02 0 .055.006.089.032a.148.148 0 0 1 .05.069c.004.012.004.02.004.013v-.028h-.4c0 .017-.003.083.017.142a.252.252 0 0 0 .084.12c.05.04.107.052.156.052v-.4Zm.142.086V69.171h-.4V69.286h.4Zm-.033-.005L50.234 15.34l-.334-.22L14.32 69.06l.333.22Zm35.556-53.91c.002-.003.002-.002 0-.001a.025.025 0 0 1-.007.003l.007-.001h.03v-.4c-.06 0-.193-.004-.313.115l.283.283Zm-.079-.032 57.274 37.428.219-.334-57.274-37.429-.219.335ZM107.514 52.8a.154.154 0 0 1-.14-.1l-.003-.014v.028h.4c0-.017.002-.083-.017-.142a.251.251 0 0 0-.24-.172v.4Zm-.143-.086V52.829h.4V52.714h-.4Zm.033.004-35.581 53.943.334.221 35.581-53.943-.334-.22ZM71.849 106.63c-.004.004-.005.003 0 .002a.018.018 0 0 1 .008-.002l.008-.001H71.875v.4h.004l.003-.001h.009l.022-.002a.397.397 0 0 0 .218-.113l-.282-.283ZM14.664 69.396l57.044 37.314.22-.335-57.045-37.314-.22.335Zm57.32 37.257 35.41-53.714-.334-.22-35.41 53.714.335.22Zm35.352-53.992L50.292 15.347l-.22.335 57.045 37.314.219-.335Zm-57.32-37.257L14.605 69.12l.334.22 35.41-53.715-.335-.22Zm19.105 94.767h-.016.001l.02.004c.008.002.017.006.026.01.009.004.015.009.018.011l.003.002a.053.053 0 0 1-.008-.008l-.018-.017-.282.283a.787.787 0 0 0 .041.04.29.29 0 0 0 .068.047c.065.033.133.028.147.028v-.4Zm.006-.016L11.164 66.212l-.242.319 57.963 43.943.242-.319ZM11.043 66.171c.02 0 .055.006.09.032a.148.148 0 0 1 .05.07c.004.012.004.019.003.013v-.029h-.4c0 .017-.003.083.017.142a.252.252 0 0 0 .084.12c.05.04.107.052.156.052v-.4Zm.143.086V66.142h-.4V66.258h.4Zm-.041.007 41.721-54.571-.318-.243L10.827 66.02l.318.243Zm41.703-54.55c.003-.004 0 .001-.012.006a.083.083 0 0 1-.035.008c-.009 0-.01-.001-.001.002.01.003.024.009.048.02l.178-.358a.513.513 0 0 0-.225-.063.326.326 0 0 0-.235.1l.282.284Zm-.032.017 57.963 43.943.241-.32-57.962-43.942-.242.319Zm57.942 43.925c.003.003-.002-.001-.007-.012a.059.059 0 0 1-.006-.02c-.002-.006-.002-.012-.002-.017 0-.009.001-.01-.002-.001a.225.225 0 0 1-.02.047l.357.18a.504.504 0 0 0 .065-.226.325.325 0 0 0-.102-.234l-.283.283Zm-.017-.035-41.722 54.572.318.243 41.721-54.572-.317-.243Zm-41.763 54.693v.011c0-.004.006-.057.052-.102a.171.171 0 0 1 .102-.051c.005-.001.008-.001-.011-.001v.4c.009 0 .033.001.055-.002a.223.223 0 0 0 .136-.063.225.225 0 0 0 .064-.137c.002-.021.002-.045.002-.055h-.4Zm-57.711-43.84L69 110.245l.241-.319-57.733-43.771-.241.319Zm58.013 43.733 41.492-54.4-.318-.243-41.492 54.4.317.243Zm41.454-54.68L53.058 11.754l-.242.319 57.676 43.771.242-.319ZM52.778 11.792l-41.55 54.4.318.243 41.55-54.4-.318-.243ZM65.907 113.77h-.015c-.003 0-.002 0 0 0l.02.004c.008.002.018.006.026.01.009.004.015.009.019.011.003.002.004.004.003.002a.057.057 0 0 1-.01-.008l-.017-.017-.282.283a.83.83 0 0 0 .042.04.287.287 0 0 0 .067.047c.065.033.133.028.147.028v-.4Zm.017-.007L7.789 62.907l-.264.3 58.135 50.858.264-.301ZM7.798 62.915c-.003-.002.002.002.008.013a.089.089 0 0 1 .008.036c0 .009-.002.01.001.002a.355.355 0 0 1 .02-.048l-.357-.18a.51.51 0 0 0-.064.226c0 .102.046.179.102.235l.282-.284Zm.01.046 48.32-54.8-.3-.265-48.32 54.8.3.265Zm48.17-54.932.142.141-.001.001h-.001v.002-.001a.067.067 0 0 1 .007-.005c.003-.002.003-.002 0 0a.087.087 0 0 1-.032.004v-.4a.349.349 0 0 0-.19.062.472.472 0 0 0-.063.05l-.001.003h-.001l.14.143Zm.115.142h.015c.003 0 .003 0 0 0a.142.142 0 0 1-.064-.025l-.004-.002a.607.607 0 0 1 .01.009l.017.017.282-.283-.042-.04a.303.303 0 0 0-.067-.048c-.065-.032-.133-.028-.147-.028v.4Zm-.017.008 58.135 50.857.264-.3L56.34 7.877l-.264.301Zm58.267 50.707-.141.141h-.001l-.001-.001-.001-.001.001.001a.018.018 0 0 1 .005.007c.002.002.002.003.001 0s-.006-.015-.006-.033h.4a.348.348 0 0 0-.097-.235.082.082 0 0 0-.012-.014l-.004-.004-.002-.002h-.001v-.001l-.141.142ZM114.2 59v.015-.001l.004-.02a.142.142 0 0 1 .01-.027l.011-.018.003-.003-.009.009-.017.017.282.284a.785.785 0 0 0 .04-.042.314.314 0 0 0 .048-.067c.033-.066.028-.134.028-.147h-.4Zm-.007-.018-48.322 54.8.3.265 48.322-54.8-.3-.265Zm-48.171 54.932a6.95 6.95 0 0 1-.142-.142h.001l.001-.001v-.001.001a.018.018 0 0 1-.007.005c-.003.002-.003.002 0 .001.002-.001.014-.006.032-.006v.4a.348.348 0 0 0 .19-.062.32.32 0 0 0 .044-.034l.014-.012.005-.004.001-.002h.001v-.001l-.14-.142Zm-58.21-50.82 57.963 50.685.263-.301L8.076 62.792l-.264.301Zm58.245 50.667 48.149-54.572-.3-.264-48.15 54.571.3.265Zm48.131-54.854L56.225 8.22l-.263.301 57.962 50.686.264-.301ZM55.943 8.239 7.794 62.811l.3.264 48.15-54.571-.3-.265Zm6.348 109.075h-.015.001l.019.004a.14.14 0 0 1 .045.021l.003.002-.009-.008-.017-.018-.283.284a.787.787 0 0 0 .042.04.288.288 0 0 0 .068.047c.065.033.133.028.146.028v-.4Zm.027.002L4.47 59.088l-.283.282 57.848 58.228.283-.282ZM4.47 59.086c.009.01.013.018.014.022l.002.006-.002.006a.06.06 0 0 1-.014.022l-.283-.284a.361.361 0 0 0-.101.256c0 .083.027.182.101.256l.283-.283Zm-.001.056L59.792 4.628l-.281-.285L4.188 58.858l.28.285ZM59.65 4.486l.141.142-.001.001c-.001 0 0 0 0 0a.069.069 0 0 1 .007-.005c.003-.002.003-.002 0 0a.087.087 0 0 1-.032.005v-.4a.349.349 0 0 0-.19.062.47.47 0 0 0-.063.05l-.001.002h-.001l.14.143Zm.115.143h.015c.003 0 .002 0 0 0a.142.142 0 0 1-.064-.025c-.004-.002-.005-.004-.004-.002a.534.534 0 0 1 .01.008l.017.017.282-.283-.042-.04a.303.303 0 0 0-.067-.047c-.066-.033-.133-.028-.147-.028v.4Zm-.027-.002 57.791 58.228.283-.282-57.79-58.228-.284.282Zm57.791 58.229a.055.055 0 0 1-.014-.021l-.002-.006.002-.007a.055.055 0 0 1 .014-.02l.283.283a.364.364 0 0 0 .101-.256.364.364 0 0 0-.101-.256l-.283.283Zm.001-.056-55.265 54.515.28.285 55.266-54.515-.281-.285Zm-55.125 54.457a.268.268 0 0 0-.198.087c-.01.01 0-.001.015-.01a.135.135 0 0 1 .068-.02v.4a.26.26 0 0 0 .199-.087c.01-.009 0 .001-.016.011a.134.134 0 0 1-.068.019v-.4ZM4.474 59.312l57.675 58 .284-.282-57.676-58-.283.282Zm57.958 58.002 55.093-54.286-.281-.285-55.093 54.286.28.285Zm55.094-54.57L59.851 4.689l-.284.282 57.676 58.057.283-.282ZM59.568 4.687 4.475 59.03l.281.285L59.849 4.97l-.28-.285ZM58.16 120.8l-.015-.001c-.003 0-.002 0 .001.001l.019.003.027.01.018.011.003.002a.057.057 0 0 1-.009-.008l-.017-.017-.283.283a.787.787 0 0 0 .042.04.287.287 0 0 0 .068.047c.065.033.133.029.146.029v-.4Zm.037.012-56.987-66-.303.261 56.987 66 .303-.261ZM1.057 54.741c.02 0 .056.006.09.032a.148.148 0 0 1 .05.07c.004.012.004.019.003.013v-.029H.8c0 .017-.002.083.018.142a.252.252 0 0 0 .084.12c.05.04.107.052.155.052v-.4Zm.143.086v-.015.001a.125.125 0 0 1-.014.047.124.124 0 0 1-.011.018c-.002.003-.004.004-.002.003a2.083 2.083 0 0 1 .026-.026l-.283-.284-.04.042a.306.306 0 0 0-.048.067c-.032.066-.028.134-.028.147h.4Zm-.012.038L63.856 1.15l-.26-.303L.927 54.56l.26.304ZM63.868 1.14a.06.06 0 0 1-.022.014l-.005.002-.006-.002a.06.06 0 0 1-.02-.014l.282-.283a.363.363 0 0 0-.256-.101.363.363 0 0 0-.256.1l.282.284Zm-.064-.01 56.987 66.056.303-.261L64.107.868l-.303.261Zm56.939 65.926a.27.27 0 0 0 .037.137c.02.033.046.057.05.062.01.01-.001 0-.01-.016a.137.137 0 0 1-.02-.069h.4a.261.261 0 0 0-.038-.137.294.294 0 0 0-.05-.062c-.009-.01.001 0 .011.015.013.022.02.047.02.07h-.4Zm.057.114v.015-.001l.004-.02a.139.139 0 0 1 .01-.027l.011-.018c.002-.003.004-.004.002-.003a.057.057 0 0 1-.008.009l-.018.017.283.284a.785.785 0 0 0 .04-.042.314.314 0 0 0 .048-.067c.032-.066.028-.134.028-.147h-.4Zm.012-.038-62.668 53.715.26.303 62.669-53.714-.261-.304Zm-62.397 53.725a.28.28 0 0 0-.118-.074.235.235 0 0 0-.17.015c-.07.035-.002.001.032.001v.4a.309.309 0 0 0 .123-.029l.028-.016-.004.002a.15.15 0 0 1-.05.015.166.166 0 0 1-.115-.025c-.007-.004-.01-.007-.008-.006l.282-.283ZM1.193 55.015l56.815 65.771.303-.261L1.496 54.753l-.303.262Zm57.096 65.793 62.497-53.543-.26-.304-62.497 53.543.26.304Zm62.518-53.826L63.992 1.211l-.303.261 56.815 65.772.303-.262ZM63.711 1.19 1.214 54.732l.26.304L63.971 1.493l-.26-.303Z" fill="url(#i)" mask="url(#j)"/><defs><linearGradient id="a" x1="101.5" y1="120.999" x2=".694" y2="106.36" gradientUnits="userSpaceOnUse"><stop offset=".026" stop-color="#1AECDF"/><stop offset=".469" stop-color="#14FD55"/><stop offset="1" stop-color="#0BB913"/></linearGradient><linearGradient id="b" x1="101.5" y1="120.999" x2=".694" y2="106.36" gradientUnits="userSpaceOnUse"><stop offset=".026" stop-color="#1AECDF"/><stop offset=".469" stop-color="#14FD55"/><stop offset="1" stop-color="#0BB913"/></linearGradient><linearGradient id="c" x1="101.5" y1="120.999" x2=".694" y2="106.36" gradientUnits="userSpaceOnUse"><stop offset=".026" stop-color="#1AECDF"/><stop offset=".469" stop-color="#14FD55"/><stop offset="1" stop-color="#0BB913"/></linearGradient><linearGradient id="d" x1="101.5" y1="120.999" x2=".694" y2="106.36" gradientUnits="userSpaceOnUse"><stop offset=".026" stop-color="#1AECDF"/><stop offset=".469" stop-color="#14FD55"/><stop offset="1" stop-color="#0BB913"/></linearGradient><linearGradient id="e" x1="101.5" y1="120.999" x2=".694" y2="106.36" gradientUnits="userSpaceOnUse"><stop offset=".026" stop-color="#1AECDF"/><stop offset=".469" stop-color="#14FD55"/><stop offset="1" stop-color="#0BB913"/></linearGradient><linearGradient id="f" x1="101.5" y1="120.999" x2=".694" y2="106.36" gradientUnits="userSpaceOnUse"><stop offset=".026" stop-color="#1AECDF"/><stop offset=".469" stop-color="#14FD55"/><stop offset="1" stop-color="#0BB913"/></linearGradient><linearGradient id="g" x1="101.5" y1="120.999" x2=".694" y2="106.36" gradientUnits="userSpaceOnUse"><stop offset=".026" stop-color="#1AECDF"/><stop offset=".469" stop-color="#14FD55"/><stop offset="1" stop-color="#0BB913"/></linearGradient><linearGradient id="h" x1="101.5" y1="120.999" x2=".694" y2="106.36" gradientUnits="userSpaceOnUse"><stop offset=".026" stop-color="#1AECDF"/><stop offset=".469" stop-color="#14FD55"/><stop offset="1" stop-color="#0BB913"/></linearGradient><linearGradient id="i" x1="101.5" y1="120.999" x2=".694" y2="106.36" gradientUnits="userSpaceOnUse"><stop offset=".026" stop-color="#1AECDF"/><stop offset=".469" stop-color="#14FD55"/><stop offset="1" stop-color="#0BB913"/></linearGradient></defs></svg>