<svg width="57" height="54" viewBox="0 0 57 54" fill="none" xmlns="http://www.w3.org/2000/svg">
<path d="M11.332 15.4201L6.00281 12.4785L11.332 3L16.5044 12.4785L11.332 15.4201Z" stroke="#00E7FF" stroke-miterlimit="10" stroke-linejoin="round"/>
<path d="M11.332 16.2375L6.00281 13.2959L11.332 20.4865L16.5044 13.2959L11.332 16.2375Z" stroke="#00E7FF" stroke-miterlimit="10" stroke-linejoin="round"/>
<path d="M11.332 3V15.4201" stroke="#00E7FF" stroke-miterlimit="10"/>
<path d="M6.00281 12.4787L11.332 9.53711L16.5044 12.4787" stroke="#00E7FF" stroke-miterlimit="10"/>
<path d="M11.332 16.2373V20.4863" stroke="#00E7FF" stroke-miterlimit="10"/>
<circle cx="11.5" cy="11.5" r="11" stroke="#00E7FF"/>
<g opacity="0.5">
<path d="M26.2056 52.0001C26.175 52.0001 26.1445 52.0001 26.1201 51.9939C20.49 51.1694 15.3179 48.3206 11.5442 43.958C8.51545 40.4693 6.58584 36.2483 5.90803 31.6888L4.70508 32.8333C4.58906 32.9441 4.43029 33.0056 4.26542 32.9994C4.10055 32.9933 3.94789 32.9256 3.83797 32.8087L2.16483 31.0182C1.93279 30.772 1.945 30.3844 2.18926 30.1506L7.31249 25.2897C7.55064 25.0682 7.91702 25.0682 8.14907 25.2897L13.2662 30.1506C13.5105 30.3844 13.5227 30.772 13.2906 31.0182L11.6175 32.8087C11.5076 32.9256 11.3549 32.9994 11.19 32.9994C11.0313 33.0056 10.8725 32.9441 10.7504 32.8333L9.64512 31.7811C11.2206 40.2539 18.1208 47.0776 26.6452 48.3206C26.9811 48.3698 27.207 48.6836 27.1643 49.0159L26.8162 51.4648C26.7918 51.6248 26.7063 51.7724 26.5781 51.8709C26.462 51.957 26.3338 52.0001 26.2056 52.0001ZM6.36601 29.7937C6.43929 29.7937 6.51256 29.806 6.57973 29.8306C6.79956 29.9106 6.95222 30.1137 6.97054 30.3475C7.43462 35.1161 9.32759 39.5402 12.4541 43.1458C15.898 47.1269 20.5816 49.785 25.6865 50.6772L25.8636 49.4466C23.6837 49.0651 21.5831 48.339 19.6107 47.293C17.5284 46.1855 15.6416 44.7395 14.0112 43.0043C10.7198 39.4971 8.64979 34.95 8.1857 30.1998C8.16128 29.9475 8.29562 29.7014 8.52155 29.5845C8.74749 29.4737 9.02228 29.5107 9.21157 29.6891L11.1412 31.5227L11.9778 30.6244L7.72773 26.5818L3.47159 30.6244L4.30816 31.5227L5.94467 29.966C6.0668 29.8552 6.21335 29.7937 6.36601 29.7937Z" fill="white"/>
<path d="M51.8706 30.2674C51.7424 30.2674 51.6141 30.2305 51.5042 30.1444L45.8558 25.9172C45.5872 25.7142 45.5261 25.3265 45.7276 25.0558L47.1809 23.0806C47.2786 22.9514 47.4191 22.8653 47.5839 22.8407C47.7427 22.8161 47.9076 22.8591 48.0358 22.9576L49.4403 24.0098C47.5534 14.6079 39.261 7.69184 29.5824 7.69184C28.8069 7.69184 28.0253 7.73491 27.2559 7.8272C26.92 7.86412 26.6208 7.62415 26.5781 7.28574L26.3033 4.84297C26.2666 4.50455 26.5048 4.20305 26.8406 4.15998C27.7444 4.05538 28.6664 4 29.5824 4C35.8109 4 41.7096 6.39969 46.1917 10.7499C48.1213 12.6266 49.7151 14.7863 50.9241 17.1737C51.9256 19.1488 52.6461 21.247 53.0675 23.4252L54.0506 22.2438C54.1544 22.1208 54.3009 22.0408 54.4658 22.0285C54.6246 22.0162 54.7895 22.0654 54.9116 22.17L56.7801 23.7513C57.0366 23.9667 57.0732 24.3605 56.8534 24.6189L52.3347 30.0521C52.2187 30.1874 52.0416 30.2674 51.8706 30.2674ZM47.0771 25.2957L51.7729 28.8091L55.5283 24.2928L54.5941 23.5052L53.153 25.2342C53.0003 25.4188 52.7499 25.4988 52.5179 25.4311C52.2858 25.3634 52.1149 25.1665 52.0843 24.9266C51.376 19.8257 49.0495 15.2293 45.349 11.6359C41.0929 7.50725 35.4934 5.23061 29.5824 5.23061C28.9168 5.23061 28.2512 5.26138 27.5917 5.31676L27.7322 6.54121C28.3489 6.48584 28.9718 6.46122 29.5885 6.46122C34.8583 6.46122 39.9205 8.38098 43.8407 11.8759C47.7366 15.3462 50.2463 20.121 50.8997 25.3327C50.9302 25.5788 50.8142 25.8188 50.6005 25.9418C50.3868 26.0649 50.1242 26.0526 49.9288 25.9049L47.7977 24.3113L47.0771 25.2957Z" fill="white"/>
</g>
<path d="M39.9277 35V36.5845H41.5542V35H42.8554V36.6901C43.1807 36.7958 43.506 36.9014 43.7229 37.007C44.2651 37.2183 44.6988 37.6408 45.0241 38.0634C45.3494 38.5915 45.4578 39.1197 45.4578 39.6479C45.4578 40.1761 45.3494 40.5986 45.0241 41.0211C44.6988 41.4437 44.3735 41.8662 43.7229 42.0775C44.4819 42.2887 45.0241 42.6056 45.4578 43.1338C45.8916 43.662 46 44.1901 46 44.9296C46 45.4577 45.8916 45.9859 45.6747 46.5141C45.4578 46.9366 45.1325 47.3592 44.8072 47.5704C44.4819 47.7817 44.0482 47.993 43.506 48.2042C43.2892 48.3099 43.0723 48.3099 42.747 48.3099V50H41.5542V48.4155H39.9277V50H38.6265V48.4155H37V36.5845H38.6265V35H39.9277ZM38.6265 41.5493H41.2289C41.988 41.5493 42.4217 41.5493 42.747 41.4437C43.1807 41.338 43.506 41.1268 43.6145 40.8099C43.8313 40.493 43.9398 40.1761 43.9398 39.7535C43.9398 39.331 43.8313 39.0141 43.6145 38.6972C43.506 38.4859 43.1807 38.2746 42.8554 38.169C42.5301 38.0634 41.8795 37.9577 41.012 37.9577H38.6265V41.5493ZM38.6265 47.0423H41.6627C42.2048 47.0423 42.5301 47.0423 42.747 46.9366C43.0723 46.831 43.3976 46.7254 43.7229 46.6197C43.9398 46.5141 44.1566 46.3028 44.3735 45.9859C44.4819 45.669 44.5904 45.3521 44.5904 45.0352C44.5904 44.6127 44.4819 44.1901 44.2651 43.8732C43.9398 43.4507 43.6145 43.2394 43.1807 43.1338C42.747 43.0282 42.2048 42.9225 41.4458 42.9225H38.6265V47.0423Z" fill="#FFC700"/>
<circle cx="41.5" cy="42.5" r="11" stroke="#FFC700"/>
</svg>
