<svg viewBox="0 0 443 519" fill="none" xmlns="http://www.w3.org/2000/svg">
<path d="M128.071 304.715L64.5321 268.132C64.2966 268.004 64.0182 268.004 63.7826 268.132L0.650193 304.715C0.414625 304.843 0.286133 305.099 0.286133 305.355C0.286133 305.612 0.43604 305.868 0.671609 305.996L64.2109 342.579C64.318 342.643 64.4465 342.685 64.5964 342.685C64.7249 342.685 64.8534 342.643 64.9819 342.579L128.071 306.018C128.307 305.889 128.436 305.633 128.436 305.377C128.457 305.099 128.307 304.843 128.071 304.715ZM64.5536 341.084L2.51333 305.355L64.1467 269.627L126.208 305.377L64.5536 341.084Z" fill="white" fill-opacity="0.31"/>
<path d="M128.071 304.715C127.836 304.587 127.557 304.587 127.322 304.715L64.1895 341.298C63.954 341.426 63.8255 341.682 63.8255 341.938L63.6113 418.435C63.6113 418.713 63.7612 418.948 63.9968 419.076C64.1039 419.14 64.2324 419.182 64.3823 419.182C64.5108 419.182 64.6393 419.14 64.7678 419.076L127.9 382.493C128.136 382.365 128.264 382.109 128.264 381.852L128.478 305.356C128.457 305.1 128.307 304.843 128.071 304.715ZM126.722 381.447L65.089 417.154L65.3031 342.387L126.936 306.659L126.722 381.447Z" fill="white" fill-opacity="0.31"/>
<path d="M64.939 341.298L1.3997 304.715C1.16413 304.587 0.885735 304.587 0.650166 304.715C0.414598 304.843 0.26469 305.1 0.26469 305.356L0.0505371 381.852C0.0505371 382.13 0.200444 382.365 0.436013 382.493L63.9753 419.076C64.0824 419.14 64.2109 419.182 64.3608 419.182C64.4893 419.182 64.6178 419.14 64.7248 419.076C64.9604 418.948 65.1103 418.691 65.1103 418.435L65.3245 341.938C65.3245 341.682 65.1746 341.447 64.939 341.298ZM63.6112 417.175L1.54961 381.447L1.76376 306.659L63.804 342.387L63.6112 417.175Z" fill="white" fill-opacity="0.31"/>
<path d="M172.808 408.826L96.9765 361.416C96.4197 361.074 95.6916 361.245 95.349 361.779C95.0063 362.334 95.1776 363.06 95.713 363.402L171.545 410.812C171.737 410.94 171.952 410.982 172.166 410.982C172.551 410.982 172.937 410.79 173.172 410.427C173.536 409.893 173.365 409.167 172.808 408.826Z" fill="white" fill-opacity="0.31"/>
<path d="M291.213 404.533L227.674 367.951C227.439 367.822 227.16 367.822 226.925 367.951L163.792 404.533C163.557 404.661 163.428 404.918 163.428 405.174C163.428 405.43 163.578 405.686 163.814 405.815L227.353 442.397C227.46 442.461 227.589 442.504 227.738 442.504C227.867 442.504 227.995 442.461 228.124 442.397L291.256 405.815C291.492 405.686 291.62 405.43 291.62 405.174C291.599 404.918 291.449 404.661 291.213 404.533ZM227.717 440.902L165.677 405.174L227.31 369.446L289.35 405.174L227.717 440.902Z" fill="white" fill-opacity="0.31"/>
<path d="M291.214 404.533C290.978 404.405 290.7 404.405 290.464 404.533L227.332 441.116C227.096 441.244 226.968 441.5 226.968 441.756L226.753 518.253C226.753 518.531 226.903 518.765 227.139 518.894C227.246 518.958 227.374 519 227.524 519C227.653 519 227.781 518.958 227.91 518.894L291.042 482.311C291.278 482.183 291.406 481.927 291.406 481.67L291.62 405.174C291.599 404.918 291.449 404.661 291.214 404.533ZM289.886 481.243L228.252 516.95L228.467 442.183L290.1 406.476L289.886 481.243Z" fill="white" fill-opacity="0.31"/>
<path d="M228.082 441.115L164.542 404.533C164.307 404.404 164.028 404.404 163.793 404.533C163.557 404.661 163.407 404.917 163.407 405.173L163.193 481.67C163.193 481.948 163.343 482.182 163.579 482.311L227.118 518.893C227.225 518.957 227.353 519 227.503 519C227.632 519 227.76 518.957 227.867 518.893C228.103 518.765 228.253 518.509 228.253 518.252L228.467 441.756C228.467 441.5 228.317 441.243 228.082 441.115ZM226.754 516.971L164.714 481.243L164.928 406.455L226.968 442.183L226.754 516.971Z" fill="white" fill-opacity="0.31"/>
<path d="M290.142 36.6786L226.582 0.0961012C226.346 -0.0320337 226.068 -0.0320337 225.832 0.0961012L162.7 36.6786C162.464 36.8068 162.336 37.063 162.336 37.3193C162.336 37.5756 162.486 37.8319 162.721 37.96L226.26 74.5425C226.368 74.6066 226.496 74.6493 226.646 74.6493C226.774 74.6493 226.903 74.6066 227.031 74.5425L290.164 37.96C290.399 37.8319 290.528 37.5756 290.528 37.3193C290.506 37.063 290.378 36.8068 290.142 36.6786ZM226.625 73.0476L164.584 37.3193L226.218 1.59101L288.258 37.3193L226.625 73.0476Z" fill="white" fill-opacity="0.31"/>
<path d="M290.143 36.6781C289.907 36.55 289.629 36.55 289.393 36.6781L226.261 73.2607C226.025 73.3888 225.897 73.6451 225.897 73.9014L225.682 150.398C225.682 150.676 225.832 150.911 226.068 151.039C226.175 151.103 226.303 151.145 226.453 151.145C226.582 151.145 226.71 151.103 226.839 151.039L289.971 114.456C290.207 114.328 290.335 114.072 290.335 113.815L290.549 37.3188C290.507 37.0625 290.378 36.8063 290.143 36.6781ZM288.793 113.388L227.16 149.095L227.374 74.3285L289.008 38.6215L288.793 113.388Z" fill="white" fill-opacity="0.31"/>
<path d="M227.01 73.2607L163.45 36.6781C163.214 36.55 162.936 36.55 162.7 36.6781C162.465 36.8063 162.315 37.0625 162.315 37.3188L162.101 113.815C162.101 114.093 162.25 114.328 162.486 114.456L226.025 151.039C226.132 151.103 226.261 151.145 226.411 151.145C226.539 151.145 226.668 151.103 226.775 151.039C227.01 150.911 227.16 150.654 227.16 150.398L227.374 73.9014C227.374 73.6451 227.246 73.3888 227.01 73.2607ZM225.661 149.117L163.621 113.388L163.835 38.6002L225.875 74.3285L225.661 149.117Z" fill="white" fill-opacity="0.31"/>
<path d="M385.634 172.417L260.033 95.8351C259.476 95.4934 258.748 95.6643 258.405 96.2195C258.063 96.7748 258.234 97.5009 258.791 97.8425L384.392 174.425C384.585 174.531 384.799 174.595 385.013 174.595C385.42 174.595 385.805 174.403 386.019 174.04C386.362 173.485 386.191 172.759 385.634 172.417Z" fill="white" fill-opacity="0.31"/>
<path d="M381.972 123.149C380.301 122.124 378.117 122.658 377.11 124.323C376.082 125.989 376.618 128.167 378.288 129.171C379.959 130.196 382.143 129.662 383.15 127.997C384.156 126.352 383.642 124.174 381.972 123.149Z" fill="white" fill-opacity="0.31"/>
<path d="M64.2541 284.62C63.3761 284.62 62.6479 285.346 62.6479 286.222V286.243C62.6479 287.119 63.3761 287.845 64.2541 287.845C65.1321 287.845 65.8603 287.119 65.8603 286.243C65.8603 285.368 65.1321 284.62 64.2541 284.62Z" fill="white" fill-opacity="0.31"/>
<path d="M64.2541 276.057C63.3761 276.057 62.6479 276.783 62.6479 277.658V277.68C62.6479 278.555 63.3761 279.281 64.2541 279.281C65.1321 279.281 65.8603 278.555 65.8603 277.68V277.658C65.8603 276.783 65.1321 276.057 64.2541 276.057Z" fill="white" fill-opacity="0.31"/>
<path d="M64.2541 293.184C63.3761 293.184 62.6479 293.91 62.6479 294.785V294.807C62.6479 295.682 63.3761 296.408 64.2541 296.408C65.1321 296.408 65.8603 295.682 65.8603 294.807V294.785C65.8603 293.91 65.1321 293.184 64.2541 293.184Z" fill="white" fill-opacity="0.31"/>
<path d="M64.2541 301.748C63.3761 301.748 62.6479 302.474 62.6479 303.349V303.371C62.6479 304.246 63.3761 304.972 64.2541 304.972C65.1321 304.972 65.8603 304.246 65.8603 303.371V303.349C65.8603 302.474 65.1321 301.748 64.2541 301.748Z" fill="white" fill-opacity="0.31"/>
<path d="M64.2541 250.365C63.3761 250.365 62.6479 251.091 62.6479 251.967V251.988C62.6479 252.864 63.3761 253.59 64.2541 253.59C65.1321 253.59 65.8603 252.864 65.8603 251.988V251.967C65.8603 251.091 65.1321 250.365 64.2541 250.365Z" fill="white" fill-opacity="0.31"/>
<path d="M64.2541 267.493C63.3761 267.493 62.6479 268.219 62.6479 269.095V269.116C62.6479 269.992 63.3761 270.718 64.2541 270.718C65.1321 270.718 65.8603 269.992 65.8603 269.116V269.095C65.8603 268.219 65.1321 267.493 64.2541 267.493Z" fill="white" fill-opacity="0.31"/>
<path d="M64.2541 258.929C63.3761 258.929 62.6479 259.655 62.6479 260.531V260.552C62.6479 261.428 63.3761 262.154 64.2541 262.154C65.1321 262.154 65.8603 261.428 65.8603 260.552V260.531C65.8603 259.655 65.1321 258.929 64.2541 258.929Z" fill="white" fill-opacity="0.31"/>
<path d="M128.072 129.042L64.5324 92.4599C64.2968 92.3317 64.0184 92.3317 63.7828 92.4599L0.650438 129.042C0.414869 129.171 0.286377 129.427 0.286377 129.683C0.286377 129.939 0.436284 130.196 0.671853 130.324L64.2111 166.906C64.3182 166.97 64.4467 167.013 64.5966 167.013C64.7251 167.013 64.8536 166.97 64.9821 166.906L128.115 130.324C128.35 130.196 128.479 129.939 128.479 129.683C128.457 129.427 128.307 129.171 128.072 129.042ZM64.5538 165.411L2.51357 129.683L64.1469 93.9548L126.187 129.683L64.5538 165.411Z" fill="white" fill-opacity="0.31"/>
<path d="M128.071 129.043C127.836 128.915 127.557 128.915 127.322 129.043L64.1895 165.626C63.954 165.754 63.8255 166.01 63.8255 166.267L63.6113 242.763C63.6113 243.041 63.7612 243.276 63.9968 243.404C64.1039 243.468 64.2324 243.511 64.3823 243.511C64.5108 243.511 64.6393 243.468 64.7678 243.404L127.9 206.821C128.136 206.693 128.264 206.437 128.264 206.181L128.478 129.684C128.457 129.428 128.307 129.172 128.071 129.043ZM126.722 205.754L65.089 241.46L65.3031 166.694L126.936 130.987L126.722 205.754Z" fill="white" fill-opacity="0.31"/>
<path d="M64.939 165.626L1.3997 129.043C1.16413 128.915 0.885735 128.915 0.650166 129.043C0.414598 129.172 0.26469 129.428 0.26469 129.684L0.0505371 206.181C0.0505371 206.458 0.200444 206.693 0.436013 206.821L63.9753 243.404C64.0824 243.468 64.2109 243.511 64.3608 243.511C64.4893 243.511 64.6178 243.468 64.7248 243.404C64.9604 243.276 65.1103 243.019 65.1103 242.763L65.3245 166.267C65.3245 166.01 65.1746 165.754 64.939 165.626ZM63.6112 241.482L1.54961 205.754L1.76376 130.965L63.804 166.694L63.6112 241.482Z" fill="white" fill-opacity="0.31"/>
<path d="M441.635 304.715L378.096 268.132C377.86 268.004 377.582 268.004 377.346 268.132L314.214 304.715C313.978 304.843 313.85 305.099 313.85 305.355C313.85 305.612 314 305.868 314.235 305.996L377.774 342.579C377.881 342.643 378.01 342.685 378.16 342.685C378.288 342.685 378.417 342.643 378.545 342.579L441.635 306.018C441.87 305.889 441.999 305.633 441.999 305.377C441.999 305.099 441.87 304.843 441.635 304.715ZM378.117 341.084L316.077 305.355L377.71 269.627L439.75 305.355L378.117 341.084Z" fill="white" fill-opacity="0.31"/>
<path d="M441.635 304.715C441.399 304.587 441.121 304.587 440.885 304.715L377.753 341.298C377.517 341.426 377.389 341.682 377.389 341.938L377.175 418.435C377.175 418.713 377.325 418.948 377.56 419.076C377.667 419.14 377.796 419.182 377.946 419.182C378.074 419.182 378.203 419.14 378.331 419.076L441.464 382.493C441.699 382.365 441.828 382.109 441.828 381.852L442.042 305.356C441.999 305.1 441.871 304.843 441.635 304.715ZM440.286 381.447L378.652 417.154L378.867 342.387L440.5 306.68L440.286 381.447Z" fill="white" fill-opacity="0.31"/>
<path d="M378.503 341.298L314.963 304.715C314.728 304.587 314.449 304.587 314.214 304.715C313.978 304.843 313.828 305.1 313.828 305.356L313.614 381.852C313.614 382.13 313.764 382.365 314 382.493L377.539 419.076C377.646 419.14 377.775 419.182 377.924 419.182C378.053 419.182 378.181 419.14 378.289 419.076C378.524 418.948 378.674 418.691 378.674 418.435L378.888 341.938C378.867 341.682 378.738 341.447 378.503 341.298ZM377.154 417.175L315.113 381.447L315.327 306.659L377.368 342.387L377.154 417.175Z" fill="white" fill-opacity="0.31"/>
<path d="M377.817 183.009C377.175 183.009 376.639 183.543 376.639 184.183V303.755C376.639 304.395 377.175 304.929 377.817 304.929C378.459 304.929 378.995 304.395 378.995 303.755V184.183C378.995 183.543 378.459 183.009 377.817 183.009Z" fill="white" fill-opacity="0.31"/>
<path d="M441.635 130.965L378.096 94.3827C377.86 94.2546 377.582 94.2546 377.346 94.3827L314.214 130.965C313.978 131.093 313.85 131.35 313.85 131.606C313.85 131.862 314 132.118 314.235 132.247L377.774 168.829C377.881 168.893 378.01 168.936 378.16 168.936C378.288 168.936 378.417 168.893 378.545 168.829L441.635 132.247C441.87 132.118 441.999 131.862 441.999 131.606C441.999 131.35 441.87 131.093 441.635 130.965ZM378.117 167.334L316.077 131.606L377.71 95.8776L439.75 131.606L378.117 167.334Z" fill="white" fill-opacity="0.31"/>
<path d="M441.635 130.965C441.399 130.837 441.121 130.837 440.885 130.965L377.753 167.548C377.517 167.676 377.389 167.932 377.389 168.188L377.175 244.685C377.175 244.963 377.325 245.198 377.56 245.326C377.667 245.39 377.796 245.433 377.946 245.433C378.074 245.433 378.203 245.39 378.331 245.326L441.421 208.765C441.656 208.636 441.785 208.38 441.785 208.124L441.999 131.627C441.999 131.35 441.871 131.093 441.635 130.965ZM440.286 207.675L378.652 243.382L378.867 168.616L440.5 132.909L440.286 207.675Z" fill="white" fill-opacity="0.31"/>
<path d="M378.503 167.548L314.963 130.965C314.728 130.837 314.449 130.837 314.214 130.965C313.978 131.093 313.828 131.35 313.828 131.606L313.614 208.103C313.614 208.38 313.764 208.615 314 208.743L377.539 245.326C377.646 245.39 377.775 245.433 377.924 245.433C378.053 245.433 378.181 245.39 378.289 245.326C378.524 245.198 378.674 244.941 378.674 244.685L378.888 168.188C378.867 167.932 378.738 167.676 378.503 167.548ZM377.154 243.404L315.113 207.675L315.327 132.887L377.368 168.616L377.154 243.404Z" fill="white" fill-opacity="0.31"/>
<path d="M318.518 374.357C319.289 373.887 320.274 374.122 320.745 374.869C321.216 375.617 320.96 376.621 320.21 377.069C319.953 377.24 319.653 377.304 319.375 377.304C318.839 377.304 318.304 377.026 318.004 376.535C317.533 375.809 317.769 374.827 318.518 374.357Z" fill="white" fill-opacity="0.31"/>
<path d="M303.87 383.326C304.641 382.856 305.626 383.091 306.097 383.839C306.569 384.586 306.333 385.59 305.562 386.06C305.305 386.231 305.005 386.295 304.727 386.295C304.191 386.295 303.656 386.017 303.356 385.547C302.885 384.778 303.121 383.796 303.87 383.326Z" fill="white" fill-opacity="0.31"/>
<path d="M311.194 378.842C311.965 378.372 312.95 378.607 313.421 379.354C313.892 380.102 313.635 381.105 312.886 381.554C312.629 381.725 312.329 381.789 312.051 381.789C311.515 381.789 310.98 381.511 310.68 381.02C310.209 380.294 310.445 379.312 311.194 378.842Z" fill="white" fill-opacity="0.31"/>
<path d="M325.842 369.872C326.613 369.403 327.598 369.638 328.069 370.385C328.54 371.133 328.283 372.136 327.534 372.585C327.277 372.756 326.977 372.82 326.699 372.82C326.163 372.82 325.628 372.542 325.328 372.051C324.836 371.325 325.071 370.342 325.842 369.872Z" fill="white" fill-opacity="0.31"/>
<path d="M333.145 365.409C333.916 364.939 334.901 365.174 335.372 365.922C335.843 366.669 335.608 367.673 334.837 368.143C334.58 368.313 334.28 368.377 334.002 368.377C333.466 368.377 332.931 368.1 332.631 367.63C332.16 366.861 332.395 365.858 333.145 365.409Z" fill="white" fill-opacity="0.31"/>
<path d="M340.469 360.924C341.24 360.454 342.225 360.689 342.696 361.437C343.167 362.184 342.91 363.188 342.16 363.637C341.903 363.807 341.604 363.871 341.325 363.871C340.79 363.871 340.254 363.594 339.955 363.103C339.484 362.355 339.719 361.373 340.469 360.924Z" fill="white" fill-opacity="0.31"/>
<path d="M296.568 387.811C297.339 387.341 298.324 387.576 298.795 388.323C299.266 389.071 299.009 390.074 298.26 390.523C298.003 390.694 297.703 390.758 297.424 390.758C296.889 390.758 296.354 390.48 296.054 389.989C295.583 389.263 295.818 388.281 296.568 387.811Z" fill="white" fill-opacity="0.31"/>
<path d="M289.244 392.296C290.014 391.826 291 392.061 291.471 392.808C291.942 393.556 291.685 394.56 290.935 395.008C290.678 395.179 290.379 395.243 290.1 395.243C289.565 395.243 289.029 394.965 288.73 394.474C288.258 393.748 288.494 392.766 289.244 392.296Z" fill="white" fill-opacity="0.31"/>
<path d="M281.941 396.781C282.712 396.311 283.697 396.546 284.168 397.293C284.639 398.041 284.404 399.023 283.633 399.493L283.611 399.514C283.354 399.685 283.055 399.749 282.776 399.749C282.241 399.749 281.705 399.471 281.406 398.98C280.934 398.233 281.191 397.25 281.941 396.781Z" fill="white" fill-opacity="0.31"/>
<path opacity="0.4" d="M139.422 375.574C137.965 374.741 136.102 375.254 135.288 376.706C134.453 378.158 134.967 380.016 136.423 380.828C137.88 381.66 139.743 381.148 140.557 379.696C141.37 378.243 140.878 376.385 139.422 375.574Z" fill="white" fill-opacity="0.31"/>
<path opacity="0.7" d="M148.48 380.699C147.024 379.867 145.161 380.379 144.347 381.831C143.512 383.284 144.026 385.142 145.482 385.953C146.938 386.786 148.801 386.273 149.615 384.821C150.45 383.369 149.936 381.532 148.48 380.699Z" fill="white" fill-opacity="0.31"/>
<path d="M157.539 385.825C156.083 384.992 154.22 385.505 153.406 386.957C152.571 388.409 153.085 390.267 154.541 391.079C155.997 391.911 157.861 391.399 158.674 389.947C159.51 388.494 158.996 386.658 157.539 385.825Z" fill="white" fill-opacity="0.31"/>
<path opacity="0.4" d="M303.077 105.594C301.621 104.761 299.758 105.274 298.944 106.726C298.109 108.178 298.623 110.036 300.079 110.848C301.535 111.68 303.399 111.168 304.212 109.716C305.048 108.263 304.534 106.427 303.077 105.594Z" fill="white" fill-opacity="0.31"/>
<path opacity="0.7" d="M312.136 110.719C310.68 109.887 308.817 110.399 308.003 111.851C307.168 113.304 307.682 115.161 309.138 115.973C310.594 116.806 312.457 116.293 313.271 114.841C314.106 113.389 313.592 111.552 312.136 110.719Z" fill="white" fill-opacity="0.31"/>
<path d="M321.195 115.866C319.739 115.034 317.876 115.546 317.062 116.998C316.227 118.45 316.741 120.308 318.197 121.12C319.653 121.953 321.516 121.44 322.33 119.988C323.165 118.536 322.651 116.678 321.195 115.866Z" fill="white" fill-opacity="0.31"/>
<path d="M96.0126 358.575C94.4064 359.494 93.1001 361.757 93.1001 363.594C93.1001 365.452 94.4064 366.178 96.034 365.26C97.6402 364.341 98.9465 362.078 98.9465 360.241C98.9465 358.383 97.6187 357.636 96.0126 358.575Z" fill="white" fill-opacity="0.31"/>
<path d="M380.73 303.541C379.081 302.687 376.468 302.815 374.905 303.819C373.341 304.823 373.427 306.317 375.076 307.172C376.725 308.026 379.338 307.898 380.879 306.894C382.464 305.912 382.4 304.396 380.73 303.541Z" fill="white" fill-opacity="0.31"/>
<path d="M259.562 92.3317C257.956 93.25 256.649 95.5137 256.649 97.3503C256.649 99.2083 257.956 99.9344 259.583 99.0161C261.189 98.0978 262.496 95.8341 262.496 93.9975C262.474 92.1395 261.168 91.3921 259.562 92.3317Z" fill="white" fill-opacity="0.31"/>
<path d="M166.233 104.419C167.004 103.949 167.989 104.184 168.461 104.932C168.932 105.679 168.675 106.683 167.925 107.132C167.668 107.302 167.368 107.366 167.09 107.366C166.555 107.366 166.019 107.089 165.719 106.598C165.248 105.872 165.484 104.889 166.233 104.419Z" fill="white" fill-opacity="0.31"/>
<path d="M151.585 113.389C152.356 112.919 153.341 113.154 153.813 113.902C154.284 114.649 154.048 115.653 153.277 116.123C153.02 116.293 152.72 116.357 152.442 116.357C151.907 116.357 151.371 116.08 151.071 115.61C150.6 114.841 150.836 113.859 151.585 113.389Z" fill="white" fill-opacity="0.31"/>
<path d="M158.91 108.904C159.681 108.434 160.666 108.669 161.137 109.417C161.608 110.164 161.351 111.168 160.601 111.616C160.344 111.787 160.045 111.851 159.766 111.851C159.231 111.851 158.695 111.574 158.396 111.082C157.924 110.356 158.16 109.374 158.91 108.904Z" fill="white" fill-opacity="0.31"/>
<path d="M173.558 99.935C174.328 99.4651 175.314 99.7 175.785 100.447C176.256 101.195 175.999 102.199 175.249 102.647C174.992 102.818 174.693 102.882 174.414 102.882C173.879 102.882 173.343 102.604 173.044 102.113C172.551 101.387 172.787 100.405 173.558 99.935Z" fill="white" fill-opacity="0.31"/>
<path d="M180.86 95.4496C181.631 94.9798 182.616 95.2147 183.087 95.9621C183.559 96.7096 183.323 97.7133 182.552 98.1831C182.295 98.354 181.995 98.4181 181.717 98.4181C181.181 98.4181 180.646 98.1404 180.346 97.6706C179.875 96.9018 180.111 95.9194 180.86 95.4496Z" fill="white" fill-opacity="0.31"/>
<path d="M188.184 90.9652C188.955 90.4954 189.941 90.7303 190.412 91.4778C190.883 92.2252 190.626 93.229 189.876 93.6774C189.619 93.8483 189.32 93.9123 189.041 93.9123C188.506 93.9123 187.97 93.6347 187.67 93.1435C187.199 92.4174 187.435 91.4351 188.184 90.9652Z" fill="white" fill-opacity="0.31"/>
<path d="M144.283 117.873C145.054 117.404 146.039 117.639 146.51 118.386C146.981 119.133 146.724 120.137 145.975 120.586C145.718 120.757 145.418 120.821 145.139 120.821C144.604 120.821 144.069 120.543 143.769 120.052C143.298 119.326 143.533 118.343 144.283 117.873Z" fill="white" fill-opacity="0.31"/>
<path d="M136.959 122.358C137.73 121.888 138.715 122.123 139.186 122.871C139.657 123.618 139.4 124.622 138.651 125.07C138.394 125.241 138.094 125.305 137.815 125.305C137.28 125.305 136.745 125.028 136.445 124.537C135.974 123.81 136.209 122.807 136.959 122.358Z" fill="white" fill-opacity="0.31"/>
<path d="M129.656 126.843C130.427 126.373 131.412 126.608 131.883 127.356C132.354 128.103 132.119 129.085 131.348 129.555L131.327 129.577C131.07 129.747 130.77 129.812 130.491 129.812C129.956 129.812 129.421 129.534 129.121 129.043C128.65 128.274 128.885 127.292 129.656 126.843Z" fill="white" fill-opacity="0.31"/>
<path d="M228.103 271.721C227.46 271.721 226.925 272.255 226.925 272.895V404.96C226.925 405.6 227.46 406.134 228.103 406.134C228.745 406.134 229.28 405.6 229.28 404.96V272.895C229.28 272.255 228.745 271.721 228.103 271.721Z" fill="#0CD44B"/>
<path d="M231.036 403.914C229.387 403.06 226.775 403.188 225.211 404.192C223.648 405.195 223.734 406.69 225.383 407.545C227.032 408.399 229.644 408.271 231.208 407.267C232.771 406.263 232.685 404.747 231.036 403.914Z" fill="#0CD44B"/>
<path d="M177.712 229.95L96.9977 185.316C96.4195 184.995 95.7128 185.209 95.3915 185.764C95.0703 186.341 95.2845 187.046 96.1411 187.067L176.855 231.701C176.727 232.107 176.941 232.149 177.134 232.149C177.541 232.149 177.948 231.936 178.162 231.551C178.483 230.975 178.269 230.27 177.712 229.95Z" fill="#0CD44B"/>
<path d="M345.63 187.216L270.805 233.409C270.248 233.75 270.077 234.476 270.419 235.032C270.633 235.395 271.019 235.587 271.426 235.587C271.64 235.587 271.854 235.523 272.047 235.416L346.872 189.202C347.429 188.86 347.6 188.134 347.258 187.579C346.915 187.045 346.187 186.874 345.63 187.216Z" fill="#0CD44B"/>
<path d="M164.542 223.543L227.718 259.933L290.465 223.543L227.289 187.174L164.542 223.543Z" fill="url(#paint0_linear_2267_981)" fill-opacity="0.3"/>
<path d="M291.064 222.539L227.889 186.17C227.525 185.957 227.075 185.957 227.011 185.871L164.243 222.24C163.579 222.753 163.365 223.137 163.365 223.564C163.365 223.991 163.6 224.376 163.964 224.589L227.139 260.958C227.332 261.065 227.525 261.108 227.739 261.108C227.953 261.108 228.146 261.065 228.339 260.958L291.107 224.589C291.471 224.376 291.685 223.991 291.685 223.564C291.642 223.137 291.428 222.753 291.064 222.539ZM227.696 258.566L166.877 223.543L227.289 188.519L288.109 223.543L227.696 258.566Z" fill="#0CD44B"/>
<path d="M227.482 335.98L290.25 299.611L290.464 223.542L227.717 259.932L227.482 335.98Z" fill="url(#paint1_linear_2267_981)" fill-opacity="0.3"/>
<path d="M291.064 222.539C290.7 222.325 290.25 222.325 289.886 222.539L227.118 258.908C226.754 259.121 226.54 259.506 226.54 259.911L226.325 335.981C226.325 336.408 226.54 336.792 226.925 337.006C227.118 337.113 227.311 337.155 227.525 337.155C227.739 337.155 227.932 337.113 228.124 337.006L290.893 300.637C291.257 300.423 291.471 300.039 291.471 299.633L291.685 223.564C291.664 223.137 291.428 222.752 291.064 222.539ZM289.072 298.928L228.66 333.931L228.874 260.595L289.287 225.592L289.072 298.928Z" fill="#0CD44B"/>
<path d="M164.307 299.612L227.482 335.981L227.717 259.933L164.542 223.543L164.307 299.612Z" fill="url(#paint2_linear_2267_981)" fill-opacity="0.3"/>
<path d="M228.296 258.908L165.12 222.539C164.756 222.326 164.307 222.326 163.942 222.539C163.578 222.753 163.343 223.137 163.343 223.564L163.129 299.634C163.129 300.061 163.343 300.445 163.728 300.659L226.904 337.028C227.096 337.134 227.289 337.177 227.503 337.177C227.696 337.177 227.91 337.134 228.081 337.028C228.445 336.814 228.681 336.43 228.681 336.003L228.895 259.933C228.895 259.506 228.66 259.122 228.296 258.908ZM226.325 333.952L165.506 298.929L165.72 225.572L226.539 260.595L226.325 333.952Z" fill="#0CD44B"/>
<path d="M131.178 218.639C138.965 217.379 144.253 210.062 142.989 202.296C141.725 194.531 134.388 189.258 126.601 190.518C118.814 191.778 113.526 199.095 114.79 206.86C116.054 214.626 123.391 219.899 131.178 218.639Z" fill="#0CD44B"/>
<path d="M134.154 199.751L127.429 206.457L123.617 202.677C123.082 202.143 122.183 202.143 121.647 202.677C121.112 203.211 121.112 204.108 121.647 204.642L126.423 209.404C126.701 209.682 127.044 209.81 127.408 209.81C127.772 209.81 128.115 209.682 128.393 209.404L136.102 201.716C136.638 201.182 136.638 200.285 136.102 199.751C135.567 199.218 134.689 199.218 134.154 199.751Z" fill="white"/>
<path d="M328.672 215.31C334.25 209.748 334.25 200.729 328.672 195.166C323.094 189.603 314.05 189.603 308.472 195.166C302.893 200.729 302.893 209.748 308.472 215.31C314.05 220.873 323.094 220.873 328.672 215.31Z" fill="#0CD44B"/>
<path d="M323.53 200.713L316.805 207.419L313.015 203.639C312.479 203.105 311.58 203.105 311.045 203.639C310.509 204.173 310.509 205.069 311.045 205.603L315.82 210.366C316.099 210.643 316.441 210.771 316.805 210.771C317.169 210.771 317.512 210.643 317.79 210.366L325.5 202.678C326.035 202.144 326.035 201.247 325.5 200.713C324.965 200.179 324.087 200.179 323.53 200.713Z" fill="white"/>
<path d="M238.261 378.813C243.84 373.251 243.84 364.232 238.261 358.669C232.683 353.106 223.639 353.106 218.061 358.669C212.483 364.232 212.483 373.251 218.061 378.813C223.639 384.376 232.683 384.376 238.261 378.813Z" fill="#0CD44B"/>
<path d="M234.291 363.914L227.567 370.62L223.777 366.84C223.241 366.306 222.342 366.306 221.806 366.84C221.271 367.374 221.271 368.271 221.806 368.805L226.582 373.567C226.86 373.844 227.203 373.973 227.567 373.973C227.931 373.973 228.274 373.844 228.552 373.567L236.262 365.879C236.797 365.345 236.797 364.448 236.262 363.914C235.705 363.38 234.827 363.38 234.291 363.914Z" fill="white"/>
<path d="M345.866 184.803C344.259 183.885 342.932 184.611 342.932 186.469C342.932 188.327 344.238 190.569 345.844 191.487C347.45 192.406 348.778 191.679 348.778 189.821C348.778 187.985 347.472 185.742 345.866 184.803Z" fill="#0CD44B"/>
<path d="M96.0128 182.881C94.4067 183.799 93.1003 186.063 93.1003 187.9C93.1003 189.758 94.7065 190.185 96.3341 189.266C97.9402 188.348 98.9467 186.383 98.9467 184.547C98.9467 182.71 97.619 181.963 96.0128 182.881Z" fill="#0CD44B"/>
<defs>
<linearGradient id="paint0_linear_2267_981" x1="248.776" y1="278.53" x2="194.004" y2="196.07" gradientUnits="userSpaceOnUse">
<stop offset="0.0260417" stop-color="#1AECDF"/>
<stop offset="0.46875" stop-color="#14FD55"/>
<stop offset="1" stop-color="#0BB913"/>
</linearGradient>
<linearGradient id="paint1_linear_2267_981" x1="222.053" y1="336.086" x2="184.881" y2="274.242" gradientUnits="userSpaceOnUse">
<stop offset="0.0260417" stop-color="#1AECDF"/>
<stop offset="0.46875" stop-color="#14FD55"/>
<stop offset="1" stop-color="#0BB913"/>
</linearGradient>
<linearGradient id="paint2_linear_2267_981" x1="228.22" y1="329.92" x2="164.481" y2="293.924" gradientUnits="userSpaceOnUse">
<stop offset="0.0260417" stop-color="#1AECDF"/>
<stop offset="0.46875" stop-color="#14FD55"/>
<stop offset="1" stop-color="#0BB913"/>
</linearGradient>
</defs>
</svg>
