<svg width="56" height="49" viewBox="0 0 56 49" fill="none" xmlns="http://www.w3.org/2000/svg">
<path d="M52.481 20.8857L34.7595 10.4426C30.962 8.22745 24.9494 8.22745 21.1519 10.4426L3.43038 20.8857C1.53164 21.835 0.582275 23.1009 0.582275 24.6831V32.5945C0.582275 33.8604 1.53164 35.4426 3.43038 36.392L21.1519 46.5186C24.9494 48.7338 30.962 48.7338 34.7595 46.5186L52.481 36.0756C54.3797 35.1262 55.3291 33.5439 55.3291 32.2781V24.6831C55.3291 23.1009 54.3797 21.835 52.481 20.8857Z" stroke="white" stroke-opacity="0.5" stroke-miterlimit="10"/>
<path d="M52.481 23.4171L34.7595 33.8602C30.962 36.0754 24.9494 36.0754 21.1519 33.8602L3.43038 23.4171C1.53164 22.1513 0.582275 20.8855 0.582275 19.3032V32.2779C0.582275 33.5437 1.53164 35.126 3.43038 36.0754L21.1519 46.5184C24.9494 48.7336 30.962 48.7336 34.7595 46.5184L52.481 36.0754C54.3797 35.126 55.3291 33.5437 55.3291 32.2779V19.3032C55.3291 20.8855 54.3797 22.1513 52.481 23.4171Z" stroke="white" stroke-opacity="0.5" stroke-miterlimit="10"/>
<path d="M52.481 15.5058L34.7595 5.06272C30.962 3.16399 24.9494 3.16399 21.1519 5.06272L3.43038 15.5058C1.53164 16.4551 0.582275 18.0374 0.582275 19.3032C0.582275 20.569 1.53164 22.1513 3.43038 23.4172L21.1519 33.5437C24.9494 35.7589 30.962 35.7589 34.7595 33.5437L52.481 23.1007C54.3797 22.1513 55.3291 20.569 55.3291 19.3032C55.3291 18.0374 54.3797 16.4551 52.481 15.5058Z" stroke="white" stroke-opacity="0.5" stroke-miterlimit="10"/>
<path d="M50.2658 18.038L30.6456 6.64562C29.0633 5.69625 26.8481 5.69625 25.2658 6.64562L5.64557 17.7216C4.06329 18.6709 4.06329 19.9368 5.64557 20.8861L9.7595 23.1013L25.5823 32.2785C27.1646 33.2279 29.3797 33.2279 30.962 32.2785L50.5823 20.8861C51.8481 20.2532 51.8481 18.6709 50.2658 18.038ZM26.5316 7.27853C27.1646 6.96207 28.4304 6.96207 29.0633 7.27853L31.9114 8.86081H23.3671L26.5316 7.27853ZM18.6203 12.0254H37.2911L41.0886 14.2406L42.3544 14.8735H13.557L18.6203 12.0254ZM29.3798 31.3292C28.7468 31.6456 27.481 31.6456 26.8481 31.3292L23.6835 29.4304H32.5443L29.3798 31.3292ZM37.6076 26.5823H18.6203L13.557 23.7342H42.6709L37.6076 26.5823ZM49 20.2532L47.7342 20.8861H8.49367L7.22785 19.9368C6.59494 19.6203 6.59494 18.9874 7.22785 18.6709L8.49367 18.038H47.4177L49 18.9874C49.6329 18.9874 49.6329 19.6203 49 20.2532Z" stroke="white" stroke-opacity="0.5" stroke-miterlimit="10"/>
<path d="M36.6583 13.6072C31.9115 16.4553 24.0001 16.4553 19.2532 13.6072C16.7216 12.3414 15.7722 10.4427 15.7722 8.54395V18.0376C15.7722 19.9363 17.038 21.5186 19.2532 23.1009C24.0001 25.949 31.9115 25.949 36.6583 23.1009C39.1899 21.8351 40.1393 19.9363 40.1393 18.0376V8.54395C40.1393 10.4427 39.1899 12.3414 36.6583 13.6072Z" fill="#030001" stroke="#D72464" stroke-miterlimit="10"/>
<path d="M19.2532 13.6074C24.0001 16.4555 31.9115 16.4555 36.6583 13.6074C39.1899 12.3416 40.1393 10.4428 40.1393 8.54409C40.1393 6.64536 38.8735 5.06308 36.6583 3.4808C31.9115 0.632701 24.0001 0.632701 19.2532 3.4808C16.7216 4.74663 15.7722 6.64536 15.7722 8.54409C15.7722 10.4428 17.038 12.3416 19.2532 13.6074Z" fill="#030001" stroke="#D72464" stroke-miterlimit="10"/>
</svg>
