<svg viewBox="0 0 512 413" fill="none" xmlns="http://www.w3.org/2000/svg">
<g opacity="0.5">
<path d="M128.074 254.772C198.188 254.772 255.027 197.934 255.027 127.82C255.027 57.7058 198.188 0.867188 128.074 0.867188C57.9601 0.867188 1.12158 57.7058 1.12158 127.82C1.12158 197.934 57.9601 254.772 128.074 254.772Z" stroke="white" stroke-miterlimit="10"/>
<path d="M128 241.708C191.352 241.708 242.709 190.351 242.709 126.999C242.709 63.647 191.352 12.29 128 12.29C64.648 12.29 13.291 63.647 13.291 126.999C13.291 190.351 64.648 241.708 128 241.708Z" stroke="white" stroke-miterlimit="10" stroke-linecap="square" stroke-dasharray="0.74 0.74"/>
<path d="M176.813 118.941C181.402 114.353 184.461 106.705 184.461 99.0576V97.528C184.461 79.1739 170.695 65.4083 152.341 65.4083H147.752V36.3477H129.398V63.8788H117.162V36.3477H98.8081V63.8788H63.6294V83.7625H86.572V174.004H66.6884L63.6294 192.358H98.8081V219.889H115.633V192.358H129.398V219.889H146.223V192.358H158.459C178.343 192.358 195.167 175.533 195.167 155.649V151.061C195.167 137.295 187.52 126.589 176.813 118.941ZM117.162 80.7034H141.634C146.223 80.7034 149.282 82.2329 152.341 85.292C155.4 88.351 156.929 91.41 156.929 95.9985C156.929 105.176 149.282 111.294 141.634 111.294H117.162V80.7034ZM144.693 174.004H117.162V134.236H144.693C150.811 134.236 155.4 135.766 158.459 140.354C161.518 143.413 164.577 149.531 164.577 154.12C164.577 164.826 155.4 174.004 144.693 174.004Z" stroke="white" stroke-miterlimit="10"/>
</g>
<g opacity="0.5">
<path d="M382.5 412C453.469 412 511 354.469 511 283.5C511 212.531 453.469 155 382.5 155C311.531 155 254 212.531 254 283.5C254 354.469 311.531 412 382.5 412Z" stroke="white" stroke-miterlimit="10"/>
<path d="M382.5 380.291C435.957 380.291 479.292 336.956 479.292 283.499C479.292 230.042 435.957 186.707 382.5 186.707C329.043 186.707 285.708 230.042 285.708 283.499C285.708 336.956 329.043 380.291 382.5 380.291Z" stroke="white" stroke-miterlimit="10"/>
<path d="M382.5 320.215L325.76 291.845L382.5 193.384L439.24 291.845L382.5 320.215Z" stroke="white" stroke-miterlimit="10" stroke-linejoin="round"/>
<path d="M382.5 330.228L325.76 300.189L382.5 373.618L439.24 300.189L382.5 330.228Z" stroke="white" stroke-miterlimit="10" stroke-linejoin="round"/>
<path d="M382.5 193.384V320.215" stroke="white" stroke-miterlimit="10"/>
<path d="M325.76 291.845L382.5 261.806L439.24 291.845" stroke="white" stroke-miterlimit="10"/>
<path d="M382.5 330.229V373.618" stroke="white" stroke-miterlimit="10"/>
</g>
<path d="M312.746 34.5698L158.424 231.084H253.791L198.305 375.002L361.874 175.02H260.149L312.746 34.5698Z" fill="url(#paint0_linear_2294_623)"/>
<g opacity="0.1">
<path opacity="0.027778" d="M225.697 322.08L262.791 231.927C263.628 229.701 263.349 227.197 261.955 224.971C260.56 223.023 258.329 221.91 255.819 221.91H182.467L285.383 90.8547L252.193 177.669C251.356 179.895 251.635 182.399 253.03 184.625C254.424 186.573 256.656 187.686 259.166 187.686H335.586L225.697 322.08ZM357.619 177.112C356.504 174.608 353.715 172.938 350.925 172.938H269.764L316.899 50.2302C318.294 46.8912 316.899 42.9957 313.552 41.048C310.484 39.3785 306.301 39.935 304.069 42.9957L161.549 224.693C159.875 226.919 159.596 229.98 160.712 232.484C161.828 234.988 164.617 236.658 167.406 236.658H244.941L193.065 362.705C191.671 366.044 193.065 369.939 196.133 371.887C197.249 372.722 198.643 373 200.038 373C202.269 373 204.221 372.165 205.895 370.218L357.061 184.903C358.456 182.677 359.014 179.616 357.619 177.112Z" fill="#FF9B00"/>
<path opacity="0.055556" d="M225.418 322.915L262.791 232.205C263.628 229.979 263.349 227.475 262.234 225.527C260.56 223.023 258.329 221.91 255.819 221.91H182.188L285.662 90.0195L252.193 177.39C251.356 179.616 251.635 182.12 253.03 184.068C254.424 186.016 256.656 187.129 259.166 187.129H335.865L225.418 322.915ZM357.619 177.112C356.504 174.607 353.715 172.938 350.925 172.938H269.764L316.62 50.2298C318.015 46.8908 316.62 42.9953 313.273 41.3258C310.205 39.6563 306.301 40.2128 304.069 43.2735L161.549 224.692C159.875 226.918 159.596 229.979 160.712 232.483C161.828 234.988 164.617 236.657 167.127 236.657H244.941L193.065 362.983C191.671 366.322 193.065 370.217 196.133 371.887C197.249 372.443 198.643 373 199.759 373C201.99 373 203.942 372.165 205.337 370.217L356.504 184.903C358.456 182.677 358.735 179.616 357.619 177.112Z" fill="#FF9C00"/>
<path opacity="0.083333" d="M224.86 323.471L262.513 231.927C263.349 229.701 263.07 227.197 261.955 225.249C260.56 223.301 258.329 222.188 256.098 222.188H182.188L286.219 89.463L252.472 177.668C251.635 179.894 251.914 182.398 253.309 184.346C254.703 186.294 256.934 187.407 259.166 187.407H335.865L224.86 323.471ZM357.619 177.112C356.504 174.607 353.993 172.938 351.204 172.938H269.485L316.62 50.2298C318.015 46.8908 316.62 43.2735 313.552 41.3258C310.484 39.6563 306.58 40.2128 304.348 43.2735L161.549 224.692C159.875 226.918 159.596 229.701 160.712 232.205C161.828 234.709 164.338 236.101 167.127 236.101H244.941L193.065 362.426C191.671 365.765 193.065 369.382 196.133 371.33C197.249 371.887 198.643 372.443 199.759 372.443C201.99 372.443 203.942 371.608 205.337 369.661L356.504 184.346C358.456 182.677 358.735 179.616 357.619 177.112Z" fill="#FF9E00"/>
<path opacity="0.1111" d="M224.581 324.028L262.512 231.927C263.349 229.701 263.07 227.197 261.955 225.249C260.56 223.302 258.329 222.189 256.098 222.189H181.909L286.498 88.9069L252.472 177.669C251.635 179.895 251.914 182.399 253.309 184.068C254.703 186.016 256.934 187.129 259.166 187.129H336.143L224.581 324.028ZM357.34 177.112C356.225 174.608 353.714 173.217 350.925 173.217H269.485L316.62 50.2302C317.736 46.8912 316.62 43.2739 313.552 41.6044C310.484 39.9349 306.579 40.7697 304.627 43.2739L161.828 224.971C160.154 227.197 159.875 229.98 160.991 232.484C162.107 234.988 164.617 236.379 167.406 236.379H245.499L193.344 362.983C191.949 366.322 193.344 369.939 196.412 371.609C197.527 372.165 198.922 372.722 200.038 372.722C201.99 372.722 204.221 371.887 205.616 370.217L356.782 184.903C358.177 182.677 358.456 179.616 357.34 177.112Z" fill="#FFA000"/>
<path opacity="0.1389" d="M224.302 324.585L262.512 231.927C263.349 229.701 263.07 227.475 261.955 225.528C260.56 223.58 258.608 222.467 256.098 222.467H181.63L286.777 88.3504L252.472 177.669C251.635 179.895 251.914 182.121 253.309 184.068C254.703 186.016 256.655 187.129 259.166 187.129H336.422L224.302 324.585ZM357.34 177.112C356.225 174.608 353.714 173.217 350.925 173.217H269.206L316.341 50.2302C317.457 46.8912 316.341 43.2739 313.273 41.6044C310.205 39.9349 306.579 40.7697 304.348 43.2739L161.828 224.971C160.154 227.197 159.875 229.98 160.991 232.206C162.107 234.71 164.617 236.101 167.127 236.101H245.22L193.065 362.705C191.67 365.766 193.065 369.661 195.854 371.331C196.97 371.887 198.085 372.444 199.48 372.444C201.432 372.444 203.663 371.609 204.779 369.939L355.946 184.625C358.177 182.399 358.456 179.616 357.34 177.112Z" fill="#FFA100"/>
</g>
<g opacity="0.2">
<path opacity="0.1667" d="M223.745 325.141L262.234 231.649C263.07 229.423 262.791 227.197 261.676 225.249C260.281 223.302 258.329 222.189 256.098 222.189H181.351L287.056 87.5157L252.751 177.669C251.914 179.895 252.193 182.121 253.587 184.068C254.982 186.016 256.934 187.129 259.166 187.129H336.422L223.745 325.141ZM357.34 177.39C356.225 174.886 353.714 173.495 351.204 173.495H268.927L316.341 50.2302C317.457 47.1695 316.341 43.5522 313.273 41.8827C310.205 40.2132 306.579 41.048 304.348 43.5522L161.828 224.971C160.154 226.919 159.875 229.98 160.991 232.206C162.107 234.432 164.617 236.101 167.127 236.101H245.499L193.344 362.983C191.949 366.044 193.344 369.661 196.133 371.609C197.249 372.165 198.364 372.444 199.759 372.444C201.711 372.444 203.663 371.609 205.058 369.939L356.225 184.625C357.898 182.399 358.456 179.616 357.34 177.39Z" fill="#FFA300"/>
<path opacity="0.1944" d="M223.466 325.976L262.234 231.927C263.07 229.98 262.791 227.475 261.676 225.528C260.281 223.58 258.329 222.467 256.098 222.467H181.351L287.614 86.9592L252.751 177.669C251.914 179.616 252.193 182.121 253.588 183.79C254.982 185.738 256.934 186.851 259.166 186.851H336.98L223.466 325.976ZM357.061 177.39C355.946 175.164 353.436 173.495 350.925 173.495H268.927L316.341 50.2302C317.457 47.1695 316.341 43.5522 313.273 41.8827C310.484 40.2132 306.58 41.048 304.627 43.5522L162.107 224.971C160.433 226.919 160.154 229.701 161.27 232.206C162.386 234.432 164.896 236.101 167.406 236.101H245.778L193.623 362.983C192.228 366.044 193.623 369.661 196.412 371.331C197.528 371.887 198.643 372.165 199.759 372.165C201.711 372.165 203.664 371.331 205.058 369.661L356.225 184.347C357.898 182.399 358.177 179.616 357.061 177.39Z" fill="#FFA500"/>
<path opacity="0.2222" d="M223.187 326.532L262.234 231.927C263.07 229.98 262.791 227.475 261.676 225.806C260.56 223.858 258.329 222.745 256.098 222.745H181.072L287.893 86.681L252.751 177.947C251.914 179.895 252.193 182.399 253.588 184.068C254.703 185.738 256.934 186.851 259.166 186.851H336.98L223.187 326.532ZM357.061 177.39C355.946 175.164 353.715 173.495 350.926 173.495H268.648L316.062 49.952C317.178 46.8912 316.062 43.274 312.994 41.8827C310.205 40.2132 306.58 41.048 304.348 43.5522L162.107 225.249C160.433 227.197 160.154 229.98 161.27 232.206C162.386 234.432 164.896 235.823 167.406 235.823H246.057L193.902 362.983C192.786 366.044 193.902 369.661 196.691 371.331C197.807 371.887 198.922 372.165 200.038 372.165C201.99 372.165 203.942 371.331 205.337 369.661L356.504 184.347C357.898 182.399 358.177 179.616 357.061 177.39Z" fill="#FFA600"/>
<path opacity="0.25" d="M222.908 327.089L262.234 231.649C263.07 229.701 262.791 227.197 261.676 225.528C260.56 223.58 258.329 222.745 256.098 222.745H180.793L288.172 85.8463L253.03 177.947C252.193 179.895 252.472 182.121 253.867 184.068C254.982 185.738 257.213 186.851 259.166 186.851H337.259L222.908 327.089ZM357.061 177.39C355.946 175.164 353.715 173.773 351.204 173.773H268.648L316.062 50.2303C317.178 47.1696 316.062 43.8306 313.273 42.1611C310.484 40.4916 306.858 41.3263 304.906 43.8306L162.107 225.249C160.433 227.197 160.154 229.98 161.27 232.206C162.664 234.432 164.896 235.823 167.406 235.823H246.336L193.902 363.261C192.786 366.322 193.902 369.661 196.691 371.331C197.807 371.887 198.922 372.165 200.038 372.165C201.99 372.165 203.942 371.331 205.058 369.661L356.225 184.347C357.619 182.399 357.898 179.617 357.061 177.39Z" fill="#FFA800"/>
<path opacity="0.2778" d="M222.35 327.645L261.955 231.649C262.791 229.701 262.512 227.475 261.397 225.528C260.281 223.858 258.05 222.745 256.098 222.745H180.793L288.73 85.2898L253.03 177.947C252.193 179.895 252.472 182.121 253.866 183.79C254.982 185.46 256.934 186.573 259.166 186.573H337.538L222.35 327.645ZM356.782 177.39C355.667 175.164 353.436 173.773 350.925 173.773H268.369L315.783 49.952C316.899 46.8913 315.783 43.5523 312.994 42.1611C310.205 40.4916 306.579 41.3263 304.627 43.8306L162.385 225.249C160.991 227.197 160.712 229.701 161.549 231.927C162.664 234.153 164.896 235.545 167.406 235.545H246.336L193.902 362.983C192.786 366.044 193.902 369.383 196.691 371.052C197.806 371.609 198.922 371.887 200.038 371.887C201.99 371.887 203.663 371.052 205.058 369.383L355.946 184.347C357.619 182.399 357.898 179.616 356.782 177.39Z" fill="#FFAA00"/>
<path opacity="0.3056" d="M222.071 328.202L261.955 231.371C262.791 229.423 262.512 227.197 261.397 225.528C260.281 223.858 258.329 222.745 256.098 222.745H180.514L289.008 84.7333L253.03 177.947C252.193 179.895 252.472 182.121 253.866 183.79C254.982 185.46 256.934 186.573 259.166 186.573H337.817L222.071 328.202ZM356.782 177.39C355.667 175.164 353.436 173.773 350.925 173.773H268.369L315.783 49.952C316.899 46.8913 315.783 43.8306 312.994 42.1611C310.205 40.4916 306.858 41.3263 304.906 43.8306L162.385 225.249C160.991 227.197 160.712 229.701 161.549 231.927C162.664 234.153 164.896 235.545 167.127 235.545H246.336L193.902 363.261C192.786 366.044 193.902 369.383 196.412 371.052C197.528 371.609 198.643 371.887 199.759 371.887C201.711 371.887 203.385 371.052 204.779 369.661L355.946 184.347C357.619 182.399 357.898 179.616 356.782 177.39Z" fill="#FFAB00"/>
</g>
<g opacity="0.3">
<path opacity="0.3333" d="M221.792 329.036L261.676 231.649C262.512 229.701 262.234 227.475 261.118 225.806C260.002 224.136 258.05 223.023 255.819 223.023H180.235L289.287 84.1766L253.309 177.947C252.472 179.895 252.751 182.121 253.866 183.79C254.982 185.46 256.934 186.573 258.887 186.573H337.817L221.792 329.036ZM356.782 177.669C355.667 175.443 353.436 174.051 351.204 174.051H268.091L315.783 49.9518C316.899 47.1693 315.783 43.8303 312.994 42.1608C310.205 40.7696 306.858 41.3261 304.906 43.8303L162.385 225.249C160.991 227.197 160.712 229.701 161.549 231.927C162.664 234.153 164.896 235.544 167.127 235.544H246.336L194.181 363.261C193.065 366.044 194.181 369.383 196.691 371.052C197.806 371.609 198.922 371.887 199.759 371.887C201.711 371.887 203.385 371.052 204.5 369.661L355.946 184.068C357.34 182.399 357.619 179.616 356.782 177.669Z" fill="#FFAD00"/>
<path opacity="0.3611" d="M221.234 329.593L261.397 231.649C262.233 229.701 261.955 227.475 260.839 225.806C259.723 224.136 257.771 223.023 255.819 223.023H179.956L289.566 83.3419L253.308 177.947C252.472 179.895 252.751 181.842 253.866 183.512C254.982 185.181 256.934 186.294 258.887 186.294H337.817L221.234 329.593ZM356.503 177.669C355.388 175.443 353.435 174.051 350.925 174.051H268.09L315.783 49.9519C316.899 47.1694 315.783 43.8304 312.994 42.4392C310.484 41.0479 307.137 41.6044 305.185 44.1087L162.385 225.528C160.991 227.475 160.712 229.98 161.828 231.927C162.943 234.153 164.896 235.266 167.406 235.266H246.894L194.181 363.261C193.065 366.044 194.181 369.383 196.691 370.774C197.806 371.33 198.643 371.609 199.759 371.609C201.432 371.609 203.384 370.774 204.5 369.383L355.667 184.068C357.34 182.121 357.619 179.616 356.503 177.669Z" fill="#FFAF00"/>
<path opacity="0.3889" d="M220.956 330.15L261.397 231.371C262.234 229.423 261.955 227.475 260.839 225.806C259.723 224.136 257.771 223.023 255.819 223.023H179.678L289.845 82.7854L253.309 177.947C252.472 179.895 252.751 181.842 253.866 183.512C254.982 185.181 256.934 186.016 258.887 186.016H338.096L220.956 330.15ZM356.504 177.669C355.388 175.443 353.436 174.33 350.925 174.33H267.812L315.504 49.9519C316.62 47.1694 315.504 44.1087 312.715 42.4392C310.205 41.0479 307.137 41.6044 305.185 43.8304L162.664 225.528C161.27 227.475 160.991 229.701 162.107 231.927C163.222 233.875 165.175 235.266 167.406 235.266H246.894L194.181 363.261C193.065 366.044 194.181 369.104 196.691 370.774C197.528 371.33 198.643 371.609 199.759 371.609C201.432 371.609 203.385 370.774 204.5 369.383L355.667 184.068C357.061 182.121 357.34 179.616 356.504 177.669Z" fill="#FFB000"/>
<path opacity="0.4167" d="M220.677 330.706L261.397 231.371C262.234 229.423 261.955 227.475 260.839 225.806C259.723 224.136 257.771 223.302 255.819 223.302H179.399L290.124 82.2289L253.588 178.225C252.751 180.173 253.03 182.121 254.145 183.79C255.261 185.46 257.213 186.294 259.166 186.294H338.654L220.677 330.706ZM356.504 177.669C355.388 175.721 353.436 174.33 351.204 174.33H267.812L315.504 49.6737C316.62 46.8912 315.504 43.8304 312.994 42.4392C310.484 41.0479 307.137 41.6044 305.464 43.8304L162.664 225.528C161.27 227.197 160.991 229.701 162.107 231.649C163.222 233.597 165.175 234.988 167.406 234.988H247.173L194.46 363.261C193.344 366.044 194.46 369.105 196.97 370.496C197.806 371.052 198.922 371.331 200.038 371.331C201.711 371.331 203.385 370.496 204.779 369.105L355.946 183.79C357.061 182.121 357.34 179.616 356.504 177.669Z" fill="#FFB200"/>
<path opacity="0.4444" d="M220.119 331.263L261.118 231.371C261.955 229.701 261.676 227.475 260.56 225.806C259.445 224.136 257.771 223.302 255.819 223.302H179.399L290.682 81.3941L253.588 178.225C253.03 179.895 253.03 182.121 254.145 183.512C255.261 185.181 256.934 186.016 258.887 186.016H338.654L220.119 331.263ZM356.225 177.669C355.388 175.721 353.157 174.33 350.925 174.33H267.533L315.226 49.6737C316.341 46.8912 315.226 43.8304 312.715 42.4392C310.205 41.0479 307.137 41.6044 305.185 43.8304L162.664 225.528C161.27 227.197 160.991 229.701 162.107 231.649C163.222 233.597 165.175 234.988 167.406 234.988H247.173L194.46 363.261C193.344 366.044 194.46 369.105 196.97 370.496C197.806 371.052 198.922 371.331 200.038 371.331C201.711 371.331 203.385 370.496 204.5 369.105L355.667 183.79C357.061 182.121 357.34 179.616 356.225 177.669Z" fill="#FFB400"/>
<path opacity="0.4722" d="M219.84 332.097L261.118 231.371C261.955 229.701 261.676 227.475 260.56 226.084C259.445 224.415 257.771 223.58 255.819 223.58H179.12L290.961 81.116L253.867 178.225C253.309 179.895 253.309 181.842 254.424 183.512C255.54 185.181 257.213 186.016 259.166 186.016H338.933L219.84 332.097ZM356.225 177.669C355.109 175.721 353.157 174.608 350.926 174.608H267.254L315.226 49.6737C316.341 47.1695 315.226 44.1087 312.716 42.7175C310.205 41.3262 307.137 41.8827 305.464 44.1087L162.943 225.806C161.549 227.475 161.27 229.98 162.386 231.927C163.222 233.875 165.454 235.266 167.406 235.266H247.452L194.739 363.818C193.623 366.322 194.739 369.383 197.249 370.774C198.086 371.331 199.201 371.609 200.038 371.609C201.711 371.609 203.385 370.774 204.5 369.383L355.667 184.068C356.783 182.121 357.062 179.895 356.225 177.669Z" fill="#FFB500"/>
<path opacity="0.5" d="M219.561 332.654L261.118 231.371C261.955 229.701 261.676 227.754 260.56 226.084C259.445 224.415 257.771 223.58 255.819 223.58H178.841L291.24 80.2812L253.867 178.225C253.309 179.895 253.309 181.842 254.424 183.512C255.54 184.903 257.213 186.016 259.166 186.016H339.212L219.561 332.654ZM355.946 177.947C355.109 175.999 353.157 174.608 350.926 174.608H267.254L315.226 49.6737C316.341 47.1695 315.226 44.1087 312.716 42.7175C310.205 41.3262 307.137 41.8827 305.464 44.1087L162.943 225.806C161.549 227.475 161.27 229.701 162.386 231.649C163.222 233.597 165.175 234.71 167.406 234.71H247.731L194.739 363.261C193.623 365.766 194.739 368.826 196.97 370.218C197.807 370.774 198.922 371.052 199.759 371.052C201.432 371.052 203.106 370.218 204.221 369.105L355.388 183.79C356.783 182.121 357.062 179.895 355.946 177.947Z" fill="#FFB700"/>
<path opacity="0.5278" d="M219.003 333.21L260.839 231.37C261.676 229.701 261.397 227.753 260.281 226.084C259.166 224.692 257.492 223.579 255.819 223.579H178.562L291.797 79.7243L253.866 178.225C253.309 179.894 253.309 181.842 254.424 183.233C255.54 184.625 257.213 185.738 258.887 185.738H339.211L219.003 333.21ZM355.946 177.947C355.109 175.999 353.157 174.886 350.925 174.886H266.975L314.947 49.6733C315.783 47.1691 314.947 44.3866 312.436 42.9953C309.926 41.6041 307.137 42.1606 305.464 44.3866L162.943 225.805C161.549 227.475 161.27 229.701 162.385 231.649C163.222 233.596 165.174 234.709 167.406 234.709H247.73L194.738 363.539C193.623 366.043 194.738 369.104 196.97 370.495C197.806 371.052 198.922 371.33 199.759 371.33C201.432 371.33 202.827 370.495 203.942 369.382L355.109 184.068C356.503 182.12 356.782 179.894 355.946 177.947Z" fill="#FFB900"/>
</g>
<g opacity="0.4">
<path opacity="0.5556" d="M218.724 333.767L260.839 231.093C261.397 229.423 261.397 227.475 260.281 226.084C259.166 224.693 257.492 223.58 255.819 223.58H178.562L292.076 78.89L254.145 178.225C253.587 179.895 253.866 181.842 254.703 183.234C255.819 184.625 257.492 185.46 259.166 185.46H339.769L218.724 333.767ZM355.946 177.947C355.109 175.999 353.157 174.886 350.925 174.886H266.975L314.947 49.6738C315.783 47.1696 314.947 44.3871 312.437 42.9958C310.205 41.6046 307.137 42.1611 305.464 44.3871L162.943 225.806C161.549 227.475 161.549 229.701 162.385 231.371C163.222 233.319 165.175 234.432 167.127 234.432H247.73L194.738 363.261C193.623 365.766 194.738 368.548 196.97 369.939C197.806 370.496 198.922 370.774 199.759 370.774C201.432 370.774 202.827 370.218 203.942 368.826L355.109 183.512C356.504 182.121 356.782 179.895 355.946 177.947Z" fill="#FFBA00"/>
<path opacity="0.5833" d="M218.445 334.323L260.839 231.093C261.397 229.423 261.397 227.475 260.281 226.084C259.165 224.693 257.771 223.858 255.819 223.858H178.283L292.355 78.6118L254.145 178.225C253.587 179.895 253.866 181.564 254.703 183.234C255.819 184.625 257.213 185.46 259.165 185.46H340.048L218.445 334.323ZM355.667 177.947C354.83 175.999 352.878 174.886 350.925 174.886H266.696L314.946 49.6738C315.783 47.1695 314.946 44.387 312.715 43.274C310.484 42.161 307.416 42.4393 305.743 44.387L163.222 226.084C162.106 227.754 161.828 229.98 162.664 231.649C163.501 233.597 165.453 234.71 167.406 234.71H248.009L195.017 363.818C193.902 366.322 195.017 369.105 197.248 370.496C198.085 371.052 198.922 371.331 200.038 371.331C201.711 371.331 203.105 370.774 204.221 369.383L355.388 184.068C356.503 181.842 356.782 179.895 355.667 177.947Z" fill="#FFBC00"/>
<path opacity="0.6111" d="M218.166 335.158L260.839 231.371C261.397 229.701 261.397 228.032 260.281 226.641C259.444 225.249 257.771 224.415 256.097 224.415H178.004L292.634 78.3335L254.145 178.225C253.587 179.895 253.866 181.564 254.703 182.956C255.54 184.347 257.213 185.181 258.887 185.181H339.769L218.166 335.158ZM355.667 177.947C354.83 175.999 352.878 174.886 350.925 174.886H266.696L314.668 49.3956C315.504 46.8913 314.668 44.3871 312.436 42.9958C310.205 41.6046 307.416 42.1611 305.743 44.3871L163.222 226.084C162.106 227.754 161.828 229.701 162.664 231.649C163.501 233.319 165.453 234.432 167.406 234.432H248.288L195.296 363.54C194.181 366.044 195.296 368.548 197.527 369.939C198.364 370.496 199.201 370.774 200.316 370.774C201.711 370.774 203.384 370.218 204.221 368.826L355.388 183.512C356.224 181.842 356.503 179.895 355.667 177.947Z" fill="#FFBE00"/>
<path opacity="0.6389" d="M217.609 335.715L260.56 231.093C261.118 229.423 261.118 227.754 260.002 226.363C259.165 224.971 257.492 224.137 255.819 224.137H177.725L292.913 77.499L254.424 178.504C253.866 180.173 254.145 181.843 254.982 183.234C255.819 184.625 257.492 185.46 259.165 185.46H340.327L217.609 335.715ZM355.667 177.947C354.83 176.278 353.156 175.165 350.925 175.165H266.417L314.668 49.3958C315.504 47.1698 314.668 44.3873 312.436 43.2743C310.205 42.1613 307.416 42.7178 306.022 44.6655L163.222 226.084C162.106 227.754 161.828 229.702 162.664 231.371C163.501 233.041 165.174 234.154 167.127 234.154H248.009L194.738 363.54C193.902 365.766 194.738 368.548 196.97 369.94C197.806 370.496 198.643 370.774 199.48 370.774C200.874 370.774 202.548 370.218 203.384 368.827L354.551 183.512C356.224 181.843 356.503 179.895 355.667 177.947Z" fill="#FFBF00"/>
<path opacity="0.6667" d="M217.33 336.271L260.56 231.093C261.118 229.423 261.118 227.754 260.003 226.363C259.166 224.971 257.492 224.137 255.819 224.137H177.726L293.471 76.6643L254.424 178.225C253.867 179.895 254.146 181.564 254.982 182.956C255.819 184.347 257.492 185.182 259.166 185.182H340.606L217.33 336.271ZM355.388 177.947C354.551 176.278 352.878 175.165 350.926 175.165H266.417L314.668 49.3958C315.505 47.1698 314.668 44.3873 312.437 43.2743C310.205 42.1613 307.695 42.7178 306.022 44.6655L163.501 226.084C162.386 227.476 162.107 229.702 162.944 231.371C163.78 233.041 165.454 234.154 167.406 234.154H248.567L195.297 363.54C194.46 365.766 195.297 368.548 197.249 369.661C198.086 370.218 198.922 370.496 199.759 370.496C201.154 370.496 202.548 369.94 203.664 368.548L354.83 183.234C356.225 181.843 356.225 179.895 355.388 177.947Z" fill="#FFC100"/>
</g>
<g opacity="0.5">
<path opacity="0.6944" d="M217.051 336.827L260.56 231.092C261.118 229.701 261.118 227.753 260.002 226.64C259.166 225.249 257.492 224.414 255.819 224.414H177.446L293.75 76.3851L254.424 178.503C253.866 179.894 254.145 181.564 254.982 182.955C255.819 184.346 257.492 185.181 258.887 185.181H340.606L217.051 336.827ZM355.388 178.225C354.551 176.555 352.878 175.442 350.925 175.442H266.138L314.389 49.3949C315.226 47.1689 314.389 44.6646 312.158 43.2734C309.926 42.1604 307.416 42.7169 306.022 44.3864L163.501 226.084C162.385 227.475 162.107 229.423 162.943 231.37C163.78 233.04 165.453 234.153 167.406 234.153H248.567L195.296 363.817C194.46 366.043 195.296 368.547 197.249 369.939C198.085 370.495 198.922 370.495 199.759 370.495C201.153 370.495 202.548 369.939 203.663 368.826L354.83 183.511C355.946 181.842 356.225 179.894 355.388 178.225Z" fill="#FFC300"/>
<path opacity="0.7222" d="M216.493 337.384L260.281 230.814C260.839 229.423 260.839 227.753 259.723 226.362C258.887 224.971 257.213 224.136 255.819 224.136H177.167L294.029 75.2722L254.424 178.225C253.866 179.616 254.145 181.285 254.982 182.677C255.819 184.068 257.492 184.624 258.887 184.624H340.606L216.493 337.384ZM355.388 178.225C354.551 176.555 352.878 175.442 350.925 175.442H266.138L314.389 49.395C315.226 47.169 314.389 44.6647 312.158 43.5517C310.205 42.4387 307.416 42.9952 306.022 44.6647L163.501 226.362C162.385 227.753 162.107 229.701 162.943 231.37C163.78 233.04 165.453 234.153 167.127 234.153H248.567L195.575 363.817C194.738 366.043 195.575 368.548 197.528 369.661C198.364 370.217 199.201 370.217 200.038 370.217C201.432 370.217 202.827 369.661 203.663 368.548L354.83 183.233C355.946 181.842 356.225 179.894 355.388 178.225Z" fill="#FFC400"/>
<path opacity="0.75" d="M216.214 338.218L260.281 231.092C260.839 229.701 260.839 228.031 259.723 226.64C258.887 225.249 257.492 224.692 255.819 224.692H176.888L294.308 74.9939L254.703 178.503C254.145 179.894 254.424 181.564 255.261 182.955C256.098 184.346 257.492 184.903 259.166 184.903H341.164L216.214 338.218ZM355.109 178.225C354.272 176.555 352.599 175.442 350.925 175.442H265.859L314.389 49.395C315.225 47.169 314.389 44.6647 312.436 43.5517C310.484 42.4387 307.974 42.9952 306.579 44.6647L163.78 226.362C162.664 227.753 162.385 229.701 163.222 231.37C164.059 233.04 165.732 233.875 167.406 233.875H249.125L195.575 363.817C194.738 366.043 195.575 368.548 197.527 369.661C198.364 370.217 199.201 370.217 200.038 370.217C201.432 370.217 202.827 369.661 203.663 368.548L354.83 183.233C355.667 181.842 355.946 179.894 355.109 178.225Z" fill="#FFC600"/>
<path opacity="0.7778" d="M215.935 338.775L260.281 231.092C260.839 229.701 260.839 228.031 259.723 226.918C258.887 225.527 257.492 224.971 255.819 224.971H176.888L294.865 74.7158L254.703 178.503C254.145 179.894 254.424 181.564 255.261 182.677C256.098 183.79 257.492 184.624 259.165 184.624H341.443L215.935 338.775ZM355.109 178.225C354.272 176.555 352.878 175.72 350.925 175.72H265.859L314.11 49.395C314.947 47.169 314.11 44.943 312.157 43.83C310.205 42.717 307.695 43.2735 306.3 44.943L163.78 226.362C162.664 227.753 162.385 229.701 163.222 231.092C164.059 232.762 165.453 233.596 167.406 233.596H249.125L195.575 363.817C194.738 366.043 195.575 368.269 197.527 369.382C198.364 369.939 199.201 369.939 199.759 369.939C201.153 369.939 202.548 369.382 203.384 368.269L354.551 182.955C355.667 181.842 355.946 179.894 355.109 178.225Z" fill="#FFC800"/>
<path opacity="0.8056" d="M215.378 339.331L260.002 230.814C260.56 229.423 260.281 227.753 259.445 226.64C258.608 225.527 257.213 224.692 255.819 224.692H176.61L295.145 73.6027L254.982 178.503C254.424 179.894 254.703 181.285 255.54 182.677C256.377 183.79 257.771 184.624 259.166 184.624H341.722L215.378 339.331ZM355.109 178.225C354.272 176.555 352.878 175.72 351.204 175.72H265.581L314.11 49.1167C314.947 47.169 314.11 44.6647 312.158 43.5517C310.205 42.4387 307.695 42.9952 306.301 44.6647L163.78 226.362C162.665 227.753 162.665 229.423 163.222 231.092C164.059 232.762 165.454 233.596 167.127 233.596H249.125L195.854 363.817C195.018 365.765 195.854 368.269 197.807 369.382C198.643 369.939 199.201 369.939 200.038 369.939C201.432 369.939 202.548 369.382 203.385 368.269L354.551 182.955C355.667 181.564 355.667 179.894 355.109 178.225Z" fill="#FFC900"/>
</g>
<g opacity="0.6">
<path opacity="0.8333" d="M215.098 339.888L260.002 230.814C260.56 229.423 260.281 228.032 259.723 226.641C258.887 225.528 257.492 224.693 256.098 224.693H176.331L295.423 73.0467L254.982 178.782C254.424 180.173 254.703 181.564 255.54 182.677C256.376 183.79 257.771 184.625 259.165 184.625H342L215.098 339.888ZM354.83 178.225C353.993 176.834 352.599 175.721 350.925 175.721H265.301L314.11 49.1173C314.947 47.1695 314.11 44.9435 312.157 43.8305C310.205 42.7175 307.974 43.274 306.579 44.9435L163.78 226.641C162.664 228.032 162.664 229.701 163.222 231.371C164.059 232.762 165.453 233.875 167.127 233.875H249.125L195.854 363.818C195.017 365.766 195.854 367.992 197.527 369.105C198.085 369.383 198.922 369.661 199.759 369.661C201.153 369.661 202.269 369.105 203.106 367.992L354.272 182.955C355.388 181.564 355.667 179.895 354.83 178.225Z" fill="#FFCB00"/>
<path opacity="0.8611" d="M214.819 340.445L260.002 230.814C260.56 229.423 260.281 228.032 259.723 226.919C258.886 225.806 257.492 224.971 256.097 224.971H176.051L295.702 72.4902L254.982 178.782C254.424 180.173 254.703 181.564 255.539 182.677C256.376 183.79 257.771 184.625 259.165 184.625H342L214.819 340.445ZM354.83 178.503C353.993 177.112 352.598 175.999 350.925 175.999H265.301L313.831 49.1173C314.667 47.1695 313.831 44.9435 311.878 43.8305C309.926 42.7175 307.695 43.274 306.3 44.9435L164.058 226.641C162.943 228.032 162.943 229.701 163.501 231.093C164.337 232.484 165.732 233.597 167.405 233.597H249.682L195.854 363.818C195.017 365.766 195.854 367.992 197.527 369.105C198.085 369.383 198.922 369.661 199.758 369.661C200.874 369.661 202.269 369.105 203.105 367.992L354.272 182.955C355.387 181.564 355.666 179.895 354.83 178.503Z" fill="#FFCD00"/>
<path opacity="0.8889" d="M214.54 341.001L260.002 230.536C260.56 229.145 260.281 227.754 259.723 226.641C258.886 225.528 257.771 224.693 256.376 224.693H175.773L295.981 71.6556L255.26 178.782C254.703 180.173 254.982 181.564 255.818 182.677C256.655 183.79 257.771 184.347 259.165 184.347H342.279L214.54 341.001ZM354.83 178.504C354.272 177.112 352.598 175.999 351.204 175.999H265.022L313.831 49.1173C314.667 47.1696 313.831 44.9436 311.878 44.1088C310.205 42.9958 307.695 43.5523 306.579 45.2218L164.058 226.641C162.943 227.754 162.943 229.702 163.501 231.093C164.337 232.484 165.732 233.319 167.126 233.319H249.403L195.575 363.818C194.738 365.766 195.575 367.992 197.248 369.105C197.806 369.383 198.643 369.661 199.479 369.661C200.595 369.661 201.99 369.105 202.826 367.992L354.272 182.956C355.387 181.564 355.387 179.895 354.83 178.504Z" fill="#FFCE00"/>
<path opacity="0.9167" d="M213.983 341.836L259.723 230.814C260.281 229.701 260.002 228.032 259.445 226.919C258.608 225.806 257.492 225.249 256.098 225.249H175.773L296.539 71.3773L255.261 178.782C254.703 179.895 254.982 181.564 255.819 182.399C256.655 183.512 257.771 184.069 259.166 184.069H342.558L213.983 341.836ZM354.551 178.504C353.993 177.112 352.32 176.278 350.925 176.278H265.023L313.831 49.1173C314.668 47.1696 313.831 45.2218 312.158 44.1088C310.484 42.9958 308.253 43.5523 306.858 45.2218L164.059 226.641C163.222 227.754 162.943 229.423 163.501 230.814C164.059 232.206 165.732 233.04 167.127 233.04H249.962L196.133 363.818C195.296 365.766 196.133 367.713 197.806 368.826C198.364 369.105 199.201 369.383 199.759 369.383C200.874 369.383 201.99 368.826 202.827 367.992L353.993 182.677C355.109 181.564 355.388 179.895 354.551 178.504Z" fill="#FFD000"/>
</g>
<g opacity="0.6">
<path opacity="0.9444" d="M213.704 342.392L259.724 230.814C260.281 229.701 260.003 228.31 259.445 227.197C258.608 226.084 257.492 225.527 256.098 225.527H175.494L296.818 71.0985L255.261 178.781C254.703 179.894 254.982 181.285 255.819 182.398C256.656 183.511 257.771 184.068 259.166 184.068H342.837L213.704 342.392ZM354.551 178.503C353.994 177.112 352.599 176.277 350.926 176.277H264.744L313.552 49.1167C314.389 47.169 313.552 45.2212 311.879 44.3865C310.205 43.5517 307.974 43.83 306.859 45.4995L164.338 226.918C163.501 228.031 163.222 229.701 163.78 231.092C164.338 232.205 165.733 233.04 167.406 233.04H249.962L196.133 363.817C195.296 365.765 196.133 367.713 197.807 368.826C198.364 369.104 199.201 369.382 199.759 369.382C200.875 369.382 201.99 368.826 202.827 367.991L353.994 182.677C355.109 181.564 355.109 179.894 354.551 178.503Z" fill="#FFD200"/>
<path opacity="0.9722" d="M213.425 342.949L259.724 230.536C260.281 229.423 260.003 228.031 259.445 226.918C258.608 225.805 257.492 225.249 256.377 225.249H175.215L297.097 69.9855L255.54 178.781C254.982 179.894 255.261 181.285 256.098 182.398C256.935 183.511 258.05 184.068 259.166 184.068H343.116L213.425 342.949ZM354.551 178.503C353.994 177.112 352.599 176.277 351.205 176.277H264.744L313.552 49.1167C314.11 47.4472 313.552 45.2212 311.879 44.3865C310.205 43.5517 308.253 43.83 306.859 45.4995L164.338 226.918C163.501 228.031 163.222 229.701 163.78 231.092C164.617 232.205 165.733 233.04 167.406 233.04H250.241L196.412 364.096C195.575 365.765 196.412 367.991 198.086 368.826C198.643 369.104 199.48 369.382 200.038 369.382C201.153 369.382 202.269 368.826 203.106 367.991L354.272 182.677C354.83 181.564 355.109 179.894 354.551 178.503Z" fill="#FFD300"/>
<path d="M212.868 343.505L259.166 230.536C259.724 229.423 259.445 228.032 258.887 226.919C258.329 225.806 256.935 225.249 255.819 225.249H174.936L297.376 69.1508L255.54 178.781C254.982 179.894 255.261 181.286 255.819 182.12C256.656 183.233 257.771 183.79 258.887 183.79H342.837L212.868 343.505ZM354.273 178.503C353.715 177.112 352.32 176.277 350.926 176.277H264.465L313.552 49.1169C314.11 47.4474 313.552 45.4996 311.879 44.6649C310.205 43.8301 308.253 44.1084 307.138 45.4996L164.338 226.919C163.501 228.032 163.222 229.701 163.78 230.814C164.617 232.205 166.011 233.04 167.406 233.04H250.52L196.691 364.096C195.854 365.765 196.691 367.713 198.364 368.826C198.922 369.104 199.759 369.382 200.317 369.382C201.432 369.382 202.548 368.826 203.106 367.991L354.273 182.677C354.83 181.564 355.109 179.894 354.273 178.503Z" fill="#FFD500"/>
</g>
<path d="M352.816 179.294C352.537 178.738 351.977 178.183 351.139 178.183H261.656L311.711 48.5103C311.99 47.6773 311.71 46.5666 310.872 46.2889C310.033 45.7336 309.194 46.0113 308.635 46.8443L165.463 227.886C164.904 228.442 164.904 229.275 165.184 229.83C165.463 230.385 166.023 230.941 166.861 230.941H252.988L197.901 364.501C197.621 365.334 197.901 366.445 198.739 366.722C199.019 367 199.299 367 199.578 367C200.138 367 200.697 366.722 200.976 366.445L352.537 181.515C353.096 180.682 353.096 180.127 352.816 179.294ZM206.289 354.227L257.742 229.83C258.021 229.275 258.021 228.719 257.462 228.164C257.182 227.609 256.623 227.331 255.784 227.331H171.056L303.881 58.7842L257.182 179.571C256.903 180.127 256.903 180.682 257.462 181.237C257.742 181.793 258.301 182.07 259.14 182.07H347.224L206.289 354.227Z" fill="white"/>
<defs>
<linearGradient id="paint0_linear_2294_623" x1="260.149" y1="34.5698" x2="260.149" y2="375.002" gradientUnits="userSpaceOnUse">
<stop stop-color="#2B2309"/>
<stop offset="1" stop-color="#271206"/>
</linearGradient>
</defs>
</svg>
