<svg viewBox="0 0 431 431" fill="none" xmlns="http://www.w3.org/2000/svg">
<g opacity="0.5">
<path d="M342.321 322.625C342.321 322.625 342.616 322.294 343.168 321.631C343.721 321.004 344.494 320.01 345.489 318.794C347.442 316.326 350.205 312.752 353.226 308.258C356.246 303.763 359.525 298.384 362.657 292.379C362.841 292.011 363.062 291.643 363.246 291.237C363.43 290.869 363.615 290.464 363.799 290.095C364.167 289.322 364.572 288.548 364.941 287.774C365.309 287.001 365.678 286.19 366.046 285.417C366.23 285.011 366.414 284.606 366.599 284.238C366.783 283.832 366.967 283.427 367.114 283.022C367.483 282.211 367.814 281.401 368.183 280.59C368.514 279.78 368.846 278.933 369.214 278.122L369.73 276.87L370.209 275.617C370.54 274.77 370.835 273.922 371.167 273.112C371.462 272.265 371.756 271.417 372.051 270.57L372.493 269.281L372.898 267.991C373.193 267.144 373.451 266.296 373.746 265.449C374.003 264.602 374.261 263.754 374.519 262.907C374.63 262.465 374.777 262.06 374.888 261.618C374.998 261.212 375.109 260.77 375.219 260.328C375.44 259.481 375.661 258.634 375.919 257.786C376.14 256.939 376.324 256.092 376.545 255.281C376.73 254.434 376.951 253.623 377.135 252.813C378.609 246.218 379.603 239.992 380.193 234.614C380.377 233.288 380.451 231.961 380.561 230.746C380.598 230.119 380.672 229.53 380.708 228.94C380.745 228.351 380.782 227.798 380.819 227.246C380.893 226.141 380.966 225.109 381.003 224.188C381.04 223.23 381.077 222.346 381.114 221.572C381.114 221.167 381.151 220.799 381.151 220.467C381.151 220.099 381.151 219.767 381.151 219.472C381.151 218.846 381.15 218.33 381.187 217.925C381.187 217.078 381.187 216.636 381.187 216.636L395.592 216.673C395.592 216.673 395.592 217.152 395.592 218.073C395.592 218.515 395.592 219.104 395.555 219.767C395.555 220.099 395.555 220.467 395.555 220.836C395.555 221.204 395.518 221.609 395.518 222.051C395.481 222.899 395.445 223.856 395.408 224.888C395.371 225.92 395.297 227.025 395.223 228.24C395.187 228.83 395.15 229.456 395.113 230.082C395.039 230.709 395.002 231.372 394.929 232.035C394.818 233.361 394.708 234.761 394.524 236.235C393.897 242.092 392.829 248.871 391.208 256.018C391.024 256.902 390.803 257.823 390.582 258.707C390.361 259.628 390.14 260.513 389.919 261.434C389.661 262.355 389.44 263.276 389.182 264.197C389.071 264.675 388.924 265.118 388.813 265.596C388.666 266.039 388.555 266.517 388.408 266.996C388.15 267.917 387.855 268.838 387.561 269.796C387.266 270.717 386.971 271.638 386.677 272.559L386.234 273.959L385.756 275.359C385.424 276.28 385.092 277.201 384.761 278.122C384.429 279.043 384.061 279.964 383.729 280.885L383.214 282.248L382.661 283.611C382.293 284.532 381.924 285.417 381.556 286.301C381.15 287.185 380.782 288.069 380.377 288.953C380.193 289.395 379.972 289.837 379.787 290.279C379.566 290.722 379.382 291.164 379.161 291.569C378.756 292.453 378.351 293.3 377.945 294.148C377.54 294.995 377.098 295.842 376.693 296.653C376.472 297.058 376.288 297.5 376.067 297.905C375.846 298.311 375.624 298.716 375.44 299.121C372.051 305.642 368.477 311.499 365.199 316.399C361.92 321.299 358.936 325.167 356.799 327.857C355.731 329.183 354.883 330.251 354.294 330.951C353.704 331.651 353.373 332.02 353.373 332.02L342.321 322.625Z" stroke="white" stroke-miterlimit="10"/>
<path d="M298.075 387.575C298.075 387.575 298.554 387.354 299.402 386.912C300.286 386.47 301.538 385.843 303.159 385.033C306.365 383.375 310.933 380.907 316.238 377.591C321.506 374.312 327.511 370.223 333.626 365.397C334.4 364.771 335.137 364.181 335.91 363.555C336.279 363.26 336.684 362.929 337.053 362.634C337.421 362.302 337.826 362.008 338.195 361.676C338.968 361.013 339.742 360.387 340.516 359.724C341.289 359.06 342.026 358.361 342.8 357.697C343.168 357.366 343.573 357.034 343.942 356.666C344.31 356.334 344.678 355.966 345.084 355.634C345.82 354.934 346.594 354.234 347.331 353.534C348.805 352.098 350.315 350.661 351.752 349.15C354.662 346.203 357.462 343.109 360.151 340.051C361.478 338.504 362.804 336.956 364.02 335.372C364.646 334.599 365.272 333.825 365.898 333.051C366.488 332.278 367.077 331.504 367.704 330.73C368.293 329.957 368.883 329.183 369.435 328.409C369.988 327.636 370.54 326.862 371.093 326.125C371.609 325.352 372.161 324.578 372.677 323.841C373.193 323.104 373.709 322.368 374.188 321.594C375.145 320.083 376.14 318.683 377.024 317.247C377.466 316.547 377.908 315.847 378.351 315.147C378.793 314.447 379.161 313.784 379.566 313.121C379.971 312.458 380.34 311.794 380.745 311.168C381.114 310.542 381.482 309.879 381.814 309.252C382.513 308 383.177 306.858 383.766 305.716C384.355 304.611 384.908 303.542 385.424 302.584C385.903 301.59 386.345 300.705 386.75 299.895C387.561 298.274 388.15 296.985 388.555 296.1C388.961 295.216 389.182 294.737 389.182 294.737L412.28 305.237C412.28 305.237 412.023 305.753 411.58 306.784C411.102 307.779 410.438 309.252 409.517 311.094C409.075 312.015 408.56 313.047 408.007 314.152C407.418 315.257 406.791 316.436 406.128 317.689C405.465 318.978 404.691 320.268 403.918 321.704C403.512 322.404 403.144 323.141 402.702 323.841C402.26 324.578 401.818 325.315 401.376 326.088C400.934 326.862 400.492 327.636 399.976 328.409C399.497 329.183 398.981 329.993 398.502 330.804C397.507 332.425 396.402 334.046 395.297 335.741C394.744 336.588 394.155 337.435 393.566 338.283C392.976 339.13 392.387 339.977 391.76 340.861C391.134 341.709 390.508 342.593 389.882 343.477C389.255 344.361 388.592 345.245 387.929 346.093C387.266 346.977 386.566 347.861 385.903 348.745C385.203 349.629 384.503 350.514 383.803 351.398C382.403 353.166 380.893 354.898 379.419 356.666C376.398 360.166 373.23 363.629 369.914 366.981C368.293 368.676 366.598 370.297 364.904 371.918C364.056 372.728 363.209 373.502 362.362 374.312C361.92 374.718 361.514 375.086 361.072 375.491C360.63 375.86 360.225 376.265 359.783 376.633C358.936 377.407 358.051 378.181 357.204 378.917C356.32 379.654 355.473 380.391 354.589 381.128C354.146 381.496 353.741 381.865 353.299 382.233C352.857 382.601 352.415 382.933 351.973 383.301C351.089 384.001 350.241 384.701 349.394 385.401C342.468 390.854 335.653 395.496 329.684 399.216C323.679 402.937 318.522 405.737 314.875 407.616C313.033 408.574 311.596 409.274 310.601 409.753C309.606 410.232 309.091 410.49 309.091 410.49L298.075 387.575Z" stroke="white" stroke-miterlimit="10"/>
<path d="M265.84 367.865C265.84 367.865 266.135 367.791 266.651 367.607C267.203 367.459 267.94 367.165 268.935 366.833C269.93 366.502 271.108 366.096 272.472 365.544C273.135 365.286 273.872 365.028 274.645 364.733C275.382 364.438 276.192 364.107 277.04 363.775C280.355 362.412 284.187 360.718 288.166 358.691C292.144 356.665 296.344 354.344 300.397 351.802C304.449 349.297 308.391 346.571 311.964 343.882C315.538 341.192 318.78 338.503 321.469 336.145C322.132 335.556 322.795 334.966 323.385 334.45C323.974 333.898 324.564 333.382 325.08 332.866C325.595 332.351 326.111 331.908 326.553 331.466C326.995 331.024 327.4 330.619 327.806 330.251C328.543 329.514 329.132 328.961 329.537 328.556C329.942 328.151 330.127 327.93 330.127 327.93L348.215 345.687C348.215 345.687 347.957 345.945 347.515 346.387C347.073 346.866 346.373 347.529 345.526 348.376C345.084 348.781 344.605 349.26 344.089 349.776C343.573 350.292 342.984 350.808 342.358 351.397C341.731 351.986 341.068 352.576 340.405 353.239C339.705 353.865 338.968 354.528 338.195 355.228C335.063 357.955 331.342 361.086 327.179 364.181C323.016 367.275 318.448 370.443 313.77 373.354C309.054 376.264 304.228 378.99 299.623 381.311C295.018 383.669 290.56 385.622 286.729 387.206C285.771 387.611 284.85 387.979 283.966 388.348C283.082 388.679 282.234 389.011 281.461 389.306C279.876 389.932 278.513 390.411 277.371 390.779C276.229 391.148 275.345 391.516 274.719 391.7C274.093 391.884 273.761 391.995 273.761 391.995L265.84 367.865Z" stroke="white" stroke-miterlimit="10"/>
<path d="M153.956 369.044C153.956 369.044 154.362 369.228 155.172 369.523C155.946 369.854 157.125 370.26 158.598 370.849C161.545 371.954 165.782 373.465 171.013 374.938C181.402 377.922 195.623 380.649 210.101 381.091C211.906 381.164 213.711 381.164 215.517 381.201C216.401 381.238 217.322 381.201 218.206 381.201C219.09 381.201 220.011 381.201 220.895 381.164C221.779 381.128 222.664 381.091 223.548 381.054C223.99 381.054 224.432 381.017 224.874 381.017C225.316 380.98 225.758 380.943 226.163 380.943C227.048 380.907 227.895 380.833 228.742 380.796C229.589 380.722 230.437 380.649 231.284 380.575C238.026 379.986 244.252 378.991 249.557 377.922C254.862 376.854 259.209 375.638 262.23 374.791C263.74 374.349 264.919 374.017 265.73 373.723C266.54 373.465 266.946 373.317 266.946 373.317L271.366 387.059C271.366 387.059 270.887 387.206 270.04 387.501C269.156 387.796 267.867 388.164 266.246 388.643C262.967 389.564 258.214 390.89 252.467 392.069C246.72 393.248 239.905 394.316 232.61 394.98C231.689 395.053 230.768 395.164 229.847 395.237C228.926 395.311 227.969 395.348 227.048 395.422C226.569 395.459 226.09 395.495 225.611 395.495C225.132 395.532 224.653 395.532 224.174 395.569C223.216 395.606 222.258 395.643 221.3 395.68C220.343 395.716 219.348 395.716 218.39 395.716C217.432 395.716 216.437 395.753 215.48 395.716C213.527 395.68 211.575 395.68 209.622 395.606C205.717 395.495 201.775 395.164 197.944 394.832C194.112 394.39 190.355 393.948 186.707 393.322C179.45 392.106 172.782 390.559 167.108 388.938C161.435 387.354 156.83 385.696 153.625 384.517C152.041 383.891 150.751 383.449 149.904 383.08C149.057 382.749 148.615 382.564 148.615 382.564L153.956 369.044Z" stroke="white" stroke-miterlimit="10"/>
<path d="M78.5443 346.977C78.5443 346.977 78.618 347.087 78.8022 347.271C78.9864 347.455 79.2443 347.713 79.5758 348.082C79.9074 348.413 80.3495 348.855 80.8284 349.371C81.3073 349.887 81.8968 350.476 82.523 351.103C85.1019 353.645 88.8596 357.218 93.612 361.271C98.3644 365.286 104.111 369.744 110.559 374.091C117.042 378.401 124.189 382.638 131.631 386.322C135.352 388.201 139.11 389.896 142.867 391.48C144.746 392.253 146.625 393.027 148.504 393.727C149.425 394.095 150.383 394.464 151.304 394.795C152.225 395.127 153.146 395.458 154.067 395.79C161.398 398.369 168.435 400.248 174.513 401.611C175.287 401.758 176.024 401.942 176.761 402.09C177.129 402.163 177.497 402.237 177.829 402.311C178.197 402.384 178.529 402.458 178.897 402.532C180.297 402.79 181.623 403.048 182.839 403.269C185.344 403.674 187.518 404.042 189.323 404.3C190.207 404.411 191.018 404.521 191.718 404.632C192.418 404.742 193.007 404.779 193.486 404.853C194.444 404.963 194.96 405.037 194.96 405.037L192.16 430.236C192.16 430.236 191.57 430.162 190.465 430.052C189.913 429.978 189.249 429.904 188.439 429.794C187.665 429.683 186.744 429.573 185.713 429.425C183.687 429.167 181.218 428.725 178.382 428.283C176.982 428.025 175.471 427.731 173.887 427.436C173.482 427.362 173.077 427.288 172.671 427.215C172.266 427.141 171.861 427.031 171.456 426.957C170.645 426.773 169.798 426.589 168.914 426.404C162.024 424.857 154.067 422.72 145.704 419.81C144.673 419.441 143.604 419.073 142.573 418.705C141.504 418.336 140.473 417.931 139.404 417.526C137.268 416.752 135.168 415.831 132.994 414.984C128.721 413.179 124.447 411.263 120.248 409.126C111.811 404.963 103.706 400.137 96.375 395.237C89.0438 390.338 82.5599 385.291 77.1812 380.722C71.8025 376.154 67.529 372.102 64.6187 369.228C63.8819 368.528 63.2556 367.865 62.703 367.276C62.1504 366.686 61.6714 366.207 61.303 365.839C60.9346 365.434 60.6399 365.139 60.4189 364.955C60.2347 364.734 60.1241 364.623 60.1241 364.623L78.5443 346.977Z" stroke="white" stroke-miterlimit="10"/>
<path d="M87.3123 310.21C87.3123 310.21 87.4965 310.468 87.8281 310.91C87.9754 311.131 88.1965 311.426 88.4543 311.757C88.7122 312.089 88.9701 312.457 89.3017 312.862C89.928 313.673 90.7016 314.704 91.6226 315.847C92.0647 316.399 92.5805 317.025 93.0594 317.652C93.5751 318.278 94.1277 318.941 94.7172 319.604C97.0381 322.33 99.838 325.462 103.006 328.63C106.175 331.798 109.674 335.077 113.322 338.135C116.969 341.23 120.763 344.14 124.41 346.719C128.058 349.334 131.594 351.545 134.689 353.387C135.463 353.829 136.199 354.271 136.899 354.676C137.599 355.081 138.299 355.45 138.926 355.818C140.178 356.555 141.32 357.108 142.241 357.623C142.72 357.881 143.125 358.102 143.457 358.287C143.825 358.471 144.12 358.618 144.378 358.729C144.894 358.987 145.152 359.097 145.152 359.097L133.842 381.791C133.842 381.791 133.547 381.643 132.957 381.349C132.663 381.201 132.294 381.017 131.889 380.796C131.484 380.575 131.005 380.317 130.452 380.059C129.384 379.507 128.058 378.807 126.621 377.996C125.884 377.591 125.11 377.149 124.263 376.67C123.453 376.191 122.605 375.675 121.684 375.159C118.111 373.023 114.022 370.444 109.785 367.46C105.548 364.476 101.164 361.086 96.9276 357.513C92.691 353.939 88.6385 350.182 84.9914 346.498C81.3073 342.814 78.1022 339.203 75.376 336.072C74.7129 335.261 74.0498 334.525 73.4603 333.788C72.8709 333.051 72.3183 332.351 71.7657 331.688C70.6973 330.398 69.8131 329.22 69.0763 328.262C68.7079 327.783 68.3764 327.341 68.0816 326.972C67.7869 326.604 67.5659 326.272 67.3817 326.014C67.0133 325.499 66.7922 325.204 66.7922 325.204L87.3123 310.21Z" stroke="white" stroke-miterlimit="10"/>
<path d="M51.6508 204.184C51.6508 204.184 51.614 204.627 51.5771 205.474C51.5403 206.321 51.4298 207.537 51.3929 209.121C51.3561 209.895 51.3193 210.779 51.2824 211.737C51.2824 212.695 51.2456 213.726 51.2456 214.831C51.2456 215.384 51.2087 215.936 51.2456 216.526C51.2456 217.115 51.2456 217.705 51.2824 218.331C51.2824 218.957 51.2824 219.584 51.3193 220.247C51.3193 220.91 51.3561 221.573 51.3929 222.236C51.5771 227.652 52.0929 233.951 53.0876 240.656C54.0454 247.361 55.5927 254.398 57.5084 261.324C57.7663 262.171 58.0242 263.055 58.2821 263.903L58.6505 265.192L59.0557 266.481C59.3504 267.329 59.6083 268.176 59.8662 269.023C60.1609 269.871 60.4557 270.718 60.7504 271.528C60.8977 271.934 61.0451 272.376 61.1925 272.781C61.3398 273.186 61.4872 273.592 61.6714 274.034C61.9661 274.844 62.2977 275.655 62.5924 276.502C62.924 277.312 63.2555 278.123 63.5502 278.897C63.8818 279.707 64.1765 280.481 64.5449 281.254C67.2343 287.443 70.071 293.08 72.7603 297.796C75.4496 302.511 77.918 306.269 79.6863 308.885C80.5705 310.174 81.3073 311.205 81.7862 311.905C82.3019 312.605 82.5598 312.937 82.5598 312.937L70.8815 321.41C70.8815 321.41 70.5867 321.005 70.0341 320.268C69.5184 319.531 68.7447 318.389 67.75 316.989C65.8343 314.153 63.145 310.063 60.2346 304.943C57.3242 299.822 54.1928 293.706 51.2824 286.965C50.914 286.117 50.5824 285.27 50.214 284.386C49.8456 283.538 49.5141 282.654 49.1457 281.77C48.8141 280.886 48.4826 280.002 48.1141 279.118C47.9299 278.675 47.7826 278.233 47.5984 277.791C47.451 277.349 47.2668 276.87 47.1195 276.428C46.7879 275.507 46.4932 274.623 46.1616 273.702C45.8669 272.781 45.5722 271.86 45.2774 270.939L44.8354 269.539L44.4301 268.139C44.1354 267.218 43.8775 266.26 43.5828 265.339C41.4829 257.787 39.8251 250.124 38.7567 242.83C37.6883 235.572 37.1357 228.72 36.9147 222.826C36.8779 222.089 36.841 221.389 36.841 220.652C36.841 219.952 36.841 219.252 36.8042 218.589C36.8042 217.926 36.8042 217.263 36.7673 216.636C36.7673 216.01 36.7673 215.384 36.7673 214.794C36.7673 213.616 36.8042 212.473 36.8042 211.442C36.841 210.41 36.8779 209.453 36.9147 208.605C36.9515 206.874 37.0621 205.548 37.1357 204.627C37.2094 203.706 37.2094 203.227 37.2094 203.227L51.6508 204.184Z" stroke="white" stroke-miterlimit="10"/>
<path d="M49.293 125.678C49.293 125.678 49.0352 126.12 48.5931 127.004C48.372 127.446 48.0773 127.962 47.7458 128.588C47.4142 129.214 47.0458 129.914 46.6405 130.725C46.2353 131.535 45.7932 132.42 45.3143 133.414C44.8354 134.409 44.3564 135.477 43.8038 136.619C43.546 137.209 43.2512 137.761 42.9934 138.388C42.7355 139.014 42.4408 139.64 42.146 140.303C41.8513 140.967 41.5566 141.63 41.2619 142.293C40.9671 142.993 40.7093 143.693 40.4145 144.393C38.0568 150.14 35.5885 156.992 33.4886 164.471C33.2307 165.392 32.9728 166.349 32.7149 167.307C32.6044 167.786 32.457 168.265 32.3097 168.744C32.1991 169.223 32.0886 169.702 31.9413 170.181C31.7202 171.139 31.4623 172.133 31.2413 173.128C31.0203 174.123 30.7992 175.117 30.5782 176.112C30.1361 178.102 29.7677 180.128 29.3624 182.154C29.1782 183.186 29.0309 184.18 28.8467 185.212C28.6625 186.243 28.4783 187.238 28.3678 188.269C27.1889 196.485 26.4889 204.774 26.3784 212.547C26.231 220.321 26.5626 227.578 27.152 233.767C27.2257 234.541 27.2625 235.315 27.3731 236.051C27.4467 236.788 27.5573 237.525 27.631 238.225C27.7046 238.925 27.7783 239.625 27.852 240.288C27.9625 240.951 28.0362 241.614 28.1099 242.241C28.2941 243.493 28.4414 244.672 28.6256 245.74C28.8098 246.809 28.9572 247.803 29.1046 248.688C29.2519 249.572 29.3993 250.382 29.5466 251.082C29.694 251.782 29.8045 252.372 29.8782 252.851C30.0624 253.808 30.1729 254.324 30.1729 254.324L5.34257 259.371C5.34257 259.371 5.23205 258.782 5.01101 257.713C4.90048 257.161 4.78996 256.498 4.6426 255.724C4.49524 254.95 4.31104 254.029 4.16368 253.035C3.97948 252.003 3.79528 250.898 3.61107 249.682C3.39003 248.467 3.24267 247.14 3.02163 245.704C2.91111 245.004 2.83743 244.267 2.72691 243.493C2.65323 242.719 2.54271 241.946 2.46902 241.172C2.39534 240.362 2.28482 239.551 2.1743 238.704C2.06378 237.857 2.02694 237.009 1.91642 236.125C1.2533 229.089 0.884892 220.873 1.03225 212.105C1.17961 203.3 1.95326 193.906 3.27951 184.622C3.42687 183.443 3.64791 182.301 3.83212 181.122C4.01632 179.98 4.20052 178.802 4.42156 177.659C4.86364 175.375 5.26889 173.054 5.78465 170.807C6.04253 169.665 6.26358 168.56 6.52146 167.418C6.77934 166.313 7.07406 165.207 7.33194 164.102C7.47931 163.55 7.58983 162.997 7.73719 162.444C7.88455 161.892 8.03191 161.339 8.17927 160.823C8.47399 159.755 8.76872 158.687 9.06344 157.618C11.4581 149.108 14.2579 141.372 16.9104 134.814C17.242 134.004 17.5735 133.193 17.9051 132.42C18.2367 131.646 18.5682 130.872 18.8998 130.135C19.2314 129.399 19.5261 128.699 19.8576 127.999C20.1524 127.299 20.4839 126.636 20.7787 125.973C21.4049 124.683 21.9575 123.467 22.4733 122.325C23.0259 121.22 23.5417 120.189 23.9838 119.268C24.4258 118.347 24.8679 117.536 25.2363 116.836C25.6047 116.136 25.9363 115.51 26.1942 115.031C26.7099 114.073 26.9678 113.521 26.9678 113.521L49.293 125.678Z" stroke="white" stroke-miterlimit="10"/>
<path d="M86.9438 122.693C86.9438 122.693 86.7596 122.951 86.428 123.393C86.0965 123.835 85.6175 124.535 85.0281 125.383C84.7334 125.825 84.4018 126.304 84.0334 126.819C83.665 127.335 83.2966 127.925 82.8914 128.514C82.4861 129.14 82.044 129.767 81.6388 130.467C81.1967 131.167 80.7546 131.903 80.2757 132.64C78.3968 135.698 76.2969 139.308 74.2707 143.287C72.2445 147.266 70.2183 151.613 68.4131 156.034C66.608 160.455 65.0238 164.949 63.6976 169.223C62.3713 173.496 61.3766 177.549 60.5661 181.048C60.3819 181.933 60.1977 182.743 60.0135 183.554C59.8293 184.364 59.7188 185.101 59.5715 185.838C59.4241 186.538 59.3136 187.238 59.2031 187.827C59.0925 188.453 59.0188 189.006 58.9083 189.522C58.7241 190.553 58.6136 191.364 58.5031 191.916C58.4294 192.469 58.3926 192.764 58.3926 192.764L33.3043 189.08C33.3043 189.08 33.3412 188.748 33.4517 188.085C33.5622 187.459 33.7096 186.501 33.8938 185.322C34.0043 184.732 34.1148 184.069 34.2253 183.332C34.3727 182.633 34.5201 181.859 34.6674 181.012C34.8148 180.201 34.9621 179.317 35.1832 178.359C35.3674 177.438 35.5884 176.48 35.8095 175.449C36.7305 171.396 37.9094 166.718 39.4567 161.744C41.0039 156.771 42.846 151.576 44.9459 146.455C47.0458 141.335 49.3667 136.287 51.7245 131.682C54.0822 127.077 56.5505 122.878 58.6873 119.341C59.2399 118.457 59.7557 117.609 60.2714 116.799C60.7872 115.988 61.2661 115.252 61.745 114.552C62.224 113.852 62.6292 113.189 63.0344 112.599C63.4397 112.01 63.8449 111.457 64.1765 110.941C64.8765 109.947 65.3922 109.173 65.7975 108.657C66.1659 108.141 66.3869 107.847 66.3869 107.847L86.9438 122.693Z" stroke="white" stroke-miterlimit="10"/>
<path d="M176.724 55.9382C176.724 55.9382 176.282 56.0488 175.471 56.233C174.661 56.4172 173.445 56.7856 171.934 57.1908C168.914 58.0381 164.566 59.3275 159.519 61.1696C154.435 63.0116 148.615 65.4799 142.573 68.5008C136.531 71.4848 130.268 75.132 124.3 79.1476C121.316 81.1738 118.369 83.2369 115.569 85.4473C115.2 85.7052 114.869 85.9999 114.5 86.2578C114.132 86.5157 113.8 86.8104 113.469 87.0683C112.769 87.6209 112.106 88.1735 111.406 88.7261C110.743 89.2787 110.08 89.8313 109.416 90.3839C108.753 90.9365 108.09 91.4891 107.464 92.0417C102.38 96.4994 97.9222 100.994 94.275 104.973C90.6279 108.951 87.7912 112.488 85.8386 114.956C84.8808 116.209 84.1071 117.167 83.6282 117.867C83.1124 118.567 82.8546 118.898 82.8546 118.898L71.213 110.388C71.213 110.388 71.5077 109.983 72.0603 109.246C72.6129 108.509 73.4234 107.441 74.455 106.078C76.5549 103.389 79.6494 99.5571 83.6282 95.21C87.6069 90.8628 92.4699 85.9999 97.9591 81.137C98.6222 80.5107 99.359 79.9213 100.059 79.3318C100.759 78.7424 101.496 78.1161 102.233 77.5266C102.969 76.9372 103.706 76.3478 104.443 75.7215C104.811 75.4267 105.18 75.132 105.548 74.8373C105.917 74.5426 106.322 74.2479 106.69 73.9531C109.748 71.5585 112.953 69.3113 116.195 67.1008C122.716 62.7537 129.494 58.7749 136.089 55.533C142.646 52.2542 148.983 49.6017 154.509 47.5755C160.035 45.5493 164.751 44.1862 168.029 43.2283C169.687 42.7862 170.977 42.4178 171.861 42.1968C172.745 41.9758 173.224 41.8652 173.224 41.8652L176.724 55.9382Z" stroke="white" stroke-miterlimit="10"/>
<path d="M250.736 29.4504C250.736 29.4504 250.625 29.4135 250.368 29.3767C250.11 29.3398 249.741 29.2662 249.262 29.1925C248.304 29.0451 246.905 28.7872 245.099 28.4925C241.526 27.9768 236.368 27.2768 230.142 26.8347C223.953 26.3926 216.659 26.1716 208.885 26.4663C204.98 26.5768 201.001 26.9084 196.912 27.2768C192.86 27.7189 188.734 28.2346 184.644 28.9346C176.466 30.2609 168.361 32.2502 160.919 34.4975C153.477 36.7448 146.662 39.3604 140.952 41.7919C135.242 44.2602 130.6 46.5811 127.395 48.3126C126.584 48.7547 125.884 49.1231 125.258 49.4547C124.632 49.7862 124.116 50.0809 123.711 50.3388C122.863 50.8177 122.421 51.0756 122.421 51.0756L109.895 29.0451C109.895 29.0451 110.411 28.7504 111.369 28.2346C111.848 27.9768 112.437 27.6452 113.137 27.24C113.837 26.8347 114.648 26.4295 115.569 25.9505C119.179 23.998 124.447 21.3823 130.931 18.5825C137.415 15.7826 145.115 12.8354 153.551 10.2934C161.988 7.75143 171.161 5.50418 180.445 3.99372C185.16 3.1464 189.839 2.55695 194.444 2.07803C199.049 1.63594 203.58 1.30438 208.001 1.15702C216.806 0.825457 225.021 1.0465 232.021 1.56226C239.058 2.07803 244.878 2.85167 248.968 3.44112C250.994 3.77268 252.578 4.03056 253.683 4.21476C254.236 4.28845 254.641 4.39897 254.936 4.43581C255.23 4.47265 255.378 4.50949 255.378 4.50949L250.736 29.4504Z" stroke="white" stroke-miterlimit="10"/>
<path d="M265.251 64.3378C265.251 64.3378 264.956 64.2273 264.44 64.0799C263.925 63.8957 263.114 63.6747 262.12 63.38C261.125 63.0852 259.909 62.7168 258.509 62.3484C257.809 62.1642 257.072 61.9432 256.262 61.759C255.488 61.5748 254.641 61.3538 253.757 61.1327C246.831 59.4012 237.363 57.7802 227.821 57.1171C223.069 56.7487 218.243 56.6382 213.748 56.7119C209.254 56.7856 205.091 57.0066 201.517 57.375C197.944 57.7066 194.997 58.075 192.933 58.4065C191.902 58.5539 191.091 58.7013 190.539 58.7749C189.986 58.8486 189.692 58.9223 189.692 58.9223L185.529 33.8341C185.529 33.8341 185.86 33.7604 186.523 33.6867C187.15 33.5762 188.107 33.4288 189.286 33.2446C191.681 32.913 195.107 32.4341 199.233 32.0657C203.359 31.6605 208.222 31.4026 213.38 31.3289C218.574 31.2552 224.1 31.3657 229.626 31.771C240.678 32.5446 251.62 34.4235 259.688 36.4497C260.683 36.7076 261.677 36.9286 262.598 37.1497C263.519 37.4076 264.367 37.6286 265.177 37.8496C266.798 38.2917 268.198 38.697 269.377 39.0654C270.556 39.3969 271.44 39.6917 272.066 39.8759C272.693 40.0601 273.024 40.1706 273.024 40.1706L265.251 64.3378Z" stroke="white" stroke-miterlimit="10"/>
<path d="M356.431 129.177C356.431 129.177 356.21 128.808 355.731 128.071C355.289 127.335 354.589 126.303 353.741 125.014C351.973 122.398 349.431 118.677 346.079 114.404C342.726 110.13 338.6 105.341 333.885 100.515C329.169 95.6519 323.753 90.8627 318.117 86.3681L315.98 84.7103L314.912 83.8998L313.807 83.0894C313.07 82.5736 312.37 82.021 311.633 81.5052C310.896 80.9895 310.159 80.4737 309.423 79.9948C309.054 79.7369 308.686 79.479 308.317 79.258C307.949 79.0001 307.581 78.779 307.212 78.5212C306.475 78.0422 305.739 77.5633 305.002 77.0844C304.265 76.6423 303.528 76.1634 302.791 75.7213C302.423 75.5003 302.054 75.2792 301.686 75.0582C301.318 74.8371 300.949 74.6161 300.581 74.395C294.76 70.9321 289.16 68.0585 284.224 65.8113C279.287 63.564 275.087 61.9799 272.14 60.9115C270.667 60.3957 269.488 59.9537 268.677 59.6958C267.867 59.4379 267.461 59.2905 267.461 59.2905L271.956 45.5859C271.956 45.5859 272.435 45.7333 273.282 46.028C274.166 46.3227 275.419 46.7648 277.04 47.3543C280.245 48.5332 284.85 50.2647 290.192 52.6961C295.534 55.1276 301.649 58.259 307.986 62.0167C308.391 62.2378 308.796 62.4956 309.165 62.7167C309.57 62.9746 309.938 63.1956 310.344 63.4535C311.117 63.9324 311.928 64.4482 312.738 64.9639C313.512 65.4797 314.322 65.9955 315.133 66.5481C315.538 66.8059 315.943 67.0638 316.349 67.3217C316.754 67.5796 317.122 67.8743 317.527 68.1322C318.338 68.6848 319.112 69.2374 319.922 69.79C320.696 70.3795 321.506 70.9321 322.28 71.5215L323.459 72.3688L324.638 73.253C325.411 73.8424 326.185 74.4319 326.959 75.0582C333.111 79.9211 338.968 85.1524 344.089 90.4206C349.247 95.6519 353.741 100.883 357.352 105.488C360.999 110.093 363.762 114.146 365.678 117.019C366.636 118.456 367.372 119.561 367.851 120.372C368.33 121.145 368.588 121.551 368.588 121.551L356.431 129.177Z" stroke="white" stroke-miterlimit="10"/>
<path d="M404.471 191.326C404.471 191.326 404.397 190.81 404.249 189.852C404.102 188.894 403.955 187.458 403.623 185.689C403.476 184.805 403.328 183.811 403.144 182.742C402.923 181.674 402.702 180.495 402.481 179.279C402.26 178.027 401.965 176.737 401.671 175.337C401.523 174.637 401.376 173.937 401.192 173.201C401.008 172.464 400.823 171.727 400.639 170.99C399.166 164.948 397.139 157.949 394.45 150.654C394.118 149.733 393.75 148.812 393.418 147.891C393.234 147.412 393.05 146.97 392.903 146.491C392.718 146.049 392.534 145.57 392.35 145.091C391.982 144.17 391.576 143.249 391.208 142.292C390.803 141.371 390.398 140.45 389.992 139.492C389.771 139.013 389.587 138.571 389.366 138.092C389.145 137.613 388.924 137.171 388.703 136.692C388.261 135.771 387.819 134.813 387.377 133.892C386.935 132.971 386.456 132.05 386.014 131.129L385.314 129.729L384.577 128.366C384.098 127.445 383.619 126.524 383.14 125.603C382.624 124.682 382.145 123.798 381.63 122.877C381.372 122.435 381.114 121.993 380.856 121.514C380.598 121.072 380.34 120.629 380.082 120.187C379.566 119.303 379.051 118.419 378.498 117.535C377.946 116.651 377.43 115.803 376.877 114.956C376.619 114.514 376.361 114.109 376.067 113.667C375.772 113.261 375.514 112.819 375.256 112.414C374.704 111.567 374.151 110.756 373.598 109.909C373.046 109.098 372.493 108.288 371.941 107.477C367.52 101.104 362.915 95.4307 358.825 90.7519C356.762 88.3942 354.81 86.3311 353.078 84.4891C352.194 83.5681 351.384 82.7208 350.61 81.9471C349.836 81.1735 349.1 80.4735 348.473 79.8472C347.184 78.5578 346.115 77.6 345.416 76.9368C344.716 76.2737 344.31 75.9053 344.31 75.9053L361.404 57.1904C361.404 57.1904 361.846 57.5957 362.657 58.3325C363.467 59.0693 364.646 60.1745 366.12 61.6113C366.857 62.3481 367.667 63.1217 368.551 64.0059C369.399 64.8901 370.356 65.8479 371.351 66.8794C373.34 68.9425 375.551 71.3003 377.872 73.9528C382.514 79.2578 387.708 85.6311 392.755 92.8887C393.382 93.8097 394.008 94.6939 394.634 95.6149C395.26 96.5359 395.887 97.4937 396.513 98.4516C396.808 98.9305 397.139 99.4094 397.434 99.8883C397.729 100.367 398.06 100.846 398.355 101.325C398.944 102.283 399.571 103.278 400.197 104.272C400.786 105.267 401.376 106.262 401.965 107.256C402.26 107.772 402.555 108.251 402.85 108.767C403.144 109.283 403.439 109.798 403.697 110.314C404.286 111.346 404.839 112.377 405.428 113.372C405.981 114.403 406.534 115.435 407.086 116.503L407.897 118.051L408.67 119.635C409.186 120.703 409.702 121.735 410.218 122.803C410.697 123.871 411.212 124.94 411.691 125.971C411.949 126.487 412.17 127.04 412.428 127.555C412.649 128.071 412.907 128.624 413.128 129.14C413.607 130.208 414.049 131.276 414.528 132.308C414.97 133.376 415.412 134.445 415.817 135.476C416.038 135.992 416.259 136.508 416.444 137.06C416.628 137.576 416.849 138.129 417.033 138.644C417.438 139.676 417.844 140.744 418.212 141.776C421.27 150.065 423.554 157.985 425.248 164.838C425.47 165.685 425.654 166.532 425.875 167.343C426.059 168.153 426.243 168.964 426.391 169.774C426.722 171.359 427.054 172.832 427.312 174.232C427.569 175.632 427.827 176.958 428.048 178.174C428.269 179.39 428.454 180.532 428.601 181.526C428.969 183.553 429.154 185.174 429.301 186.242C429.448 187.347 429.522 187.9 429.522 187.9L404.471 191.326Z" stroke="white" stroke-miterlimit="10"/>
<path d="M375.772 215.899C375.772 215.899 375.772 214.683 375.735 212.62C375.735 211.589 375.661 210.299 375.588 208.863C375.588 208.126 375.514 207.352 375.477 206.542C375.44 205.731 375.367 204.884 375.33 203.963C375.035 200.389 374.593 196.226 373.93 191.806C373.23 187.385 372.309 182.706 371.167 178.064C370.025 173.422 368.662 168.854 367.225 164.617C365.788 160.381 364.241 156.513 362.841 153.234C362.473 152.423 362.141 151.613 361.809 150.876C361.478 150.139 361.146 149.439 360.852 148.776C360.557 148.113 360.262 147.487 360.004 146.934C359.71 146.381 359.452 145.866 359.231 145.387C358.752 144.466 358.42 143.692 358.125 143.213C357.868 142.734 357.72 142.44 357.72 142.44L380.193 130.688C380.193 130.688 380.34 130.982 380.672 131.572C380.966 132.124 381.409 133.008 381.924 134.077C382.182 134.629 382.477 135.219 382.808 135.882C383.14 136.545 383.472 137.245 383.803 138.019C384.172 138.792 384.54 139.603 384.945 140.45C385.314 141.334 385.719 142.219 386.124 143.176C387.745 147.008 389.55 151.502 391.245 156.402C392.903 161.302 394.487 166.644 395.813 171.985C397.139 177.364 398.208 182.78 398.981 187.937C399.755 193.058 400.271 197.884 400.602 202.01C400.676 203.042 400.713 204.037 400.787 204.994C400.86 205.952 400.897 206.836 400.934 207.684C401.008 209.378 401.081 210.852 401.081 212.068C401.118 214.499 401.118 215.862 401.118 215.862L375.772 215.899Z" stroke="white" stroke-miterlimit="10"/>
<path d="M74.2339 212.363L74.7129 213.726L74.0497 213.947L73.2393 211.626L80.0916 211.774L80.1284 210.189H80.7915L80.681 214.352H80.0179L80.0547 212.51L74.2339 212.363Z" fill="white"/>
<path d="M77.4759 203.448C78.6548 203.521 81.2704 203.521 81.0862 205.769C80.9389 208.016 78.4337 207.647 77.1811 207.537C75.4497 207.426 73.3866 207.353 73.534 205.216C73.7182 202.895 76.6654 203.374 77.4759 203.448ZM77.2548 206.763C80.1284 206.984 80.3494 206.469 80.4231 205.695C80.4968 204.848 80.1652 204.405 77.439 204.184C74.6023 203.963 74.3076 204.442 74.2708 205.253C74.1602 206.653 75.7812 206.653 77.2548 206.763Z" fill="white"/>
<path d="M75.1918 198.695L75.5602 200.095L74.8602 200.242L74.2708 197.848L81.0494 198.658L81.2336 197.074L81.8967 197.148L81.3809 201.274L80.7178 201.2L80.9388 199.358L75.1918 198.695Z" fill="white"/>
<path d="M79.281 190.148C80.4599 190.332 83.0387 190.59 82.6703 192.8C82.3019 195.011 79.8705 194.421 78.6179 194.2C76.9232 193.906 74.8602 193.648 75.2286 191.548C75.597 189.227 78.4705 190.001 79.281 190.148ZM78.7284 193.427C81.5651 193.906 81.8599 193.427 81.9704 192.69C82.1177 191.843 81.8599 191.364 79.1337 190.922C76.3338 190.443 76.0022 190.885 75.8549 191.658C75.6707 193.021 77.2917 193.169 78.7284 193.427Z" fill="white"/>
<path d="M77.439 185.211L77.66 186.648L76.9601 186.722L76.5917 184.253L83.2598 185.727L83.5913 184.18L84.2545 184.327L83.3703 188.416L82.7072 188.269L83.1124 186.464L77.439 185.211Z" fill="white"/>
<path d="M82.3756 177.069C83.5176 177.364 86.0596 177.88 85.4702 180.053C84.8807 182.227 82.523 181.38 81.2704 181.048C79.6126 180.606 77.5864 180.127 78.139 178.064C78.8021 175.78 81.5651 176.848 82.3756 177.069ZM81.4914 180.274C84.2913 181.048 84.586 180.569 84.8071 179.832C85.0281 179.022 84.807 178.506 82.1545 177.769C79.3915 177.032 79.0231 177.438 78.8389 178.174C78.5074 179.574 80.0915 179.906 81.4914 180.274Z" fill="white"/>
<path d="M81.0493 171.986L81.123 173.422H80.423L80.3125 170.954L86.8332 173.091L87.3121 171.58L87.9384 171.801L86.649 175.78L86.0227 175.559L86.6122 173.791L81.0493 171.986Z" fill="white"/>
<path d="M86.7228 164.36C87.828 164.765 90.3331 165.502 89.5226 167.639C88.7122 169.738 86.4649 168.67 85.2492 168.228C83.6282 167.602 81.6757 166.975 82.4493 164.949C83.2966 162.739 85.9491 164.065 86.7228 164.36ZM85.5439 167.491C88.2332 168.523 88.6016 168.081 88.8595 167.381C89.1542 166.57 89.0069 166.054 86.4281 165.097C83.7756 164.065 83.3703 164.47 83.0756 165.207C82.6335 166.497 84.1808 166.975 85.5439 167.491Z" fill="white"/>
<path d="M85.8755 159.166L85.8018 160.603L85.1018 160.529L85.2123 158.061L91.4752 160.824L92.1015 159.387L92.6909 159.645L91.0331 163.476L90.4437 163.218L91.1805 161.524L85.8755 159.166Z" fill="white"/>
<path d="M92.2857 152.166C93.354 152.681 95.7486 153.676 94.754 155.702C93.7593 157.728 91.5857 156.439 90.4436 155.85C88.8963 155.076 87.0175 154.229 87.9753 152.313C89.0437 150.213 91.5488 151.797 92.2857 152.166ZM90.812 155.15C93.3909 156.439 93.7961 156.034 94.1277 155.371C94.4961 154.597 94.3856 154.081 91.9541 152.866C89.4121 151.613 88.97 151.945 88.6016 152.644C88.0122 153.86 89.4858 154.487 90.812 155.15Z" fill="white"/>
<path d="M91.9541 146.898L91.733 148.335L91.0331 148.224L91.4015 145.756L97.3696 149.108L98.1432 147.745L98.7327 148.077L96.7065 151.724L96.117 151.392L97.038 149.771L91.9541 146.898Z" fill="white"/>
<path d="M99.0275 140.561C100.022 141.188 102.343 142.403 101.127 144.319C99.9485 146.235 97.9223 144.724 96.8539 144.061C95.3803 143.14 93.612 142.145 94.7172 140.303C95.9697 138.277 98.3275 140.119 99.0275 140.561ZM97.2591 143.361C99.7274 144.908 100.17 144.54 100.538 143.914C100.98 143.177 100.943 142.661 98.6222 141.188C96.1908 139.677 95.7487 139.972 95.3066 140.635C94.5698 141.814 96.0066 142.588 97.2591 143.361Z" fill="white"/>
<path d="M99.2116 135.293L98.88 136.693L98.1801 136.509L98.7695 134.114L104.406 138.019L105.29 136.73L105.843 137.098L103.448 140.524L102.896 140.156L103.964 138.646L99.2116 135.293Z" fill="white"/>
<path d="M106.838 129.619C107.759 130.356 109.969 131.756 108.569 133.561C107.206 135.329 105.327 133.671 104.332 132.898C102.969 131.829 101.275 130.651 102.564 128.956C104.038 127.114 106.211 129.14 106.838 129.619ZM104.811 132.272C107.095 134.04 107.574 133.745 108.016 133.119C108.532 132.456 108.532 131.903 106.359 130.208C104.111 128.477 103.596 128.735 103.117 129.324C102.306 130.466 103.669 131.387 104.811 132.272Z" fill="white"/>
<path d="M107.538 124.425L107.059 125.788L106.396 125.53L107.206 123.209L112.437 127.63L113.469 126.414L113.985 126.856L111.295 130.024L110.78 129.582L111.995 128.182L107.538 124.425Z" fill="white"/>
<path d="M115.679 119.525C116.527 120.335 118.59 121.956 117.042 123.614C115.495 125.272 113.8 123.393 112.879 122.546C111.627 121.367 110.043 120.041 111.516 118.457C113.137 116.725 115.09 118.972 115.679 119.525ZM113.395 121.956C115.495 123.946 116.011 123.688 116.527 123.135C117.116 122.509 117.153 121.956 115.163 120.078C113.1 118.125 112.585 118.346 112.032 118.899C111.074 119.93 112.327 120.962 113.395 121.956Z" fill="white"/>
<path d="M116.858 114.405L116.269 115.731L115.642 115.4L116.674 113.152L121.426 118.052L122.568 116.947L123.047 117.426L120.063 120.336L119.584 119.857L120.911 118.568L116.858 114.405Z" fill="white"/>
<path d="M125.442 110.352C126.216 111.237 128.094 113.042 126.4 114.552C124.705 116.026 123.195 114.036 122.347 113.079C121.205 111.789 119.769 110.279 121.39 108.879C123.158 107.295 124.889 109.726 125.442 110.352ZM122.937 112.526C124.853 114.699 125.368 114.478 125.921 114C126.547 113.447 126.658 112.894 124.852 110.831C122.974 108.695 122.421 108.842 121.832 109.358C120.837 110.279 121.979 111.421 122.937 112.526Z" fill="white"/>
<path d="M127.137 105.341L126.4 106.594L125.81 106.226L127.063 104.089L131.336 109.431L132.552 108.436L132.957 108.952L129.679 111.567L129.273 111.052L130.71 109.91L127.137 105.341Z" fill="white"/>
<path d="M136.052 102.099C136.752 103.057 138.41 105.046 136.605 106.373C134.763 107.699 133.473 105.525 132.736 104.531C131.705 103.131 130.452 101.51 132.184 100.257C134.099 98.894 135.573 101.436 136.052 102.099ZM133.363 104.052C135.057 106.409 135.61 106.225 136.199 105.783C136.899 105.267 137.047 104.752 135.426 102.541C133.768 100.22 133.215 100.331 132.589 100.773C131.447 101.62 132.515 102.873 133.363 104.052Z" fill="white"/>
<path d="M138.226 97.3102L137.378 98.4891L136.826 98.047L138.299 96.0576L142.02 101.805L143.346 100.957L143.715 101.51L140.215 103.794L139.846 103.241L141.394 102.247L138.226 97.3102Z" fill="white"/>
<path d="M147.436 94.9526C148.025 95.9841 149.499 98.1209 147.583 99.2629C145.63 100.405 144.562 98.1209 143.899 97.0525C143.015 95.542 141.91 93.8106 143.752 92.7422C145.741 91.5633 146.994 94.2526 147.436 94.9526ZM144.525 96.6473C145.999 99.1524 146.551 99.0419 147.178 98.6735C147.915 98.2314 148.099 97.7156 146.736 95.3578C145.299 92.8895 144.746 92.9264 144.083 93.3316C142.904 94.0316 143.788 95.3578 144.525 96.6473Z" fill="white"/>
<path d="M150.014 90.3844L149.057 91.4528L148.541 90.9739L150.199 89.1318L153.367 95.2105L154.767 94.4737L155.061 95.0631L151.377 96.9788L151.083 96.3894L152.741 95.542L150.014 90.3844Z" fill="white"/>
<path d="M159.409 88.9477C159.888 90.0161 161.177 92.3002 159.114 93.2212C157.051 94.1791 156.204 91.8213 155.688 90.6424C154.951 89.0583 154.03 87.2531 155.983 86.3321C158.082 85.3742 159.077 88.1741 159.409 88.9477ZM156.388 90.3477C157.604 92.9633 158.156 92.9265 158.856 92.5949C159.63 92.2265 159.888 91.7476 158.746 89.2793C157.567 86.7005 157.014 86.6636 156.277 86.9952C154.988 87.5846 155.762 88.9846 156.388 90.3477Z" fill="white"/>
<path d="M162.466 84.6373L161.398 85.632L160.919 85.0794L162.724 83.3848L165.266 89.7213L166.74 89.1319L166.998 89.7581L163.13 91.3054L162.872 90.6792L164.603 89.9792L162.466 84.6373Z" fill="white"/>
<path d="M171.934 84.122C172.303 85.2272 173.371 87.6218 171.234 88.3586C169.098 89.0954 168.471 86.664 168.066 85.4483C167.514 83.8273 166.74 81.9116 168.766 81.2116C170.977 80.438 171.676 83.3484 171.934 84.122ZM168.803 85.2272C169.761 87.9534 170.313 87.9534 171.013 87.7324C171.824 87.4376 172.119 86.9956 171.198 84.4167C170.277 81.7274 169.724 81.6537 168.987 81.9116C167.698 82.3168 168.324 83.8273 168.803 85.2272Z" fill="white"/>
<path d="M175.397 80.1435L174.255 81.0276L173.85 80.4382L175.839 78.9277L177.755 85.4853L179.266 85.0432L179.45 85.6695L175.434 86.8484L175.25 86.2221L177.018 85.7064L175.397 80.1435Z" fill="white"/>
<path d="M184.865 80.548C185.123 81.6901 185.934 84.1584 183.76 84.711C181.587 85.2268 181.181 82.7585 180.887 81.5059C180.481 79.8112 179.929 77.8587 181.992 77.3429C184.276 76.7903 184.681 79.7376 184.865 80.548ZM181.623 81.3217C182.287 84.1216 182.876 84.1952 183.576 84.011C184.386 83.8268 184.755 83.3848 184.092 80.7322C183.429 77.9692 182.876 77.8587 182.139 78.0429C180.813 78.3376 181.292 79.8849 181.623 81.3217Z" fill="white"/>
<path d="M191.46 79.2219C191.681 80.4008 192.344 82.9059 190.133 83.3111C187.923 83.7164 187.665 81.2481 187.407 79.9955C187.076 78.3009 186.634 76.2746 188.734 75.9062C191.054 75.4642 191.312 78.4114 191.46 79.2219ZM188.181 79.8482C188.734 82.6849 189.286 82.7585 190.023 82.648C190.87 82.5007 191.202 82.0586 190.723 79.3692C190.207 76.5694 189.655 76.422 188.881 76.5694C187.518 76.8273 187.923 78.4114 188.181 79.8482Z" fill="white"/>
<path d="M195.475 75.7956L194.223 76.4956L193.891 75.8693L196.065 74.6904L197.023 81.4691L198.57 81.248L198.644 81.9111L194.518 82.5006L194.444 81.8375L196.286 81.5796L195.475 75.7956Z" fill="white"/>
<path d="M204.796 77.5637C204.906 78.7426 205.349 81.3214 203.101 81.5056C200.854 81.6898 200.817 79.1847 200.707 77.9321C200.559 76.2006 200.265 74.1744 202.401 73.9902C204.722 73.7691 204.722 76.7532 204.796 77.5637ZM201.48 77.8953C201.738 80.7688 202.291 80.9162 203.028 80.8425C203.875 80.7688 204.28 80.4004 204.022 77.6742C203.764 74.8375 203.249 74.6533 202.475 74.727C201.075 74.8007 201.333 76.4216 201.48 77.8953Z" fill="white"/>
<path d="M209.106 74.543L207.78 75.1324L207.522 74.4693L209.806 73.4746L210.101 80.3269L211.685 80.2532L211.722 80.9164L207.559 81.1006L207.522 80.4374L209.364 80.3637L209.106 74.543Z" fill="white"/>
<path d="M218.206 77.2325C218.169 78.4114 218.353 81.0271 216.106 80.9903C213.859 80.9534 214.08 78.4483 214.117 77.1957C214.153 75.4642 214.08 73.4011 216.216 73.438C218.574 73.438 218.243 76.4221 218.206 77.2325ZM214.89 77.1957C214.853 80.1061 215.369 80.2903 216.106 80.2903C216.953 80.2903 217.395 79.9587 217.432 77.2325C217.469 74.3958 216.99 74.138 216.216 74.138C214.817 74.1011 214.927 75.7221 214.89 77.1957Z" fill="white"/>
<path d="M222.774 74.5804L221.411 75.0224L221.227 74.3225L223.584 73.5488L223.216 80.4011L224.8 80.4748L224.763 81.1379L220.6 80.9169L220.637 80.2538L222.479 80.3643L222.774 74.5804Z" fill="white"/>
<path d="M231.579 78.1169C231.468 79.2958 231.395 81.9115 229.147 81.6536C226.9 81.4325 227.342 78.9642 227.489 77.6748C227.674 75.9433 227.784 73.8803 229.921 74.1013C232.242 74.396 231.689 77.3064 231.579 78.1169ZM228.263 77.7853C227.968 80.6589 228.484 80.9168 229.221 80.9905C230.068 81.0641 230.547 80.7694 230.805 78.0432C231.1 75.2065 230.621 74.9118 229.847 74.8381C228.484 74.6908 228.41 76.3486 228.263 77.7853Z" fill="white"/>
<path d="M236.405 75.9796L235.005 76.2743L234.894 75.5744L237.326 75.0586L236.294 81.8372L237.842 82.0582L237.731 82.7214L233.605 82.0951L233.715 81.432L235.558 81.7267L236.405 75.9796Z" fill="white"/>
<path d="M243.147 77.1588L241.71 77.4167L241.6 76.7168L244.031 76.3115L242.668 83.0165L244.215 83.3112L244.068 83.9743L239.979 83.1638L240.126 82.5007L241.931 82.8691L243.147 77.1588Z" fill="white"/>
<path d="M251.362 81.911C251.067 83.053 250.625 85.6319 248.452 85.0792C246.278 84.5266 247.089 82.132 247.383 80.9163C247.825 79.2216 248.231 77.2323 250.294 77.748C252.578 78.3375 251.546 81.1373 251.362 81.911ZM248.12 81.1005C247.42 83.9004 247.862 84.2319 248.599 84.4161C249.409 84.6372 249.925 84.4161 250.588 81.7268C251.288 78.9638 250.883 78.5954 250.109 78.4112C248.783 78.0796 248.488 79.6637 248.12 81.1005Z" fill="white"/>
<path d="M256.409 80.4748L254.972 80.5853L254.936 79.8854L257.404 79.7012L255.414 86.2588L256.925 86.7377L256.741 87.364L252.762 86.1482L252.946 85.5219L254.714 86.0745L256.409 80.4748Z" fill="white"/>
<path d="M264.146 86.0372C263.74 87.1425 263.04 89.6476 260.941 88.9108C258.804 88.1371 259.872 85.853 260.277 84.6742C260.867 83.0532 261.493 81.0638 263.483 81.8006C265.693 82.5743 264.404 85.2636 264.146 86.0372ZM260.977 84.8952C259.983 87.6214 260.425 87.9898 261.125 88.2108C261.935 88.5055 262.451 88.3213 263.372 85.7425C264.33 83.0532 263.961 82.6479 263.225 82.3901C261.935 81.948 261.493 83.5321 260.977 84.8952Z" fill="white"/>
<path d="M269.303 85.1167L267.867 85.0798L267.903 84.3799L270.372 84.4536L267.756 90.7901L269.23 91.3795L268.972 92.0058L265.104 90.3848L265.361 89.7586L267.056 90.4585L269.303 85.1167Z" fill="white"/>
<path d="M276.45 91.379C275.934 92.4474 275.013 94.8788 272.987 93.921C270.961 92.9631 272.214 90.7896 272.766 89.6475C273.503 88.1002 274.314 86.1845 276.229 87.1055C278.329 88.1002 276.819 90.6422 276.45 91.379ZM273.429 89.9422C272.177 92.5579 272.582 92.9631 273.282 93.2579C274.056 93.6263 274.571 93.5157 275.75 91.0106C276.966 88.4318 276.634 87.9897 275.934 87.6582C274.645 87.1055 274.056 88.616 273.429 89.9422Z" fill="white"/>
<path d="M281.682 90.974L280.245 90.7898L280.355 90.0898L282.824 90.4214L279.582 96.4632L280.982 97.2L280.687 97.7895L277.003 95.8001L277.298 95.2106L278.919 96.0948L281.682 90.974Z" fill="white"/>
<path d="M288.165 97.8998C287.539 98.8945 286.397 101.252 284.445 100.073C282.529 98.9314 283.966 96.8683 284.629 95.7631C285.513 94.2895 286.508 92.4843 288.35 93.5895C290.376 94.8053 288.608 97.1999 288.165 97.8998ZM285.329 96.1683C283.855 98.6366 284.187 99.0787 284.85 99.484C285.587 99.9261 286.139 99.8524 287.539 97.4946C289.013 95.0631 288.718 94.5842 288.018 94.179C286.802 93.479 286.066 94.9158 285.329 96.1683Z" fill="white"/>
<path d="M293.434 97.9739L292.034 97.6423L292.218 96.9424L294.649 97.495L290.855 103.168L292.181 104.053L291.813 104.605L288.35 102.284L288.718 101.732L290.265 102.763L293.434 97.9739Z" fill="white"/>
<path d="M299.218 105.526C298.518 106.484 297.118 108.694 295.313 107.331C293.507 106.005 295.165 104.089 295.902 103.058C296.934 101.658 298.076 99.9633 299.807 101.253C301.723 102.653 299.733 104.863 299.218 105.526ZM296.528 103.537C294.797 105.858 295.128 106.337 295.718 106.779C296.418 107.295 296.934 107.258 298.591 105.047C300.286 102.763 300.028 102.284 299.402 101.805C298.297 100.995 297.413 102.358 296.528 103.537Z" fill="white"/>
<path d="M304.449 106.115L303.086 105.673L303.344 105.01L305.702 105.783L301.354 111.088L302.57 112.083L302.165 112.599L298.923 109.946L299.328 109.431L300.765 110.61L304.449 106.115Z" fill="white"/>
<path d="M309.496 114.183C308.722 115.067 307.101 117.131 305.444 115.62C303.786 114.11 305.591 112.378 306.438 111.457C307.617 110.168 308.907 108.584 310.491 110.02C312.222 111.568 310.049 113.557 309.496 114.183ZM307.028 111.936C305.075 114.073 305.37 114.589 305.923 115.067C306.549 115.62 307.101 115.657 308.943 113.631C310.859 111.531 310.638 111.015 310.049 110.462C308.98 109.578 307.986 110.868 307.028 111.936Z" fill="white"/>
<path d="M314.654 115.288L313.327 114.699L313.622 114.072L315.906 115.067L311.08 119.93L312.185 121.035L311.707 121.514L308.759 118.567L309.238 118.088L310.564 119.377L314.654 115.288Z" fill="white"/>
<path d="M318.854 123.761C317.969 124.572 316.201 126.451 314.691 124.793C313.18 123.135 315.169 121.588 316.09 120.741C317.38 119.562 318.817 118.125 320.253 119.709C321.838 121.441 319.48 123.209 318.854 123.761ZM316.606 121.33C314.469 123.283 314.691 123.798 315.206 124.351C315.796 124.977 316.312 125.051 318.338 123.209C320.438 121.293 320.29 120.741 319.775 120.188C318.817 119.156 317.711 120.335 316.606 121.33Z" fill="white"/>
<path d="M323.901 125.383L322.648 124.683L323.016 124.057L325.19 125.272L319.922 129.656L320.917 130.872L320.401 131.277L317.748 128.072L318.264 127.667L319.443 129.104L323.901 125.383Z" fill="white"/>
<path d="M327.29 134.225C326.332 134.925 324.379 136.656 323.053 134.851C321.69 133.046 323.827 131.719 324.858 130.946C326.258 129.914 327.842 128.588 329.132 130.32C330.495 132.198 327.953 133.746 327.29 134.225ZM325.264 131.572C322.943 133.304 323.127 133.856 323.569 134.446C324.085 135.109 324.601 135.256 326.811 133.635C329.095 131.941 328.985 131.388 328.506 130.762C327.695 129.62 326.443 130.688 325.264 131.572Z" fill="white"/>
<path d="M332.116 136.287L330.937 135.476L331.379 134.924L333.405 136.361L327.732 140.155L328.616 141.445L328.064 141.813L325.706 138.35L326.258 137.982L327.29 139.529L332.116 136.287Z" fill="white"/>
<path d="M334.621 145.461C333.626 146.087 331.49 147.598 330.311 145.682C329.132 143.766 331.379 142.624 332.484 141.961C333.958 141.077 335.689 139.898 336.795 141.74C338.01 143.729 335.358 145.019 334.621 145.461ZM332.89 142.624C330.421 144.135 330.532 144.687 330.937 145.314C331.379 146.05 331.895 146.235 334.216 144.798C336.647 143.324 336.61 142.772 336.205 142.108C335.468 140.893 334.142 141.851 332.89 142.624Z" fill="white"/>
<path d="M339.263 147.966L338.158 147.045L338.637 146.529L340.516 148.15L334.511 151.429L335.247 152.829L334.658 153.161L332.669 149.513L333.258 149.182L334.142 150.803L339.263 147.966Z" fill="white"/>
<path d="M340.884 157.323C339.816 157.839 337.568 159.128 336.574 157.102C335.579 155.076 337.937 154.155 339.079 153.602C340.626 152.866 342.468 151.871 343.389 153.823C344.421 155.96 341.621 156.992 340.884 157.323ZM339.41 154.339C336.795 155.592 336.868 156.144 337.2 156.844C337.568 157.618 338.047 157.839 340.516 156.66C343.094 155.408 343.094 154.855 342.726 154.155C342.173 152.902 340.737 153.713 339.41 154.339Z" fill="white"/>
<path d="M343.536 163.513C342.431 163.992 340.147 165.17 339.263 163.107C338.379 161.044 340.773 160.234 341.952 159.755C343.536 159.092 345.415 158.208 346.226 160.16C347.147 162.297 344.31 163.181 343.536 163.513ZM342.247 160.418C339.595 161.56 339.631 162.113 339.926 162.813C340.258 163.586 340.737 163.844 343.279 162.776C345.894 161.671 345.931 161.118 345.636 160.381C345.047 159.129 343.61 159.865 342.247 160.418Z" fill="white"/>
<path d="M347.773 166.68L346.815 165.612L347.368 165.17L348.989 167.049L342.579 169.407L343.131 170.88L342.505 171.101L341.068 167.196L341.694 166.975L342.321 168.707L347.773 166.68Z" fill="white"/>
<path d="M347.994 176.148C346.852 176.517 344.458 177.474 343.794 175.301C343.131 173.164 345.563 172.612 346.779 172.206C348.436 171.691 350.352 170.991 351.015 173.054C351.678 175.301 348.768 175.927 347.994 176.148ZM347 172.98C344.237 173.827 344.2 174.417 344.458 175.117C344.715 175.927 345.158 176.222 347.773 175.411C350.499 174.564 350.573 174.011 350.352 173.275C349.91 171.948 348.4 172.538 347 172.98Z" fill="white"/>
<path d="M351.862 179.723L351.015 178.544L351.605 178.139L353.041 180.165L346.41 181.896L346.815 183.407L346.189 183.591L345.157 179.539L345.784 179.354L346.263 181.16L351.862 179.723Z" fill="white"/>
<path d="M351.162 189.191C350.02 189.449 347.515 190.149 347.036 187.938C346.594 185.728 349.062 185.433 350.315 185.175C352.01 184.807 353.999 184.328 354.441 186.428C354.92 188.712 351.973 189.043 351.162 189.191ZM350.499 185.949C347.662 186.538 347.589 187.091 347.736 187.828C347.92 188.675 348.326 189.006 351.015 188.454C353.815 187.864 353.925 187.349 353.778 186.575C353.483 185.212 351.936 185.654 350.499 185.949Z" fill="white"/>
<path d="M354.699 193.132L353.962 191.879L354.589 191.548L355.804 193.685L349.026 194.753L349.284 196.3L348.62 196.411L347.957 192.285L348.62 192.174L348.915 194.016L354.699 193.132Z" fill="white"/>
<path d="M353.078 202.49C351.899 202.6 349.357 203.079 349.1 200.869C348.842 198.622 351.384 198.548 352.636 198.437C354.368 198.253 356.394 197.958 356.615 200.058C356.873 202.379 353.889 202.416 353.078 202.49ZM352.71 199.174C349.836 199.469 349.689 200.021 349.8 200.795C349.873 201.642 350.278 202.048 353.005 201.753C355.841 201.458 356.025 200.942 355.952 200.132C355.768 198.732 354.183 199.027 352.71 199.174Z" fill="white"/>
<path d="M356.173 206.727L355.583 205.4L356.247 205.143L357.278 207.39L350.463 207.795L350.573 209.379L349.91 209.416L349.652 205.253L350.315 205.216L350.426 207.058L356.173 206.727Z" fill="white"/>
<path d="M353.668 215.9C352.489 215.937 349.91 216.158 349.873 213.911C349.836 211.663 352.341 211.811 353.631 211.811C355.362 211.774 357.425 211.663 357.462 213.8C357.462 216.121 354.515 215.9 353.668 215.9ZM353.631 212.548C350.72 212.584 350.573 213.137 350.573 213.874C350.573 214.721 350.941 215.163 353.668 215.089C356.504 215.053 356.762 214.537 356.725 213.763C356.725 212.4 355.104 212.548 353.631 212.548Z" fill="white"/>
<path d="M353.483 222.604C352.304 222.567 349.689 222.678 349.799 220.43C349.873 218.183 352.378 218.478 353.631 218.515C355.362 218.588 357.425 218.552 357.352 220.688C357.278 223.046 354.331 222.641 353.483 222.604ZM353.631 219.288C350.757 219.178 350.536 219.694 350.499 220.467C350.462 221.315 350.794 221.757 353.52 221.867C356.357 221.978 356.615 221.499 356.652 220.688C356.725 219.288 355.067 219.325 353.631 219.288Z" fill="white"/>
<path d="M355.988 227.246L355.583 225.846L356.283 225.662L356.983 228.056L350.168 227.467L350.02 229.051L349.357 228.977L349.689 224.814L350.352 224.888L350.204 226.73L355.988 227.246Z" fill="white"/>
<path d="M355.252 234.062L354.92 232.662L355.62 232.514L356.173 234.946L349.394 234.062L349.173 235.609L348.51 235.535L349.063 231.409L349.726 231.483L349.468 233.325L355.252 234.062Z" fill="white"/>
<path d="M351.015 242.571C349.836 242.35 347.257 242.093 347.663 239.882C348.068 237.672 350.499 238.298 351.752 238.556C353.447 238.851 355.51 239.145 355.104 241.245C354.699 243.529 351.862 242.719 351.015 242.571ZM351.641 239.293C348.805 238.777 348.51 239.256 348.399 239.993C348.252 240.84 348.51 241.319 351.199 241.798C353.999 242.314 354.331 241.871 354.478 241.098C354.699 239.735 353.078 239.551 351.641 239.293Z" fill="white"/>
<path d="M349.578 249.129C348.436 248.872 345.858 248.466 346.373 246.256C346.889 244.046 349.284 244.819 350.499 245.114C352.194 245.519 354.22 245.888 353.704 247.987C353.189 250.272 350.389 249.314 349.578 249.129ZM350.315 245.888C347.515 245.224 347.184 245.703 347.036 246.44C346.852 247.251 347.073 247.766 349.763 248.393C352.526 249.056 352.894 248.614 353.078 247.84C353.373 246.477 351.752 246.219 350.315 245.888Z" fill="white"/>
<path d="M347.773 255.613C346.631 255.282 344.089 254.766 344.715 252.593C345.342 250.419 347.7 251.303 348.915 251.672C350.573 252.15 352.562 252.629 352.01 254.692C351.347 256.94 348.584 255.835 347.773 255.613ZM348.694 252.408C345.931 251.598 345.6 252.077 345.379 252.777C345.158 253.587 345.342 254.103 347.994 254.84C350.72 255.613 351.089 255.208 351.31 254.471C351.715 253.145 350.094 252.814 348.694 252.408Z" fill="white"/>
<path d="M349.063 260.733L348.989 259.297H349.689L349.762 261.765L343.279 259.555L342.836 261.028L342.21 260.807L343.536 256.865L344.163 257.086L343.573 258.855L349.063 260.733Z" fill="white"/>
<path d="M343.279 268.25C342.173 267.808 339.705 267.034 340.516 264.971C341.326 262.871 343.61 263.977 344.789 264.456C346.41 265.082 348.326 265.782 347.552 267.771C346.705 269.908 344.052 268.545 343.279 268.25ZM344.494 265.156C341.805 264.087 341.437 264.529 341.142 265.229C340.847 266.003 340.995 266.555 343.537 267.55C346.189 268.582 346.594 268.213 346.889 267.513C347.405 266.187 345.857 265.671 344.494 265.156Z" fill="white"/>
<path d="M344.052 273.444L344.126 272.007L344.826 272.081L344.678 274.549L338.453 271.712L337.789 273.149L337.2 272.891L338.931 269.097L339.521 269.355L338.747 271.049L344.052 273.444Z" fill="white"/>
<path d="M341.105 279.633L341.252 278.197L341.952 278.307L341.694 280.775L335.616 277.644L334.879 279.044L334.29 278.749L336.205 275.028L336.795 275.323L335.947 276.981L341.105 279.633Z" fill="white"/>
<path d="M337.826 285.675L338.047 284.238L338.747 284.385L338.342 286.854L332.411 283.427L331.637 284.791L331.048 284.459L333.148 280.849L333.737 281.18L332.816 282.801L337.826 285.675Z" fill="white"/>
<path d="M330.679 291.938C329.684 291.312 327.4 290.059 328.616 288.181C329.832 286.302 331.821 287.812 332.89 288.475C334.363 289.396 336.132 290.465 334.953 292.233C333.737 294.222 331.379 292.38 330.679 291.938ZM332.484 289.138C330.053 287.591 329.611 287.923 329.206 288.549C328.763 289.249 328.8 289.802 331.121 291.275C333.516 292.822 333.995 292.528 334.4 291.865C335.137 290.686 333.737 289.912 332.484 289.138Z" fill="white"/>
<path d="M330.458 297.206L330.827 295.806L331.527 295.99L330.9 298.385L325.337 294.406L324.416 295.695L323.864 295.327L326.295 291.938L326.848 292.306L325.779 293.816L330.458 297.206Z" fill="white"/>
<path d="M322.759 302.732C321.838 301.995 319.664 300.558 321.064 298.79C322.464 297.022 324.306 298.716 325.301 299.527C326.664 300.595 328.321 301.811 326.995 303.469C325.522 305.311 323.385 303.248 322.759 302.732ZM324.822 300.116C322.538 298.311 322.059 298.643 321.617 299.232C321.101 299.895 321.101 300.448 323.238 302.142C325.485 303.911 325.964 303.653 326.443 303.063C327.29 301.958 325.964 301.037 324.822 300.116Z" fill="white"/>
<path d="M321.985 307.963L322.464 306.6L323.127 306.858L322.28 309.179L317.122 304.685L316.09 305.864L315.575 305.421L318.301 302.29L318.817 302.732L317.601 304.132L321.985 307.963Z" fill="white"/>
<path d="M313.77 312.753C312.922 311.942 310.896 310.285 312.48 308.664C314.028 307.043 315.722 308.921 316.643 309.806C317.896 311.021 319.443 312.348 317.969 313.895C316.312 315.553 314.396 313.305 313.77 312.753ZM316.091 310.321C313.991 308.332 313.512 308.59 312.996 309.106C312.407 309.732 312.37 310.285 314.322 312.163C316.385 314.116 316.901 313.932 317.454 313.379C318.412 312.384 317.159 311.353 316.091 310.321Z" fill="white"/>
<path d="M308.943 317.394C308.133 316.547 306.217 314.779 307.838 313.231C309.459 311.684 311.043 313.637 311.928 314.558C313.106 315.81 314.58 317.247 313.033 318.721C311.338 320.342 309.533 317.984 308.943 317.394ZM311.375 315.11C309.386 313.01 308.87 313.231 308.317 313.747C307.691 314.337 307.617 314.889 309.496 316.879C311.449 318.942 311.964 318.794 312.554 318.242C313.585 317.284 312.37 316.179 311.375 315.11Z" fill="white"/>
<path d="M303.896 321.815C303.123 320.931 301.281 319.089 302.975 317.615C304.67 316.142 306.181 318.168 306.991 319.126C308.133 320.452 309.533 321.925 307.912 323.325C306.144 324.873 304.449 322.441 303.896 321.815ZM306.438 319.641C304.56 317.431 304.044 317.652 303.454 318.131C302.828 318.683 302.718 319.236 304.486 321.299C306.328 323.473 306.881 323.325 307.47 322.81C308.538 321.925 307.396 320.747 306.438 319.641Z" fill="white"/>
<path d="M298.665 325.978C297.928 325.057 296.197 323.105 297.965 321.742C299.733 320.342 301.133 322.442 301.907 323.473C302.975 324.836 304.302 326.421 302.607 327.71C300.765 329.147 299.144 326.642 298.665 325.978ZM301.281 323.952C299.512 321.668 298.96 321.852 298.37 322.294C297.707 322.81 297.56 323.363 299.254 325.5C301.023 327.747 301.539 327.636 302.165 327.157C303.27 326.31 302.165 325.094 301.281 323.952Z" fill="white"/>
<path d="M296.676 330.878L297.486 329.662L298.076 330.067L296.676 332.13L292.734 326.567L291.444 327.488L291.076 326.936L294.502 324.541L294.87 325.094L293.36 326.162L296.676 330.878Z" fill="white"/>
<path d="M287.576 333.568C286.95 332.573 285.403 330.473 287.281 329.294C289.197 328.079 290.376 330.326 291.039 331.394C291.96 332.868 293.139 334.563 291.334 335.705C289.345 336.92 288.018 334.268 287.576 333.568ZM290.376 331.763C288.829 329.331 288.276 329.442 287.65 329.847C286.95 330.289 286.766 330.805 288.202 333.126C289.713 335.52 290.266 335.484 290.929 335.042C292.144 334.342 291.15 333.015 290.376 331.763Z" fill="white"/>
<path d="M281.755 336.92C281.166 335.889 279.729 333.752 281.682 332.61C283.634 331.505 284.703 333.789 285.329 334.894C286.176 336.404 287.281 338.136 285.402 339.204C283.376 340.383 282.161 337.657 281.755 336.92ZM284.666 335.299C283.229 332.794 282.676 332.868 282.013 333.236C281.276 333.641 281.055 334.157 282.418 336.552C283.818 339.02 284.371 338.983 285.071 338.615C286.287 337.915 285.366 336.552 284.666 335.299Z" fill="white"/>
<path d="M279.103 341.488L280.061 340.419L280.576 340.898L278.919 342.74L275.824 336.625L274.424 337.325L274.129 336.735L277.85 334.856L278.145 335.446L276.487 336.293L279.103 341.488Z" fill="white"/>
<path d="M269.672 342.814C269.193 341.746 267.94 339.462 270.003 338.541C272.066 337.62 272.914 339.977 273.429 341.156C274.129 342.74 275.05 344.582 273.098 345.467C270.961 346.388 270.04 343.551 269.672 342.814ZM272.729 341.451C271.551 338.798 270.998 338.835 270.298 339.167C269.524 339.498 269.266 340.014 270.372 342.519C271.514 345.135 272.066 345.135 272.803 344.84C274.093 344.214 273.319 342.777 272.729 341.451Z" fill="white"/>
<path d="M266.577 347.051L267.645 346.093L268.087 346.646L266.245 348.303L263.777 341.93L262.304 342.52L262.046 341.893L265.951 340.383L266.209 341.009L264.477 341.672L266.577 347.051Z" fill="white"/>
<path d="M260.167 349.409L261.272 348.488L261.714 349.041L259.799 350.625L257.625 344.141L256.115 344.657L255.894 344.03L259.835 342.704L260.057 343.33L258.288 343.92L260.167 349.409Z" fill="white"/>
<path d="M253.609 351.399L254.751 350.551L255.157 351.141L253.167 352.614L251.325 346.02L249.815 346.462L249.631 345.836L253.646 344.73L253.83 345.357L252.062 345.873L253.609 351.399Z" fill="white"/>
<path d="M244.105 350.883C243.847 349.741 243.073 347.235 245.284 346.756C247.494 346.241 247.826 348.746 248.12 349.998C248.489 351.693 249.041 353.682 246.941 354.161C244.694 354.64 244.289 351.693 244.105 350.883ZM247.383 350.146C246.757 347.309 246.168 347.272 245.468 347.42C244.657 347.604 244.289 348.046 244.915 350.698C245.541 353.461 246.094 353.609 246.868 353.425C248.157 353.13 247.715 351.583 247.383 350.146Z" fill="white"/>
<path d="M240.273 354.492L241.526 353.755L241.857 354.382L239.721 355.671L238.542 348.929L236.994 349.187L236.884 348.524L241.01 347.787L241.12 348.45L239.278 348.782L240.273 354.492Z" fill="white"/>
<path d="M230.879 353.019C230.731 351.84 230.216 349.298 232.426 349.003C234.673 348.709 234.784 351.214 234.931 352.503C235.152 354.235 235.484 356.261 233.384 356.519C231.063 356.814 230.989 353.866 230.879 353.019ZM234.194 352.614C233.826 349.74 233.273 349.63 232.537 349.703C231.689 349.814 231.321 350.219 231.652 352.908C232.021 355.745 232.537 355.929 233.31 355.819C234.673 355.671 234.379 354.051 234.194 352.614Z" fill="white"/>
<path d="M226.679 356.224L227.968 355.598L228.263 356.261L226.016 357.329L225.5 350.514L223.916 350.625L223.879 349.961L228.042 349.63L228.079 350.293L226.237 350.44L226.679 356.224Z" fill="white"/>
<path d="M219.864 356.593L221.19 356.04L221.448 356.704L219.164 357.661L218.943 350.809L217.359 350.846L217.322 350.183L221.485 350.072L221.522 350.735L219.68 350.809L219.864 356.593Z" fill="white"/>
<path d="M210.764 353.83C210.801 352.651 210.617 350.035 212.901 350.109C215.148 350.146 214.927 352.651 214.89 353.903C214.853 355.635 214.927 357.698 212.753 357.661C210.396 357.588 210.764 354.64 210.764 353.83ZM214.116 353.867C214.153 350.956 213.638 350.772 212.901 350.772C212.053 350.772 211.611 351.104 211.575 353.83C211.538 356.667 212.017 356.924 212.79 356.961C214.153 356.961 214.08 355.34 214.116 353.867Z" fill="white"/>
<path d="M206.159 356.372L207.522 355.93L207.706 356.63L205.349 357.366L205.791 350.551L204.207 350.44L204.243 349.777L208.406 350.035L208.37 350.698L206.528 350.588L206.159 356.372Z" fill="white"/>
<path d="M197.391 352.761C197.538 351.582 197.612 349.003 199.859 349.261C202.107 349.519 201.628 351.987 201.48 353.24C201.296 354.971 201.149 356.998 199.012 356.777C196.691 356.482 197.28 353.571 197.391 352.761ZM200.707 353.129C201.038 350.256 200.522 349.998 199.786 349.924C198.938 349.814 198.459 350.109 198.165 352.835C197.833 355.671 198.312 355.966 199.086 356.04C200.449 356.224 200.522 354.566 200.707 353.129Z" fill="white"/>
<path d="M192.565 354.861L193.965 354.566L194.075 355.266L191.644 355.745L192.749 349.003L191.202 348.745L191.312 348.082L195.438 348.745L195.328 349.408L193.486 349.114L192.565 354.861Z" fill="white"/>
<path d="M184.165 350.366C184.423 349.224 184.755 346.645 186.965 347.088C189.176 347.566 188.439 349.961 188.181 351.214C187.813 352.908 187.481 354.934 185.381 354.492C183.097 354.013 184.018 351.177 184.165 350.366ZM187.444 351.066C188.034 348.23 187.555 347.935 186.855 347.788C186.007 347.603 185.528 347.861 184.939 350.514C184.35 353.314 184.792 353.645 185.528 353.792C186.891 354.124 187.113 352.503 187.444 351.066Z" fill="white"/>
<path d="M177.681 348.709C177.976 347.567 178.455 345.025 180.629 345.578C182.802 346.167 181.955 348.525 181.66 349.741C181.218 351.398 180.776 353.425 178.713 352.872C176.429 352.283 177.46 349.52 177.681 348.709ZM180.887 349.556C181.623 346.756 181.181 346.462 180.444 346.241C179.634 346.02 179.118 346.241 178.418 348.893C177.681 351.656 178.087 352.025 178.86 352.209C180.223 352.577 180.518 350.993 180.887 349.556Z" fill="white"/>
<path d="M172.598 350.072L174.034 349.998V350.698L171.566 350.846L173.629 344.325L172.119 343.846L172.303 343.22L176.282 344.472L176.097 345.099L174.329 344.546L172.598 350.072Z" fill="white"/>
<path d="M166.114 347.862H167.55L167.514 348.562H165.045L167.44 342.152L165.966 341.599L166.187 340.973L170.092 342.446L169.871 343.073L168.14 342.409L166.114 347.862Z" fill="white"/>
<path d="M159.74 345.319L161.177 345.392L161.14 346.092L158.672 345.982L161.361 339.682L159.924 339.056L160.182 338.43L164.014 340.087L163.756 340.714L162.061 339.977L159.74 345.319Z" fill="white"/>
<path d="M152.704 338.946C153.22 337.878 154.177 335.483 156.204 336.441C158.23 337.436 156.94 339.609 156.388 340.752C155.614 342.299 154.804 344.178 152.888 343.257C150.788 342.225 152.335 339.683 152.704 338.946ZM155.688 340.42C156.977 337.804 156.572 337.436 155.909 337.104C155.135 336.736 154.619 336.846 153.404 339.315C152.151 341.857 152.483 342.299 153.183 342.667C154.435 343.257 155.062 341.746 155.688 340.42Z" fill="white"/>
<path d="M147.436 339.314L148.872 339.499L148.762 340.199L146.294 339.867L149.609 333.862L148.209 333.088L148.541 332.499L152.188 334.525L151.856 335.115L150.235 334.231L147.436 339.314Z" fill="white"/>
<path d="M141.062 332.277C141.688 331.283 142.867 328.962 144.783 330.141C146.699 331.32 145.225 333.346 144.562 334.414C143.641 335.888 142.646 337.693 140.841 336.551C138.815 335.372 140.62 333.014 141.062 332.277ZM143.899 334.046C145.409 331.577 145.078 331.135 144.415 330.767C143.678 330.325 143.162 330.399 141.725 332.719C140.215 335.151 140.51 335.593 141.21 336.035C142.352 336.735 143.125 335.298 143.899 334.046Z" fill="white"/>
<path d="M135.463 328.557C136.126 327.599 137.452 325.315 139.294 326.605C141.136 327.894 139.552 329.847 138.852 330.878C137.857 332.315 136.789 334.046 135.02 332.831C133.105 331.504 135.02 329.22 135.463 328.557ZM138.226 330.436C139.847 328.041 139.515 327.599 138.926 327.157C138.226 326.678 137.673 326.715 136.126 328.962C134.505 331.32 134.799 331.799 135.426 332.241C136.568 333.052 137.378 331.652 138.226 330.436Z" fill="white"/>
<path d="M130.231 328.151L131.631 328.557L131.41 329.22L129.016 328.52L133.142 323.067L131.889 322.11L132.294 321.594L135.61 324.136L135.205 324.651L133.731 323.546L130.231 328.151Z" fill="white"/>
<path d="M124.852 323.879L126.216 324.358L125.958 325.021L123.6 324.21L127.984 318.979L126.768 317.947L127.21 317.432L130.415 320.121L129.973 320.637L128.536 319.458L124.852 323.879Z" fill="white"/>
<path d="M119.953 315.774C120.763 314.89 122.384 312.863 124.042 314.411C125.7 315.921 123.858 317.653 122.974 318.574C121.795 319.863 120.468 321.41 118.884 319.974C117.153 318.353 119.363 316.363 119.953 315.774ZM122.384 318.021C124.337 315.884 124.079 315.405 123.526 314.89C122.9 314.3 122.347 314.263 120.505 316.29C118.59 318.39 118.774 318.905 119.363 319.421C120.358 320.379 121.389 319.09 122.384 318.021Z" fill="white"/>
<path d="M114.795 314.595L116.121 315.185L115.79 315.811L113.542 314.779L118.442 309.99L117.337 308.848L117.816 308.369L120.726 311.353L120.247 311.832L118.958 310.506L114.795 314.595Z" fill="white"/>
<path d="M110.669 306.048C111.553 305.274 113.358 303.395 114.869 305.053C116.379 306.748 114.353 308.258 113.432 309.105C112.143 310.247 110.669 311.684 109.232 310.1C107.648 308.368 110.043 306.6 110.669 306.048ZM112.879 308.553C115.053 306.637 114.832 306.121 114.316 305.532C113.764 304.905 113.211 304.795 111.148 306.637C109.011 308.516 109.159 309.068 109.711 309.658C110.669 310.689 111.811 309.511 112.879 308.553Z" fill="white"/>
<path d="M105.659 304.39L106.911 305.127L106.543 305.716L104.406 304.464L109.711 300.153L108.716 298.937L109.232 298.532L111.848 301.774L111.332 302.179L110.153 300.743L105.659 304.39Z" fill="white"/>
<path d="M102.38 295.475C103.338 294.775 105.327 293.08 106.653 294.885C107.98 296.691 105.843 298.017 104.811 298.754C103.411 299.785 101.79 301.075 100.538 299.343C99.1748 297.501 101.717 295.991 102.38 295.475ZM104.369 298.201C106.69 296.506 106.543 295.954 106.101 295.364C105.585 294.664 105.069 294.517 102.859 296.138C100.575 297.833 100.648 298.348 101.127 299.011C101.938 300.08 103.154 299.048 104.369 298.201Z" fill="white"/>
<path d="M98.6222 289.912C99.6168 289.249 101.68 287.665 102.896 289.543C104.148 291.422 101.938 292.638 100.869 293.338C99.4326 294.296 97.7748 295.511 96.5959 293.706C95.3065 291.791 97.959 290.391 98.6222 289.912ZM100.464 292.712C102.896 291.128 102.748 290.575 102.343 289.949C101.864 289.249 101.348 289.064 99.0642 290.575C96.6696 292.159 96.7433 292.675 97.1854 293.338C97.959 294.517 99.2484 293.522 100.464 292.712Z" fill="white"/>
<path d="M93.9066 287.554L95.0486 288.438L94.5697 288.991L92.6172 287.444L98.5116 283.944L97.7011 282.581L98.2537 282.249L100.39 285.823L99.8379 286.154L98.88 284.57L93.9066 287.554Z" fill="white"/>
<path d="M91.9541 278.27C92.9857 277.717 95.1961 276.317 96.2644 278.307C97.3328 280.296 95.0119 281.291 93.8698 281.88C92.3225 282.691 90.5542 283.722 89.5595 281.843C88.4911 279.78 91.2542 278.675 91.9541 278.27ZM93.5383 281.217C96.0802 279.854 96.0066 279.301 95.675 278.638C95.2698 277.902 94.7908 277.68 92.3594 278.933C89.8542 280.259 89.8542 280.812 90.2226 281.512C90.8489 282.764 92.212 281.917 93.5383 281.217Z" fill="white"/>
<path d="M87.4965 275.47L88.528 276.465L88.0122 276.944L86.2439 275.212L92.4331 272.302L91.7699 270.865L92.3594 270.57L94.1277 274.365L93.5383 274.66L92.7646 272.965L87.4965 275.47Z" fill="white"/>
<path d="M84.7334 269.208L85.7281 270.239L85.1755 270.718L83.4808 268.913L89.8174 266.334L89.2279 264.86L89.8542 264.603L91.4383 268.471L90.812 268.729L90.1121 266.997L84.7334 269.208Z" fill="white"/>
<path d="M84.1808 259.74C85.286 259.334 87.6806 258.303 88.4174 260.403C89.1542 262.54 86.7228 263.166 85.5439 263.608C83.9229 264.197 82.0072 264.971 81.3072 262.945C80.4968 260.734 83.3703 259.998 84.1808 259.74ZM85.286 262.871C88.0122 261.913 88.0122 261.361 87.7543 260.624C87.4596 259.813 87.0175 259.519 84.4387 260.44C81.7493 261.398 81.6757 261.95 81.9335 262.687C82.4125 264.013 83.8861 263.35 85.286 262.871Z" fill="white"/>
<path d="M80.1652 256.313L81.0494 257.455L80.4599 257.861L78.9495 255.908L85.507 253.955L85.0649 252.445L85.6912 252.261L86.8701 256.276L86.2438 256.461L85.7281 254.692L80.1652 256.313Z" fill="white"/>
<path d="M80.4968 246.808C81.6389 246.513 84.1072 245.703 84.6598 247.913C85.2124 250.087 82.7072 250.492 81.4915 250.824C79.7969 251.229 77.8443 251.818 77.3285 249.755C76.7759 247.434 79.7232 246.992 80.4968 246.808ZM81.3073 250.05C84.1072 249.35 84.1809 248.797 83.9967 248.061C83.7756 247.25 83.3704 246.882 80.681 247.545C77.918 248.245 77.8075 248.761 77.9917 249.534C78.3232 250.897 79.8705 250.418 81.3073 250.05Z" fill="white"/>
<path d="M76.8495 243.014L77.6232 244.229L76.9969 244.598L75.6707 242.498L82.3756 241.172L82.0809 239.624L82.744 239.514L83.5545 243.603L82.8914 243.714L82.523 241.908L76.8495 243.014Z" fill="white"/>
<path d="M78.139 233.62C79.3179 233.436 81.8599 232.883 82.1546 235.093C82.4861 237.304 79.981 237.488 78.7284 237.672C76.9969 237.93 75.0076 238.298 74.676 236.199C74.3444 233.878 77.3285 233.73 78.139 233.62ZM78.6179 236.899C81.4915 236.493 81.602 235.941 81.4915 235.204C81.3809 234.357 80.9757 233.988 78.2495 234.393C75.4128 234.799 75.2654 235.314 75.376 236.088C75.5602 237.451 77.1443 237.12 78.6179 236.899Z" fill="white"/>
<path d="M74.8602 229.457L75.5233 230.746L74.8602 231.041L73.755 228.831L80.5705 228.168L80.4231 226.583L81.0862 226.51L81.4915 230.673L80.8283 230.746L80.6441 228.904L74.8602 229.457Z" fill="white"/>
<path d="M77.0337 220.21C78.2126 220.136 80.7914 219.842 80.9019 222.089C81.0125 224.336 78.5073 224.262 77.2179 224.336C75.4864 224.41 73.4234 224.594 73.3497 222.457C73.2391 220.136 76.2232 220.247 77.0337 220.21ZM77.1811 223.562C80.0546 223.415 80.2388 222.899 80.202 222.126C80.1651 221.278 79.7967 220.873 77.0705 220.984C74.2338 221.131 74.0128 221.61 74.0496 222.42C74.1233 223.82 75.7443 223.636 77.1811 223.562Z" fill="white"/>
<path d="M76.8864 215.126C78.0653 215.052 80.6441 214.758 80.7546 217.005C80.8651 219.252 78.36 219.178 77.0706 219.252C75.3391 219.326 73.276 219.51 73.2024 217.373C73.0918 215.015 76.0391 215.163 76.8864 215.126ZM77.0338 218.442C79.9073 218.294 80.0915 217.778 80.0546 217.005C80.0178 216.158 79.6494 215.752 76.9232 215.863C74.0865 216.01 73.8655 216.489 73.9023 217.3C73.9392 218.699 75.5601 218.515 77.0338 218.442Z" fill="white"/>
</g>
<path d="M276.174 308H159.479C152.62 308 147 303.29 147 297.422V201.306C147 195.438 152.62 190.728 159.479 190.728H276.091C282.95 190.728 288.57 195.438 288.57 201.306V297.422C288.653 303.29 283.033 308 276.174 308ZM159.479 193.785C154.273 193.785 150.058 197.174 150.058 201.223V297.339C150.058 301.471 154.273 304.777 159.479 304.777H276.091C281.298 304.777 285.512 301.389 285.512 297.339V201.306C285.512 197.174 281.298 193.868 276.091 193.868H159.479V193.785ZM229.893 281.389H205.76V253.703C199.81 249.653 196.256 243.042 196.256 235.852C196.256 223.951 205.926 214.281 217.826 214.281C229.727 214.281 239.397 223.951 239.397 235.852C239.397 243.124 235.843 249.736 229.893 253.703V281.389ZM208.901 278.331H226.835V252.05L227.579 251.637C233.033 248.248 236.339 242.38 236.339 235.934C236.339 225.769 228.074 217.504 217.909 217.504C207.744 217.504 199.479 225.769 199.479 235.934C199.479 242.38 202.785 248.248 208.24 251.637L208.983 252.05V278.331H208.901Z" fill="url(#paint0_linear_2290_253)"/>
<path d="M273.694 183.041H250.719V160.066C250.719 140.397 240.14 131.306 217.496 131.306C205.182 131.306 196.174 134.116 190.884 139.736C186.421 144.446 184.273 151.14 184.273 160.314V183.124H161.38V156.017C161.38 142.628 167 130.397 177.331 121.636C187.496 112.793 201.793 108 217.496 108C233.116 108 247.413 113.041 257.744 122.132C267.992 131.223 273.612 143.62 273.612 157.091V183.041H273.694ZM253.859 179.983H270.636V157.091C270.636 130.893 247.826 111.058 217.578 111.058C186.835 111.058 164.521 129.901 164.521 155.934V179.901H181.215V160.231C181.215 150.231 183.694 142.793 188.653 137.504C194.686 131.223 204.107 128.083 217.496 128.083C224.273 128.083 230.14 128.909 234.934 130.479C239.562 132.05 243.364 134.281 246.256 137.339C251.38 142.628 253.859 149.983 253.859 159.983V179.983Z" fill="url(#paint1_linear_2290_253)"/>
<path opacity="0.2" d="M217.826 109.57C186.008 109.57 163.198 129.405 163.198 156.017V181.554H183.033V160.231C183.033 143.289 190.223 129.653 217.826 129.653C245.099 129.653 252.62 143.041 252.62 159.984V181.388H272.455V157.091C272.455 130.479 249.645 109.57 217.826 109.57Z" fill="url(#paint2_linear_2290_253)"/>
<path opacity="0.2" d="M276.174 192.298H159.479C153.446 192.298 148.57 196.347 148.57 201.306V297.422C148.57 302.38 153.446 306.43 159.479 306.43H276.091C282.124 306.43 287 302.38 287 297.422V201.306C287.083 196.347 282.207 192.298 276.174 192.298ZM228.322 252.876V279.901H207.331V252.876C201.628 249.323 197.826 243.042 197.826 235.852C197.826 224.777 206.752 215.852 217.826 215.852C228.901 215.852 237.826 224.777 237.826 235.852C237.826 243.042 234.025 249.323 228.322 252.876Z" fill="url(#paint3_linear_2290_253)"/>
<defs>
<linearGradient id="paint0_linear_2290_253" x1="265.566" y1="308" x2="147.754" y2="287.34" gradientUnits="userSpaceOnUse">
<stop offset="0.0260417" stop-color="#1AECDF"/>
<stop offset="0.46875" stop-color="#14FD55"/>
<stop offset="1" stop-color="#0BB913"/>
</linearGradient>
<linearGradient id="paint1_linear_2290_253" x1="255.443" y1="183.124" x2="163.443" y2="163.143" gradientUnits="userSpaceOnUse">
<stop offset="0.0260417" stop-color="#1AECDF"/>
<stop offset="0.46875" stop-color="#14FD55"/>
<stop offset="1" stop-color="#0BB913"/>
</linearGradient>
<linearGradient id="paint2_linear_2290_253" x1="254.7" y1="181.554" x2="165.329" y2="161.849" gradientUnits="userSpaceOnUse">
<stop offset="0.0260417" stop-color="#1AECDF"/>
<stop offset="0.46875" stop-color="#14FD55"/>
<stop offset="1" stop-color="#0BB913"/>
</linearGradient>
<linearGradient id="paint3_linear_2290_253" x1="264.506" y1="306.43" x2="149.34" y2="286.139" gradientUnits="userSpaceOnUse">
<stop offset="0.0260417" stop-color="#1AECDF"/>
<stop offset="0.46875" stop-color="#14FD55"/>
<stop offset="1" stop-color="#0BB913"/>
</linearGradient>
</defs>
</svg>
