<svg viewBox="0 0 1009 1012" fill="none" xmlns="http://www.w3.org/2000/svg"><g opacity=".5" filter="url(#a)"><path d="M884 506c0 210.474-169.962 381-379.5 381S125 716.474 125 506s169.962-381 379.5-381S884 295.526 884 506Z" stroke="url(#b)" stroke-width="30"/></g><g opacity=".2" filter="url(#c)"><path d="M883 506c0 210.474-169.962 381-379.5 381S124 716.474 124 506s169.962-381 379.5-381S883 295.526 883 506Z" stroke="url(#d)" stroke-width="30"/></g><g opacity=".7"><path d="M654.109 468.556c-16.79-45.682-46.073-83.93-80.754-110.097-41.23-31.108-90.055-45.049-134.573-33.822-33.901 8.524-60.821 30.146-77.901 62.512-23.022 43.654-24.47 100.649-4.016 156.329 16.135 43.882 44.826 82.989 80.72 110.071 42.788 32.284 91.851 44.61 134.573 33.822 33.901-8.523 60.821-30.146 77.9-62.511 23.057-43.628 24.505-100.623 4.051-156.304Zm-81.934 218.72c-44.457 11.218-93.283-2.723-134.478-33.805-34.646-26.141-63.868-64.397-80.684-110.044-20.48-55.647-19.024-112.581 3.998-156.235 17.028-32.296 43.948-53.918 77.788-62.433 21.781-5.485 44.817-5.128 68.481 1.033 22.892 5.959 45.07 16.982 65.962 32.745 35.894 27.082 64.55 66.163 80.684 110.045 20.481 55.646 19.024 112.58-3.998 156.234-16.992 32.322-43.886 53.91-77.753 62.46Z" fill="url(#e)"/><path d="M651.347 431.446c-16.195-28.645-37.546-52.532-61.694-70.752-55.054-41.538-124.551-53.563-180.449-24.978-34.19 17.497-59.439 48.592-71.163 87.555-14.836 49.45-6.94 106.805 21.647 157.309 15.616 27.609 36.956 52.087 61.694 70.752 57.132 43.106 126.288 52.698 180.483 25.004 34.19-17.497 59.44-48.593 71.163-87.555 14.802-49.476 6.906-106.831-21.681-157.335Zm-49.603 244.69c-55.811 28.542-125.274 16.543-180.258-24.943-24.114-18.194-45.464-42.081-61.651-70.665-28.552-50.478-36.439-107.772-21.629-157.187 11.601-38.728 36.599-69.634 70.477-87.149l-.043-.087 1.155-.596.043.087c80.263-40.605 188.361 2.339 241.335 95.936 28.553 50.478 36.44 107.772 21.63 157.188-11.698 38.927-36.921 69.989-71.059 87.416Z" fill="url(#f)"/><path d="M320.89 468.363c-5.177 52.278 12.086 106.857 47.346 149.723 10.902 13.229 23.291 25.133 36.769 35.302 70.575 53.25 163.227 55.007 225.283 4.309 34.014-27.801 55.25-68.288 59.788-114.087 5.177-52.277-12.087-106.856-47.347-149.722-68.684-83.477-185.871-101.353-261.556-40.053l.078.113-1 .823-.078-.113c-33.701 27.819-54.773 68.159-59.283 113.705Zm59.943-113.86c15.508-12.666 33.091-22.243 52.228-28.471 18.485-6.014 38.074-8.801 58.255-8.26 19.928.514 39.85 4.287 59.252 11.202 19.662 7.004 38.294 17.037 55.271 29.846 13.477 10.169 25.832 22.046 36.734 35.276 35.225 42.84 52.445 97.332 47.32 149.54-4.519 45.703-25.73 86.156-59.718 113.922-63.334 51.746-156.136 47.591-224.944-4.326-13.27-10.012-25.642-21.794-36.735-35.276-35.224-42.84-52.445-97.332-47.32-149.54 4.485-45.729 25.695-86.182 59.657-113.913Z" fill="url(#g)"/><path d="M354.467 380.297c-67.619 81.908-54.9 204.959 28.401 274.283 2.494 2.1 5.136 4.147 7.734 6.108 39.463 29.774 88.098 43.681 136.956 39.101 50.907-4.776 96.705-28.962 129.009-68.06 67.619-81.908 54.901-204.959-28.401-274.283-2.529-2.126-5.101-4.121-7.699-6.081-39.567-29.854-87.82-43.689-136.956-39.101-50.942 4.749-96.739 28.935-129.044 68.033Zm200.982-61.128c23.298 6.647 45.121 17.564 64.766 32.386a248.404 248.404 0 0 1 7.699 6.081c83.129 69.194 95.847 192.028 28.367 273.823-32.217 39.055-77.962 63.172-128.774 67.965-49.041 4.605-97.233-9.239-136.73-39.04a246.719 246.719 0 0 1-7.7-6.081C299.949 585.11 287.23 462.275 354.71 380.48c32.218-39.055 77.962-63.171 128.774-67.964 24.438-2.23 48.632-.02 71.965 6.653Z" fill="url(#h)"/><path d="M331.79 413.388c-28.426 50.835-35.402 108.391-19.663 162.037 11.623 39.554 34.695 73.279 66.778 97.485a186.045 186.045 0 0 0 24.562 15.65c95.794 51.066 219.464 10.742 275.743-89.948 28.426-50.835 35.403-108.391 19.664-162.037-11.641-39.676-34.939-73.462-66.779-97.485-7.691-5.804-15.896-11.07-24.562-15.65-95.785-51.005-219.456-10.681-275.743 89.948Zm300.079-73.925c32.013 24.154 55.042 57.792 66.623 97.259 15.695 53.559 8.728 110.959-19.646 161.724-56.157 100.456-179.618 140.719-275.213 89.75-8.64-4.615-16.836-9.821-24.528-15.624-31.77-23.971-55.025-57.671-66.622-97.259-15.696-53.559-8.729-110.959 19.645-161.724 56.191-100.43 179.619-140.719 275.213-89.75a185.882 185.882 0 0 1 24.528 15.624Z" fill="url(#i)"/><path d="M689.141 381.805c-12.483-24.049-29.608-44.313-50.222-59.866-17.046-12.862-36.521-22.497-57.695-28.357-105.683-29.265-225.658 42.238-267.423 159.371-21.717 60.902-18.748 125.525 8.092 177.268 12.44 23.962 29.331 44.103 50.223 59.866 17.219 12.992 36.65 22.541 57.694 28.357 105.683 29.265 225.658-42.238 267.423-159.371 21.691-60.867 18.748-125.526-8.092-177.268ZM429.907 718.027c-21.14-5.834-40.519-15.451-57.53-28.287-20.546-15.501-37.636-35.738-50.076-59.701-26.797-51.655-29.714-116.131-8.075-176.929 41.704-116.907 161.418-188.28 266.875-159.077 20.984 5.825 40.346 15.321 57.53 28.287 20.823 15.711 37.644 35.8 50.076 59.701 26.797 51.656 29.714 116.132 8.041 176.903-41.669 116.934-161.384 188.307-266.841 159.103Z" fill="url(#j)"/><path d="M709.413 514.091c13.017-69.696-.931-136.62-38.342-183.557-8.868-11.096-18.815-20.832-29.729-29.066-26.123-19.71-57.593-30.945-91.637-32.265-112.419-4.434-223.719 98.198-248.11 228.767-13.016 69.695.957 136.586 38.342 183.557 8.764 11.018 18.78 20.805 29.729 29.066 26.227 19.789 57.906 30.963 91.637 32.265 112.419 4.434 223.745-98.233 248.11-228.767ZM461.321 742.328c-33.922-1.337-65.288-12.493-91.342-32.151-10.879-8.209-20.852-17.909-29.651-28.953-37.298-46.798-51.22-113.54-38.247-183.106 24.39-130.351 135.438-232.793 247.606-228.385 48.124 1.882 91.101 23.594 120.967 61.139 37.298 46.797 51.22 113.54 38.247 183.105-24.364 130.317-135.412 232.759-247.58 228.351Z" fill="url(#k)"/><path d="M296.087 547.223c-2.47 75.315 22.508 140.936 68.457 180.064a163.69 163.69 0 0 0 7.188 5.75c35.201 26.559 79.802 36.226 125.53 27.216 115.422-22.724 213.047-155.255 217.625-295.442 2.47-75.314-22.508-140.935-68.457-180.064a164.433 164.433 0 0 0-7.188-5.75c-35.305-26.637-79.498-36.268-125.53-27.216C398.324 274.532 300.7 407.062 296.087 547.223Zm284.284-294.587c21.342 4.627 40.983 13.68 58.514 26.908a161.3 161.3 0 0 1 7.154 5.724c45.836 38.989 70.701 104.47 68.232 179.568-4.56 139.874-101.976 272.127-217.121 294.844-45.849 9.026-89.886-.595-125.053-27.129a162.151 162.151 0 0 1-7.153-5.724c-45.836-38.989-70.702-104.47-68.233-179.567 4.56-139.875 101.976-272.128 217.121-294.845 22.82-4.483 45.223-4.44 66.539.221Z" fill="url(#l)"/><path d="M633.393 256.31a151.26 151.26 0 0 0-16.651-10.932c-42.348-24.065-92.912-25.014-142.418-2.756-114.247 51.404-193.279 211.343-176.117 356.566 8.088 68.432 36.273 124.017 79.408 156.563a150.917 150.917 0 0 0 16.651 10.932c42.374 24.03 92.973 25.005 142.444 2.721C650.957 718 729.989 558.062 712.827 412.838c-8.088-68.432-36.68-124.27-79.434-156.528Zm-96.985 512.486c-49.272 22.162-99.68 21.222-141.819-2.686-5.754-3.253-11.255-6.915-16.556-10.914-42.615-32.154-71.061-87.826-79.123-156.076-17.119-144.919 61.739-304.554 175.725-355.828 49.272-22.163 99.68-21.223 141.819 2.685a149.374 149.374 0 0 1 16.582 10.88c21.273 16.05 38.941 37.757 52.52 64.536 13.656 26.893 22.593 57.675 26.603 91.539 17.059 144.928-61.765 304.589-175.751 355.864Z" fill="url(#m)"/><path d="M702.613 359.935c-15.137-54.879-42.751-98.448-78.264-125.243-12.784-9.646-26.632-17.157-41.31-22.194-48.212-16.633-101.657-5.887-150.388 30.281-108.604 80.572-164.333 264.185-124.23 409.312 15.112 54.696 42.197 98.03 78.264 125.243 12.889 9.724 26.763 17.201 41.311 22.194 48.246 16.66 101.657 5.887 150.388-30.281 108.578-80.538 164.306-264.15 124.229-409.312ZM577.865 768.638c-48.505 36.012-101.682 46.689-149.66 30.178-14.582-5.019-28.361-12.478-41.076-22.072-35.409-26.716-62.849-70.155-77.961-124.851-40-144.832 15.624-328.088 123.976-408.47 48.505-36.012 101.681-46.69 149.659-30.179 14.452 4.976 28.257 12.401 41.076 22.073 17.705 13.358 33.387 30.847 46.631 51.935 13.331 21.263 23.87 45.802 31.357 72.881C741.84 505 686.242 688.221 577.865 768.638Z" fill="url(#n)"/><path d="M390.165 253.038c-98.266 109.204-126.593 311.478-63.086 450.986 18.148 39.908 41.712 70.958 70.018 92.315 20.927 15.79 43.879 25.711 68.165 29.458 54.079 8.333 109.332-15.354 155.616-66.748 98.266-109.203 126.593-311.478 63.086-450.986-18.182-39.934-42.093-71.245-70.018-92.315-20.754-15.659-43.689-25.675-68.165-29.458-54.114-8.359-109.367 15.328-155.616 66.748Zm223.259-36.596c28.202 21.278 51.654 52.19 69.749 91.95 63.37 139.186 35.113 341.078-62.97 450.039-46.067 51.177-101.025 74.76-154.818 66.48-24.32-3.773-47.151-13.711-67.766-29.265-27.821-20.992-51.645-52.129-69.749-91.95-63.37-139.187-35.113-341.079 62.97-450.04 46.067-51.177 101.025-74.76 154.817-66.48 24.156 3.704 46.944 13.555 67.767 29.266Z" fill="url(#o)"/><path d="M656.839 259.152c-16.266-24.075-34.615-43.794-54.329-58.668-29.969-22.612-63.191-34.19-97.526-33.391-59.627 1.35-115.234 39.292-156.592 106.804-83.307 136.099-80.715 350.988 5.777 479.012 16.153 23.936 34.442 43.663 54.329 58.668 30.42 22.952 63.217 34.155 97.526 33.39 59.628-1.35 115.234-39.292 156.592-106.803 83.308-136.099 80.715-350.989-5.777-479.012Zm-150.83 584.825c-34.092.765-67.149-10.743-96.945-33.224-19.645-14.822-37.916-34.428-54.113-58.451-86.258-127.684-88.843-342.078-5.744-477.899 41.149-67.234 96.469-105.012 155.758-106.345 16.92-.396 33.772 2.257 50.08 7.871 16.177 5.571 31.967 14.112 46.83 25.327 19.818 14.952 38.002 34.601 54.113 58.45 86.292 127.71 88.878 342.104 5.753 477.961-41.088 67.225-96.443 104.976-155.732 106.31Z" fill="url(#p)"/><path d="M621.53 215.487c-9.15-9.351-18.589-17.669-28.29-24.989-41.714-31.474-87.802-43.784-132.662-34.773-63.48 12.748-118.734 67.327-151.588 149.739-63.823 160.156-27.76 380.446 80.454 491.084 9.046 9.272 18.588 17.669 28.289 24.988 42.061 31.735 87.924 43.768 132.663 34.774 63.479-12.748 118.733-67.327 151.587-149.74 63.823-160.155 27.76-380.446-80.453-491.083Zm-71.34 639.797c-44.531 8.934-90.332-3.324-131.804-34.615-9.632-7.267-19.036-15.559-28.151-24.884-107.954-110.333-143.914-330.111-80.23-489.936 32.714-82.083 87.69-136.437 150.813-149.073 44.409-8.916 89.986 3.063 131.804 34.616 9.632 7.267 19.114 15.672 28.151 24.883 107.954 110.333 143.914 330.111 80.231 489.937-32.749 82.056-87.725 136.41-150.814 149.072Z" fill="url(#q)"/><path d="M412.663 153.566c-66.66 26.284-117.3 96.963-138.942 193.926-39.243 175.71 26.117 385.799 148.801 478.364a273.542 273.542 0 0 0 9.753 7.033c54.395 37.289 113.383 46.388 166.01 25.615 66.66-26.284 117.3-96.963 138.942-193.926C776.435 489.059 709.931 277.89 588.46 186.24a274.51 274.51 0 0 0-9.753-7.033c-54.43-37.315-113.357-46.423-166.044-25.641Zm323.445 510.766c-21.546 96.546-71.916 166.939-138.194 193.076-52.097 20.575-110.443 11.634-164.423-25.124l-.304.477-1.066-.749.305-.477C305.471 744.068 234.824 527.216 274.9 347.73c21.546-96.547 71.916-166.94 138.194-193.077 52.305-20.635 110.885-11.571 164.969 25.482 127.294 87.233 198.174 304.423 158.045 484.197Z" fill="url(#r)"/><path d="M590.124 187.277c-19.298-14.561-39.608-26.404-60.777-35.088-59.786-24.495-117.831-20.918-167.895 10.382-67.217 41.964-109.901 128.272-117.175 236.675-10.922 163.846 61.685 338.828 176.608 425.538 19.575 14.77 40.033 26.562 60.777 35.088 59.786 24.495 117.831 20.918 167.869-10.347 67.217-41.964 109.901-128.272 117.14-236.701 11.162-166.33-64.673-341.138-176.547-425.547Zm58.785 661.125c-49.7 31.032-107.345 34.584-166.733 10.281-21.099-8.631-41.375-20.449-60.569-34.931-111.527-84.148-187.138-258.46-176.046-424.408 7.204-108.02 49.696-193.929 116.539-235.685 49.7-31.032 107.345-34.584 166.733-10.281 20.674 8.474 41.098 20.24 60.604 34.957 27.509 20.756 53.114 47.146 76.131 78.491 22.593 30.752 42.054 65.451 57.864 103.051 15.922 37.957 27.675 77.772 34.862 118.385 7.445 42.003 9.857 83.908 7.128 124.489-7.178 107.986-49.67 193.895-116.513 235.651Z" fill="url(#s)"/><path d="M788.742 552.461c-12.249-146.411-88.498-284.002-188.35-359.34-39.081-29.487-81.75-49.444-125.636-56.667-63.454-10.456-121.208 6.448-166.994 48.808-63.967 59.155-95.125 159.164-85.495 274.337 11.81 140.859 85.726 281.911 188.383 359.367 40.26 30.376 82.332 49.393 124.969 56.544l.123-.669 1.301.221-.123.668c63.203 10.213 120.679-6.684 166.335-48.871 63.958-59.215 95.117-159.224 85.487-274.398ZM536.49 874.209c-21.466-3.524-43.133-10.245-64.378-19.91-20.646-9.378-41.085-21.699-60.73-36.521l-.035-.026c-49.648-37.461-93.423-90.232-126.616-152.588-34.084-64.06-55.223-135.215-61.128-205.753-9.561-114.687 21.44-214.27 85.076-273.13 45.456-42.066 102.828-58.824 165.805-48.455 21.466 3.524 43.098 10.219 64.377 19.91 20.681 9.403 41.086 21.699 60.731 36.521 49.648 37.46 93.423 90.232 126.616 152.587 34.083 64.061 55.223 135.215 61.128 205.753 9.605 114.774-21.371 214.323-85.033 273.218-45.465 42.004-102.802 58.788-165.813 48.394Z" fill="url(#t)"/><path d="M801.805 485.085c-28.114-117.535-96.757-219.473-180.948-282.996-62.883-47.446-134.474-73.506-204.288-68.582-66.498 4.705-122.862 36.147-163.002 90.925-55.92 76.322-72.1 186.599-44.338 302.509 27.152 113.545 93.145 216.693 180.974 282.961 64.859 48.936 137.417 73.278 204.288 68.583 66.472-4.671 122.837-36.113 163.003-90.926 55.893-76.288 72.047-186.529 44.311-302.474ZM595.024 876.983l.042.738-1.32.093-.041-.739c-69.292 4.664-140.268-21.203-202.666-68.283-83.914-63.314-152.358-164.938-180.395-282.143-27.641-115.493-11.549-225.292 44.109-301.267 39.879-54.432 95.87-85.666 161.882-90.303 34.017-2.398 69.094 2.529 104.275 14.606 33.977 11.658 67.306 29.734 99.042 53.679 41.992 31.683 80.412 73.453 111.14 120.895a523.592 523.592 0 0 1 41.022 76.638c11.868 27.393 21.348 55.866 28.206 84.645 27.642 115.493 11.55 225.292-44.109 301.267-39.731 54.163-95.478 85.363-161.187 90.174Z" fill="url(#u)"/><path d="M808.773 729.6c42.765-91.251 41.257-206.823-4.131-316.996C770.204 329.022 714.824 259.336 650 210.426c-89.735-67.706-197.589-95.672-293.332-65.823-67.837 21.208-122.705 70.15-154.432 137.857-42.765 91.251-41.292 206.798 4.131 316.997 33.446 81.147 86.908 151.072 154.642 202.177 93.545 70.581 200.194 94.593 292.707 66.004l-.233-.774 1.25-.362.233.774c67.568-21.356 122.202-70.203 153.807-137.676ZM653.841 865.884c-23.356 7.287-48.015 11.254-73.247 11.796-24.495.5-49.72-2.216-74.929-8.128-24.758-5.79-49.605-14.639-73.795-26.309-24.085-11.591-47.574-25.996-69.852-42.805-32.776-24.729-62.512-54.291-88.44-87.831-26.801-34.689-48.934-72.982-65.717-113.764-45.242-109.79-46.743-224.867-4.169-315.719 31.962-68.237 85.039-115.593 153.476-136.947 23.356-7.288 48.015-11.254 73.247-11.796 24.495-.501 49.72 2.215 74.929 8.128 24.758 5.79 49.605 14.638 73.794 26.308 24.086 11.592 47.575 25.997 69.853 42.805 32.776 24.73 62.538 54.256 88.439 87.831 26.801 34.69 48.935 72.982 65.718 113.764 45.207 109.764 46.734 224.807 4.161 315.659-31.989 68.271-85.032 115.653-153.468 137.008Z" fill="url(#v)"/><path d="M796.292 337.447c-30.905-49.805-69.733-91.611-113.076-124.313-117.66-88.775-268.711-110.446-385.876-42.534-69.068 40.023-118.364 107.255-138.853 189.262-25.358 101.611-4.855 216.34 56.264 314.777 30.223 48.693 68.244 90.487 113.042 124.288 121.228 91.467 272.698 108.179 385.875 42.533 69.069-40.022 118.365-107.255 138.854-189.261 25.357-101.611 4.855-216.341-56.23-314.752Zm-83.488 502.491c-116.53 67.575-266.862 45.958-383.967-42.399-43.204-32.598-81.85-74.211-112.643-123.878-60.878-98.037-81.286-212.314-56.042-313.413 20.366-81.555 69.349-148.372 138.018-188.152 56.349-32.649 122.658-45.547 191.817-37.258 67.328 8.05 133.771 35.61 192.15 79.657 44.625 33.67 82.568 75.352 112.643 123.878 60.878 98.037 81.286 212.315 56.042 313.414-20.366 81.555-69.349 148.371-138.018 188.151Z" fill="url(#w)"/><path d="M883.791 541.723c1.107-101.797-37.174-201.06-107.735-279.59-18.79-20.866-39.146-39.434-60.627-55.641C569.81 96.621 370.794 94.509 240.781 211.685c-72.293 65.165-112.682 157.012-113.772 258.713-1.098 101.641 37.244 200.895 107.944 279.529 18.46 20.51 38.842 39.26 60.6 55.677 147.698 111.439 347.001 109.416 474.153-4.751l-.623-.688.965-.849.623.687c71.841-65.07 112.004-156.762 113.12-258.28ZM768.947 798.974c-31.621 28.519-67.939 50.502-107.979 65.38-38.661 14.342-79.812 21.745-122.319 21.927-42.133.191-84.268-6.69-125.233-20.466-41.745-14.038-81.028-34.812-116.714-61.738l-.035-.026c-21.689-16.364-41.993-35.001-60.349-55.432-70.371-78.278-108.558-177.088-107.486-278.26 1.175-101.093 41.346-192.506 113.195-257.299 31.621-28.518 67.938-50.502 107.979-65.379 38.66-14.342 79.812-21.746 122.318-21.927 42.134-.191 84.268 6.69 125.233 20.466 41.746 14.038 81.029 34.812 116.715 61.737 21.689 16.365 41.993 35.002 60.349 55.433 145.286 161.56 142.736 401.831-5.674 535.584Z" fill="url(#x)"/><path d="M743.605 189.624c-174.237-131.463-422.784-96.488-554.082 77.97-131.297 174.457-96.366 423.319 77.872 554.782 174.237 131.463 422.784 96.488 554.082-77.97 131.297-174.457 96.366-423.319-77.872-554.782ZM268.569 820.815C95.233 690.031 60.472 442.387 191.117 268.796c130.645-173.59 377.951-208.36 551.287-77.576 173.337 130.783 208.097 378.428 77.479 551.984-130.619 173.556-377.942 208.421-551.314 77.611Z" fill="url(#y)"/></g><defs><linearGradient id="b" x1="256.148" y1="198.22" x2="806.303" y2="228.45" gradientUnits="userSpaceOnUse"><stop offset=".026" stop-color="#1AECDF"/><stop offset=".469" stop-color="#14FD55"/><stop offset="1" stop-color="#0BB913"/></linearGradient><linearGradient id="d" x1="255.148" y1="198.22" x2="805.303" y2="228.45" gradientUnits="userSpaceOnUse"><stop offset=".026" stop-color="#1AECDF"/><stop offset=".469" stop-color="#14FD55"/><stop offset="1" stop-color="#0BB913"/></linearGradient><linearGradient id="e" x1="189.513" y1="267.608" x2="822.072" y2="743.674" gradientUnits="userSpaceOnUse"><stop stop-color="#3DDEED"/><stop offset=".997" stop-color="#3EE046"/></linearGradient><linearGradient id="f" x1="189.513" y1="267.608" x2="822.072" y2="743.674" gradientUnits="userSpaceOnUse"><stop stop-color="#3DDEED"/><stop offset=".997" stop-color="#3EE046"/></linearGradient><linearGradient id="g" x1="189.513" y1="267.608" x2="822.072" y2="743.674" gradientUnits="userSpaceOnUse"><stop stop-color="#3DDEED"/><stop offset=".997" stop-color="#3EE046"/></linearGradient><linearGradient id="h" x1="189.513" y1="267.608" x2="822.072" y2="743.674" gradientUnits="userSpaceOnUse"><stop stop-color="#3DDEED"/><stop offset=".997" stop-color="#3EE046"/></linearGradient><linearGradient id="i" x1="189.513" y1="267.608" x2="822.072" y2="743.674" gradientUnits="userSpaceOnUse"><stop stop-color="#3DDEED"/><stop offset=".997" stop-color="#3EE046"/></linearGradient><linearGradient id="j" x1="189.513" y1="267.608" x2="822.072" y2="743.674" gradientUnits="userSpaceOnUse"><stop stop-color="#3DDEED"/><stop offset=".997" stop-color="#3EE046"/></linearGradient><linearGradient id="k" x1="189.513" y1="267.608" x2="822.072" y2="743.674" gradientUnits="userSpaceOnUse"><stop stop-color="#3DDEED"/><stop offset=".997" stop-color="#3EE046"/></linearGradient><linearGradient id="l" x1="189.513" y1="267.608" x2="822.072" y2="743.674" gradientUnits="userSpaceOnUse"><stop stop-color="#3DDEED"/><stop offset=".997" stop-color="#3EE046"/></linearGradient><linearGradient id="m" x1="189.513" y1="267.608" x2="822.072" y2="743.674" gradientUnits="userSpaceOnUse"><stop stop-color="#3DDEED"/><stop offset=".997" stop-color="#3EE046"/></linearGradient><linearGradient id="n" x1="189.513" y1="267.608" x2="822.072" y2="743.674" gradientUnits="userSpaceOnUse"><stop stop-color="#3DDEED"/><stop offset=".997" stop-color="#3EE046"/></linearGradient><linearGradient id="o" x1="189.513" y1="267.608" x2="822.072" y2="743.674" gradientUnits="userSpaceOnUse"><stop stop-color="#3DDEED"/><stop offset=".997" stop-color="#3EE046"/></linearGradient><linearGradient id="p" x1="189.513" y1="267.608" x2="822.072" y2="743.674" gradientUnits="userSpaceOnUse"><stop stop-color="#3DDEED"/><stop offset=".997" stop-color="#3EE046"/></linearGradient><linearGradient id="q" x1="189.513" y1="267.608" x2="822.072" y2="743.674" gradientUnits="userSpaceOnUse"><stop stop-color="#3DDEED"/><stop offset=".997" stop-color="#3EE046"/></linearGradient><linearGradient id="r" x1="189.513" y1="267.608" x2="822.072" y2="743.674" gradientUnits="userSpaceOnUse"><stop stop-color="#3DDEED"/><stop offset=".997" stop-color="#3EE046"/></linearGradient><linearGradient id="s" x1="189.513" y1="267.608" x2="822.072" y2="743.674" gradientUnits="userSpaceOnUse"><stop stop-color="#3DDEED"/><stop offset=".997" stop-color="#3EE046"/></linearGradient><linearGradient id="t" x1="189.513" y1="267.608" x2="822.072" y2="743.674" gradientUnits="userSpaceOnUse"><stop stop-color="#3DDEED"/><stop offset=".997" stop-color="#3EE046"/></linearGradient><linearGradient id="u" x1="189.513" y1="267.608" x2="822.072" y2="743.674" gradientUnits="userSpaceOnUse"><stop stop-color="#3DDEED"/><stop offset=".997" stop-color="#3EE046"/></linearGradient><linearGradient id="v" x1="189.513" y1="267.608" x2="822.072" y2="743.674" gradientUnits="userSpaceOnUse"><stop stop-color="#3DDEED"/><stop offset=".997" stop-color="#3EE046"/></linearGradient><linearGradient id="w" x1="189.513" y1="267.608" x2="822.072" y2="743.674" gradientUnits="userSpaceOnUse"><stop stop-color="#3DDEED"/><stop offset=".997" stop-color="#3EE046"/></linearGradient><linearGradient id="x" x1="189.513" y1="267.608" x2="822.072" y2="743.674" gradientUnits="userSpaceOnUse"><stop stop-color="#3DDEED"/><stop offset=".997" stop-color="#3EE046"/></linearGradient><linearGradient id="y" x1="189.513" y1="267.608" x2="822.072" y2="743.674" gradientUnits="userSpaceOnUse"><stop stop-color="#3DDEED"/><stop offset=".997" stop-color="#3EE046"/></linearGradient><filter id="a" x="0" y="0" width="1009" height="1012" filterUnits="userSpaceOnUse" color-interpolation-filters="sRGB"><feFlood flood-opacity="0" result="BackgroundImageFix"/><feBlend in="SourceGraphic" in2="BackgroundImageFix" result="shape"/><feGaussianBlur stdDeviation="55" result="effect1_foregroundBlur_1895_154"/></filter><filter id="c" x="59" y="60" width="889" height="892" filterUnits="userSpaceOnUse" color-interpolation-filters="sRGB"><feFlood flood-opacity="0" result="BackgroundImageFix"/><feBlend in="SourceGraphic" in2="BackgroundImageFix" result="shape"/><feGaussianBlur stdDeviation="25" result="effect1_foregroundBlur_1895_154"/></filter></defs></svg>